<svg width="546" height="1020" viewBox="0 0 546 1020" fill="none" xmlns="http://www.w3.org/2000/svg">
<path d="M-262.861 527.128L90.7619 1013.7L538.315 688.429L191.445 196.953L-262.861 527.128Z" fill="#7B9B9E"/>
<path d="M-384.992 314.907L-262.861 527.128L191.445 196.953L29.5479 13.6323L-384.992 314.907Z" fill="#7B9B9E"/>
<path d="M-262.861 527.128L-384.992 314.907L29.5479 13.6323L191.445 196.953M-262.861 527.128L90.7619 1013.7L538.315 688.429L191.445 196.953M-262.861 527.128L191.445 196.953" stroke="#A33631" stroke-width="8"/>
<path d="M-17.7129 521.527L1.08362 507.867" stroke="#A33631" stroke-width="7"/>
<path d="M96.5762 441.904L113.083 429.908" stroke="#A33631" stroke-width="7"/>
<path d="M62.9395 435.962L125.642 390.392L136.548 405.398" stroke="#A33631" stroke-width="7"/>
<path d="M-45.6699 537.259L-57.1211 521.503L8.98123 473.462" stroke="#A33631" stroke-width="7"/>
<path d="M-45.2286 538.655L-167.902 627.811L87.84 979.7L509.132 673.518L253.39 321.629L137.094 406.149" stroke="#A33631" stroke-width="7"/>
<path d="M-10.8143 816.346L-3.87899 774.615" stroke="#F9E9CC" stroke-width="6"/>
<path d="M80.6249 821.362L78.0592 779.67" stroke="#F9E9CC" stroke-width="6"/>
<path d="M164.956 800.694L153.58 761.655" stroke="#F9E9CC" stroke-width="6"/>
<path d="M247.252 758.745L223.85 725.49" stroke="#F9E9CC" stroke-width="6"/>
<path d="M371.381 625.192L335.126 606.779" stroke="#F9E9CC" stroke-width="6"/>
<path d="M397.748 542.786L362.736 532.824" stroke="#F9E9CC" stroke-width="6"/>
<path d="M383.288 556.299L359.138 548.053" stroke="#F9E9CC" stroke-width="6"/>
<path d="M372.644 587.56L348.786 578.504" stroke="#F9E9CC" stroke-width="6"/>
<path d="M349.607 634.698L327.986 621.142" stroke="#F9E9CC" stroke-width="6"/>
<path d="M340.11 649.134L319.339 634.308" stroke="#F9E9CC" stroke-width="6"/>
<path d="M329.827 663.787L309.541 648.305" stroke="#F9E9CC" stroke-width="6"/>
<path d="M317.6 677.731L298.239 661.105" stroke="#F9E9CC" stroke-width="6"/>
<path d="M291.456 704.381L275.017 684.863" stroke="#F9E9CC" stroke-width="6"/>
<path d="M278.091 715.315L262.618 695.021" stroke="#F9E9CC" stroke-width="6"/>
<path d="M264.382 726.425L248.909 706.132" stroke="#F9E9CC" stroke-width="6"/>
<path d="M251.628 735.697L236.155 715.403" stroke="#F9E9CC" stroke-width="6"/>
<path d="M225.978 755.455L211.95 734.138" stroke="#F9E9CC" stroke-width="6"/>
<path d="M209.941 765.555L197.999 743.002" stroke="#F9E9CC" stroke-width="6"/>
<path d="M193.106 773.608L183.836 749.832" stroke="#F9E9CC" stroke-width="6"/>
<path d="M176.984 780.58L168.58 756.484" stroke="#F9E9CC" stroke-width="6"/>
<path d="M146.237 791.937L139.464 766.755" stroke="#F9E9CC" stroke-width="6"/>
<path d="M128.071 796.609L122.348 771.739" stroke="#F9E9CC" stroke-width="6"/>
<path d="M111.785 800.874L107.377 775.738" stroke="#F9E9CC" stroke-width="6"/>
<path d="M95.522 803.804L92.6031 778.452" stroke="#F9E9CC" stroke-width="6"/>
<path d="M59.4779 805.69L60.2464 780.183" stroke="#F9E9CC" stroke-width="6"/>
<path d="M44.4759 803.979L45.2444 778.472" stroke="#F9E9CC" stroke-width="6"/>
<path d="M27.0909 802.572L28.2292 777.079" stroke="#F9E9CC" stroke-width="6"/>
<path d="M8.47181 801.698L11.5553 776.366" stroke="#F9E9CC" stroke-width="6"/>
<path d="M377.487 571.98L353.337 563.733" stroke="#F9E9CC" stroke-width="6"/>
<path d="M365.846 603.779L342.552 593.357" stroke="#F9E9CC" stroke-width="6"/>
<path d="M315.337 700.77L287.163 671.45" stroke="#F9E9CC" stroke-width="6"/>
<path d="M1.72586 751.653C0.366855 752.641 -1.21581 752.984 -3.02213 752.681C-4.80958 752.365 -6.57629 751.601 -8.32227 750.389C-10.0631 749.145 -11.5302 747.702 -12.7237 746.06C-13.9171 744.417 -14.83 742.586 -15.4624 740.565C-16.0896 738.511 -16.2776 736.585 -16.0266 734.788C-15.7567 732.976 -14.9422 731.577 -13.5832 730.589C-12.2242 729.601 -10.651 729.265 -8.86351 729.582C-7.05719 729.884 -5.28362 730.658 -3.54279 731.902C-1.79681 733.114 -0.327099 734.541 0.866348 736.183C2.05979 737.825 2.97012 739.673 3.59731 741.726C4.22967 743.747 4.41088 745.664 4.14094 747.475C3.88989 749.273 3.08486 750.666 1.72586 751.653ZM1.0674 750.747C1.76578 750.24 1.99161 749.499 1.7449 748.524C1.50335 747.517 1.0602 746.57 0.415468 745.683L-8.30904 733.679C-8.95378 732.791 -9.71094 732.087 -10.5805 731.565C-11.445 731.011 -12.2264 730.987 -12.9247 731.495C-13.6231 732.002 -13.8515 732.76 -13.61 733.767C-13.3633 734.741 -12.9175 735.672 -12.2728 736.559L-3.54829 748.564C-2.90355 749.451 -2.14897 750.172 -1.28454 750.726C-0.414954 751.248 0.369028 751.255 1.0674 750.747Z" fill="#F9E9CC"/>
<path d="M81.4758 850.995L83.5143 849.513C83.7786 849.321 83.9236 849.144 83.9494 848.981C83.9615 848.799 83.8783 848.585 83.7 848.34L72.4445 832.853L69.7265 834.828L68.9858 833.809L70.0333 833.048C70.8638 832.444 71.498 831.709 71.9357 830.843C72.3923 829.963 72.5033 829.104 72.2685 828.265L74.3919 826.721L87.8902 845.294C88.0686 845.54 88.2461 845.685 88.4228 845.729C88.6046 845.742 88.8182 845.658 89.0636 845.48L91.1021 843.999L91.7605 844.905L82.1343 851.901L81.4758 850.995Z" fill="#F9E9CC"/>
<path d="M178.462 829.595C177.254 830.473 175.519 830.666 173.259 830.174C172.612 830.039 172.111 829.984 171.756 830.012C171.406 830.007 171.061 830.127 170.721 830.374C170.457 830.566 170.302 830.809 170.255 831.102C170.195 831.377 170.268 831.656 170.474 831.939L171.791 833.751L170.658 834.574L169.691 833.243C169.156 832.507 168.721 831.77 168.387 831.032C168.058 830.262 167.842 829.251 167.74 827.998C167.623 826.727 167.735 825.174 168.076 823.341C168.48 820.999 168.661 819.007 168.621 817.363C168.566 815.701 168.066 814.219 167.119 812.916C166.351 811.859 165.489 811.13 164.534 810.728C163.578 810.326 162.582 810.503 161.544 811.257C160.826 811.778 160.394 812.453 160.246 813.282C160.103 814.078 160.258 814.787 160.711 815.41C161.26 816.165 161.936 816.539 162.738 816.533C163.373 816.533 163.904 816.609 164.331 816.76C164.763 816.878 165.137 817.155 165.453 817.589C165.81 818.079 165.925 818.616 165.8 819.197C165.674 819.779 165.338 820.268 164.791 820.666C163.979 821.256 163.058 821.478 162.029 821.332C161.019 821.172 160.157 820.601 159.444 819.62C158.717 818.619 158.316 817.512 158.24 816.297C158.171 815.05 158.42 813.845 158.988 812.682C159.575 811.505 160.435 810.505 161.567 809.682C163.644 808.173 165.569 807.509 167.345 807.69C169.107 807.852 170.557 808.716 171.695 810.283C172.477 811.359 172.844 812.578 172.796 813.94C172.766 815.288 172.503 816.633 172.007 817.974C171.516 819.283 170.825 820.852 169.934 822.683C169.451 823.725 169.105 824.857 168.896 826.076C168.686 827.296 168.806 828.493 169.255 829.666L169.409 829.64C169.691 828.599 170.256 827.77 171.106 827.153C171.445 826.906 171.886 826.658 172.426 826.409C172.985 826.147 173.467 825.956 173.87 825.836C175.033 825.452 176.002 824.979 176.775 824.417C177.455 823.923 177.877 823.313 178.042 822.587C178.193 821.843 178.07 821.197 177.672 820.65C177.274 820.102 176.768 819.504 176.152 818.856L177.03 818.218C177.733 818.947 178.324 819.642 178.805 820.303C179.504 821.265 180.023 822.316 180.36 823.455C180.703 824.562 180.745 825.671 180.485 826.783C180.212 827.875 179.538 828.813 178.462 829.595Z" fill="#F9E9CC"/>
<path d="M261.368 787.689C259.744 788.869 258.116 789.446 256.483 789.422C254.855 789.365 253.547 788.657 252.56 787.298C251.997 786.524 251.765 785.669 251.863 784.732C251.966 783.763 252.405 782.997 253.179 782.434C253.821 781.968 254.461 781.777 255.099 781.861C255.737 781.946 256.248 782.252 256.632 782.78C257.304 783.705 257.343 784.672 256.749 785.681C256.61 785.926 256.518 786.195 256.471 786.488C256.444 786.768 256.505 787.012 256.656 787.219C257.027 787.729 257.567 787.956 258.277 787.902C258.993 787.814 259.775 787.462 260.624 786.845C262.625 785.391 262.411 782.993 259.983 779.652C258.845 778.086 257.728 777.124 256.631 776.767C255.535 776.41 254.581 776.526 253.77 777.116L250.91 779.194L250.17 778.175L252.972 776.138C253.86 775.493 254.261 774.696 254.178 773.747C254.099 772.766 253.545 771.568 252.516 770.152C251.268 768.434 250.21 767.415 249.342 767.094C248.479 766.74 247.633 766.865 246.802 767.469C246.085 767.99 245.622 768.644 245.414 769.429C245.193 770.196 245.315 770.9 245.782 771.542C246.084 771.957 246.655 772.148 247.495 772.114C248.471 772.068 249.213 772.394 249.721 773.092C250.05 773.545 250.168 774.065 250.075 774.652C250.002 775.225 249.681 775.717 249.115 776.129C248.417 776.636 247.614 776.801 246.706 776.624C245.804 776.415 245.044 775.885 244.427 775.036C243.741 774.092 243.383 773.083 243.352 772.01C243.322 770.936 243.585 769.908 244.141 768.927C244.702 767.913 245.483 767.043 246.483 766.316C248.39 764.93 250.257 764.265 252.086 764.321C253.915 764.376 255.392 765.178 256.516 766.726C257.49 768.066 257.803 769.469 257.454 770.933C257.124 772.385 256.423 773.702 255.351 774.885L255.536 775.14C256.478 774.571 257.526 774.227 258.681 774.109C259.821 773.972 260.921 774.096 261.979 774.481C263.038 774.865 263.91 775.53 264.596 776.473C265.954 778.342 266.317 780.27 265.685 782.258C265.072 784.233 263.633 786.043 261.368 787.689Z" fill="#F9E9CC"/>
<path d="M328.88 727.373L331.598 725.398C331.862 725.206 332.007 725.028 332.033 724.866C332.045 724.684 331.962 724.47 331.784 724.225L328.738 720.034L322.509 724.561L321.748 723.514L319.482 704.739L322.455 702.578L332.188 715.97L335.245 713.748L335.986 714.767L332.928 716.989L335.974 721.179C336.152 721.425 336.33 721.57 336.506 721.614C336.688 721.626 336.902 721.543 337.147 721.365L339.186 719.883L339.844 720.789L329.538 728.279L328.88 727.373ZM323.184 722.513L327.997 719.015L321.742 710.408L323.184 722.513Z" fill="#F9E9CC"/>
<path d="M393.899 648.943C392.842 649.711 391.761 650.208 390.656 650.435C389.556 650.628 388.54 650.559 387.607 650.228C386.66 649.877 385.899 649.306 385.322 648.513C384.897 647.928 384.652 647.313 384.587 646.668C384.527 645.99 384.616 645.378 384.853 644.831C385.095 644.251 385.433 643.803 385.867 643.488C386.471 643.049 387.071 642.901 387.666 643.046C388.247 643.171 388.716 643.479 389.073 643.97C389.622 644.725 389.641 645.605 389.131 646.61C388.716 647.229 388.721 647.831 389.146 648.417C389.462 648.851 389.986 649.076 390.718 649.091C391.456 649.074 392.268 648.744 393.155 648.099C394.231 647.317 394.553 646.29 394.119 645.019C393.704 643.734 392.845 642.195 391.542 640.402C390.554 639.043 389.697 638.022 388.97 637.339C388.229 636.637 387.516 636.232 386.832 636.123C386.147 636.015 385.437 636.228 384.701 636.763C384.342 637.024 384.014 637.465 383.715 638.086C383.403 638.688 383.203 639.366 383.117 640.121C383.036 640.843 383.122 641.517 383.374 642.141L382.638 642.676L374.716 631.776L375.015 630.996C376.706 630.863 378.269 630.275 379.704 629.232C380.44 628.697 381.162 627.985 381.871 627.095C382.585 626.172 383.124 625.247 383.488 624.319L384.368 624.458C384.451 626.676 383.989 628.699 382.982 630.528C381.979 632.324 380.61 633.853 378.873 635.115L382.083 639.531L382.294 639.465C382.42 638.566 382.686 637.781 383.093 637.11C383.499 636.44 384.071 635.837 384.807 635.302C386.109 634.355 387.443 633.79 388.809 633.605C390.175 633.42 391.478 633.626 392.72 634.224C393.981 634.807 395.078 635.741 396.01 637.024C397.012 638.402 397.569 639.844 397.681 641.348C397.781 642.834 397.491 644.241 396.813 645.571C396.135 646.9 395.164 648.024 393.899 648.943Z" fill="#F9E9CC"/>
<path d="M337.985 531.35C336.589 532.365 335.042 532.797 333.345 532.645C331.668 532.48 329.99 531.839 328.313 530.722C326.654 529.59 325.16 528.109 323.829 526.279C322.252 524.108 321.161 521.973 320.558 519.873C319.974 517.759 319.921 515.821 320.4 514.06C320.88 512.298 321.903 510.848 323.469 509.709C324.356 509.065 325.258 508.698 326.174 508.609C327.076 508.501 327.901 508.623 328.647 508.975C329.412 509.313 330.034 509.813 330.514 510.473C331.104 511.285 331.369 512.145 331.309 513.055C331.248 513.964 330.841 514.693 330.086 515.241C329.519 515.653 328.934 515.819 328.328 515.74C327.728 515.628 327.222 515.289 326.81 514.723C326.179 513.855 326.179 512.961 326.808 512.042C327.09 511.635 327.277 511.297 327.37 511.028C327.462 510.759 327.433 510.52 327.283 510.313C327.008 509.935 326.584 509.768 326.009 509.811C325.434 509.853 324.798 510.128 324.099 510.636C323.042 511.404 322.588 512.426 322.737 513.703C322.905 514.965 323.448 516.229 324.367 517.494L327.31 521.542L327.541 521.504C327.624 520.982 327.856 520.468 328.237 519.96C328.604 519.434 329.061 518.971 329.609 518.574C331.496 517.202 333.307 516.737 335.041 517.178C336.794 517.606 338.302 518.688 339.564 520.425C340.346 521.5 340.867 522.694 341.127 524.004C341.393 525.283 341.28 526.576 340.789 527.885C340.317 529.18 339.382 530.335 337.985 531.35ZM337.299 530.465C337.94 529.998 338.245 529.445 338.213 528.805C338.185 528.133 337.963 527.429 337.544 526.695C337.112 525.942 336.457 524.961 335.579 523.753C334.468 522.224 333.438 521.084 332.487 520.332C331.542 519.548 330.721 519.409 330.022 519.917C329.003 520.658 328.593 521.562 328.792 522.629C328.863 523.125 329.104 523.714 329.514 524.397C329.924 525.08 330.526 525.969 331.322 527.063C332.57 528.781 333.676 529.925 334.638 530.495C335.6 531.064 336.487 531.054 337.299 530.465Z" fill="#F9E9CC"/>
<path d="M128.247 602.287C127.587 601.815 127.005 601.589 126.5 601.609C126.001 601.597 125.44 601.817 124.817 602.27L123.883 602.949L123.224 602.043L133.049 594.903L133.707 595.809L132.292 596.838C132.028 597.03 131.856 597.27 131.777 597.558C131.684 597.827 131.706 598.056 131.844 598.245C131.994 598.453 132.183 598.633 132.41 598.786L145.263 607.66L141.173 595.186C140.95 594.483 140.694 593.933 140.406 593.536C140.105 593.121 139.691 592.83 139.166 592.664C138.641 592.497 138.115 592.606 137.586 592.99L136.171 594.019L135.512 593.113L143.157 587.557L143.815 588.463L142.937 589.101C141.673 590.02 141.391 591.537 142.092 593.653L149.004 614.892L147.815 615.756L128.247 602.287Z" fill="#F9E9CC"/>
<path d="M117.539 459.347C137.214 486.418 129.959 525.683 100.689 546.955C71.4186 568.228 31.8322 563.006 12.1579 535.935C1.67486 521.511 -1.16385 503.688 2.88485 486.918C6.44654 472.166 15.3365 458.263 29.0085 448.326C42.6805 438.39 58.6491 434.227 73.7805 435.394C90.9809 436.72 107.056 444.923 117.539 459.347Z" stroke="#A33631" stroke-width="7"/>
<path d="M62.123 83.4043C74.6655 100.662 71.0013 124.795 52.8491 137.988C34.6138 151.241 9.77178 147.701 -2.71192 130.524C-15.2984 113.206 -11.7346 87.1651 6.35697 74.0168C24.3676 60.9272 49.4762 66.0028 62.123 83.4043Z" stroke="#F9E9CC" stroke-width="7"/>
<circle cx="79.1737" cy="174.21" r="22.0068" transform="rotate(-36.0085 79.1737 174.21)" stroke="#A33631" stroke-width="7"/>
<path d="M49.2655 91.717C57.7289 103.362 55.2767 119.427 43.9882 127.631C32.6997 135.835 16.6627 133.208 8.19936 121.563C-0.26401 109.917 2.18816 93.8528 13.4767 85.6486C24.7652 77.4445 40.8022 80.0718 49.2655 91.717Z" stroke="#F9E9CC" stroke-width="7"/>
<circle cx="10.2186" cy="416.95" r="22.0068" transform="rotate(-36.0085 10.2186 416.95)" stroke="#A33631" stroke-width="7"/>
<path d="M144.557 414.484C150.154 422.185 148.369 433.185 140.343 439.018C132.317 444.851 121.303 443.153 115.706 435.452C110.109 427.75 111.894 416.751 119.92 410.917C127.946 405.084 138.96 406.782 144.557 414.484Z" stroke="#A33631" stroke-width="7"/>
<path d="M80.0258 486.612C85.623 494.313 83.8376 505.313 75.8116 511.146C67.7856 516.979 56.7718 515.281 51.1746 507.58C45.5774 499.878 47.3627 488.878 55.3887 483.045C63.4148 477.212 74.4285 478.91 80.0258 486.612Z" stroke="#A33631" stroke-width="7"/>
<path d="M-10.7535 527.361C-5.15633 535.062 -6.94169 546.062 -14.9677 551.895C-22.9937 557.728 -34.0075 556.03 -39.6047 548.329C-45.2019 540.627 -43.4166 529.627 -35.3906 523.794C-27.3645 517.961 -16.3508 519.659 -10.7535 527.361Z" stroke="#A33631" stroke-width="7"/>
<rect x="-179.756" y="428.06" width="317.632" height="19.898" transform="rotate(-36.0085 -179.756 428.06)" stroke="#A33631" stroke-width="7"/>
<path d="M63.2734 515.985L79.8503 807.786" stroke="#A33631" stroke-width="7"/>
</svg>
