<svg width="283" height="527" viewBox="0 0 283 527" fill="none" xmlns="http://www.w3.org/2000/svg">
<path d="M166.177 20.2513C169.271 11.4669 277.756 48.7489 274.372 58.3571C206.988 44.2523 170.28 22.6254 166.177 20.2513Z" fill="#7B9B9E" stroke="#A33631" stroke-width="5"/>
<path d="M7.87815 477.377L167.48 24.2172C206.745 43.0597 230.843 51.7651 270.858 60.6816L111.255 513.845C109.841 514.25 107.79 514.515 105.013 514.507C101.309 514.496 96.7589 514.004 91.5998 513.085C81.292 511.249 68.9449 507.78 56.8112 503.468C44.6789 499.157 32.9 494.054 23.7133 489.004C19.1155 486.476 15.2504 484.007 12.3381 481.707C10.185 480.007 8.74509 478.548 7.87815 477.377Z" fill="#7B9B9E" stroke="#A33631" stroke-width="8"/>
<rect x="211.311" y="13.9268" width="33.7723" height="19.2153" rx="7" transform="rotate(19.4021 211.311 13.9268)" fill="#A33631"/>
<path d="M110.68 176.959C140.213 194.769 184.506 210.986 219.699 215.355" stroke="#A33631" stroke-width="8"/>
<path d="M122.412 257.003L121.249 260.304C121.094 260.744 121.067 261.071 121.169 261.283C121.302 261.507 121.573 261.691 121.982 261.835L150.279 271.801C150.719 271.956 151.045 271.982 151.258 271.88C151.47 271.778 151.654 271.507 151.809 271.067L152.972 267.766L154.481 268.298L145.146 294.802L134.105 291.231L134.637 289.722C134.857 289.8 135.625 289.876 136.942 289.951C138.247 290.057 139.492 289.983 140.677 289.729C142.19 289.449 143.474 288.965 144.529 288.276C145.584 287.588 146.317 286.662 146.726 285.498L148.553 280.311C148.697 279.902 148.724 279.576 148.633 279.332C148.531 279.119 148.26 278.935 147.82 278.78L134.804 274.196L133.957 276.601C133.658 277.45 133.727 278.358 134.164 279.325C134.601 280.291 135.25 281.156 136.113 281.919C136.995 282.725 137.892 283.288 138.804 283.609L138.273 285.119L123.511 279.92L124.043 278.411C124.986 278.743 126.038 278.866 127.199 278.78C128.381 278.737 129.445 278.475 130.391 277.996C131.337 277.516 131.96 276.852 132.259 276.003L133.106 273.598L119.524 268.814C119.115 268.67 118.789 268.644 118.545 268.735C118.321 268.868 118.137 269.139 117.993 269.548L116.183 274.688C115.574 276.417 115.756 278.107 116.73 279.758C117.704 281.408 118.934 282.831 120.422 284.026C121.056 284.533 121.875 285.068 122.877 285.633C123.88 286.199 124.548 286.558 124.883 286.711L124.352 288.22L111.435 283.353L120.903 256.471L122.412 257.003ZM131.226 304.977L131.292 304.788L113.324 298.46C111.878 297.95 110.505 298.085 109.205 298.865C107.895 299.675 106.935 300.945 106.326 302.675L104.817 302.143L109.667 288.372L111.176 288.904C110.567 290.633 110.525 292.208 111.049 293.63C111.562 295.083 112.542 296.064 113.988 296.573L134.126 303.666C134.472 303.788 134.734 303.845 134.914 303.837C135.093 303.83 135.378 303.771 135.77 303.662L139.264 302.772C139.847 302.624 140.283 302.389 140.573 302.067C140.895 301.756 141.183 301.239 141.437 300.516L141.736 299.667L143.245 300.198L139.558 310.668L112.691 318.169L127.829 323.5C129.275 324.01 130.654 323.859 131.964 323.048C133.263 322.269 134.218 321.015 134.827 319.286L136.336 319.817L131.486 333.588L129.977 333.057C130.586 331.327 130.634 329.736 130.12 328.283C129.596 326.862 128.611 325.896 127.165 325.387L99.1514 315.521L99.7826 313.729L131.226 304.977ZM98.2594 325.579L97.0967 328.88C96.9417 329.321 96.9151 329.647 97.0169 329.859C97.1502 330.083 97.4212 330.267 97.8299 330.411L126.126 340.377C126.566 340.532 126.893 340.558 127.105 340.457C127.318 340.355 127.502 340.084 127.657 339.643L128.819 336.342L130.329 336.874L120.994 363.378L109.953 359.807L110.484 358.298C110.705 358.376 111.473 358.452 112.789 358.527C114.095 358.633 115.34 358.56 116.525 358.305C118.037 358.025 119.321 357.541 120.377 356.852C121.432 356.164 122.164 355.238 122.574 354.075L124.401 348.887C124.545 348.478 124.572 348.152 124.481 347.908C124.379 347.695 124.108 347.512 123.668 347.356L110.652 342.772L109.805 345.177C109.506 346.026 109.575 346.934 110.012 347.901C110.449 348.868 111.098 349.732 111.96 350.496C112.843 351.301 113.74 351.864 114.652 352.186L114.12 353.695L99.359 348.496L99.8905 346.987C100.834 347.319 101.886 347.442 103.047 347.356C104.228 347.313 105.292 347.052 106.239 346.572C107.185 346.093 107.808 345.428 108.107 344.579L108.954 342.174L95.3717 337.391C94.9629 337.247 94.6366 337.22 94.3926 337.311C94.1689 337.444 93.9851 337.715 93.8412 338.124L92.0307 343.264C91.4217 344.994 91.604 346.683 92.5777 348.334C93.5513 349.984 94.7819 351.407 96.2693 352.603C96.9038 353.109 97.7223 353.645 98.7249 354.21C99.7274 354.775 100.396 355.134 100.731 355.287L100.199 356.796L87.2827 351.929L96.7502 325.048L98.2594 325.579ZM75.2975 382.347C76.0062 380.334 77.1683 378.941 78.7838 378.167C80.3882 377.425 82.3537 377.463 84.6803 378.283L90.5282 380.342C92.0374 380.874 93.4436 380.945 94.7469 380.556C96.0391 380.198 96.9565 379.249 97.4991 377.708L98.4292 375.067L83.9038 369.952C83.4951 369.808 83.1687 369.781 82.9247 369.872C82.701 370.005 82.5172 370.276 82.3733 370.685L80.9116 374.835L79.4025 374.303L85.2824 357.609L86.7915 358.14L85.6288 361.441C85.4738 361.882 85.4472 362.208 85.549 362.42C85.6823 362.644 85.9533 362.828 86.362 362.972L114.658 372.938C115.099 373.093 115.425 373.119 115.637 373.018C115.85 372.916 116.034 372.645 116.189 372.205L117.352 368.903L118.861 369.435L113.479 384.715C112.283 388.11 110.565 390.58 108.325 392.123C106.117 393.678 103.739 394.007 101.192 393.11C99.0231 392.346 97.592 390.941 96.8991 388.894C96.1951 386.879 96.1455 384.512 96.7502 381.792L96.42 381.675C95.1162 383.973 93.5714 385.549 91.7859 386.404C90.0317 387.271 87.7713 387.217 85.0046 386.242L79.7697 384.399C78.4492 383.934 77.634 384.141 77.3239 385.022C77.036 385.839 77.5016 386.675 78.7207 387.528C79.9397 388.381 81.5239 389.151 83.4732 389.838L82.9417 391.347C79.892 390.273 77.6622 389.028 76.2523 387.613C74.8739 386.208 74.5556 384.453 75.2975 382.347ZM98.8255 378.759C98.2386 380.425 98.442 381.804 99.4356 382.896C100.429 383.988 102.027 384.922 104.227 385.697C106.365 386.45 108.085 386.685 109.387 386.401C110.688 386.117 111.632 385.142 112.219 383.476L112.933 381.448C113.077 381.039 113.104 380.713 113.013 380.469C112.911 380.256 112.64 380.073 112.2 379.918L99.9384 375.599L98.8255 378.759ZM67.5169 405.341C68.4581 402.669 70.0848 400.609 72.397 399.161C74.698 397.745 77.373 396.973 80.422 396.846C83.5023 396.729 86.6302 397.23 89.8057 398.348C92.9497 399.456 95.6633 401.083 97.9464 403.23C100.229 405.377 101.796 407.802 102.647 410.504C103.497 413.207 103.446 415.91 102.494 418.614C102.018 419.966 101.404 421.057 100.652 421.888C99.9202 422.761 98.9778 423.631 97.8246 424.497C97.0983 425.054 96.6742 425.506 96.5524 425.851C96.4085 426.26 96.5854 426.711 97.0831 427.205L98.5456 428.621L97.9975 430.177L84.4153 425.394L84.9302 423.932C89.3107 424.237 92.8744 423.902 95.6214 422.926C98.3887 421.992 100.177 420.378 100.985 418.083C101.66 416.165 101.479 414.422 100.441 412.855C99.4226 411.33 97.2945 409.998 94.0561 408.857L79.908 403.874C73.8714 401.748 70.2441 402.414 69.0261 405.873C68.4503 407.508 68.6713 409.087 69.6893 410.612C70.7073 412.137 72.1437 413.226 73.9987 413.879L80.4597 416.155C80.8999 416.31 81.2262 416.336 81.4388 416.235C81.6514 416.133 81.8352 415.862 81.9902 415.422L83.4519 411.271L84.961 411.803L79.4465 427.46L77.9374 426.929L78.7347 424.665C78.8786 424.256 78.9052 423.93 78.8145 423.686C78.7126 423.473 78.4416 423.29 78.0015 423.135L63.3345 417.969L63.866 416.46L68.5563 416.839C68.9039 416.856 69.221 416.809 69.5075 416.697C69.8255 416.597 70.0343 416.406 70.1339 416.123C70.3333 415.557 70.1748 414.953 69.6585 414.312C68.7406 413.105 68.0157 411.701 67.484 410.101C66.9523 408.5 66.9633 406.913 67.5169 405.341ZM60.0465 434.078L58.9835 437.096C58.8285 437.536 58.8019 437.863 58.9037 438.075C59.037 438.299 59.308 438.483 59.7167 438.627L69.7619 442.164L89.8935 440.243C90.8124 440.143 91.4853 439.938 91.9122 439.629C92.3705 439.331 92.716 438.852 92.9485 438.191L93.5299 436.541L95.039 437.072L89.8235 451.881L88.3144 451.349L88.7795 450.029C88.9345 449.588 88.8936 449.203 88.6567 448.872C88.4198 448.541 88.1127 448.309 87.7354 448.177C87.2324 447.999 86.759 447.939 86.3152 447.994L70.5877 449.453L79.8593 457.595C80.7104 458.39 81.529 458.925 82.315 459.202C83.0695 459.468 83.8018 459.496 84.5116 459.287C85.2529 459.088 85.7786 458.549 86.0887 457.669L86.5538 456.348L88.0629 456.88L83.9437 468.575L82.4345 468.044L82.9328 466.629C83.3093 465.56 83.2791 464.542 82.8421 463.576C82.4254 462.651 81.8119 461.834 81.0016 461.125L67.7281 449.294L57.2585 445.606C56.8497 445.462 56.5234 445.436 56.2794 445.527C56.0557 445.66 55.8719 445.931 55.728 446.34L54.6649 449.358L53.1558 448.826L58.5374 433.546L60.0465 434.078Z" fill="#A33631"/>
<path d="M195.918 107.588L190.405 123.241M184.892 138.893L190.405 123.241M190.405 123.241L173.929 117.438M190.405 123.241L205.783 128.657" stroke="#A33631" stroke-width="8"/>
<path d="M185.863 21.3246C202.455 31.181 234.279 44.2411 254.434 44.8575" stroke="#A33631" stroke-width="5"/>
</svg>
