<svg width="686" height="955" viewBox="0 0 686 955" fill="none" xmlns="http://www.w3.org/2000/svg">
<path fill-rule="evenodd" clip-rule="evenodd" d="M508.825 414.582L413.326 463.616C484.602 606.891 522.837 707.919 434.474 754.251L482.339 847.473C656.221 751.821 601.94 595.94 508.825 414.582Z" fill="#7B9B9E"/>
<path d="M451.561 303.053L356.062 352.086C372.742 384.573 392.98 422.718 413.326 463.616L508.825 414.582C486.936 371.95 468.447 335.94 451.561 303.053Z" fill="#F9E9CC"/>
<path d="M212.73 573.848C195.268 539.838 179.811 510.346 151.083 454.395L50.5757 505.999C67.6541 539.262 89.7871 582.368 111.974 625.58L212.73 573.848Z" fill="#F9E9CC"/>
<path d="M434.474 754.251C384.944 780.221 314.907 766.946 218.893 585.851C216.832 582.449 214.831 577.373 212.73 573.848L111.974 625.58C202.194 801.296 307.496 933.919 482.339 847.473L434.474 754.251Z" fill="#A33631"/>
<path d="M409.416 348.423C411.765 347.217 414.051 346.482 416.275 346.217C418.472 345.898 420.445 345.931 422.193 346.314C423.887 346.591 425.083 346.753 425.781 346.799C426.507 346.899 427.11 346.825 427.59 346.579C428.711 346.003 428.939 344.739 428.274 342.788L427.359 340.02L429.841 338.746L443.311 363.799L440.749 365.115C437.919 361.442 434.705 358.269 431.108 355.598C427.457 352.953 423.815 351.181 420.183 350.28C416.497 349.408 413.187 349.725 410.251 351.232C406.034 353.397 403.632 355.811 403.043 358.474C402.454 361.137 402.763 363.642 403.969 365.991C404.681 367.379 405.819 368.346 407.381 368.893C408.917 369.52 410.934 369.968 413.433 370.237L436.239 372.489C439.57 372.802 442.733 373.707 445.728 375.205C448.669 376.73 450.989 379.147 452.688 382.456C455.346 387.634 455.825 392.244 454.124 396.287C452.397 400.411 449.319 403.611 444.888 405.885C441.099 407.831 436.624 408.443 431.464 407.72C429.743 407.389 428.536 407.402 427.842 407.758C426.881 408.252 426.609 409.167 427.026 410.504L427.655 412.912L425.093 414.228L413.605 393.822L416.167 392.507C419.072 395.669 422.199 398.279 425.549 400.336C428.898 402.394 432.212 403.66 435.491 404.134C438.744 404.69 441.651 404.31 444.213 402.994C447.042 401.542 448.863 399.899 449.675 398.066C450.434 396.26 450.238 394.236 449.087 391.994C447.525 388.952 443.574 387.102 437.234 386.445L414.306 384.155C411.378 383.837 408.629 382.753 406.06 380.902C403.438 379.078 401.428 376.806 400.03 374.083C398.605 371.308 397.916 368.323 397.962 365.129C398.008 361.936 398.955 358.853 400.801 355.881C402.648 352.91 405.52 350.424 409.416 348.423Z" fill="#7B9B9E"/>
<path d="M144.051 538.798L144.372 538.634L128.71 508.129C127.449 505.674 125.487 504.152 122.824 503.564C120.108 503.002 117.282 503.475 114.346 504.982L113.031 502.42L136.409 490.417L137.725 492.979C134.789 494.486 132.785 496.493 131.711 499.001C130.584 501.535 130.651 504.03 131.912 506.485L149.465 540.672C149.767 541.259 150.039 541.659 150.283 541.871C150.527 542.083 150.972 542.36 151.62 542.702L157.289 545.862C158.234 546.388 159.095 546.62 159.873 546.558C160.678 546.55 161.694 546.23 162.922 545.6L164.363 544.86L165.678 547.422L147.904 556.548L103.497 533.114L116.693 558.814C117.954 561.269 119.942 562.778 122.658 563.339C125.321 563.928 128.121 563.468 131.056 561.961L132.372 564.523L108.993 576.526L107.678 573.964C110.613 572.457 112.645 570.436 113.771 567.902C114.845 565.395 114.751 562.914 113.491 560.458L89.0725 512.901L92.1149 511.338L144.051 538.798Z" fill="#A33631"/>
<path d="M315.895 1L392.996 181.324" stroke="#F9E9CC" stroke-width="3"/>
<path d="M66.8945 248L143.996 428.324" stroke="#F9E9CC" stroke-width="3"/>
<path d="M353 166L394.996 262.324" stroke="#F9E9CC" stroke-width="3"/>
<path d="M2.01172 397L44.0075 493.324" stroke="#F9E9CC" stroke-width="3"/>
<path d="M92.1074 383.456L120.9 444.868" stroke="#F9E9CC" stroke-width="3"/>
<path d="M341 246.371L369.537 310.706" stroke="#F9E9CC" stroke-width="3"/>
<path d="M22 363.371L67 463" stroke="#F9E9CC" stroke-width="3"/>
<path d="M409 216.192L439.436 279.651" stroke="#F9E9CC" stroke-width="3"/>
<path d="M59 376.192L89.4358 439.651" stroke="#F9E9CC" stroke-width="3"/>
<path d="M266.375 181L326.48 312" stroke="#F9E9CC" stroke-width="3"/>
<path d="M254.375 35L314.48 166" stroke="#F9E9CC" stroke-width="3"/>
</svg>
