<svg width="1445" height="1967" viewBox="0 0 1445 1967" fill="none" xmlns="http://www.w3.org/2000/svg">
<path d="M0 1967C361.404 1731.26 456.103 1109.22 509.57 737H576C576 1038.5 486 1703 420.5 1967H0Z" fill="#7B9B9E"/>
<path d="M462 1966C486.222 1923.84 583.391 1154.82 598.826 737H695V1966H462Z" fill="#7B9B9E"/>
<path d="M725 1966V747H824.783C823.5 871.5 927.5 1877 950 1966H725Z" fill="#7B9B9E"/>
<path d="M990.5 1964C931.5 1612.5 848 992.754 848 747H923.5C988.816 1578.17 1314 1865.2 1445 1964H990.5Z" fill="#7B9B9E"/>
<ellipse cx="729" cy="560.5" rx="555" ry="560.5" fill="#A33631"/>
<path d="M769.085 960.511C726.904 989.823 683.852 1009.15 648.416 1016.78C630.692 1020.59 615 1021.45 602.326 1019.26C589.665 1017.07 580.214 1011.87 574.565 1003.74C568.915 995.613 567.344 984.946 569.705 972.315C572.069 959.672 578.345 945.263 588.1 929.982C607.604 899.429 640.734 865.821 682.915 836.509C725.096 807.197 768.148 787.866 803.584 780.241C821.308 776.427 837 775.568 849.674 777.762C862.335 779.953 871.786 785.146 877.435 793.276C883.085 801.406 884.656 812.074 882.295 824.705C879.931 837.348 873.655 851.756 863.9 867.038C844.396 897.59 811.266 931.199 769.085 960.511Z" stroke="#F9E9CC" stroke-width="5"/>
<path d="M766.611 836.652C806.735 866.884 837.726 901.139 855.437 931.991C864.295 947.422 869.769 961.892 871.474 974.507C873.178 987.106 871.107 997.672 865.123 1005.61C859.139 1013.56 849.554 1018.46 836.973 1020.3C824.377 1022.14 808.959 1020.87 791.684 1016.61C757.143 1008.09 715.671 987.748 675.546 957.516C635.421 927.284 604.431 893.029 586.719 862.177C577.861 846.746 572.388 832.276 570.682 819.661C568.978 807.062 571.049 796.496 577.033 788.554C583.018 780.611 592.603 775.707 605.183 773.87C617.779 772.031 633.198 773.302 650.473 777.561C685.013 786.078 726.486 806.42 766.611 836.652Z" stroke="#F9E9CC" stroke-width="5"/>
<path d="M796.659 895.126C796.659 944.07 788.486 988.264 775.365 1020.13C768.802 1036.07 761.051 1048.8 752.571 1057.51C744.1 1066.21 735.058 1070.75 725.813 1070.75C716.568 1070.75 707.526 1066.21 699.055 1057.51C690.575 1048.8 682.824 1036.07 676.261 1020.13C663.14 988.264 654.967 944.07 654.967 895.126C654.967 846.182 663.14 801.989 676.261 770.124C682.824 754.186 690.575 741.452 699.055 732.742C707.526 724.04 716.568 719.5 725.813 719.5C735.058 719.5 744.1 724.04 752.571 732.742C761.051 741.452 768.802 754.186 775.365 770.124C788.486 801.989 796.659 846.182 796.659 895.126Z" stroke="#F9E9CC" stroke-width="5"/>
<ellipse cx="588.329" cy="855.754" rx="24.7662" ry="26.3538" fill="#7B9B9E"/>
<ellipse cx="760.421" cy="1043.09" rx="24.7662" ry="26.3538" fill="#7B9B9E"/>
<ellipse cx="823.924" cy="775.105" rx="24.7662" ry="26.3538" fill="#7B9B9E"/>
<ellipse cx="725.812" cy="895.444" rx="34.6092" ry="34.9267" fill="#7B9B9E"/>
</svg>
