<svg width="561" height="817" viewBox="0 0 561 817" fill="none" xmlns="http://www.w3.org/2000/svg">
<path d="M458.582 91.6277C460.559 92.8012 461.109 93.5722 461.258 93.8311C461.109 94.0899 460.559 94.8609 458.582 96.0344C455.946 97.5989 451.8 99.2451 446.089 100.885C434.727 104.148 418.094 107.135 397.312 109.659C355.805 114.701 298.349 117.831 234.807 117.831C171.265 117.831 113.808 114.701 72.3009 109.659C51.5195 107.135 34.8861 104.148 23.5246 100.885C17.8134 99.2451 13.6669 97.5989 11.0314 96.0344C9.05453 94.8609 8.50405 94.0899 8.35566 93.8311C8.50405 93.5722 9.05452 92.8012 11.0314 91.6277C13.6669 90.0632 17.8134 88.417 23.5246 86.7768C34.8861 83.5138 51.5195 80.5273 72.3009 78.0029C113.808 72.9607 171.265 69.8311 234.807 69.8311C298.349 69.8311 355.805 72.9607 397.312 78.0029C418.094 80.5273 434.727 83.5138 446.089 86.7768C451.8 88.417 455.946 90.0632 458.582 91.6277Z" fill="#A33631" stroke="#A33631" stroke-width="8"/>
<path d="M8.30664 93.8311L4.30664 714.831C94.8066 779.331 370.807 780.831 461.307 714.831" stroke="#A33631" stroke-width="8" stroke-linecap="round"/>
<path d="M461.307 94.8311V714.331" stroke="#A33631" stroke-width="8" stroke-linecap="round"/>
<path d="M45.2 235.631H52.2C53.1333 235.631 53.7667 235.464 54.1 235.131C54.4333 234.731 54.6 234.098 54.6 233.231V173.231C54.6 172.298 54.4333 171.664 54.1 171.331C53.7667 170.998 53.1333 170.831 52.2 170.831H45.2V167.631H80.8C85.4667 167.631 89.6 168.431 93.2 170.031C96.8667 171.564 99.7 173.764 101.7 176.631C103.767 179.431 104.8 182.631 104.8 186.231C104.8 189.898 103.767 193.164 101.7 196.031C99.7 198.898 96.8667 201.164 93.2 202.831C89.6 204.431 85.4667 205.231 80.8 205.231H69.4V233.231C69.4 234.098 69.5667 234.731 69.9 235.131C70.3 235.464 70.9333 235.631 71.8 235.631H80.6V238.831H45.2V235.631ZM79.3 202.031C82.7667 202.031 85.2 200.631 86.6 197.831C88.0667 195.031 88.8 191.164 88.8 186.231C88.8 181.364 88.1 177.598 86.7 174.931C85.3 172.198 82.8333 170.831 79.3 170.831H71.8C70.9333 170.831 70.3 170.998 69.9 171.331C69.5667 171.664 69.4 172.298 69.4 173.231V202.031H79.3ZM124.315 262.631C121.582 262.631 119.382 261.764 117.715 260.031C116.048 258.364 115.215 256.198 115.215 253.531C115.215 251.331 115.915 249.398 117.315 247.731C118.715 246.064 120.482 245.231 122.615 245.231C124.215 245.231 125.515 245.698 126.515 246.631C127.582 247.631 128.115 248.831 128.115 250.231C128.115 251.098 127.915 251.898 127.515 252.631C127.182 253.364 126.748 253.964 126.215 254.431C125.282 255.231 124.815 256.098 124.815 257.031C124.815 257.631 124.982 258.164 125.315 258.631C125.715 259.164 126.315 259.431 127.115 259.431C128.248 259.431 129.182 258.731 129.915 257.331C130.715 255.931 131.448 254.164 132.115 252.031L135.415 241.031L118.115 199.631C117.182 197.431 116.315 195.931 115.515 195.131C114.782 194.264 113.582 193.831 111.915 193.831H110.415V191.431H134.915V193.831H132.015C131.415 193.831 130.848 194.064 130.315 194.531C129.848 194.998 129.615 195.631 129.615 196.431C129.615 197.164 129.848 198.098 130.315 199.231L140.615 223.931L147.115 202.031C147.582 200.164 147.815 198.698 147.815 197.631C147.815 196.631 147.548 195.764 147.015 195.031C146.482 194.231 145.715 193.831 144.715 193.831H142.115V191.431H158.615V193.831H156.415C155.215 193.831 154.048 194.364 152.915 195.431C151.848 196.431 151.015 197.964 150.415 200.031L135.215 250.531C132.882 258.598 129.248 262.631 124.315 262.631ZM183.557 240.031C179.424 240.031 175.724 238.931 172.457 236.731C169.257 234.464 166.757 231.431 164.957 227.631C163.157 223.831 162.257 219.664 162.257 215.131C162.257 210.598 163.124 206.431 164.857 202.631C166.657 198.831 169.157 195.831 172.357 193.631C175.624 191.364 179.29 190.231 183.357 190.231C186.557 190.231 189.224 190.898 191.357 192.231C193.557 193.564 195.19 195.264 196.257 197.331C197.324 199.398 197.857 201.531 197.857 203.731C197.857 206.131 197.124 208.231 195.657 210.031C194.19 211.764 192.424 212.631 190.357 212.631C188.824 212.631 187.557 212.198 186.557 211.331C185.557 210.398 185.057 209.164 185.057 207.631C185.057 205.831 186.124 204.064 188.257 202.331C189.857 200.998 190.657 199.631 190.657 198.231C190.657 196.831 190.124 195.564 189.057 194.431C188.057 193.231 186.424 192.631 184.157 192.631C181.024 192.631 178.724 194.631 177.257 198.631C175.79 202.564 175.057 208.064 175.057 215.131C175.057 218.664 175.124 221.431 175.257 223.431C175.39 225.364 175.69 227.198 176.157 228.931C176.757 231.398 177.89 233.364 179.557 234.831C181.29 236.298 183.29 237.031 185.557 237.031C188.824 237.031 191.457 235.598 193.457 232.731C195.457 229.864 196.657 226.498 197.057 222.631H199.657C199.257 227.231 197.757 231.298 195.157 234.831C192.557 238.298 188.69 240.031 183.557 240.031ZM230.334 240.031C226.201 240.031 222.501 238.931 219.234 236.731C216.034 234.464 213.534 231.431 211.734 227.631C209.934 223.831 209.034 219.664 209.034 215.131C209.034 210.598 209.901 206.431 211.634 202.631C213.434 198.831 215.934 195.831 219.134 193.631C222.401 191.364 226.068 190.231 230.134 190.231C233.334 190.231 236.001 190.898 238.134 192.231C240.334 193.564 241.968 195.264 243.034 197.331C244.101 199.398 244.634 201.531 244.634 203.731C244.634 206.131 243.901 208.231 242.434 210.031C240.968 211.764 239.201 212.631 237.134 212.631C235.601 212.631 234.334 212.198 233.334 211.331C232.334 210.398 231.834 209.164 231.834 207.631C231.834 205.831 232.901 204.064 235.034 202.331C236.634 200.998 237.434 199.631 237.434 198.231C237.434 196.831 236.901 195.564 235.834 194.431C234.834 193.231 233.201 192.631 230.934 192.631C227.801 192.631 225.501 194.631 224.034 198.631C222.568 202.564 221.834 208.064 221.834 215.131C221.834 218.664 221.901 221.431 222.034 223.431C222.168 225.364 222.468 227.198 222.934 228.931C223.534 231.398 224.668 233.364 226.334 234.831C228.068 236.298 230.068 237.031 232.334 237.031C235.601 237.031 238.234 235.598 240.234 232.731C242.234 229.864 243.434 226.498 243.834 222.631H246.434C246.034 227.231 244.534 231.298 241.934 234.831C239.334 238.298 235.468 240.031 230.334 240.031ZM292.512 240.031C289.245 240.031 286.645 239.198 284.712 237.531C282.778 235.798 281.812 233.298 281.812 230.031V222.131C281.812 220.264 281.378 218.798 280.512 217.731C279.645 216.598 278.545 216.031 277.212 216.031H272.012V234.831C272.012 235.431 272.112 235.864 272.312 236.131C272.578 236.331 273.012 236.431 273.612 236.431H276.812V238.831H255.012V236.431H258.812C259.412 236.431 259.812 236.331 260.012 236.131C260.278 235.864 260.412 235.431 260.412 234.831V195.431C260.412 194.831 260.278 194.431 260.012 194.231C259.812 193.964 259.412 193.831 258.812 193.831H255.012V191.431H276.812V193.831H273.612C273.012 193.831 272.578 193.964 272.312 194.231C272.112 194.431 272.012 194.831 272.012 195.431V213.231H278.312C279.712 213.231 280.745 212.698 281.412 211.631C282.078 210.564 282.412 209.164 282.412 207.431V200.631C282.412 197.298 283.278 194.731 285.012 192.931C286.812 191.131 288.945 190.231 291.412 190.231C293.812 190.231 295.712 190.931 297.112 192.331C298.512 193.731 299.212 195.598 299.212 197.931C299.212 199.798 298.545 201.364 297.212 202.631C295.945 203.831 294.545 204.431 293.012 204.431C291.545 204.431 290.312 204.031 289.312 203.231C288.312 202.364 287.812 201.198 287.812 199.731C287.812 198.864 288.145 197.931 288.812 196.931C289.345 196.198 289.612 195.598 289.612 195.131C289.612 194.531 289.278 194.231 288.612 194.231C287.678 194.231 286.878 194.764 286.212 195.831C285.545 196.831 285.212 198.398 285.212 200.531V207.431C285.212 208.964 285.012 210.231 284.612 211.231C284.212 212.164 283.512 212.964 282.512 213.631V214.131C285.978 214.598 288.645 215.798 290.512 217.731C292.445 219.664 293.412 222.631 293.412 226.631V233.131C293.412 234.931 294.145 235.831 295.612 235.831C296.812 235.831 297.678 234.931 298.212 233.131C298.745 231.264 299.012 228.964 299.012 226.231H301.612C301.612 230.631 300.945 234.031 299.612 236.431C298.345 238.831 295.978 240.031 292.512 240.031ZM307.648 236.431H311.448C312.048 236.431 312.448 236.331 312.648 236.131C312.915 235.864 313.048 235.431 313.048 234.831V195.431C313.048 194.831 312.915 194.431 312.648 194.231C312.448 193.964 312.048 193.831 311.448 193.831H307.648V191.431H329.448V193.831H326.248C325.648 193.831 325.215 193.964 324.948 194.231C324.748 194.431 324.648 194.831 324.648 195.431V227.031L339.848 197.231V195.431C339.848 194.831 339.715 194.431 339.448 194.231C339.248 193.964 338.848 193.831 338.248 193.831H335.048V191.431H356.848V193.831H353.048C352.448 193.831 352.015 193.964 351.748 194.231C351.548 194.431 351.448 194.831 351.448 195.431V234.831C351.448 235.431 351.548 235.864 351.748 236.131C352.015 236.331 352.448 236.431 353.048 236.431H356.848V238.831H335.048V236.431H338.248C338.848 236.431 339.248 236.331 339.448 236.131C339.715 235.864 339.848 235.431 339.848 234.831V203.231L324.648 233.031V234.831C324.648 235.431 324.748 235.864 324.948 236.131C325.215 236.331 325.648 236.431 326.248 236.431H329.448V238.831H307.648V236.431ZM389.475 184.831C385.942 184.831 382.808 184.031 380.075 182.431C377.408 180.831 376.075 178.631 376.075 175.831C376.075 173.898 376.608 172.364 377.675 171.231C378.808 170.031 380.175 169.431 381.775 169.431C383.042 169.431 384.008 169.798 384.675 170.531C385.342 171.198 385.675 172.031 385.675 173.031C385.675 174.431 385.008 175.498 383.675 176.231C383.008 176.631 382.508 176.998 382.175 177.331C381.842 177.598 381.675 177.998 381.675 178.531C381.675 180.864 384.275 182.031 389.475 182.031C394.675 182.031 397.275 180.864 397.275 178.531C397.275 177.998 397.108 177.598 396.775 177.331C396.442 176.998 395.942 176.631 395.275 176.231C393.942 175.498 393.275 174.431 393.275 173.031C393.275 172.031 393.608 171.198 394.275 170.531C394.942 169.798 395.908 169.431 397.175 169.431C398.775 169.431 400.108 170.031 401.175 171.231C402.308 172.364 402.875 173.898 402.875 175.831C402.875 178.631 401.508 180.831 398.775 182.431C396.108 184.031 393.008 184.831 389.475 184.831ZM364.875 236.431H368.675C369.275 236.431 369.675 236.331 369.875 236.131C370.142 235.864 370.275 235.431 370.275 234.831V195.431C370.275 194.831 370.142 194.431 369.875 194.231C369.675 193.964 369.275 193.831 368.675 193.831H364.875V191.431H386.675V193.831H383.475C382.875 193.831 382.442 193.964 382.175 194.231C381.975 194.431 381.875 194.831 381.875 195.431V227.031L397.075 197.231V195.431C397.075 194.831 396.942 194.431 396.675 194.231C396.475 193.964 396.075 193.831 395.475 193.831H392.275V191.431H414.075V193.831H410.275C409.675 193.831 409.242 193.964 408.975 194.231C408.775 194.431 408.675 194.831 408.675 195.431V234.831C408.675 235.431 408.775 235.864 408.975 236.131C409.242 236.331 409.675 236.431 410.275 236.431H414.075V238.831H392.275V236.431H395.475C396.075 236.431 396.475 236.331 396.675 236.131C396.942 235.864 397.075 235.431 397.075 234.831V203.231L381.875 233.031V234.831C381.875 235.431 381.975 235.864 382.175 236.131C382.442 236.331 382.875 236.431 383.475 236.431H386.675V238.831H364.875V236.431Z" fill="#F9E9CC"/>
<path d="M64.2 349.631H71.2C72.1333 349.631 72.7667 349.464 73.1 349.131C73.4333 348.731 73.6 348.098 73.6 347.231V287.231C73.6 286.298 73.4333 285.664 73.1 285.331C72.7667 284.998 72.1333 284.831 71.2 284.831H64.2V281.631H120.4L121 304.831H117.8C117.8 304.364 117.433 302.864 116.7 300.331C116.033 297.798 115.067 295.498 113.8 293.431C112.267 290.764 110.5 288.664 108.5 287.131C106.5 285.598 104.267 284.831 101.8 284.831H90.8C89.9333 284.831 89.3 284.998 88.9 285.331C88.5667 285.664 88.4 286.298 88.4 287.231V314.831H93.5C95.3 314.831 96.9667 314.098 98.5 312.631C100.033 311.164 101.233 309.364 102.1 307.231C103.033 305.031 103.5 302.964 103.5 301.031H106.7V332.331H103.5C103.5 330.331 103.033 328.264 102.1 326.131C101.233 323.931 100.033 322.098 98.5 320.631C96.9667 319.164 95.3 318.431 93.5 318.431H88.4V347.231C88.4 348.098 88.5667 348.731 88.9 349.131C89.3 349.464 89.9333 349.631 90.8 349.631H101.7C105.367 349.631 108.433 348.164 110.9 345.231C113.367 342.298 115.233 339.031 116.5 335.431C117.033 333.898 117.5 331.998 117.9 329.731C118.3 327.464 118.533 325.964 118.6 325.231H121.8L121.2 352.831H64.2V349.631ZM131.043 350.431H134.843C135.443 350.431 135.843 350.331 136.043 350.131C136.31 349.864 136.443 349.431 136.443 348.831V309.431C136.443 308.831 136.31 308.431 136.043 308.231C135.843 307.964 135.443 307.831 134.843 307.831H131.043V305.431H148.043V314.331L148.543 314.431C149.876 311.298 151.576 308.831 153.643 307.031C155.776 305.164 158.21 304.231 160.943 304.231C162.61 304.231 164.043 304.431 165.243 304.831C166.443 305.164 167.576 305.698 168.643 306.431C170.31 307.631 171.61 309.298 172.543 311.431C173.543 313.564 174.043 315.764 174.043 318.031V348.831C174.043 349.431 174.143 349.864 174.343 350.131C174.61 350.331 175.043 350.431 175.643 350.431H179.443V352.831H157.643V350.431H160.843C161.443 350.431 161.843 350.331 162.043 350.131C162.31 349.864 162.443 349.431 162.443 348.831V315.131C162.443 309.998 160.91 307.431 157.843 307.431C156.443 307.431 154.976 308.364 153.443 310.231C151.91 312.098 150.61 314.564 149.543 317.631C148.543 320.698 148.043 323.964 148.043 327.431V348.831C148.043 349.431 148.143 349.864 148.343 350.131C148.61 350.331 149.043 350.431 149.643 350.431H152.843V352.831H131.043V350.431ZM209.009 376.631C202.809 376.631 197.543 375.531 193.209 373.331C188.943 371.131 186.809 368.098 186.809 364.231C186.809 362.031 187.643 359.998 189.309 358.131C190.976 356.331 193.276 355.098 196.209 354.431V354.131C194.209 353.998 192.409 353.164 190.809 351.631C189.209 350.098 188.409 348.198 188.409 345.931C188.409 339.598 192.143 335.698 199.609 334.231V333.831C197.009 332.698 194.709 330.964 192.709 328.631C190.776 326.298 189.809 323.364 189.809 319.831C189.809 316.831 190.643 314.131 192.309 311.731C194.043 309.331 196.276 307.498 199.009 306.231C201.809 304.898 204.809 304.231 208.009 304.231C213.476 304.231 218.109 305.964 221.909 309.431H222.209C224.276 305.964 226.743 304.231 229.609 304.231C231.743 304.231 233.476 304.898 234.809 306.231C236.143 307.498 236.809 309.031 236.809 310.831C236.809 312.831 236.243 314.564 235.109 316.031C234.043 317.498 232.743 318.231 231.209 318.231C230.143 318.231 229.209 317.931 228.409 317.331C227.609 316.664 227.209 315.798 227.209 314.731C227.209 313.664 227.743 312.464 228.809 311.131C229.209 310.731 229.576 310.264 229.909 309.731C230.243 309.198 230.409 308.731 230.409 308.331C230.409 307.264 229.709 306.731 228.309 306.731C226.509 306.731 224.809 308.131 223.209 310.931C225.343 313.264 226.409 316.498 226.409 320.631C226.409 323.031 225.643 325.398 224.109 327.731C222.576 329.998 220.376 331.864 217.509 333.331C214.709 334.798 211.476 335.531 207.809 335.531C203.743 335.531 200.476 335.898 198.009 336.631C195.543 337.298 194.309 338.698 194.309 340.831C194.309 343.164 195.943 344.331 199.209 344.331H215.009C219.743 344.331 223.676 345.464 226.809 347.731C229.943 349.998 231.509 353.398 231.509 357.931C231.509 361.264 230.609 364.331 228.809 367.131C227.009 369.998 224.409 372.298 221.009 374.031C217.609 375.764 213.609 376.631 209.009 376.631ZM208.209 333.031C210.343 333.031 211.876 331.998 212.809 329.931C213.743 327.798 214.209 324.431 214.209 319.831C214.209 315.231 213.743 311.898 212.809 309.831C211.876 307.698 210.343 306.631 208.209 306.631C206.009 306.631 204.409 307.698 203.409 309.831C202.476 311.898 202.009 315.231 202.009 319.831C202.009 324.431 202.476 327.798 203.409 329.931C204.409 331.998 206.009 333.031 208.209 333.031ZM207.509 373.431C212.109 373.431 216.143 372.498 219.609 370.631C223.076 368.764 224.809 366.098 224.809 362.631C224.809 360.098 223.409 358.264 220.609 357.131C217.809 356.064 214.243 355.531 209.909 355.531C204.776 355.531 200.243 356.131 196.309 357.331C192.376 358.598 190.409 360.931 190.409 364.331C190.409 367.264 192.109 369.498 195.509 371.031C198.976 372.631 202.976 373.431 207.509 373.431ZM240.58 350.431H246.18C246.78 350.431 247.18 350.331 247.38 350.131C247.647 349.864 247.78 349.431 247.78 348.831V285.631C247.78 285.031 247.647 284.631 247.38 284.431C247.18 284.164 246.78 284.031 246.18 284.031H240.58V281.631H259.38V348.831C259.38 349.431 259.48 349.864 259.68 350.131C259.947 350.331 260.38 350.431 260.98 350.431H266.58V352.831H240.58V350.431ZM283.542 295.231C281.476 295.231 279.709 294.531 278.242 293.131C276.842 291.664 276.142 289.898 276.142 287.831C276.142 285.698 276.842 283.931 278.242 282.531C279.709 281.131 281.476 280.431 283.542 280.431C285.676 280.431 287.442 281.131 288.842 282.531C290.242 283.931 290.942 285.698 290.942 287.831C290.942 289.898 290.242 291.664 288.842 293.131C287.442 294.531 285.676 295.231 283.542 295.231ZM272.742 350.431H276.542C277.142 350.431 277.542 350.331 277.742 350.131C278.009 349.864 278.142 349.431 278.142 348.831V309.431C278.142 308.831 278.009 308.431 277.742 308.231C277.542 307.964 277.142 307.831 276.542 307.831H272.742V305.431H289.742V348.831C289.742 349.431 289.842 349.864 290.042 350.131C290.309 350.331 290.742 350.431 291.342 350.431H295.142V352.831H272.742V350.431ZM304.132 334.231H306.332L310.832 342.131C314.432 348.464 318.965 351.631 324.432 351.631C326.899 351.631 328.732 351.031 329.932 349.831C331.132 348.564 331.732 347.164 331.732 345.631C331.732 344.298 331.365 343.164 330.632 342.231C329.965 341.231 328.765 340.231 327.032 339.231C325.365 338.164 322.765 336.764 319.232 335.031C314.965 332.964 311.365 330.631 308.432 328.031C305.565 325.431 304.132 322.031 304.132 317.831C304.132 313.698 305.432 310.398 308.032 307.931C310.632 305.464 313.799 304.231 317.532 304.231C320.665 304.231 323.999 305.364 327.532 307.631C328.799 308.431 329.799 308.831 330.532 308.831C331.332 308.831 331.865 308.298 332.132 307.231L332.732 305.231H334.532V321.231H332.332L330.432 317.431C328.632 313.831 326.565 311.131 324.232 309.331C321.899 307.531 319.532 306.631 317.132 306.631C315.332 306.631 313.832 307.064 312.632 307.931C311.499 308.798 310.932 310.198 310.932 312.131C310.932 316.064 314.465 319.698 321.532 323.031C325.865 325.098 329.165 326.931 331.432 328.531C333.765 330.131 335.465 331.864 336.532 333.731C337.599 335.598 338.132 337.898 338.132 340.631C338.132 344.764 336.799 348.031 334.132 350.431C331.532 352.831 328.265 354.031 324.332 354.031C320.999 354.031 317.532 352.964 313.932 350.831C312.332 349.764 311.132 349.231 310.332 349.231C309.465 349.231 308.699 349.498 308.032 350.031C307.365 350.498 306.899 351.131 306.632 351.931L305.932 354.031H304.132V334.231ZM343.901 350.431H349.501C350.101 350.431 350.501 350.331 350.701 350.131C350.967 349.864 351.101 349.431 351.101 348.831V285.631C351.101 285.031 350.967 284.631 350.701 284.431C350.501 284.164 350.101 284.031 349.501 284.031H343.901V281.631H362.701V314.331L363.201 314.431C364.534 311.298 366.234 308.831 368.301 307.031C370.434 305.164 372.867 304.231 375.601 304.231C377.267 304.231 378.701 304.431 379.901 304.831C381.101 305.164 382.234 305.698 383.301 306.431C384.967 307.631 386.267 309.298 387.201 311.431C388.201 313.564 388.701 315.764 388.701 318.031V348.831C388.701 349.431 388.801 349.864 389.001 350.131C389.267 350.331 389.701 350.431 390.301 350.431H394.101V352.831H372.301V350.431H375.501C376.101 350.431 376.501 350.331 376.701 350.131C376.967 349.864 377.101 349.431 377.101 348.831V315.131C377.101 309.998 375.567 307.431 372.501 307.431C371.101 307.431 369.634 308.364 368.101 310.231C366.567 312.098 365.267 314.564 364.201 317.631C363.201 320.698 362.701 323.964 362.701 327.431V348.831C362.701 349.431 362.801 349.864 363.001 350.131C363.267 350.331 363.701 350.431 364.301 350.431H367.501V352.831H343.901V350.431Z" fill="#F9E9CC"/>
<path d="M45.2 452.631H52.2C53.1333 452.631 53.7667 452.464 54.1 452.131C54.4333 451.731 54.6 451.098 54.6 450.231V390.231C54.6 389.298 54.4333 388.664 54.1 388.331C53.7667 387.998 53.1333 387.831 52.2 387.831H45.2V384.631H101.6L102.4 412.031H99.2C99.2 411.498 98.8667 409.698 98.2 406.631C97.5333 403.564 96.6667 400.931 95.6 398.731C94.2 395.731 92.3 393.164 89.9 391.031C87.5667 388.898 84.9333 387.831 82 387.831H71.8C70.9333 387.831 70.3 387.998 69.9 388.331C69.5667 388.664 69.4 389.298 69.4 390.231V417.831H74.5C76.3 417.831 77.9667 417.098 79.5 415.631C81.0333 414.164 82.2333 412.364 83.1 410.231C84.0333 408.031 84.5 405.964 84.5 404.031H87.7V435.331H84.5C84.5 433.331 84.0333 431.264 83.1 429.131C82.2333 426.931 81.0333 425.098 79.5 423.631C77.9667 422.164 76.3 421.431 74.5 421.431H69.4V450.231C69.4 451.098 69.5667 451.731 69.9 452.131C70.3 452.464 70.9333 452.631 71.8 452.631H80.9V455.831H45.2V452.631ZM109.992 453.431H113.792C114.392 453.431 114.792 453.331 114.992 453.131C115.259 452.864 115.392 452.431 115.392 451.831V412.431C115.392 411.831 115.259 411.431 114.992 411.231C114.792 410.964 114.392 410.831 113.792 410.831H109.992V408.431H126.992V418.331L127.492 418.431C128.559 415.364 130.059 412.731 131.992 410.531C133.992 408.331 136.192 407.231 138.592 407.231C140.992 407.231 142.959 408.098 144.492 409.831C146.026 411.564 146.792 413.764 146.792 416.431C146.792 418.898 146.092 421.031 144.692 422.831C143.292 424.564 141.559 425.431 139.492 425.431C137.692 425.431 136.159 424.898 134.892 423.831C133.626 422.698 132.992 421.331 132.992 419.731C132.992 418.131 133.792 416.398 135.392 414.531C136.326 413.464 136.792 412.698 136.792 412.231C136.792 411.564 136.426 411.231 135.692 411.231C134.359 411.231 132.992 412.198 131.592 414.131C130.259 416.064 129.159 418.598 128.292 421.731C127.426 424.864 126.992 428.198 126.992 431.731V451.831C126.992 452.431 127.092 452.864 127.292 453.131C127.559 453.331 127.992 453.431 128.592 453.431H131.792V455.831H109.992V453.431ZM167.152 457.031C163.485 457.031 160.352 456.131 157.752 454.331C155.218 452.531 153.952 449.498 153.952 445.231C153.952 440.898 155.518 437.498 158.652 435.031C161.852 432.498 165.885 430.398 170.752 428.731L178.152 426.131V419.331C178.152 415.931 177.452 413.464 176.052 411.931C174.652 410.398 172.852 409.631 170.652 409.631C168.785 409.631 167.152 410.064 165.752 410.931C164.418 411.731 163.752 412.864 163.752 414.331C163.752 414.731 163.852 415.231 164.052 415.831C164.318 416.364 164.752 416.831 165.352 417.231C166.352 417.831 167.052 418.464 167.452 419.131C167.918 419.798 168.152 420.664 168.152 421.731C168.152 423.331 167.552 424.598 166.352 425.531C165.218 426.398 163.952 426.831 162.552 426.831C160.818 426.831 159.318 426.264 158.052 425.131C156.852 423.931 156.252 422.231 156.252 420.031C156.252 417.498 157.018 415.264 158.552 413.331C160.085 411.331 162.052 409.831 164.452 408.831C166.852 407.764 169.285 407.231 171.752 407.231C176.552 407.231 180.752 408.531 184.352 411.131C187.952 413.664 189.752 417.731 189.752 423.331V448.631C189.752 451.031 190.418 452.231 191.752 452.231C192.952 452.231 193.852 451.231 194.452 449.231C195.052 447.231 195.352 444.931 195.352 442.331H198.152C198.152 447.198 197.418 450.764 195.952 453.031C195.218 454.231 194.185 455.198 192.852 455.931C191.518 456.664 189.985 457.031 188.252 457.031C185.518 457.031 183.452 456.631 182.052 455.831C180.652 454.964 179.485 453.564 178.552 451.631H178.352C175.685 455.231 171.952 457.031 167.152 457.031ZM172.052 453.031C174.652 453.031 176.685 451.564 178.152 448.631V428.831L172.552 430.831C170.352 431.631 168.718 433.164 167.652 435.431C166.652 437.631 166.152 440.598 166.152 444.331C166.152 447.598 166.752 449.864 167.952 451.131C169.152 452.398 170.518 453.031 172.052 453.031ZM204.133 453.431H207.933C208.533 453.431 208.933 453.331 209.133 453.131C209.399 452.864 209.533 452.431 209.533 451.831V412.431C209.533 411.831 209.399 411.431 209.133 411.231C208.933 410.964 208.533 410.831 207.933 410.831H204.133V408.431H221.133V417.331L221.633 417.431C222.966 414.298 224.666 411.831 226.733 410.031C228.866 408.164 231.299 407.231 234.033 407.231C235.699 407.231 237.133 407.431 238.333 407.831C239.533 408.164 240.666 408.698 241.733 409.431C243.399 410.631 244.699 412.298 245.633 414.431C246.633 416.564 247.133 418.764 247.133 421.031V451.831C247.133 452.431 247.233 452.864 247.433 453.131C247.699 453.331 248.133 453.431 248.733 453.431H252.533V455.831H230.733V453.431H233.933C234.533 453.431 234.933 453.331 235.133 453.131C235.399 452.864 235.533 452.431 235.533 451.831V418.131C235.533 412.998 233.999 410.431 230.933 410.431C229.533 410.431 228.066 411.364 226.533 413.231C224.999 415.098 223.699 417.564 222.633 420.631C221.633 423.698 221.133 426.964 221.133 430.431V451.831C221.133 452.431 221.233 452.864 221.433 453.131C221.699 453.331 222.133 453.431 222.733 453.431H225.933V455.831H204.133V453.431ZM280.799 476.631C278.466 476.631 276.299 476.064 274.299 474.931C272.299 473.798 271.299 472.198 271.299 470.131C271.299 469.131 271.533 468.331 271.999 467.731C272.533 467.198 273.266 466.931 274.199 466.931C275.199 466.931 275.899 467.231 276.299 467.831C276.699 468.431 277.033 469.364 277.299 470.631C277.833 473.164 279.466 474.431 282.199 474.431C283.666 474.431 284.799 473.998 285.599 473.131C286.466 472.264 286.899 471.164 286.899 469.831C286.899 468.564 286.499 467.531 285.699 466.731C284.899 465.998 283.699 465.631 282.099 465.631H277.399L278.799 456.831C275.199 456.298 271.999 454.898 269.199 452.631C266.399 450.298 264.233 447.364 262.699 443.831C261.233 440.231 260.499 436.331 260.499 432.131C260.499 427.598 261.366 423.431 263.099 419.631C264.899 415.831 267.399 412.831 270.599 410.631C273.866 408.364 277.533 407.231 281.599 407.231C284.799 407.231 287.466 407.898 289.599 409.231C291.799 410.564 293.433 412.264 294.499 414.331C295.566 416.398 296.099 418.531 296.099 420.731C296.099 423.131 295.366 425.231 293.899 427.031C292.433 428.764 290.666 429.631 288.599 429.631C287.066 429.631 285.799 429.198 284.799 428.331C283.799 427.398 283.299 426.164 283.299 424.631C283.299 422.831 284.366 421.064 286.499 419.331C288.099 417.998 288.899 416.631 288.899 415.231C288.899 413.831 288.366 412.564 287.299 411.431C286.299 410.231 284.666 409.631 282.399 409.631C279.266 409.631 276.966 411.631 275.499 415.631C274.033 419.564 273.299 425.064 273.299 432.131C273.299 435.664 273.366 438.431 273.499 440.431C273.633 442.364 273.933 444.198 274.399 445.931C274.999 448.398 276.133 450.364 277.799 451.831C279.533 453.298 281.533 454.031 283.799 454.031C287.066 454.031 289.699 452.598 291.699 449.731C293.699 446.864 294.899 443.498 295.299 439.631H297.899C297.499 444.231 295.999 448.298 293.399 451.831C290.799 455.298 286.933 457.031 281.799 457.031H281.199L280.799 460.031H283.299C285.699 460.031 287.699 460.731 289.299 462.131C290.899 463.598 291.699 465.398 291.699 467.531C291.699 470.064 290.799 472.198 288.999 473.931C287.266 475.731 284.533 476.631 280.799 476.631ZM320.277 457.031C316.61 457.031 313.477 456.131 310.877 454.331C308.343 452.531 307.077 449.498 307.077 445.231C307.077 440.898 308.643 437.498 311.777 435.031C314.977 432.498 319.01 430.398 323.877 428.731L331.277 426.131V419.331C331.277 415.931 330.577 413.464 329.177 411.931C327.777 410.398 325.977 409.631 323.777 409.631C321.91 409.631 320.277 410.064 318.877 410.931C317.543 411.731 316.877 412.864 316.877 414.331C316.877 414.731 316.977 415.231 317.177 415.831C317.443 416.364 317.877 416.831 318.477 417.231C319.477 417.831 320.177 418.464 320.577 419.131C321.043 419.798 321.277 420.664 321.277 421.731C321.277 423.331 320.677 424.598 319.477 425.531C318.343 426.398 317.077 426.831 315.677 426.831C313.943 426.831 312.443 426.264 311.177 425.131C309.977 423.931 309.377 422.231 309.377 420.031C309.377 417.498 310.143 415.264 311.677 413.331C313.21 411.331 315.177 409.831 317.577 408.831C319.977 407.764 322.41 407.231 324.877 407.231C329.677 407.231 333.877 408.531 337.477 411.131C341.077 413.664 342.877 417.731 342.877 423.331V448.631C342.877 451.031 343.543 452.231 344.877 452.231C346.077 452.231 346.977 451.231 347.577 449.231C348.177 447.231 348.477 444.931 348.477 442.331H351.277C351.277 447.198 350.543 450.764 349.077 453.031C348.343 454.231 347.31 455.198 345.977 455.931C344.643 456.664 343.11 457.031 341.377 457.031C338.643 457.031 336.577 456.631 335.177 455.831C333.777 454.964 332.61 453.564 331.677 451.631H331.477C328.81 455.231 325.077 457.031 320.277 457.031ZM325.177 453.031C327.777 453.031 329.81 451.564 331.277 448.631V428.831L325.677 430.831C323.477 431.631 321.843 433.164 320.777 435.431C319.777 437.631 319.277 440.598 319.277 444.331C319.277 447.598 319.877 449.864 321.077 451.131C322.277 452.398 323.643 453.031 325.177 453.031ZM368.058 398.231C365.991 398.231 364.224 397.531 362.758 396.131C361.358 394.664 360.658 392.898 360.658 390.831C360.658 388.698 361.358 386.931 362.758 385.531C364.224 384.131 365.991 383.431 368.058 383.431C370.191 383.431 371.958 384.131 373.358 385.531C374.758 386.931 375.458 388.698 375.458 390.831C375.458 392.898 374.758 394.664 373.358 396.131C371.958 397.531 370.191 398.231 368.058 398.231ZM357.258 453.431H361.058C361.658 453.431 362.058 453.331 362.258 453.131C362.524 452.864 362.658 452.431 362.658 451.831V412.431C362.658 411.831 362.524 411.431 362.258 411.231C362.058 410.964 361.658 410.831 361.058 410.831H357.258V408.431H374.258V451.831C374.258 452.431 374.358 452.864 374.558 453.131C374.824 453.331 375.258 453.431 375.858 453.431H379.658V455.831H357.258V453.431ZM388.648 437.231H390.848L395.348 445.131C398.948 451.464 403.481 454.631 408.948 454.631C411.414 454.631 413.248 454.031 414.448 452.831C415.648 451.564 416.248 450.164 416.248 448.631C416.248 447.298 415.881 446.164 415.148 445.231C414.481 444.231 413.281 443.231 411.548 442.231C409.881 441.164 407.281 439.764 403.748 438.031C399.481 435.964 395.881 433.631 392.948 431.031C390.081 428.431 388.648 425.031 388.648 420.831C388.648 416.698 389.948 413.398 392.548 410.931C395.148 408.464 398.314 407.231 402.048 407.231C405.181 407.231 408.514 408.364 412.048 410.631C413.314 411.431 414.314 411.831 415.048 411.831C415.848 411.831 416.381 411.298 416.648 410.231L417.248 408.231H419.048V424.231H416.848L414.948 420.431C413.148 416.831 411.081 414.131 408.748 412.331C406.414 410.531 404.048 409.631 401.648 409.631C399.848 409.631 398.348 410.064 397.148 410.931C396.014 411.798 395.448 413.198 395.448 415.131C395.448 419.064 398.981 422.698 406.048 426.031C410.381 428.098 413.681 429.931 415.948 431.531C418.281 433.131 419.981 434.864 421.048 436.731C422.114 438.598 422.648 440.898 422.648 443.631C422.648 447.764 421.314 451.031 418.648 453.431C416.048 455.831 412.781 457.031 408.848 457.031C405.514 457.031 402.048 455.964 398.448 453.831C396.848 452.764 395.648 452.231 394.848 452.231C393.981 452.231 393.214 452.498 392.548 453.031C391.881 453.498 391.414 454.131 391.148 454.931L390.448 457.031H388.648V437.231Z" fill="#F9E9CC"/>
<path d="M152.6 486.231H165.9V555.431H152.6V486.231ZM162.1 514.431H178.2V525.331H162.1V514.431ZM93 495.831H147.5V506.231H93V495.831ZM120.3 509.531C133.6 509.531 143 516.831 143 527.431C143 538.031 133.6 545.231 120.3 545.231C106.9 545.231 97.5 538.031 97.5 527.431C97.5 516.831 106.9 509.531 120.3 509.531ZM120.3 519.631C114.4 519.631 110.3 522.431 110.3 527.431C110.3 532.431 114.4 535.131 120.3 535.131C126.2 535.131 130.3 532.431 130.3 527.431C130.3 522.431 126.2 519.631 120.3 519.631ZM113.6 486.031H126.9V500.931H113.6V486.031ZM106.2 566.531H169.2V577.131H106.2V566.531ZM106.2 550.231H119.5V571.131H106.2V550.231ZM195.292 490.031H253.992V500.631H195.292V490.031ZM185.092 522.031H268.892V532.631H185.092V522.031ZM220.192 529.531H233.492V548.931H220.192V529.531ZM245.992 490.031H259.092V497.431C259.092 505.431 259.092 514.731 256.192 526.931L243.092 525.631C245.992 513.731 245.992 505.231 245.992 497.431V490.031ZM193.492 545.631H259.192V578.731H245.892V556.131H193.492V545.631ZM340.584 486.231H353.984V552.731H340.584V486.231ZM292.284 566.531H356.284V577.131H292.284V566.531ZM292.284 546.031H305.584V570.831H292.284V546.031ZM303.584 492.031C317.784 492.031 328.684 501.831 328.684 515.531C328.684 529.131 317.784 539.031 303.584 539.031C289.384 539.031 278.384 529.131 278.384 515.531C278.384 501.831 289.384 492.031 303.584 492.031ZM303.584 503.531C296.684 503.531 291.384 507.931 291.384 515.531C291.384 523.031 296.684 527.431 303.584 527.431C310.384 527.431 315.684 523.031 315.684 515.531C315.684 507.931 310.384 503.531 303.584 503.531Z" fill="#F9E9CC"/>
<path d="M59.2 669.631H66.2C67.1333 669.631 67.7667 669.464 68.1 669.131C68.4333 668.731 68.6 668.098 68.6 667.231V607.231C68.6 606.298 68.4333 605.664 68.1 605.331C67.7667 604.998 67.1333 604.831 66.2 604.831H59.2V601.631H115.4L116 624.831H112.8C112.8 624.364 112.433 622.864 111.7 620.331C111.033 617.798 110.067 615.498 108.8 613.431C107.267 610.764 105.5 608.664 103.5 607.131C101.5 605.598 99.2667 604.831 96.8 604.831H85.8C84.9333 604.831 84.3 604.998 83.9 605.331C83.5667 605.664 83.4 606.298 83.4 607.231V634.831H88.5C90.3 634.831 91.9667 634.098 93.5 632.631C95.0333 631.164 96.2333 629.364 97.1 627.231C98.0333 625.031 98.5 622.964 98.5 621.031H101.7V652.331H98.5C98.5 650.331 98.0333 648.264 97.1 646.131C96.2333 643.931 95.0333 642.098 93.5 640.631C91.9667 639.164 90.3 638.431 88.5 638.431H83.4V667.231C83.4 668.098 83.5667 668.731 83.9 669.131C84.3 669.464 84.9333 669.631 85.8 669.631H96.7C100.367 669.631 103.433 668.164 105.9 665.231C108.367 662.298 110.233 659.031 111.5 655.431C112.033 653.898 112.5 651.998 112.9 649.731C113.3 647.464 113.533 645.964 113.6 645.231H116.8L116.2 672.831H59.2V669.631ZM127.843 654.231H130.043L134.543 662.131C138.143 668.464 142.676 671.631 148.143 671.631C150.61 671.631 152.443 671.031 153.643 669.831C154.843 668.564 155.443 667.164 155.443 665.631C155.443 664.298 155.076 663.164 154.343 662.231C153.676 661.231 152.476 660.231 150.743 659.231C149.076 658.164 146.476 656.764 142.943 655.031C138.676 652.964 135.076 650.631 132.143 648.031C129.276 645.431 127.843 642.031 127.843 637.831C127.843 633.698 129.143 630.398 131.743 627.931C134.343 625.464 137.51 624.231 141.243 624.231C144.376 624.231 147.71 625.364 151.243 627.631C152.51 628.431 153.51 628.831 154.243 628.831C155.043 628.831 155.576 628.298 155.843 627.231L156.443 625.231H158.243V641.231H156.043L154.143 637.431C152.343 633.831 150.276 631.131 147.943 629.331C145.61 627.531 143.243 626.631 140.843 626.631C139.043 626.631 137.543 627.064 136.343 627.931C135.21 628.798 134.643 630.198 134.643 632.131C134.643 636.064 138.176 639.698 145.243 643.031C149.576 645.098 152.876 646.931 155.143 648.531C157.476 650.131 159.176 651.864 160.243 653.731C161.31 655.598 161.843 657.898 161.843 660.631C161.843 664.764 160.51 668.031 157.843 670.431C155.243 672.831 151.976 674.031 148.043 674.031C144.71 674.031 141.243 672.964 137.643 670.831C136.043 669.764 134.843 669.231 134.043 669.231C133.176 669.231 132.41 669.498 131.743 670.031C131.076 670.498 130.61 671.131 130.343 671.931L129.643 674.031H127.843V654.231ZM167.812 693.231H173.412C174.012 693.231 174.412 693.098 174.612 692.831C174.878 692.631 175.012 692.231 175.012 691.631V629.431C175.012 628.831 174.878 628.431 174.612 628.231C174.412 627.964 174.012 627.831 173.412 627.831H167.812V625.431H186.612V631.231H187.212C188.078 629.364 189.312 627.731 190.912 626.331C192.578 624.931 194.478 624.231 196.612 624.231C200.078 624.231 203.178 625.431 205.912 627.831C208.645 630.164 210.778 633.264 212.312 637.131C213.845 640.931 214.612 644.931 214.612 649.131C214.612 653.398 213.878 657.431 212.412 661.231C210.945 665.031 208.878 668.131 206.212 670.531C203.545 672.864 200.478 674.031 197.012 674.031C194.878 674.031 192.978 673.398 191.312 672.131C189.645 670.864 188.278 669.131 187.212 666.931L186.612 667.131V691.631C186.612 692.231 186.712 692.631 186.912 692.831C187.178 693.098 187.612 693.231 188.212 693.231H193.812V695.631H167.812V693.231ZM195.212 670.831C199.612 670.831 201.812 663.598 201.812 649.131C201.812 634.664 199.612 627.431 195.212 627.431C193.678 627.431 192.245 628.398 190.912 630.331C189.645 632.198 188.612 634.764 187.812 638.031C187.012 641.298 186.612 644.898 186.612 648.831C186.612 653.631 187.078 657.698 188.012 661.031C188.945 664.364 190.078 666.831 191.412 668.431C192.745 670.031 194.012 670.831 195.212 670.831ZM237.206 674.031C233.54 674.031 230.406 673.131 227.806 671.331C225.273 669.531 224.006 666.498 224.006 662.231C224.006 657.898 225.573 654.498 228.706 652.031C231.906 649.498 235.94 647.398 240.806 645.731L248.206 643.131V636.331C248.206 632.931 247.506 630.464 246.106 628.931C244.706 627.398 242.906 626.631 240.706 626.631C238.84 626.631 237.206 627.064 235.806 627.931C234.473 628.731 233.806 629.864 233.806 631.331C233.806 631.731 233.906 632.231 234.106 632.831C234.373 633.364 234.806 633.831 235.406 634.231C236.406 634.831 237.106 635.464 237.506 636.131C237.973 636.798 238.206 637.664 238.206 638.731C238.206 640.331 237.606 641.598 236.406 642.531C235.273 643.398 234.006 643.831 232.606 643.831C230.873 643.831 229.373 643.264 228.106 642.131C226.906 640.931 226.306 639.231 226.306 637.031C226.306 634.498 227.073 632.264 228.606 630.331C230.14 628.331 232.106 626.831 234.506 625.831C236.906 624.764 239.34 624.231 241.806 624.231C246.606 624.231 250.806 625.531 254.406 628.131C258.006 630.664 259.806 634.731 259.806 640.331V665.631C259.806 668.031 260.473 669.231 261.806 669.231C263.006 669.231 263.906 668.231 264.506 666.231C265.106 664.231 265.406 661.931 265.406 659.331H268.206C268.206 664.198 267.473 667.764 266.006 670.031C265.273 671.231 264.24 672.198 262.906 672.931C261.573 673.664 260.04 674.031 258.306 674.031C255.573 674.031 253.506 673.631 252.106 672.831C250.706 671.964 249.54 670.564 248.606 668.631H248.406C245.74 672.231 242.006 674.031 237.206 674.031ZM242.106 670.031C244.706 670.031 246.74 668.564 248.206 665.631V645.831L242.606 647.831C240.406 648.631 238.773 650.164 237.706 652.431C236.706 654.631 236.206 657.598 236.206 661.331C236.206 664.598 236.806 666.864 238.006 668.131C239.206 669.398 240.573 670.031 242.106 670.031ZM283.188 616.431C283.188 614.764 283.554 613.098 284.288 611.431C285.021 609.764 286.054 608.398 287.388 607.331C288.721 606.198 290.254 605.631 291.988 605.631C293.454 605.631 294.754 605.798 295.887 606.131C297.021 606.464 298.454 606.998 300.188 607.731C302.521 608.731 304.654 609.231 306.588 609.231C308.788 609.231 310.121 607.898 310.588 605.231H312.788C312.788 606.898 312.421 608.564 311.688 610.231C310.954 611.898 309.921 613.298 308.588 614.431C307.254 615.498 305.721 616.031 303.988 616.031C302.521 616.031 301.221 615.864 300.088 615.531C298.954 615.198 297.521 614.664 295.788 613.931C293.454 612.931 291.321 612.431 289.388 612.431C287.188 612.431 285.854 613.764 285.388 616.431H283.188ZM274.188 670.431H277.988C278.588 670.431 278.988 670.331 279.188 670.131C279.454 669.864 279.588 669.431 279.588 668.831V629.431C279.588 628.831 279.454 628.431 279.188 628.231C278.988 627.964 278.588 627.831 277.988 627.831H274.188V625.431H291.188V634.331L291.688 634.431C293.021 631.298 294.721 628.831 296.788 627.031C298.921 625.164 301.354 624.231 304.088 624.231C305.754 624.231 307.188 624.431 308.388 624.831C309.588 625.164 310.721 625.698 311.788 626.431C313.454 627.631 314.754 629.298 315.688 631.431C316.688 633.564 317.188 635.764 317.188 638.031V668.831C317.188 669.431 317.288 669.864 317.488 670.131C317.754 670.331 318.188 670.431 318.788 670.431H322.588V672.831H300.788V670.431H303.988C304.588 670.431 304.988 670.331 305.188 670.131C305.454 669.864 305.588 669.431 305.588 668.831V635.131C305.588 629.998 304.054 627.431 300.988 627.431C299.588 627.431 298.121 628.364 296.587 630.231C295.054 632.098 293.754 634.564 292.688 637.631C291.688 640.698 291.188 643.964 291.188 647.431V668.831C291.188 669.431 291.288 669.864 291.488 670.131C291.754 670.331 292.188 670.431 292.788 670.431H295.988V672.831H274.188V670.431ZM350.954 674.031C347.354 674.031 343.987 672.964 340.854 670.831C337.721 668.631 335.221 665.631 333.354 661.831C331.487 658.031 330.554 653.798 330.554 649.131C330.554 644.464 331.487 640.231 333.354 636.431C335.221 632.631 337.721 629.664 340.854 627.531C343.987 625.331 347.354 624.231 350.954 624.231C354.554 624.231 357.921 625.331 361.054 627.531C364.187 629.664 366.687 632.631 368.554 636.431C370.421 640.231 371.354 644.464 371.354 649.131C371.354 653.798 370.421 658.031 368.554 661.831C366.687 665.631 364.187 668.631 361.054 670.831C357.921 672.964 354.554 674.031 350.954 674.031ZM350.954 671.631C353.821 671.631 355.787 669.864 356.854 666.331C357.987 662.798 358.554 657.064 358.554 649.131C358.554 641.198 357.987 635.464 356.854 631.931C355.787 628.398 353.821 626.631 350.954 626.631C348.087 626.631 346.087 628.398 344.954 631.931C343.887 635.464 343.354 641.198 343.354 649.131C343.354 657.064 343.887 662.798 344.954 666.331C346.087 669.864 348.087 671.631 350.954 671.631ZM378.745 670.431H384.345C384.945 670.431 385.345 670.331 385.545 670.131C385.811 669.864 385.945 669.431 385.945 668.831V605.631C385.945 605.031 385.811 604.631 385.545 604.431C385.345 604.164 384.945 604.031 384.345 604.031H378.745V601.631H397.545V668.831C397.545 669.431 397.645 669.864 397.845 670.131C398.111 670.331 398.545 670.431 399.145 670.431H404.745V672.831H378.745V670.431Z" fill="#F9E9CC"/>
<path d="M235 4.33105L235 116.331" stroke="#A33631" stroke-width="8" stroke-linecap="round"/>
</svg>
