<svg width="1074" height="274" viewBox="0 0 1074 274" fill="none" xmlns="http://www.w3.org/2000/svg">
<path d="M1059.45 166.978L1060.19 117.983" stroke="#A33631" stroke-width="8"/>
<path d="M398.219 243.489L398.997 191.995" stroke="#7B9B9E" stroke-width="5"/>
<path d="M402.131 84.0303L402.909 32.5362" stroke="#7B9B9E" stroke-width="5"/>
<path d="M453.721 243.829L454.499 192.335" stroke="#7B9B9E" stroke-width="5"/>
<path d="M457.623 84.8691L458.402 33.375" stroke="#7B9B9E" stroke-width="5"/>
<path d="M511.699 245.705L512.478 194.211" stroke="#7B9B9E" stroke-width="5"/>
<path d="M515.602 86.7461L516.38 35.252" stroke="#7B9B9E" stroke-width="5"/>
<path d="M566.707 245.537L567.486 194.043" stroke="#7B9B9E" stroke-width="5"/>
<path d="M570.611 86.5781L571.39 35.084" stroke="#7B9B9E" stroke-width="5"/>
<path d="M626.701 246.444L627.48 194.95" stroke="#7B9B9E" stroke-width="5"/>
<path d="M630.604 87.4854L631.382 35.9912" stroke="#7B9B9E" stroke-width="5"/>
<path d="M682.693 247.291L683.472 195.797" stroke="#7B9B9E" stroke-width="5"/>
<path d="M686.598 88.3311L687.376 36.8369" stroke="#7B9B9E" stroke-width="5"/>
<path d="M742.688 248.197L743.466 196.703" stroke="#7B9B9E" stroke-width="5"/>
<path d="M746.592 89.2383L747.37 37.7442" stroke="#7B9B9E" stroke-width="5"/>
<path d="M804.68 249.135L805.458 197.641" stroke="#7B9B9E" stroke-width="5"/>
<path d="M808.584 90.1758L809.363 38.6817" stroke="#7B9B9E" stroke-width="5"/>
<path d="M866.674 250.072L867.452 198.578" stroke="#7B9B9E" stroke-width="5"/>
<path d="M870.576 91.1133L871.355 39.6192" stroke="#7B9B9E" stroke-width="5"/>
<path d="M926.666 250.979L927.445 199.485" stroke="#7B9B9E" stroke-width="5"/>
<path d="M930.57 92.0205L931.349 40.5264" stroke="#7B9B9E" stroke-width="5"/>
<path d="M994.658 252.008L995.437 200.514" stroke="#7B9B9E" stroke-width="5"/>
<path d="M997.062 93.0254L997.841 41.5313" stroke="#7B9B9E" stroke-width="5"/>
<rect x="60.0542" y="251.878" width="247" height="1021" rx="11" transform="rotate(-89.1338 60.0542 251.878)" stroke="#7B9B9E" stroke-width="8"/>
<rect x="126.392" y="163.871" width="69" height="131" rx="13" transform="rotate(-89.1338 126.392 163.871)" fill="#7B9B9E" stroke="#7B9B9E" stroke-width="8"/>
<path d="M261.915 130.354C261.915 130.354 1067.83 142.356 1083.82 142.781C1099.82 143.205 1139.43 201.924 1178.94 168.722C1207.58 144.652 1192.68 109.269 1180 98.2914C1167.66 87.6036 1144.23 83.2688 1163.67 53.9774" stroke="#A33631" stroke-width="8"/>
<path d="M238.142 237.249L238.182 234.657C238.187 234.321 238.13 234.092 238.012 233.971C237.87 233.848 237.643 233.785 237.331 233.78L217.641 233.483L217.589 236.938L216.293 236.919L216.313 235.587C216.329 234.531 216.116 233.555 215.673 232.661C215.231 231.742 214.592 231.12 213.757 230.796L213.798 228.096L237.411 228.453C237.723 228.458 237.952 228.401 238.098 228.283C238.22 228.141 238.283 227.914 238.288 227.602L238.327 225.01L239.479 225.028L239.294 237.266L238.142 237.249ZM238.426 218.456L238.465 215.937C238.47 215.601 238.413 215.372 238.295 215.25C238.153 215.128 237.926 215.064 237.614 215.06L216.016 214.733C215.68 214.728 215.451 214.784 215.33 214.903C215.208 215.021 215.144 215.248 215.139 215.584L215.101 218.104L213.949 218.086L214.132 205.992L215.284 206.009L215.246 208.529C215.241 208.841 215.298 209.07 215.416 209.215C215.534 209.337 215.761 209.401 216.097 209.406L225.6 209.549L225.728 201.054L216.225 200.911C215.889 200.906 215.66 200.962 215.539 201.08C215.417 201.198 215.353 201.425 215.348 201.761L215.309 204.353L214.157 204.336L214.341 192.169L215.493 192.187L215.455 194.706C215.45 195.018 215.507 195.247 215.625 195.393C215.743 195.515 215.97 195.578 216.306 195.583L237.903 195.91C238.215 195.914 238.444 195.858 238.59 195.74C238.712 195.598 238.775 195.371 238.78 195.059L238.818 192.539L239.97 192.557L239.787 204.651L238.635 204.634L238.674 202.114C238.679 201.778 238.622 201.549 238.504 201.427C238.362 201.305 238.135 201.242 237.823 201.237L227.024 201.074L226.895 209.569L237.694 209.732C238.006 209.737 238.235 209.68 238.381 209.563C238.503 209.42 238.567 209.193 238.571 208.881L238.609 206.362L239.761 206.379L239.578 218.474L238.426 218.456Z" fill="#F9E9CC"/>
<path d="M337.644 204.838L337.682 202.318C337.687 201.982 337.631 201.753 337.512 201.631C337.37 201.509 337.143 201.446 336.831 201.441L315.234 201.114C314.898 201.109 314.669 201.166 314.547 201.284C314.425 201.402 314.362 201.629 314.357 201.965L314.319 204.485L313.167 204.468L313.35 192.373L314.501 192.39L314.463 194.91C314.459 195.222 314.515 195.451 314.633 195.597C314.751 195.719 314.978 195.782 315.314 195.787L324.817 195.931L324.946 187.436L315.443 187.292C315.107 187.287 314.878 187.343 314.756 187.462C314.634 187.58 314.571 187.807 314.566 188.143L314.527 190.735L313.375 190.717L313.559 178.551L314.71 178.568L314.672 181.088C314.668 181.4 314.724 181.629 314.842 181.774C314.96 181.896 315.187 181.96 315.523 181.965L337.121 182.291C337.433 182.296 337.662 182.239 337.807 182.122C337.93 181.979 337.993 181.752 337.998 181.44L338.036 178.921L339.188 178.938L339.005 191.033L337.853 191.015L337.891 188.496C337.896 188.16 337.84 187.931 337.721 187.809C337.579 187.687 337.352 187.623 337.04 187.619L326.241 187.455L326.113 195.95L336.912 196.114C337.224 196.118 337.453 196.062 337.598 195.944C337.721 195.802 337.784 195.575 337.789 195.263L337.827 192.743L338.979 192.76L338.796 204.855L337.644 204.838Z" fill="#F9E9CC"/>
<path d="M339.535 79.8513L339.573 77.3316C339.578 76.9957 339.521 76.7668 339.403 76.645C339.261 76.5228 339.034 76.4594 338.722 76.4547L317.124 76.1281C316.788 76.123 316.559 76.1796 316.438 76.2977C316.316 76.4159 316.252 76.643 316.247 76.9789L316.209 79.4987L315.057 79.4812L315.24 67.3866L316.392 67.404L316.354 69.9238C316.349 70.2357 316.406 70.4646 316.524 70.6104C316.642 70.7322 316.869 70.7956 317.205 70.8007L326.708 70.9444L326.836 62.4494L317.333 62.3057C316.997 62.3006 316.768 62.3572 316.647 62.4753C316.525 62.5935 316.461 62.8206 316.456 63.1565L316.417 65.7482L315.265 65.7308L315.449 53.5642L316.601 53.5816L316.563 56.1013C316.558 56.4133 316.615 56.6422 316.733 56.788C316.851 56.9098 317.078 56.9732 317.414 56.9783L339.011 57.3048C339.323 57.3096 339.552 57.253 339.698 57.1352C339.82 56.993 339.884 56.766 339.888 56.454L339.926 53.9343L341.078 53.9517L340.895 66.0463L339.744 66.0289L339.782 63.5092C339.787 63.1732 339.73 62.9443 339.612 62.8225C339.47 62.7004 339.243 62.6369 338.931 62.6322L328.132 62.469L328.004 70.964L338.802 71.1273C339.114 71.132 339.343 71.0754 339.489 70.9576C339.611 70.8155 339.675 70.5884 339.679 70.2764L339.717 67.7567L340.869 67.7741L340.686 79.8687L339.535 79.8513Z" fill="#F9E9CC"/>
<rect x="347.762" y="207.223" width="155" height="22" rx="11" transform="rotate(-89.1338 347.762 207.223)" fill="#7B9B9E"/>
<rect x="330.656" y="147.957" width="33" height="40" rx="15" transform="rotate(-89.1338 330.656 147.957)" fill="#7B9B9E"/>
<rect x="60.31" y="234.88" width="212" height="45" transform="rotate(-89.1338 60.31 234.88)" fill="#7B9B9E" stroke="#7B9B9E" stroke-width="8"/>
<path d="M105.306 235.561L108.511 23.5852L129.509 23.9026C135.583 23.9945 140.433 28.9932 140.341 35.0677L137.469 225.046C137.377 231.12 132.378 235.97 126.304 235.878L105.306 235.561Z" fill="#7B9B9E" stroke="#7B9B9E" stroke-width="8"/>
<path d="M393.663 198.986C393.651 199.802 393.323 200.517 392.679 201.13C392.035 201.733 391.223 202.196 390.243 202.522C389.252 202.835 388.264 202.985 387.278 202.97C386.292 202.955 385.315 202.776 384.345 202.433C383.364 202.078 382.561 201.589 381.936 200.968C381.311 200.335 381.004 199.611 381.017 198.795C381.029 197.979 381.357 197.27 382.001 196.667C382.645 196.054 383.462 195.59 384.453 195.276C385.433 194.951 386.416 194.796 387.402 194.811C388.387 194.826 389.371 195.011 390.351 195.366C391.321 195.709 392.118 196.197 392.744 196.83C393.369 197.451 393.675 198.17 393.663 198.986ZM393.119 198.978C393.126 198.559 392.903 198.255 392.453 198.067C391.991 197.867 391.494 197.763 390.961 197.755L383.754 197.646C383.222 197.638 382.727 197.727 382.271 197.913C381.804 198.087 381.567 198.384 381.561 198.803C381.554 199.222 381.782 199.532 382.244 199.731C382.694 199.92 383.186 200.018 383.718 200.026L390.925 200.135C391.458 200.143 391.958 200.06 392.425 199.885C392.882 199.7 393.113 199.397 393.119 198.978Z" fill="#F9E9CC"/>
<path d="M448.505 209.816C448.493 210.632 448.164 211.347 447.52 211.96C446.877 212.563 446.065 213.027 445.085 213.352C444.094 213.666 443.106 213.815 442.12 213.8C441.134 213.785 440.156 213.606 439.187 213.263C438.206 212.908 437.403 212.42 436.778 211.798C436.152 211.165 435.846 210.441 435.858 209.625C435.871 208.809 436.199 208.1 436.843 207.498C437.487 206.884 438.304 206.42 439.295 206.106C440.275 205.781 441.257 205.626 442.243 205.641C443.229 205.656 444.213 205.841 445.193 206.196C446.163 206.539 446.96 207.027 447.585 207.66C448.211 208.281 448.517 209 448.505 209.816ZM447.961 209.808C447.967 209.389 447.745 209.085 447.295 208.897C446.833 208.697 446.336 208.593 445.803 208.585L438.596 208.476C438.063 208.468 437.569 208.557 437.113 208.743C436.646 208.917 436.409 209.214 436.402 209.633C436.396 210.052 436.624 210.362 437.085 210.562C437.536 210.75 438.027 210.848 438.56 210.856L445.767 210.965C446.3 210.973 446.8 210.89 447.267 210.715C447.723 210.53 447.955 210.227 447.961 209.808ZM451.177 204.04C450.927 203.323 450.556 202.745 450.064 202.306C449.583 201.857 449.071 201.628 448.527 201.62C448.448 201.619 448.379 201.646 448.322 201.702C448.253 201.746 448.218 201.814 448.217 201.904C448.215 201.995 448.258 202.132 448.346 202.315C448.445 202.52 448.493 202.713 448.491 202.895C448.486 203.212 448.374 203.494 448.155 203.74C447.936 203.974 447.634 204.089 447.248 204.083C446.795 204.076 446.446 203.924 446.201 203.625C445.945 203.327 445.82 202.985 445.826 202.599C445.834 202.044 446.028 201.611 446.406 201.299C446.774 200.976 447.247 200.819 447.825 200.827C448.754 200.842 449.549 201.126 450.209 201.68C450.87 202.222 451.352 202.932 451.656 203.81L451.177 204.04ZM447.866 198.069L447.885 196.845C447.887 196.687 447.861 196.579 447.805 196.521C447.738 196.463 447.63 196.433 447.483 196.431L438.185 196.291L438.161 197.922L437.549 197.913L437.558 197.284C437.566 196.786 437.465 196.325 437.256 195.902C437.047 195.469 436.746 195.175 436.351 195.022L436.37 193.747L447.521 193.915C447.669 193.918 447.777 193.891 447.845 193.835C447.903 193.768 447.933 193.661 447.935 193.514L447.954 192.29L448.498 192.298L448.41 198.077L447.866 198.069Z" fill="#F9E9CC"/>
<path d="M452.44 81.861C452.428 82.6769 452.1 83.3917 451.456 84.0054C450.812 84.6077 450 85.0715 449.021 85.3967C448.03 85.7104 447.041 85.8598 446.056 85.8449C445.07 85.83 444.092 85.6509 443.122 85.3075C442.142 84.9527 441.339 84.4645 440.713 83.8429C440.088 83.2101 439.782 82.4857 439.794 81.6698C439.806 80.8539 440.134 80.1448 440.778 79.5424C441.422 78.9288 442.24 78.4651 443.231 78.1514C444.21 77.8261 445.193 77.671 446.179 77.6859C447.165 77.7008 448.148 77.8857 449.129 78.2405C450.098 78.5839 450.896 79.072 451.521 79.7049C452.146 80.3264 452.453 81.0451 452.44 81.861ZM451.897 81.8528C451.903 81.4335 451.681 81.1298 451.23 80.9416C450.769 80.7419 450.271 80.6381 449.739 80.63L442.532 80.5211C441.999 80.513 441.505 80.6019 441.048 80.7877C440.581 80.962 440.344 81.2587 440.338 81.678C440.332 82.0973 440.559 82.4068 441.021 82.6065C441.471 82.7946 441.963 82.8927 442.496 82.9008L449.703 83.0098C450.235 83.0178 450.735 82.9347 451.203 82.7604C451.659 82.5746 451.89 82.2721 451.897 81.8528ZM455.112 76.0854C454.862 75.3676 454.491 74.7895 453.999 74.3514C453.519 73.9021 453.006 73.6733 452.462 73.6651C452.383 73.6639 452.315 73.6912 452.257 73.747C452.188 73.7913 452.153 73.8588 452.152 73.9494C452.151 74.0401 452.194 74.1767 452.282 74.3594C452.381 74.5649 452.429 74.7584 452.426 74.9397C452.421 75.257 452.309 75.5386 452.09 75.7847C451.871 76.0194 451.569 76.1339 451.184 76.128C450.731 76.1212 450.382 75.9686 450.137 75.6701C449.881 75.3716 449.755 75.0296 449.761 74.6444C449.77 74.0891 449.963 73.6556 450.342 73.344C450.71 73.0208 451.182 72.8636 451.76 72.8724C452.69 72.8864 453.484 73.1705 454.145 73.7245C454.805 74.2672 455.288 74.9773 455.592 75.8546L455.112 76.0854ZM451.802 70.114L451.821 68.8902C451.823 68.7315 451.796 68.6234 451.74 68.5659C451.673 68.5082 451.566 68.4783 451.419 68.4761L442.121 68.3355L442.096 69.9673L441.484 69.958L441.494 69.3291C441.501 68.8305 441.401 68.3699 441.192 67.9474C440.983 67.5135 440.681 67.2199 440.287 67.0666L440.306 65.7918L451.457 65.9603C451.604 65.9626 451.712 65.9359 451.781 65.8802C451.839 65.8131 451.869 65.7059 451.871 65.5586L451.889 64.3347L452.433 64.3429L452.346 70.1223L451.802 70.114Z" fill="#F9E9CC"/>
<path d="M506.499 210.693C506.487 211.509 506.159 212.224 505.515 212.837C504.871 213.44 504.059 213.904 503.079 214.229C502.088 214.542 501.1 214.692 500.114 214.677C499.128 214.662 498.15 214.483 497.181 214.14C496.2 213.785 495.397 213.297 494.772 212.675C494.147 212.042 493.84 211.318 493.853 210.502C493.865 209.686 494.193 208.977 494.837 208.374C495.481 207.761 496.298 207.297 497.289 206.983C498.269 206.658 499.252 206.503 500.237 206.518C501.223 206.533 502.207 206.718 503.187 207.073C504.157 207.416 504.954 207.904 505.58 208.537C506.205 209.158 506.511 209.877 506.499 210.693ZM505.955 210.685C505.961 210.266 505.739 209.962 505.289 209.774C504.827 209.574 504.33 209.47 503.797 209.462L496.59 209.353C496.058 209.345 495.563 209.434 495.107 209.62C494.64 209.794 494.403 210.091 494.396 210.51C494.39 210.929 494.618 211.239 495.08 211.438C495.53 211.627 496.022 211.725 496.554 211.733L503.761 211.842C504.294 211.85 504.794 211.767 505.261 211.592C505.718 211.407 505.949 211.104 505.955 210.685ZM509.171 204.917C508.921 204.2 508.55 203.622 508.058 203.183C507.577 202.734 507.065 202.505 506.521 202.497C506.442 202.496 506.373 202.523 506.316 202.579C506.247 202.623 506.212 202.691 506.211 202.781C506.209 202.872 506.253 203.009 506.34 203.191C506.439 203.397 506.487 203.59 506.485 203.772C506.48 204.089 506.368 204.371 506.149 204.617C505.93 204.851 505.628 204.966 505.243 204.96C504.789 204.953 504.44 204.801 504.195 204.502C503.939 204.204 503.814 203.862 503.82 203.476C503.828 202.921 504.022 202.488 504.401 202.176C504.768 201.853 505.241 201.696 505.819 201.704C506.748 201.718 507.543 202.003 508.203 202.557C508.864 203.099 509.346 203.809 509.65 204.687L509.171 204.917ZM506.732 195.287C506.721 196.012 506.291 196.742 505.441 197.478C505.2 197.689 505.032 197.868 504.94 198.014C504.836 198.148 504.782 198.318 504.779 198.522C504.776 198.68 504.826 198.811 504.926 198.915C505.015 199.018 505.145 199.071 505.315 199.074L506.402 199.09L506.392 199.77L505.593 199.758C505.151 199.751 504.738 199.706 504.354 199.62C503.959 199.524 503.503 199.313 502.987 198.988C502.459 198.662 501.888 198.166 501.275 197.5C500.483 196.66 499.762 196.009 499.111 195.546C498.449 195.082 497.728 194.845 496.946 194.833C496.311 194.823 495.777 194.945 495.342 195.2C494.907 195.454 494.685 195.892 494.676 196.516C494.67 196.946 494.806 197.311 495.085 197.61C495.352 197.897 495.673 198.044 496.047 198.05C496.5 198.056 496.843 197.903 497.074 197.589C497.259 197.343 497.443 197.158 497.627 197.036C497.799 196.903 498.015 196.838 498.276 196.842C498.57 196.847 498.812 196.958 499.002 197.176C499.191 197.394 499.283 197.668 499.278 197.996C499.271 198.484 499.089 198.906 498.732 199.263C498.375 199.609 497.902 199.778 497.313 199.769C496.713 199.76 496.165 199.593 495.672 199.268C495.167 198.932 494.771 198.484 494.485 197.924C494.199 197.353 494.061 196.727 494.071 196.048C494.09 194.801 494.393 193.859 494.981 193.222C495.557 192.585 496.316 192.273 497.256 192.287C497.902 192.297 498.483 192.51 498.998 192.926C499.513 193.33 499.959 193.824 500.336 194.408C500.701 194.98 501.109 195.706 501.561 196.586C501.825 197.077 502.164 197.541 502.577 197.978C502.99 198.415 503.489 198.718 504.076 198.885L504.111 198.818C503.789 198.405 503.632 197.943 503.639 197.433C503.642 197.229 503.674 196.986 503.735 196.704C503.796 196.41 503.862 196.167 503.933 195.976C504.123 195.412 504.222 194.897 504.229 194.433C504.235 194.025 504.121 193.683 503.887 193.408C503.642 193.132 503.355 192.992 503.026 192.987C502.698 192.982 502.318 193.004 501.886 193.054L501.894 192.527C502.382 192.467 502.825 192.439 503.222 192.445C503.8 192.454 504.359 192.559 504.9 192.76C505.43 192.949 505.873 193.256 506.229 193.681C506.574 194.106 506.742 194.641 506.732 195.287Z" fill="#F9E9CC"/>
<path d="M510.435 82.738C510.422 83.5539 510.094 84.2687 509.45 84.8823C508.806 85.4847 507.994 85.9484 507.015 86.2737C506.024 86.5874 505.036 86.7368 504.05 86.7219C503.064 86.707 502.086 86.5279 501.116 86.1845C500.136 85.8296 499.333 85.3414 498.707 84.7199C498.082 84.087 497.776 83.3627 497.788 82.5468C497.8 81.7308 498.129 81.0217 498.772 80.4194C499.416 79.8057 500.234 79.342 501.225 79.0283C502.204 78.7031 503.187 78.5479 504.173 78.5628C505.159 78.5777 506.142 78.7626 507.123 79.1175C508.093 79.4609 508.89 79.949 509.515 80.5818C510.14 81.2033 510.447 81.9221 510.435 82.738ZM509.891 82.7297C509.897 82.3105 509.675 82.0067 509.224 81.8186C508.763 81.6189 508.266 81.515 507.733 81.507L500.526 81.398C499.993 81.39 499.499 81.4788 499.043 81.6646C498.575 81.8389 498.338 82.1357 498.332 82.555C498.326 82.9743 498.553 83.2837 499.015 83.4834C499.466 83.6716 499.957 83.7697 500.49 83.7777L507.697 83.8867C508.23 83.8948 508.73 83.8116 509.197 83.6374C509.653 83.4516 509.884 83.149 509.891 82.7297ZM513.106 76.9624C512.856 76.2445 512.485 75.6665 511.993 75.2283C511.513 74.779 511 74.5503 510.457 74.542C510.377 74.5408 510.309 74.5681 510.251 74.6239C510.183 74.6682 510.148 74.7357 510.146 74.8264C510.145 74.917 510.188 75.0537 510.276 75.2364C510.375 75.4419 510.423 75.6353 510.42 75.8166C510.415 76.1339 510.304 76.4156 510.084 76.6616C509.866 76.8964 509.563 77.0108 509.178 77.005C508.725 76.9981 508.376 76.8455 508.131 76.5471C507.875 76.2485 507.75 75.9066 507.755 75.5213C507.764 74.966 507.957 74.5326 508.336 74.2209C508.704 73.8978 509.177 73.7406 509.754 73.7493C510.684 73.7634 511.478 74.0474 512.139 74.6015C512.799 75.1442 513.282 75.8542 513.586 76.7316L513.106 76.9624ZM510.668 67.3317C510.657 68.057 510.226 68.7872 509.376 69.5225C509.135 69.7342 508.968 69.913 508.875 70.059C508.771 70.1934 508.718 70.3626 508.714 70.5666C508.712 70.7252 508.761 70.8563 508.862 70.9599C508.951 71.0632 509.08 71.1162 509.25 71.1188L510.338 71.1352L510.328 71.8151L509.529 71.803C509.087 71.7964 508.674 71.7504 508.29 71.6653C507.895 71.5686 507.439 71.3577 506.922 71.0326C506.394 70.7072 505.824 70.2112 505.21 69.5445C504.418 68.7051 503.697 68.0538 503.047 67.5906C502.385 67.1272 501.663 66.8896 500.881 66.8778C500.247 66.8682 499.712 66.9904 499.278 67.2445C498.843 67.4987 498.621 67.9374 498.612 68.5606C498.605 68.9912 498.741 69.356 499.02 69.6549C499.288 69.9423 499.609 70.0889 499.983 70.0945C500.436 70.1014 500.778 69.9479 501.01 69.634C501.195 69.3874 501.379 69.2032 501.562 69.0813C501.734 68.9479 501.95 68.8831 502.211 68.8871C502.506 68.8915 502.748 69.0029 502.937 69.2211C503.127 69.4393 503.219 69.7127 503.214 70.0414C503.206 70.5287 503.024 70.9509 502.668 71.3083C502.311 71.6542 501.838 71.8228 501.249 71.8139C500.648 71.8048 500.101 71.6378 499.607 71.313C499.102 70.9767 498.707 70.5286 498.42 69.9689C498.134 69.3978 497.996 68.7724 498.007 68.0924C498.025 66.8459 498.329 65.9041 498.916 65.2669C499.493 64.6295 500.251 64.3179 501.192 64.3322C501.838 64.3419 502.418 64.5547 502.933 64.9706C503.449 65.3751 503.895 65.8692 504.271 66.4529C504.637 67.0252 505.045 67.7511 505.496 68.6307C505.761 69.1221 506.1 69.5863 506.512 70.0232C506.925 70.4602 507.425 70.7625 508.012 70.93L508.047 70.8625C507.724 70.4496 507.567 69.9882 507.575 69.4782C507.578 69.2743 507.61 69.0311 507.671 68.7486C507.732 68.4548 507.798 68.2121 507.869 68.0205C508.059 67.4567 508.157 66.9424 508.164 66.4778C508.17 66.0699 508.057 65.7281 507.823 65.4525C507.577 65.1768 507.291 65.0364 506.962 65.0315C506.633 65.0265 506.253 65.0491 505.822 65.0992L505.83 64.5723C506.318 64.5117 506.76 64.4844 507.157 64.4904C507.735 64.4991 508.295 64.6039 508.836 64.8048C509.365 64.9941 509.808 65.3012 510.165 65.726C510.51 66.1506 510.677 66.6858 510.668 67.3317Z" fill="#F9E9CC"/>
<path d="M561.493 211.524C561.481 212.34 561.153 213.055 560.509 213.668C559.865 214.271 559.053 214.735 558.073 215.06C557.083 215.374 556.094 215.523 555.108 215.508C554.122 215.493 553.145 215.314 552.175 214.971C551.194 214.616 550.391 214.128 549.766 213.506C549.141 212.873 548.834 212.149 548.847 211.333C548.859 210.517 549.187 209.808 549.831 209.206C550.475 208.592 551.292 208.128 552.283 207.814C553.263 207.489 554.246 207.334 555.232 207.349C556.218 207.364 557.201 207.549 558.182 207.904C559.151 208.247 559.949 208.735 560.574 209.368C561.199 209.989 561.506 210.708 561.493 211.524ZM560.949 211.516C560.956 211.097 560.734 210.793 560.283 210.605C559.821 210.405 559.324 210.301 558.792 210.293L551.584 210.184C551.052 210.176 550.557 210.265 550.101 210.451C549.634 210.625 549.397 210.922 549.391 211.341C549.384 211.76 549.612 212.07 550.074 212.27C550.524 212.458 551.016 212.556 551.548 212.564L558.756 212.673C559.288 212.681 559.788 212.598 560.255 212.423C560.712 212.238 560.943 211.935 560.949 211.516ZM564.165 205.748C563.915 205.031 563.544 204.453 563.052 204.014C562.571 203.565 562.059 203.336 561.515 203.328C561.436 203.327 561.367 203.354 561.31 203.41C561.241 203.454 561.206 203.522 561.205 203.613C561.203 203.703 561.247 203.84 561.335 204.023C561.434 204.228 561.482 204.421 561.479 204.603C561.474 204.92 561.362 205.202 561.143 205.448C560.924 205.682 560.622 205.797 560.237 205.791C559.783 205.784 559.434 205.632 559.19 205.333C558.933 205.035 558.808 204.693 558.814 204.307C558.822 203.752 559.016 203.319 559.395 203.007C559.762 202.684 560.235 202.527 560.813 202.535C561.742 202.55 562.537 202.834 563.197 203.388C563.858 203.93 564.34 204.64 564.644 205.518L564.165 205.748ZM561.705 197.529C561.69 198.503 561.44 199.304 560.954 199.932C560.458 200.548 559.801 200.849 558.986 200.837C558.521 200.83 558.121 200.671 557.786 200.36C557.439 200.037 557.269 199.644 557.276 199.179C557.282 198.794 557.394 198.489 557.613 198.266C557.832 198.043 558.1 197.933 558.417 197.938C558.973 197.946 559.36 198.213 559.578 198.738C559.633 198.863 559.711 198.978 559.811 199.081C559.912 199.173 560.024 199.221 560.149 199.222C560.455 199.227 560.701 199.083 560.887 198.791C561.061 198.488 561.152 198.081 561.16 197.571C561.178 196.37 560.184 195.755 558.179 195.724C557.238 195.71 556.539 195.864 556.08 196.186C555.622 196.507 555.389 196.912 555.382 197.399L555.356 199.116L554.744 199.107L554.77 197.424C554.778 196.891 554.585 196.503 554.192 196.259C553.788 196.004 553.161 195.869 552.311 195.857C551.28 195.841 550.575 195.955 550.198 196.199C549.809 196.431 549.611 196.796 549.603 197.295C549.596 197.725 549.716 198.096 549.96 198.405C550.194 198.715 550.503 198.873 550.888 198.878C551.137 198.882 551.378 198.716 551.61 198.379C551.876 197.987 552.219 197.793 552.639 197.8C552.911 197.804 553.147 197.909 553.348 198.116C553.549 198.312 553.647 198.58 553.642 198.92C553.636 199.339 553.466 199.699 553.132 200C552.788 200.29 552.361 200.431 551.851 200.423C551.284 200.415 550.788 200.26 550.362 199.959C549.936 199.657 549.613 199.256 549.394 198.754C549.164 198.24 549.053 197.683 549.062 197.083C549.079 195.938 549.365 195.019 549.92 194.324C550.474 193.63 551.216 193.29 552.146 193.304C552.95 193.316 553.586 193.603 554.054 194.166C554.522 194.717 554.829 195.373 554.976 196.135L555.129 196.137C555.182 195.605 555.355 195.098 555.645 194.615C555.925 194.132 556.293 193.74 556.751 193.441C557.209 193.142 557.721 192.997 558.288 193.006C559.41 193.023 560.265 193.443 560.853 194.268C561.441 195.082 561.725 196.169 561.705 197.529Z" fill="#F9E9CC"/>
<path d="M565.429 83.569C565.416 84.3849 565.088 85.0997 564.444 85.7134C563.8 86.3157 562.989 86.7795 562.009 87.1047C561.018 87.4184 560.03 87.5679 559.044 87.5529C558.058 87.538 557.08 87.3589 556.111 87.0155C555.13 86.6607 554.327 86.1725 553.701 85.551C553.076 84.9181 552.77 84.1937 552.782 83.3778C552.795 82.5619 553.123 81.8528 553.766 81.2504C554.411 80.6368 555.228 80.1731 556.219 79.8594C557.198 79.5341 558.181 79.379 559.167 79.3939C560.153 79.4088 561.136 79.5937 562.117 79.9485C563.087 80.2919 563.884 80.78 564.509 81.4129C565.135 82.0344 565.441 82.7531 565.429 83.569ZM564.885 83.5608C564.891 83.1415 564.669 82.8378 564.219 82.6496C563.757 82.4499 563.26 82.3461 562.727 82.338L555.52 82.2291C554.987 82.221 554.493 82.3099 554.037 82.4957C553.569 82.67 553.332 82.9667 553.326 83.386C553.32 83.8053 553.547 84.1148 554.009 84.3145C554.46 84.5026 554.951 84.6007 555.484 84.6088L562.691 84.7178C563.224 84.7258 563.724 84.6427 564.191 84.4684C564.647 84.2826 564.878 83.9801 564.885 83.5608ZM568.1 77.7934C567.851 77.0756 567.48 76.4976 566.987 76.0594C566.507 75.6101 565.995 75.3813 565.451 75.3731C565.371 75.3719 565.303 75.3992 565.245 75.455C565.177 75.4993 565.142 75.5668 565.14 75.6574C565.139 75.7481 565.182 75.8848 565.27 76.0674C565.369 76.273 565.417 76.4664 565.414 76.6477C565.41 76.965 565.298 77.2467 565.079 77.4927C564.86 77.7274 564.558 77.8419 564.172 77.836C563.719 77.8292 563.37 77.6766 563.125 77.3782C562.869 77.0796 562.744 76.7377 562.75 76.3524C562.758 75.7971 562.952 75.3636 563.33 75.052C563.698 74.7288 564.171 74.5716 564.749 74.5804C565.678 74.5944 566.473 74.8785 567.133 75.4325C567.794 75.9752 568.276 76.6853 568.58 77.5626L568.1 77.7934ZM565.64 69.5736C565.626 70.5482 565.376 71.3492 564.89 71.9766C564.393 72.5925 563.737 72.8942 562.921 72.8819C562.456 72.8749 562.056 72.7158 561.721 72.4047C561.375 72.0821 561.205 71.6885 561.212 71.2239C561.218 70.8386 561.33 70.5343 561.549 70.3109C561.767 70.0875 562.036 69.9782 562.353 69.983C562.908 69.9914 563.295 70.2579 563.514 70.7826C563.569 70.9081 563.646 71.0227 563.747 71.1262C563.847 71.2184 563.96 71.2654 564.085 71.2673C564.391 71.2719 564.636 71.1283 564.822 70.8364C564.997 70.533 565.088 70.1264 565.096 69.6164C565.114 68.4152 564.12 67.7995 562.114 67.7691C561.174 67.7549 560.474 67.9087 560.016 68.2305C559.558 68.5522 559.325 68.9568 559.318 69.444L559.292 71.1608L558.68 71.1516L558.705 69.4688C558.713 68.9362 558.521 68.5479 558.128 68.3039C557.724 68.0484 557.096 67.9143 556.247 67.9014C555.215 67.8858 554.511 67.9999 554.133 68.2435C553.744 68.4757 553.546 68.8411 553.539 69.3397C553.532 69.7703 553.651 70.1405 553.896 70.4502C554.129 70.7598 554.438 70.9174 554.824 70.9233C555.073 70.927 555.314 70.7607 555.545 70.4241C555.812 70.0314 556.155 69.8383 556.574 69.8446C556.846 69.8487 557.083 69.9543 557.284 70.1614C557.485 70.3571 557.583 70.6249 557.577 70.9649C557.571 71.3842 557.401 71.7443 557.068 72.0453C556.724 72.3348 556.296 72.4757 555.786 72.468C555.22 72.4594 554.724 72.3046 554.297 72.0034C553.871 71.7023 553.549 71.3007 553.329 70.7987C553.099 70.2851 552.989 69.7281 552.998 69.1275C553.015 67.9829 553.301 67.0635 553.855 66.3691C554.41 65.6748 555.152 65.3346 556.081 65.3486C556.886 65.3608 557.522 65.6481 557.989 66.2106C558.457 66.7617 558.765 67.4181 558.912 68.1798L559.065 68.1821C559.118 67.6502 559.29 67.1427 559.581 66.6597C559.86 66.1765 560.229 65.7854 560.687 65.4863C561.145 65.1872 561.657 65.0419 562.223 65.0505C563.345 65.0674 564.2 65.4884 564.789 66.3134C565.377 67.127 565.661 68.2138 565.64 69.5736Z" fill="#F9E9CC"/>
<path d="M621.485 212.431C621.473 213.247 621.145 213.962 620.501 214.576C619.857 215.178 619.045 215.642 618.066 215.967C617.075 216.281 616.086 216.43 615.1 216.415C614.115 216.4 613.137 216.221 612.167 215.878C611.186 215.523 610.383 215.035 609.758 214.413C609.133 213.78 608.827 213.056 608.839 212.24C608.851 211.424 609.179 210.715 609.823 210.113C610.467 209.499 611.285 209.035 612.275 208.722C613.255 208.396 614.238 208.241 615.224 208.256C616.21 208.271 617.193 208.456 618.174 208.811C619.143 209.154 619.941 209.642 620.566 210.275C621.191 210.897 621.498 211.615 621.485 212.431ZM620.941 212.423C620.948 212.004 620.726 211.7 620.275 211.512C619.813 211.312 619.316 211.208 618.784 211.2L611.577 211.091C611.044 211.083 610.55 211.172 610.093 211.358C609.626 211.532 609.389 211.829 609.383 212.248C609.376 212.668 609.604 212.977 610.066 213.177C610.516 213.365 611.008 213.463 611.541 213.471L618.748 213.58C619.28 213.588 619.78 213.505 620.248 213.331C620.704 213.145 620.935 212.842 620.941 212.423ZM624.157 206.656C623.907 205.938 623.536 205.36 623.044 204.922C622.564 204.472 622.051 204.244 621.507 204.235C621.428 204.234 621.36 204.261 621.302 204.317C621.233 204.362 621.198 204.429 621.197 204.52C621.196 204.61 621.239 204.747 621.327 204.93C621.426 205.135 621.474 205.329 621.471 205.51C621.466 205.827 621.354 206.109 621.135 206.355C620.916 206.59 620.614 206.704 620.229 206.698C619.776 206.691 619.427 206.539 619.182 206.24C618.926 205.942 618.8 205.6 618.806 205.215C618.815 204.659 619.008 204.226 619.387 203.914C619.755 203.591 620.227 203.434 620.805 203.443C621.734 203.457 622.529 203.741 623.19 204.295C623.85 204.838 624.332 205.548 624.637 206.425L624.157 206.656ZM620.855 200.174L620.879 198.543C620.882 198.384 620.855 198.276 620.799 198.218C620.732 198.161 620.625 198.131 620.478 198.128L617.962 198.09L617.905 201.83L617.276 201.821L609.321 197.229L609.348 195.444L617.388 195.565L617.416 193.73L618.028 193.739L618 195.575L620.516 195.613C620.663 195.615 620.771 195.588 620.84 195.533C620.897 195.466 620.927 195.358 620.93 195.211L620.948 193.987L621.492 193.995L621.399 200.183L620.855 200.174ZM617.306 200.971L617.35 198.081L612.182 198.003L617.306 200.971Z" fill="#F9E9CC"/>
<path d="M625.421 84.4762C625.409 85.2922 625.08 86.0069 624.436 86.6206C623.793 87.2229 622.981 87.6867 622.001 88.012C621.01 88.3257 620.022 88.4751 619.036 88.4602C618.05 88.4453 617.072 88.2661 616.103 87.9228C615.122 87.5679 614.319 87.0797 613.694 86.4582C613.068 85.8253 612.762 85.1009 612.774 84.285C612.787 83.4691 613.115 82.76 613.759 82.1577C614.403 81.544 615.22 81.0803 616.211 80.7666C617.191 80.4414 618.173 80.2862 619.159 80.3011C620.145 80.316 621.129 80.5009 622.109 80.8558C623.079 81.1991 623.876 81.6872 624.501 82.3201C625.127 82.9416 625.433 83.6603 625.421 84.4762ZM624.877 84.468C624.883 84.0487 624.661 83.745 624.211 83.5568C623.749 83.3572 623.252 83.2533 622.719 83.2453L615.512 83.1363C614.979 83.1282 614.485 83.2171 614.029 83.4029C613.562 83.5772 613.325 83.874 613.318 84.2933C613.312 84.7125 613.54 85.022 614.001 85.2217C614.452 85.4099 614.943 85.508 615.476 85.516L622.683 85.625C623.216 85.633 623.716 85.5499 624.183 85.3756C624.639 85.1898 624.871 84.8873 624.877 84.468ZM628.093 78.7006C627.843 77.9828 627.472 77.4048 626.98 76.9666C626.499 76.5173 625.987 76.2885 625.443 76.2803C625.364 76.2791 625.295 76.3064 625.238 76.3622C625.169 76.4065 625.134 76.474 625.133 76.5647C625.131 76.6553 625.174 76.792 625.262 76.9747C625.361 77.1802 625.409 77.3736 625.407 77.5549C625.402 77.8722 625.29 78.1539 625.071 78.3999C624.852 78.6346 624.55 78.7491 624.164 78.7433C623.711 78.7364 623.362 78.5838 623.117 78.2854C622.861 77.9868 622.736 77.6449 622.742 77.2596C622.75 76.7043 622.944 76.2709 623.322 75.9592C623.69 75.6361 624.163 75.4789 624.741 75.4876C625.67 75.5017 626.465 75.7857 627.125 76.3398C627.786 76.8825 628.268 77.5925 628.572 78.4699L628.093 78.7006ZM624.79 72.2193L624.815 70.5875C624.817 70.4289 624.791 70.3208 624.735 70.2633C624.668 70.2056 624.56 70.1756 624.413 70.1734L621.897 70.1354L621.841 73.8749L621.212 73.8654L613.256 69.2736L613.283 67.4888L621.323 67.6104L621.351 65.7746L621.963 65.7839L621.935 67.6196L624.451 67.6577C624.598 67.6599 624.707 67.6332 624.775 67.5776C624.833 67.5104 624.863 67.4032 624.865 67.2559L624.884 66.032L625.428 66.0403L625.334 72.2276L624.79 72.2193ZM621.242 73.0158L621.285 70.1261L616.118 70.048L621.242 73.0158Z" fill="#F9E9CC"/>
<path d="M677.48 213.278C677.467 214.094 677.139 214.809 676.495 215.422C675.851 216.025 675.039 216.488 674.06 216.814C673.069 217.127 672.08 217.277 671.095 217.262C670.109 217.247 669.131 217.068 668.161 216.725C667.181 216.37 666.378 215.881 665.752 215.26C665.127 214.627 664.821 213.903 664.833 213.087C664.845 212.271 665.173 211.562 665.817 210.959C666.461 210.346 667.279 209.882 668.27 209.568C669.249 209.243 670.232 209.088 671.218 209.103C672.204 209.118 673.187 209.303 674.168 209.658C675.137 210.001 675.935 210.489 676.56 211.122C677.185 211.743 677.492 212.462 677.48 213.278ZM676.936 213.27C676.942 212.85 676.72 212.547 676.269 212.359C675.808 212.159 675.31 212.055 674.778 212.047L667.571 211.938C667.038 211.93 666.544 212.019 666.087 212.205C665.62 212.379 665.383 212.676 665.377 213.095C665.371 213.514 665.598 213.824 666.06 214.023C666.511 214.212 667.002 214.31 667.535 214.318L674.742 214.427C675.274 214.435 675.774 214.352 676.242 214.177C676.698 213.992 676.929 213.689 676.936 213.27ZM680.151 207.502C679.901 206.785 679.53 206.207 679.038 205.768C678.558 205.319 678.045 205.09 677.501 205.082C677.422 205.081 677.354 205.108 677.296 205.164C677.228 205.208 677.192 205.276 677.191 205.366C677.19 205.457 677.233 205.594 677.321 205.776C677.42 205.982 677.468 206.175 677.465 206.357C677.46 206.674 677.348 206.956 677.129 207.202C676.91 207.436 676.608 207.551 676.223 207.545C675.77 207.538 675.421 207.386 675.176 207.087C674.92 206.789 674.795 206.447 674.8 206.061C674.809 205.506 675.002 205.073 675.381 204.761C675.749 204.438 676.221 204.281 676.799 204.289C677.729 204.303 678.523 204.587 679.184 205.142C679.844 205.684 680.327 206.394 680.631 207.272L680.151 207.502ZM677.695 199.045C677.685 199.679 677.563 200.244 677.329 200.739C677.084 201.223 676.761 201.598 676.36 201.864C675.948 202.13 675.504 202.259 675.028 202.252C674.677 202.246 674.366 202.162 674.097 202C673.816 201.825 673.604 201.612 673.46 201.361C673.306 201.098 673.23 200.836 673.234 200.575C673.24 200.213 673.357 199.937 673.587 199.748C673.805 199.558 674.061 199.466 674.356 199.47C674.809 199.477 675.157 199.726 675.399 200.217C675.518 200.559 675.754 200.733 676.105 200.738C676.366 200.742 676.606 200.604 676.825 200.324C677.034 200.032 677.142 199.62 677.15 199.087C677.16 198.441 676.855 198.018 676.234 197.815C675.614 197.602 674.766 197.487 673.689 197.471C672.873 197.459 672.227 197.494 671.749 197.578C671.261 197.661 670.895 197.82 670.654 198.054C670.412 198.288 670.288 198.627 670.282 199.069C670.278 199.284 670.354 199.54 670.508 199.837C670.651 200.134 670.856 200.409 671.125 200.663C671.382 200.904 671.668 201.067 671.984 201.152L671.978 201.594L665.433 201.495L665.217 201.151C665.659 200.455 665.886 199.677 665.899 198.815C665.906 198.373 665.839 197.885 665.7 197.35C665.55 196.804 665.347 196.325 665.093 195.913L665.403 195.611C666.289 196.226 666.941 196.995 667.358 197.919C667.763 198.832 667.958 199.81 667.942 200.852L670.594 200.893L670.63 200.791C670.317 200.48 670.09 200.148 669.948 199.795C669.806 199.441 669.738 199.043 669.745 198.601C669.756 197.82 669.925 197.136 670.252 196.552C670.578 195.967 671.038 195.521 671.632 195.213C672.226 194.893 672.909 194.739 673.679 194.75C674.506 194.763 675.229 194.967 675.846 195.361C676.452 195.756 676.915 196.279 677.234 196.929C677.553 197.58 677.706 198.285 677.695 199.045Z" fill="#F9E9CC"/>
<path d="M681.415 85.3229C681.403 86.1388 681.075 86.8536 680.431 87.4673C679.787 88.0696 678.975 88.5334 677.995 88.8586C677.004 89.1724 676.016 89.3218 675.03 89.3069C674.044 89.2919 673.067 89.1128 672.097 88.7695C671.116 88.4146 670.313 87.9264 669.688 87.3049C669.063 86.672 668.756 85.9476 668.769 85.1317C668.781 84.3158 669.109 83.6067 669.753 83.0044C670.397 82.3907 671.214 81.927 672.205 81.6133C673.185 81.288 674.168 81.1329 675.154 81.1478C676.139 81.1627 677.123 81.3476 678.103 81.7024C679.073 82.0458 679.87 82.5339 680.496 83.1668C681.121 83.7883 681.427 84.507 681.415 85.3229ZM680.871 85.3147C680.877 84.8954 680.655 84.5917 680.205 84.4035C679.743 84.2039 679.246 84.1 678.713 84.0919L671.506 83.983C670.974 83.9749 670.479 84.0638 670.023 84.2496C669.556 84.4239 669.319 84.7207 669.312 85.1399C669.306 85.5592 669.534 85.8687 669.996 86.0684C670.446 86.2565 670.938 86.3546 671.47 86.3627L678.677 86.4717C679.21 86.4797 679.71 86.3966 680.177 86.2223C680.634 86.0365 680.865 85.734 680.871 85.3147ZM684.087 79.5473C683.837 78.8295 683.466 78.2515 682.974 77.8133C682.493 77.364 681.981 77.1352 681.437 77.127C681.358 77.1258 681.289 77.1531 681.232 77.2089C681.163 77.2532 681.128 77.3207 681.127 77.4113C681.125 77.502 681.169 77.6387 681.256 77.8213C681.355 78.0269 681.403 78.2203 681.401 78.4016C681.396 78.7189 681.284 79.0006 681.065 79.2466C680.846 79.4813 680.544 79.5958 680.159 79.5899C679.705 79.5831 679.356 79.4305 679.111 79.1321C678.855 78.8335 678.73 78.4916 678.736 78.1063C678.744 77.551 678.938 77.1175 679.317 76.8059C679.684 76.4828 680.157 76.3255 680.735 76.3343C681.664 76.3483 682.459 76.6324 683.119 77.1864C683.78 77.7291 684.262 78.4392 684.566 79.3165L684.087 79.5473ZM681.63 71.0896C681.621 71.7242 681.499 72.2891 681.265 72.7842C681.019 73.2679 680.696 73.6427 680.296 73.9087C679.883 74.1745 679.439 74.3038 678.964 74.2966C678.612 74.2913 678.302 74.2073 678.032 74.0445C677.751 73.8703 677.539 73.6574 677.396 73.4058C677.241 73.1428 677.166 72.881 677.17 72.6203C677.175 72.2577 677.293 71.9818 677.522 71.7926C677.74 71.6032 677.997 71.5107 678.291 71.5151C678.745 71.522 679.092 71.771 679.334 72.262C679.454 72.6038 679.689 72.7774 680.041 72.7827C680.301 72.7867 680.541 72.6486 680.761 72.3686C680.969 72.077 681.078 71.665 681.086 71.1323C681.095 70.4864 680.79 70.0624 680.17 69.8604C679.55 69.647 678.701 69.5321 677.625 69.5158C676.809 69.5035 676.162 69.5391 675.685 69.6225C675.196 69.7058 674.831 69.8646 674.589 70.099C674.348 70.3334 674.224 70.6716 674.217 71.1135C674.214 71.3288 674.289 71.585 674.443 71.882C674.586 72.1789 674.792 72.454 675.06 72.7074C675.317 72.9493 675.604 73.1124 675.92 73.1965L675.913 73.6384L669.369 73.5395L669.153 73.1962C669.594 72.5001 669.821 71.7215 669.834 70.8602C669.841 70.4183 669.775 69.9299 669.636 69.395C669.485 68.8487 669.283 68.3696 669.028 67.9577L669.339 67.6564C670.225 68.2705 670.876 69.0398 671.293 69.9642C671.699 70.8771 671.894 71.8548 671.878 72.8973L674.53 72.9374L674.565 72.836C674.252 72.5252 674.025 72.1931 673.883 71.8395C673.741 71.486 673.673 71.0883 673.68 70.6463C673.692 69.8644 673.861 69.1812 674.187 68.5968C674.513 68.0123 674.973 67.5659 675.568 67.2575C676.162 66.9378 676.844 66.7837 677.615 66.7954C678.442 66.8079 679.164 67.0115 679.782 67.4062C680.388 67.8008 680.85 68.3235 681.169 68.9744C681.488 69.6253 681.642 70.3303 681.63 71.0896Z" fill="#F9E9CC"/>
<path d="M737.474 214.185C737.461 215.001 737.133 215.716 736.489 216.33C735.845 216.932 735.034 217.396 734.054 217.721C733.063 218.035 732.075 218.184 731.089 218.169C730.103 218.154 729.125 217.975 728.156 217.632C727.175 217.277 726.372 216.789 725.746 216.167C725.121 215.534 724.815 214.81 724.827 213.994C724.839 213.178 725.168 212.469 725.811 211.867C726.455 211.253 727.273 210.789 728.264 210.476C729.243 210.15 730.226 209.995 731.212 210.01C732.198 210.025 733.181 210.21 734.162 210.565C735.132 210.908 735.929 211.396 736.554 212.029C737.18 212.651 737.486 213.369 737.474 214.185ZM736.93 214.177C736.936 213.758 736.714 213.454 736.263 213.266C735.802 213.066 735.305 212.962 734.772 212.954L727.565 212.845C727.032 212.837 726.538 212.926 726.082 213.112C725.614 213.286 725.377 213.583 725.371 214.002C725.365 214.422 725.592 214.731 726.054 214.931C726.505 215.119 726.996 215.217 727.529 215.225L734.736 215.334C735.269 215.342 735.769 215.259 736.236 215.085C736.692 214.899 736.923 214.596 736.93 214.177ZM740.145 208.41C739.895 207.692 739.524 207.114 739.032 206.676C738.552 206.226 738.04 205.998 737.496 205.989C737.416 205.988 737.348 206.015 737.29 206.071C737.222 206.116 737.187 206.183 737.185 206.274C737.184 206.364 737.227 206.501 737.315 206.684C737.414 206.889 737.462 207.083 737.459 207.264C737.455 207.581 737.343 207.863 737.124 208.109C736.905 208.344 736.603 208.458 736.217 208.452C735.764 208.445 735.415 208.293 735.17 207.994C734.914 207.696 734.789 207.354 734.794 206.969C734.803 206.413 734.996 205.98 735.375 205.668C735.743 205.345 736.216 205.188 736.794 205.197C737.723 205.211 738.518 205.495 739.178 206.049C739.838 206.591 740.321 207.301 740.625 208.179L740.145 208.41ZM737.701 199.153C737.688 199.992 737.405 200.718 736.852 201.333C736.299 201.937 735.561 202.402 734.638 202.728C733.715 203.043 732.704 203.192 731.604 203.175C730.301 203.156 729.154 202.957 728.162 202.579C727.171 202.19 726.402 201.646 725.858 200.946C725.313 200.246 725.047 199.426 725.062 198.486C725.07 197.953 725.19 197.496 725.422 197.114C725.644 196.732 725.931 196.447 726.285 196.26C726.64 196.061 727.015 195.965 727.412 195.971C727.899 195.978 728.311 196.126 728.646 196.415C728.982 196.703 729.146 197.074 729.14 197.527C729.134 197.867 729.028 198.143 728.821 198.356C728.603 198.556 728.323 198.654 727.983 198.649C727.462 198.641 727.115 198.381 726.941 197.868C726.865 197.64 726.789 197.469 726.711 197.355C726.633 197.24 726.532 197.182 726.408 197.18C726.181 197.177 725.992 197.293 725.841 197.528C725.69 197.764 725.612 198.092 725.605 198.511C725.596 199.146 725.861 199.62 726.4 199.934C726.939 200.237 727.589 200.394 728.348 200.406L730.779 200.442L730.831 200.341C730.653 200.157 730.52 199.917 730.434 199.621C730.337 199.325 730.29 199.013 730.295 198.684C730.312 197.551 730.659 196.712 731.336 196.166C732.014 195.61 732.873 195.34 733.916 195.355C734.562 195.365 735.177 195.51 735.763 195.791C736.337 196.061 736.806 196.481 737.172 197.054C737.537 197.615 737.714 198.314 737.701 199.153ZM737.157 199.162C737.163 198.776 737.036 198.497 736.778 198.323C736.509 198.138 736.171 198.019 735.764 197.968C735.345 197.916 734.773 197.885 734.048 197.874C733.13 197.86 732.387 197.928 731.818 198.078C731.237 198.216 730.944 198.495 730.938 198.915C730.929 199.527 731.16 199.95 731.633 200.183C731.846 200.3 732.145 200.378 732.53 200.418C732.915 200.458 733.436 200.483 734.093 200.493C735.125 200.508 735.891 200.412 736.393 200.204C736.895 199.997 737.149 199.649 737.157 199.162Z" fill="#F9E9CC"/>
<path d="M741.407 86.2302C741.395 87.0461 741.067 87.7608 740.423 88.3745C739.779 88.9768 738.967 89.4406 737.987 89.7659C736.997 90.0796 736.008 90.229 735.022 90.2141C734.036 90.1992 733.059 90.02 732.089 89.6767C731.108 89.3218 730.305 88.8336 729.68 88.2121C729.055 87.5792 728.748 86.8548 728.761 86.0389C728.773 85.223 729.101 84.5139 729.745 83.9116C730.389 83.2979 731.206 82.8342 732.197 82.5205C733.177 82.1953 734.16 82.0401 735.146 82.055C736.132 82.0699 737.115 82.2548 738.096 82.6097C739.065 82.953 739.863 83.4411 740.488 84.074C741.113 84.6955 741.42 85.4142 741.407 86.2302ZM740.863 86.2219C740.87 85.8026 740.648 85.4989 740.197 85.3108C739.735 85.1111 739.238 85.0072 738.706 84.9992L731.498 84.8902C730.966 84.8821 730.471 84.971 730.015 85.1568C729.548 85.3311 729.311 85.6279 729.305 86.0472C729.298 86.4665 729.526 86.7759 729.988 86.9756C730.438 87.1638 730.93 87.2619 731.462 87.2699L738.67 87.3789C739.202 87.3869 739.702 87.3038 740.17 87.1295C740.626 86.9438 740.857 86.6412 740.863 86.2219ZM744.079 80.4546C743.829 79.7367 743.458 79.1587 742.966 78.7205C742.485 78.2712 741.973 78.0424 741.429 78.0342C741.35 78.033 741.281 78.0603 741.224 78.1161C741.155 78.1604 741.12 78.2279 741.119 78.3186C741.117 78.4092 741.161 78.5459 741.249 78.7286C741.348 78.9341 741.396 79.1275 741.393 79.3088C741.388 79.6261 741.276 79.9078 741.057 80.1538C740.838 80.3886 740.536 80.503 740.151 80.4972C739.698 80.4903 739.348 80.3377 739.104 80.0393C738.847 79.7407 738.722 79.3988 738.728 79.0135C738.736 78.4582 738.93 78.0248 739.309 77.7131C739.676 77.39 740.149 77.2328 740.727 77.2415C741.656 77.2556 742.451 77.5396 743.111 78.0937C743.772 78.6364 744.254 79.3464 744.558 80.2238L744.079 80.4546ZM741.635 71.1979C741.622 72.0365 741.339 72.7633 740.786 73.3783C740.232 73.982 739.494 74.4469 738.571 74.773C737.648 75.0877 736.637 75.2368 735.538 75.2202C734.235 75.2005 733.087 75.0018 732.096 74.6241C731.104 74.235 730.336 73.6907 729.791 72.9911C729.246 72.2914 728.981 71.4713 728.995 70.5307C729.003 69.9981 729.124 69.5409 729.356 69.159C729.577 68.777 729.865 68.4923 730.219 68.305C730.573 68.1063 730.949 68.01 731.345 68.016C731.833 68.0233 732.244 68.1713 732.58 68.4597C732.916 68.7481 733.08 69.119 733.073 69.5723C733.068 69.9122 732.962 70.1883 732.755 70.4006C732.536 70.6013 732.257 70.6991 731.917 70.6939C731.396 70.686 731.048 70.4258 730.875 69.9131C730.799 69.6852 730.722 69.5141 730.644 69.3995C730.567 69.285 730.466 69.2268 730.341 69.2249C730.114 69.2215 729.926 69.3377 729.775 69.5734C729.624 69.8092 729.545 70.1367 729.539 70.556C729.529 71.1906 729.794 71.6649 730.333 71.9791C730.873 72.282 731.522 72.4392 732.282 72.4506L734.712 72.4874L734.765 72.3862C734.586 72.2021 734.454 71.9621 734.368 71.6661C734.27 71.3699 734.224 71.0575 734.229 70.7289C734.246 69.5957 734.593 68.7565 735.27 68.2113C735.947 67.6548 736.807 67.3845 737.85 67.4002C738.495 67.41 739.111 67.5553 739.696 67.8362C740.27 68.1056 740.74 68.5264 741.105 69.0987C741.471 69.6596 741.647 70.3593 741.635 71.1979ZM741.09 71.2067C741.096 70.8214 740.97 70.5418 740.712 70.3679C740.443 70.1824 740.105 70.064 739.697 70.0125C739.279 69.9608 738.707 69.9295 737.981 69.9185C737.064 69.9046 736.32 69.9727 735.751 70.1228C735.171 70.2614 734.878 70.5403 734.871 70.9596C734.862 71.5716 735.094 71.9944 735.566 72.2283C735.78 72.3448 736.079 72.423 736.464 72.4629C736.849 72.5027 737.37 72.5276 738.027 72.5375C739.058 72.5531 739.825 72.457 740.327 72.2492C740.828 72.0415 741.083 71.6939 741.09 71.2067Z" fill="#F9E9CC"/>
<path d="M799.466 215.123C799.454 215.939 799.125 216.653 798.481 217.267C797.838 217.869 797.026 218.333 796.046 218.658C795.055 218.972 794.067 219.122 793.081 219.107C792.095 219.092 791.117 218.913 790.148 218.569C789.167 218.214 788.364 217.726 787.739 217.105C787.113 216.472 786.807 215.747 786.819 214.932C786.832 214.116 787.16 213.406 787.804 212.804C788.448 212.19 789.265 211.727 790.256 211.413C791.236 211.088 792.218 210.933 793.204 210.948C794.19 210.962 795.173 211.147 796.154 211.502C797.124 211.846 797.921 212.334 798.546 212.967C799.172 213.588 799.478 214.307 799.466 215.123ZM798.922 215.115C798.928 214.695 798.706 214.391 798.256 214.203C797.794 214.004 797.297 213.9 796.764 213.892L789.557 213.783C789.024 213.775 788.53 213.864 788.074 214.049C787.606 214.224 787.37 214.52 787.363 214.94C787.357 215.359 787.585 215.669 788.046 215.868C788.497 216.056 788.988 216.154 789.521 216.163L796.728 216.271C797.261 216.28 797.761 216.196 798.228 216.022C798.684 215.836 798.916 215.534 798.922 215.115ZM802.137 209.347C801.888 208.629 801.517 208.051 801.025 207.613C800.544 207.164 800.032 206.935 799.488 206.927C799.408 206.926 799.34 206.953 799.283 207.009C799.214 207.053 799.179 207.12 799.177 207.211C799.176 207.302 799.219 207.438 799.307 207.621C799.406 207.827 799.454 208.02 799.452 208.201C799.447 208.519 799.335 208.8 799.116 209.046C798.897 209.281 798.595 209.396 798.209 209.39C797.756 209.383 797.407 209.23 797.162 208.932C796.906 208.633 796.781 208.291 796.787 207.906C796.795 207.351 796.989 206.917 797.367 206.606C797.735 206.283 798.208 206.125 798.786 206.134C799.715 206.148 800.51 206.432 801.17 206.986C801.831 207.529 802.313 208.239 802.617 209.116L802.137 209.347ZM799.688 200.447C799.682 200.855 799.518 201.193 799.196 201.46C798.875 201.716 798.443 201.84 797.899 201.832C797.219 201.821 796.581 201.647 795.985 201.31C795.39 200.961 794.745 200.48 794.052 199.869C793.045 198.97 792.183 198.299 791.464 197.858C790.97 197.567 790.446 197.355 789.892 197.222L789.84 197.289C790.13 197.645 790.271 198.038 790.265 198.469C790.258 198.922 790.148 199.413 789.936 199.943C789.77 200.416 789.684 200.88 789.677 201.333C789.67 201.798 789.783 202.179 790.017 202.477C790.239 202.776 790.594 202.951 791.08 203.004L792.099 203.104L792.089 203.716L787.268 203.252L787.277 202.64L788.398 202.742L788.433 202.675C787.582 202.004 787.162 201.278 787.174 200.496C787.179 200.145 787.28 199.857 787.476 199.634C787.661 199.398 787.925 199.164 788.268 198.932C788.6 198.71 788.858 198.51 789.043 198.331C789.227 198.153 789.32 197.973 789.323 197.791C789.328 197.429 789.161 197.245 788.821 197.24C788.617 197.237 788.445 197.347 788.306 197.572C788.143 197.853 787.931 197.991 787.671 197.987C787.535 197.985 787.428 197.938 787.35 197.847C787.26 197.755 787.217 197.629 787.219 197.471C787.224 197.176 787.397 196.941 787.74 196.764C788.083 196.577 788.436 196.486 788.798 196.491C789.535 196.502 790.208 196.62 790.816 196.845C791.414 197.069 792.088 197.42 792.841 197.896C793.548 198.337 794.337 198.649 795.207 198.833C796.066 199.004 796.982 199.097 797.957 199.112C798.546 199.121 798.986 199.247 799.277 199.489C799.557 199.72 799.694 200.039 799.688 200.447Z" fill="#F9E9CC"/>
<path d="M803.401 87.1667C803.389 87.9826 803.061 88.6974 802.417 89.311C801.773 89.9134 800.961 90.3772 799.982 90.7024C798.991 91.0161 798.002 91.1655 797.016 91.1506C796.031 91.1357 795.053 90.9566 794.083 90.6132C793.103 90.2583 792.299 89.7701 791.674 89.1486C791.049 88.5158 790.743 87.7914 790.755 86.9755C790.767 86.1596 791.095 85.4504 791.739 84.8481C792.383 84.2344 793.201 83.7707 794.191 83.457C795.171 83.1318 796.154 82.9766 797.14 82.9915C798.126 83.0064 799.109 83.1913 800.09 83.5462C801.059 83.8896 801.857 84.3777 802.482 85.0105C803.107 85.6321 803.414 86.3508 803.401 87.1667ZM802.857 87.1585C802.864 86.7392 802.642 86.4354 802.191 86.2473C801.729 86.0476 801.232 85.9437 800.7 85.9357L793.493 85.8267C792.96 85.8187 792.466 85.9075 792.009 86.0933C791.542 86.2676 791.305 86.5644 791.299 86.9837C791.292 87.403 791.52 87.7125 791.982 87.9121C792.432 88.1003 792.924 88.1984 793.457 88.2065L800.664 88.3154C801.196 88.3235 801.696 88.2404 802.164 88.0661C802.62 87.8803 802.851 87.5777 802.857 87.1585ZM806.073 81.3911C805.823 80.6732 805.452 80.0952 804.96 79.6571C804.48 79.2077 803.967 78.979 803.423 78.9707C803.344 78.9695 803.276 78.9968 803.218 79.0526C803.149 79.0969 803.114 79.1644 803.113 79.2551C803.112 79.3457 803.155 79.4824 803.243 79.6651C803.342 79.8706 803.39 80.064 803.387 80.2453C803.382 80.5626 803.27 80.8443 803.051 81.0904C802.832 81.3251 802.53 81.4395 802.145 81.4337C801.692 81.4268 801.343 81.2742 801.098 80.9758C800.842 80.6772 800.716 80.3353 800.722 79.95C800.731 79.3947 800.924 78.9613 801.303 78.6496C801.671 78.3265 802.143 78.1693 802.721 78.178C803.65 78.1921 804.445 78.4761 805.106 79.0302C805.766 79.5729 806.248 80.2829 806.553 81.1603L806.073 81.3911ZM803.623 72.4914C803.617 72.8993 803.453 73.2369 803.132 73.5041C802.811 73.7599 802.378 73.8837 801.834 73.8755C801.154 73.8652 800.516 73.6912 799.921 73.3535C799.325 73.0045 798.681 72.5243 797.987 71.9131C796.981 71.0138 796.118 70.3433 795.4 69.9018C794.905 69.6109 794.381 69.399 793.828 69.2659L793.776 69.3331C794.065 69.6889 794.207 70.0821 794.2 70.5127C794.193 70.966 794.084 71.4574 793.872 71.9869C793.706 72.4604 793.62 72.9239 793.613 73.3771C793.606 73.8418 793.719 74.2232 793.953 74.5214C794.175 74.8195 794.529 74.9948 795.016 75.0475L796.034 75.148L796.025 75.7599L791.203 75.2959L791.213 74.684L792.333 74.786L792.368 74.7185C791.517 74.0482 791.097 73.3221 791.109 72.5402C791.114 72.1889 791.215 71.9014 791.411 71.6777C791.596 71.4424 791.86 71.2084 792.204 70.9756C792.536 70.7539 792.794 70.5538 792.978 70.3752C793.162 70.1966 793.256 70.0167 793.258 69.8354C793.264 69.4728 793.097 69.2889 792.757 69.2837C792.553 69.2806 792.381 69.3914 792.241 69.616C792.079 69.8969 791.867 70.0354 791.606 70.0314C791.47 70.0294 791.363 69.9824 791.285 69.8906C791.196 69.7985 791.152 69.6732 791.155 69.5145C791.159 69.2199 791.333 68.9845 791.676 68.8083C792.018 68.6208 792.371 68.5298 792.734 68.5353C793.47 68.5464 794.143 68.6643 794.752 68.8888C795.349 69.1132 796.024 69.4635 796.776 69.9396C797.484 70.381 798.272 70.6933 799.142 70.8764C800.001 71.0481 800.918 71.1413 801.892 71.1561C802.482 71.165 802.922 71.2906 803.213 71.5331C803.493 71.764 803.629 72.0834 803.623 72.4914Z" fill="#F9E9CC"/>
<path d="M861.458 216.059C861.446 216.875 861.118 217.59 860.474 218.204C859.83 218.806 859.018 219.27 858.038 219.595C857.047 219.909 856.059 220.058 855.073 220.043C854.087 220.028 853.109 219.849 852.14 219.506C851.159 219.151 850.356 218.663 849.731 218.041C849.106 217.408 848.799 216.684 848.812 215.868C848.824 215.052 849.152 214.343 849.796 213.741C850.44 213.127 851.257 212.663 852.248 212.35C853.228 212.024 854.211 211.869 855.196 211.884C856.182 211.899 857.166 212.084 858.146 212.439C859.116 212.782 859.913 213.27 860.539 213.903C861.164 214.525 861.47 215.243 861.458 216.059ZM860.914 216.051C860.92 215.632 860.698 215.328 860.248 215.14C859.786 214.94 859.289 214.836 858.756 214.828L851.549 214.719C851.017 214.711 850.522 214.8 850.066 214.986C849.599 215.16 849.362 215.457 849.355 215.876C849.349 216.296 849.577 216.605 850.038 216.805C850.489 216.993 850.981 217.091 851.513 217.099L858.72 217.208C859.253 217.216 859.753 217.133 860.22 216.959C860.677 216.773 860.908 216.47 860.914 216.051ZM864.13 210.284C863.88 209.566 863.509 208.988 863.017 208.55C862.536 208.1 862.024 207.872 861.48 207.863C861.401 207.862 861.332 207.889 861.275 207.945C861.206 207.99 861.171 208.057 861.17 208.148C861.168 208.238 861.212 208.375 861.299 208.558C861.398 208.763 861.446 208.957 861.444 209.138C861.439 209.455 861.327 209.737 861.108 209.983C860.889 210.218 860.587 210.332 860.202 210.326C859.748 210.319 859.399 210.167 859.154 209.868C858.898 209.57 858.773 209.228 858.779 208.843C858.787 208.287 858.981 207.854 859.36 207.542C859.727 207.219 860.2 207.062 860.778 207.071C861.707 207.085 862.502 207.369 863.162 207.923C863.823 208.465 864.305 209.176 864.609 210.053L864.13 210.284ZM861.678 201.503C861.669 202.138 861.534 202.759 861.276 203.367C861.018 203.964 860.653 204.451 860.183 204.83C859.701 205.196 859.143 205.375 858.508 205.365C857.794 205.355 857.191 205.136 856.699 204.709C856.207 204.282 855.851 203.801 855.633 203.265L855.599 203.264C854.867 204.466 853.832 205.057 852.495 205.037C851.747 205.025 851.109 204.823 850.583 204.43C850.056 204.025 849.667 203.52 849.415 202.916C849.153 202.3 849.026 201.674 849.036 201.04C849.047 200.292 849.198 199.671 849.489 199.176C849.78 198.671 850.137 198.308 850.56 198.087C850.982 197.856 851.392 197.743 851.789 197.749C852.355 197.758 852.868 197.947 853.327 198.316C853.787 198.675 854.137 199.099 854.379 199.59L854.447 199.591L854.622 199.271C854.961 198.607 855.416 198.087 855.989 197.71C856.561 197.334 857.136 197.15 857.714 197.159C858.451 197.17 859.123 197.344 859.73 197.682C860.337 198.02 860.817 198.515 861.169 199.166C861.522 199.817 861.692 200.596 861.678 201.503ZM854.185 200.063C854.011 199.607 853.71 199.246 853.283 198.979C852.845 198.711 852.371 198.574 851.861 198.566C851.397 198.559 850.993 198.672 850.649 198.905C850.306 199.138 850.046 199.44 849.87 199.811C849.684 200.171 849.587 200.544 849.581 200.929C849.572 201.541 849.711 202.115 849.997 202.652C850.284 203.178 850.745 203.446 851.379 203.455C851.833 203.462 852.18 203.366 852.421 203.165C852.662 202.965 852.882 202.668 853.081 202.274L854.185 200.063ZM861.141 201.036C861.149 200.537 861.065 200.094 860.889 199.706C860.702 199.318 860.458 199.019 860.155 198.811C859.852 198.591 859.525 198.478 859.174 198.473C858.72 198.466 858.344 198.602 858.045 198.881C857.746 199.16 857.48 199.524 857.247 199.974L855.81 202.774C856.053 203.231 856.348 203.582 856.695 203.825C857.032 204.068 857.551 204.195 858.254 204.205C858.979 204.216 859.56 204.044 859.996 203.688C860.421 203.32 860.716 202.894 860.882 202.409C861.049 201.913 861.135 201.455 861.141 201.036Z" fill="#F9E9CC"/>
<path d="M865.394 88.1042C865.381 88.9201 865.053 89.6349 864.409 90.2485C863.765 90.8509 862.953 91.3147 861.974 91.6399C860.983 91.9536 859.995 92.103 859.009 92.0881C858.023 92.0732 857.045 91.8941 856.075 91.5507C855.095 91.1958 854.292 90.7076 853.666 90.0861C853.041 89.4533 852.735 88.7289 852.747 87.913C852.759 87.0971 853.087 86.3879 853.731 85.7856C854.375 85.1719 855.193 84.7082 856.184 84.3945C857.163 84.0693 858.146 83.9141 859.132 83.929C860.118 83.9439 861.101 84.1288 862.082 84.4837C863.052 84.8271 863.849 85.3152 864.474 85.948C865.099 86.5696 865.406 87.2883 865.394 88.1042ZM864.85 88.096C864.856 87.6767 864.634 87.3729 864.183 87.1848C863.722 86.9851 863.225 86.8812 862.692 86.8732L855.485 86.7642C854.952 86.7562 854.458 86.845 854.002 87.0308C853.534 87.2051 853.297 87.5019 853.291 87.9212C853.285 88.3405 853.512 88.65 853.974 88.8496C854.425 89.0378 854.916 89.1359 855.449 89.144L862.656 89.2529C863.189 89.261 863.689 89.1779 864.156 89.0036C864.612 88.8178 864.843 88.5152 864.85 88.096ZM868.065 82.3286C867.815 81.6107 867.444 81.0327 866.952 80.5946C866.472 80.1452 865.959 79.9165 865.416 79.9082C865.336 79.907 865.268 79.9343 865.21 79.9901C865.142 80.0344 865.107 80.1019 865.105 80.1926C865.104 80.2832 865.147 80.4199 865.235 80.6026C865.334 80.8081 865.382 81.0015 865.379 81.1828C865.374 81.5001 865.263 81.7818 865.043 82.0279C864.825 82.2626 864.522 82.377 864.137 82.3712C863.684 82.3643 863.335 82.2117 863.09 81.9133C862.834 81.6147 862.709 81.2728 862.714 80.8875C862.723 80.3322 862.916 79.8988 863.295 79.5871C863.663 79.264 864.135 79.1068 864.713 79.1155C865.643 79.1296 866.437 79.4136 867.098 79.9677C867.758 80.5104 868.241 81.2204 868.545 82.0978L868.065 82.3286ZM865.614 73.5479C865.604 74.1825 865.47 74.8038 865.211 75.412C864.953 76.0088 864.589 76.4964 864.118 76.8746C863.637 77.2414 863.079 77.42 862.444 77.4104C861.73 77.3996 861.127 77.1808 860.635 76.754C860.142 76.3271 859.787 75.8457 859.568 75.3097L859.534 75.3092C858.802 76.5109 857.767 77.1017 856.43 77.0814C855.682 77.0701 855.045 76.8678 854.518 76.4745C853.992 76.0698 853.602 75.5652 853.351 74.9606C853.088 74.3446 852.962 73.7193 852.971 73.0847C852.983 72.3368 853.134 71.7156 853.424 71.2213C853.715 70.7157 854.072 70.3527 854.495 70.1324C854.918 69.9007 855.328 69.7879 855.724 69.7939C856.291 69.8025 856.804 69.9916 857.263 70.3613C857.722 70.7196 858.073 71.1443 858.315 71.6353L858.383 71.6363L858.558 71.3159C858.896 70.6523 859.352 70.1321 859.924 69.7554C860.497 69.3787 861.072 69.1947 861.65 69.2034C862.387 69.2146 863.058 69.3891 863.665 69.727C864.272 70.0649 864.752 70.5595 865.105 71.2109C865.458 71.8623 865.627 72.6413 865.614 73.5479ZM858.121 72.1084C857.946 71.6524 857.646 71.2908 857.219 71.0237C856.781 70.7563 856.307 70.6188 855.797 70.6111C855.332 70.6041 854.928 70.717 854.585 70.9498C854.241 71.1827 853.982 71.4848 853.806 71.8562C853.619 72.216 853.523 72.5886 853.517 72.9739C853.508 73.5859 853.646 74.1603 853.933 74.6974C854.22 75.2231 854.68 75.4908 855.315 75.5004C855.768 75.5072 856.115 75.4105 856.357 75.2101C856.598 75.0097 856.817 74.7127 857.016 74.319L858.121 72.1084ZM865.077 73.0807C865.084 72.5821 865 72.1388 864.825 71.7507C864.638 71.3625 864.393 71.0641 864.09 70.8555C863.788 70.6356 863.461 70.523 863.109 70.5177C862.656 70.5108 862.28 70.6468 861.981 70.9256C861.682 71.2045 861.416 71.5688 861.182 72.0187L859.746 74.8193C859.988 75.2763 860.283 75.6265 860.631 75.8698C860.967 76.1129 861.487 76.2398 862.189 76.2504C862.915 76.2614 863.495 76.0888 863.931 75.7327C864.356 75.3651 864.652 74.9388 864.818 74.4539C864.984 73.9577 865.07 73.5 865.077 73.0807Z" fill="#F9E9CC"/>
<path d="M921.452 216.966C921.44 217.782 921.112 218.497 920.468 219.111C919.824 219.713 919.012 220.177 918.032 220.502C917.042 220.816 916.053 220.965 915.067 220.95C914.081 220.936 913.104 220.756 912.134 220.413C911.153 220.058 910.35 219.57 909.725 218.948C909.1 218.316 908.793 217.591 908.806 216.775C908.818 215.959 909.146 215.25 909.79 214.648C910.434 214.034 911.251 213.571 912.242 213.257C913.222 212.932 914.205 212.776 915.191 212.791C916.176 212.806 917.16 212.991 918.141 213.346C919.11 213.689 919.908 214.177 920.533 214.81C921.158 215.432 921.465 216.151 921.452 216.966ZM920.908 216.958C920.915 216.539 920.693 216.235 920.242 216.047C919.78 215.847 919.283 215.744 918.751 215.735L911.543 215.627C911.011 215.618 910.516 215.707 910.06 215.893C909.593 216.067 909.356 216.364 909.35 216.783C909.343 217.203 909.571 217.512 910.033 217.712C910.483 217.9 910.975 217.998 911.507 218.006L918.715 218.115C919.247 218.123 919.747 218.04 920.214 217.866C920.671 217.68 920.902 217.378 920.908 216.958ZM924.124 211.191C923.874 210.473 923.503 209.895 923.011 209.457C922.53 209.008 922.018 208.779 921.474 208.771C921.395 208.769 921.326 208.797 921.269 208.852C921.2 208.897 921.165 208.964 921.164 209.055C921.162 209.146 921.206 209.282 921.294 209.465C921.393 209.67 921.441 209.864 921.438 210.045C921.433 210.362 921.321 210.644 921.102 210.89C920.883 211.125 920.581 211.239 920.196 211.234C919.742 211.227 919.393 211.074 919.149 210.776C918.892 210.477 918.767 210.135 918.773 209.75C918.781 209.195 918.975 208.761 919.354 208.449C919.721 208.126 920.194 207.969 920.772 207.978C921.701 207.992 922.496 208.276 923.156 208.83C923.817 209.373 924.299 210.083 924.603 210.96L924.124 211.191ZM921.665 202.886C921.657 203.419 921.542 203.876 921.321 204.258C921.089 204.64 920.795 204.93 920.441 205.129C920.087 205.316 919.711 205.407 919.315 205.401C918.828 205.394 918.416 205.246 918.08 204.957C917.745 204.669 917.58 204.298 917.587 203.845C917.592 203.505 917.704 203.234 917.922 203.034C918.13 202.821 918.403 202.718 918.743 202.723C919.265 202.731 919.612 202.991 919.786 203.504C919.861 203.732 919.938 203.903 920.016 204.017C920.093 204.132 920.195 204.19 920.319 204.192C920.546 204.195 920.735 204.079 920.886 203.843C921.036 203.608 921.115 203.28 921.121 202.861C921.131 202.226 920.866 201.758 920.327 201.455C919.787 201.141 919.138 200.978 918.379 200.966L915.948 200.929L915.895 201.031C916.074 201.215 916.212 201.455 916.31 201.751C916.396 202.047 916.436 202.359 916.431 202.688C916.414 203.821 916.067 204.666 915.39 205.223C914.713 205.768 913.853 206.032 912.811 206.017C912.165 206.007 911.555 205.867 910.981 205.598C910.396 205.317 909.92 204.896 909.555 204.335C909.189 203.763 909.013 203.058 909.026 202.219C909.038 201.38 909.321 200.659 909.875 200.056C910.428 199.441 911.166 198.976 912.089 198.661C913.012 198.335 914.023 198.18 915.122 198.197C916.425 198.216 917.573 198.421 918.564 198.81C919.556 199.187 920.324 199.726 920.869 200.426C921.414 201.125 921.679 201.946 921.665 202.886ZM915.789 202.457C915.798 201.845 915.567 201.422 915.094 201.189C914.88 201.072 914.581 200.994 914.196 200.954C913.812 200.914 913.291 200.889 912.633 200.879C911.602 200.864 910.836 200.96 910.334 201.168C909.832 201.375 909.577 201.723 909.57 202.21C909.564 202.595 909.696 202.881 909.965 203.066C910.223 203.24 910.561 203.353 910.98 203.405C911.387 203.456 911.954 203.487 912.679 203.498C913.597 203.512 914.346 203.45 914.926 203.311C915.495 203.161 915.783 202.877 915.789 202.457Z" fill="#F9E9CC"/>
<path d="M925.386 89.0114C925.373 89.8273 925.045 90.5421 924.401 91.1558C923.757 91.7581 922.946 92.2219 921.966 92.5471C920.975 92.8608 919.987 93.0102 919.001 92.9953C918.015 92.9804 917.037 92.8013 916.068 92.4579C915.087 92.1031 914.284 91.6149 913.658 90.9933C913.033 90.3605 912.727 89.6361 912.739 88.8202C912.752 88.0043 913.08 87.2952 913.724 86.6928C914.368 86.0792 915.185 85.6155 916.176 85.3017C917.156 84.9765 918.138 84.8214 919.124 84.8363C920.11 84.8512 921.093 85.0361 922.074 85.3909C923.044 85.7343 923.841 86.2224 924.466 86.8553C925.092 87.4768 925.398 88.1955 925.386 89.0114ZM924.842 89.0032C924.848 88.5839 924.626 88.2802 924.176 88.092C923.714 87.8923 923.217 87.7885 922.684 87.7804L915.477 87.6714C914.944 87.6634 914.45 87.7523 913.994 87.9381C913.526 88.1123 913.29 88.4091 913.283 88.8284C913.277 89.2477 913.505 89.5572 913.966 89.7568C914.417 89.945 914.908 90.0431 915.441 90.0512L922.648 90.1601C923.181 90.1682 923.681 90.0851 924.148 89.9108C924.604 89.725 924.836 89.4225 924.842 89.0032ZM928.057 83.2358C927.808 82.5179 927.437 81.9399 926.945 81.5018C926.464 81.0525 925.952 80.8237 925.408 80.8155C925.328 80.8143 925.26 80.8416 925.202 80.8974C925.134 80.9417 925.099 81.0092 925.097 81.0998C925.096 81.1905 925.139 81.3271 925.227 81.5098C925.326 81.7153 925.374 81.9088 925.371 82.0901C925.367 82.4074 925.255 82.689 925.036 82.9351C924.817 83.1698 924.515 83.2842 924.129 83.2784C923.676 83.2716 923.327 83.1189 923.082 82.8205C922.826 82.522 922.701 82.18 922.707 81.7947C922.715 81.2395 922.909 80.806 923.287 80.4944C923.655 80.1712 924.128 80.014 924.706 80.0228C925.635 80.0368 926.43 80.3209 927.09 80.8749C927.751 81.4176 928.233 82.1277 928.537 83.005L928.057 83.2358ZM925.599 74.931C925.591 75.4636 925.476 75.921 925.255 76.303C925.022 76.6849 924.729 76.9751 924.375 77.1738C924.02 77.3611 923.645 77.4518 923.248 77.4458C922.761 77.4384 922.35 77.2905 922.014 77.0021C921.678 76.7136 921.514 76.3428 921.521 75.8895C921.526 75.5495 921.638 75.2792 921.856 75.0785C922.063 74.8662 922.337 74.7627 922.677 74.7678C923.198 74.7757 923.546 75.036 923.719 75.5487C923.795 75.7765 923.872 75.9477 923.949 76.0622C924.027 76.1768 924.128 76.235 924.253 76.2368C924.479 76.2403 924.668 76.1241 924.819 75.8884C924.97 75.6526 925.049 75.3251 925.055 74.9058C925.065 74.2712 924.8 73.8025 924.26 73.4996C923.721 73.1854 923.072 73.0226 922.312 73.0111L919.882 72.9744L919.829 73.0756C920.008 73.2597 920.146 73.4998 920.243 73.7959C920.329 74.0919 920.37 74.4043 920.365 74.7329C920.348 75.8661 920.001 76.7109 919.324 77.2674C918.647 77.8126 917.787 78.0773 916.744 78.0615C916.098 78.0518 915.488 77.9122 914.914 77.6428C914.329 77.3619 913.854 76.941 913.488 76.3801C913.123 75.8079 912.947 75.1025 912.959 74.2639C912.972 73.4253 913.255 72.7042 913.808 72.1005C914.361 71.4854 915.1 71.0205 916.022 70.7058C916.946 70.3797 917.957 70.225 919.056 70.2416C920.359 70.2613 921.506 70.4657 922.498 70.8547C923.49 71.2324 924.258 71.7711 924.803 72.4707C925.348 73.1704 925.613 73.9905 925.599 74.931ZM919.723 74.5022C919.732 73.8902 919.5 73.4673 919.028 73.2335C918.814 73.1169 918.515 73.0387 918.13 72.9989C917.745 72.9591 917.224 72.9342 916.567 72.9243C915.536 72.9087 914.769 73.0048 914.267 73.2125C913.766 73.4203 913.511 73.7678 913.504 74.2551C913.498 74.6404 913.629 74.9258 913.899 75.1112C914.157 75.2851 914.495 75.3979 914.914 75.4496C915.321 75.5011 915.887 75.5323 916.612 75.5433C917.53 75.5571 918.279 75.4948 918.859 75.3562C919.428 75.2061 919.716 74.9214 919.723 74.5022Z" fill="#F9E9CC"/>
<path d="M988.735 210.873L988.754 209.649C988.756 209.491 988.729 209.383 988.674 209.325C988.606 209.267 988.499 209.237 988.352 209.235L979.054 209.095L979.029 210.726L978.417 210.717L978.427 210.088C978.434 209.59 978.334 209.129 978.125 208.706C977.916 208.273 977.614 207.979 977.22 207.826L977.239 206.551L988.39 206.719C988.537 206.722 988.645 206.695 988.714 206.639C988.772 206.572 988.802 206.465 988.804 206.318L988.823 205.094L989.367 205.102L989.279 210.881L988.735 210.873Z" fill="#F9E9CC"/>
<path d="M990.595 87.8868L990.613 86.6629C990.615 86.5043 990.589 86.3962 990.533 86.3387C990.466 86.281 990.359 86.251 990.211 86.2488L980.913 86.1082L980.889 87.74L980.277 87.7308L980.286 87.1019C980.294 86.6032 980.193 86.1427 979.984 85.7201C979.775 85.2863 979.474 84.9927 979.079 84.8394L979.099 83.5645L990.249 83.7331C990.397 83.7353 990.505 83.7086 990.574 83.653C990.631 83.5858 990.661 83.4786 990.663 83.3313L990.682 82.1074L991.226 82.1157L991.139 87.895L990.595 87.8868Z" fill="#F9E9CC"/>
<path d="M397.523 76.03C397.51 76.8459 397.182 77.5607 396.538 78.1743C395.894 78.7767 395.082 79.2404 394.103 79.5657C393.112 79.8794 392.123 80.0288 391.138 80.0139C390.152 79.999 389.174 79.8198 388.204 79.4765C387.224 79.1216 386.421 78.6334 385.795 78.0119C385.17 77.379 384.864 76.6547 384.876 75.8387C384.888 75.0228 385.216 74.3137 385.86 73.7114C386.504 73.0977 387.322 72.634 388.313 72.3203C389.292 71.9951 390.275 71.8399 391.261 71.8548C392.247 71.8697 393.23 72.0546 394.211 72.4095C395.18 72.7528 395.978 73.241 396.603 73.8738C397.228 74.4953 397.535 75.2141 397.523 76.03ZM396.979 76.0217C396.985 75.6024 396.763 75.2987 396.312 75.1106C395.851 74.9109 395.353 74.807 394.821 74.799L387.614 74.69C387.081 74.682 386.587 74.7708 386.13 74.9566C385.663 75.1309 385.426 75.4277 385.42 75.847C385.414 76.2663 385.641 76.5757 386.103 76.7754C386.553 76.9636 387.045 77.0617 387.578 77.0697L394.785 77.1787C395.317 77.1868 395.817 77.1036 396.285 76.9293C396.741 76.7436 396.972 76.441 396.979 76.0217Z" fill="#F9E9CC"/>
<rect x="8.66166" y="145.089" width="36" height="74" rx="18" transform="rotate(-89.1338 8.66166 145.089)" stroke="#7B9B9E" stroke-width="14"/>
</svg>
