<svg width="318" height="721" viewBox="0 0 318 721" fill="none" xmlns="http://www.w3.org/2000/svg">
<path d="M267 616.232V598H349V632H267V616.232Z" fill="#A33631" stroke="#A33631" stroke-width="3" stroke-linecap="round"/>
<circle cx="301" cy="301" r="297" fill="#A33631" stroke="#A33631" stroke-width="8"/>
<path d="M571 300.5C571 433.753 474.643 544.509 347.805 566.878C332.448 569.587 316.641 571 300.5 571C288.642 571 276.964 570.237 265.512 568.759C132.649 551.602 30 438.035 30 300.5C30 151.107 151.107 30 300.5 30C449.893 30 571 151.107 571 300.5Z" fill="#7B9B9E" stroke="#A33631" stroke-width="8"/>
<path d="M163.43 454.078L285.772 311.345L305.64 313.436L163.43 454.078Z" fill="#F9E9CC" stroke="#F9E9CC" stroke-width="3" stroke-linecap="round"/>
<path d="M139.902 479.697L168.658 448.85" stroke="#F9E9CC" stroke-width="3" stroke-linecap="round"/>
<path d="M119.512 458.783L149.313 434.21" stroke="#F9E9CC" stroke-width="3" stroke-linecap="round"/>
<path d="M102.781 435.778L134.151 415.388" stroke="#F9E9CC" stroke-width="3" stroke-linecap="round"/>
<path d="M87.6191 411.205L121.603 394.475" stroke="#F9E9CC" stroke-width="3" stroke-linecap="round"/>
<path d="M77.6855 385.064L112.192 371.993" stroke="#F9E9CC" stroke-width="3" stroke-linecap="round"/>
<path d="M69.3203 356.309L105.918 347.943" stroke="#F9E9CC" stroke-width="3" stroke-linecap="round"/>
<path d="M63.0449 328.598L101.212 324.938" stroke="#F9E9CC" stroke-width="3" stroke-linecap="round"/>
<path d="M62 299.319H99.6438" stroke="#F9E9CC" stroke-width="3" stroke-linecap="round"/>
<path d="M64.0918 271.087L101.736 276.315" stroke="#F9E9CC" stroke-width="3" stroke-linecap="round"/>
<path d="M69.3203 242.854L106.964 252.264" stroke="#F9E9CC" stroke-width="3" stroke-linecap="round"/>
<path d="M78.7305 215.667L114.283 230.306" stroke="#F9E9CC" stroke-width="3" stroke-linecap="round"/>
<path d="M90.2324 189.525L124.739 208.347" stroke="#F9E9CC" stroke-width="3" stroke-linecap="round"/>
<path d="M105.918 165.475L137.288 187.434" stroke="#F9E9CC" stroke-width="3" stroke-linecap="round"/>
<path d="M123.693 143.516L150.881 167.566" stroke="#F9E9CC" stroke-width="3" stroke-linecap="round"/>
<path d="M143.562 123.648L167.613 150.836" stroke="#F9E9CC" stroke-width="3" stroke-linecap="round"/>
<path d="M165.521 105.872L186.435 135.151" stroke="#F9E9CC" stroke-width="3" stroke-linecap="round"/>
<path d="M189.57 91.2324L207.347 123.648" stroke="#F9E9CC" stroke-width="3" stroke-linecap="round"/>
<path d="M214.666 79.7305L228.26 113.192" stroke="#F9E9CC" stroke-width="3" stroke-linecap="round"/>
<path d="M241.854 71.3652L250.219 105.872" stroke="#F9E9CC" stroke-width="3" stroke-linecap="round"/>
<path d="M269.041 66.1367L274.269 101.689" stroke="#F9E9CC" stroke-width="3" stroke-linecap="round"/>
<path d="M297.273 63V98.5525" stroke="#F9E9CC" stroke-width="3" stroke-linecap="round"/>
<path d="M128.922 469.763L147.744 451.986" stroke="#F9E9CC" stroke-width="3" stroke-linecap="round"/>
<path d="M111.146 447.804L131.014 432.642" stroke="#F9E9CC" stroke-width="3" stroke-linecap="round"/>
<path d="M95.4609 423.23L116.897 411.205" stroke="#F9E9CC" stroke-width="3" stroke-linecap="round"/>
<path d="M81.8672 398.135L104.872 388.201" stroke="#F9E9CC" stroke-width="3" stroke-linecap="round"/>
<path d="M72.457 370.948L95.9844 363.628" stroke="#F9E9CC" stroke-width="3" stroke-linecap="round"/>
<path d="M65.1367 343.237L90.2326 339.055" stroke="#F9E9CC" stroke-width="3" stroke-linecap="round"/>
<path d="M62 313.959H88.1416" stroke="#F9E9CC" stroke-width="3" stroke-linecap="round"/>
<path d="M63.0449 285.726L89.1865 286.771" stroke="#F9E9CC" stroke-width="3" stroke-linecap="round"/>
<path d="M66.1836 257.493L91.2795 261.676" stroke="#F9E9CC" stroke-width="3" stroke-linecap="round"/>
<path d="M73.502 229.261L98.5978 237.626" stroke="#F9E9CC" stroke-width="3" stroke-linecap="round"/>
<path d="M83.959 203.119L108.009 213.576" stroke="#F9E9CC" stroke-width="3" stroke-linecap="round"/>
<path d="M98.5977 178.022L119.511 190.57" stroke="#F9E9CC" stroke-width="3" stroke-linecap="round"/>
<path d="M114.283 153.973L133.105 169.658" stroke="#F9E9CC" stroke-width="3" stroke-linecap="round"/>
<path d="M133.105 133.06L149.836 149.79" stroke="#F9E9CC" stroke-width="3" stroke-linecap="round"/>
<path d="M154.018 114.237L169.703 134.105" stroke="#F9E9CC" stroke-width="3" stroke-linecap="round"/>
<path d="M177.023 98.5527L190.617 119.466" stroke="#F9E9CC" stroke-width="3" stroke-linecap="round"/>
<path d="M202.119 86.0049L212.576 107.964" stroke="#F9E9CC" stroke-width="3" stroke-linecap="round"/>
<path d="M228.26 75.5479L235.579 98.5524" stroke="#F9E9CC" stroke-width="3" stroke-linecap="round"/>
<path d="M255.447 68.2285L260.676 92.2787" stroke="#F9E9CC" stroke-width="3" stroke-linecap="round"/>
<path d="M283.68 65.0918L284.725 89.142" stroke="#F9E9CC" stroke-width="3" stroke-linecap="round"/>
<path d="M310.867 64.0459L309.822 88.0961" stroke="#F9E9CC" stroke-width="3" stroke-linecap="round"/>
<rect x="158.201" y="440.267" width="11.2484" height="27.1872" transform="rotate(-47.109 158.201 440.267)" fill="#F9E9CC"/>
<rect x="93.6758" y="356.883" width="11.2484" height="27.1872" transform="rotate(-102.303 93.6758 356.883)" fill="#F9E9CC"/>
<rect x="99.6445" y="230.381" width="11.2484" height="27.1872" transform="rotate(-69.4327 99.6445 230.381)" fill="#F9E9CC"/>
<rect x="174.932" y="129.393" width="11.2484" height="27.1872" transform="rotate(-37.126 174.932 129.393)" fill="#F9E9CC"/>
<rect x="292.045" y="86.0547" width="11.2484" height="27.1872" transform="rotate(-0.257391 292.045 86.0547)" fill="#F9E9CC"/>
<path d="M280.931 155.076C278.963 155.076 277.227 154.311 275.724 152.78C274.248 151.249 273.1 149.309 272.28 146.958C271.487 144.58 271.091 142.202 271.091 139.824C271.091 137.446 271.487 135.082 272.28 132.731C273.1 130.353 274.248 128.399 275.724 126.868C277.227 125.337 278.963 124.572 280.931 124.572C282.899 124.572 284.621 125.337 286.097 126.868C287.6 128.399 288.748 130.353 289.541 132.731C290.361 135.082 290.771 137.446 290.771 139.824C290.771 142.202 290.361 144.58 289.541 146.958C288.748 149.309 287.6 151.249 286.097 152.78C284.621 154.311 282.899 155.076 280.931 155.076ZM280.931 153.764C281.942 153.764 282.667 153.217 283.104 152.124C283.569 151.003 283.801 149.801 283.801 148.516V131.132C283.801 129.847 283.569 128.658 283.104 127.565C282.667 126.444 281.942 125.884 280.931 125.884C279.92 125.884 279.182 126.444 278.717 127.565C278.28 128.658 278.061 129.847 278.061 131.132V148.516C278.061 149.801 278.28 151.003 278.717 152.124C279.182 153.217 279.92 153.764 280.931 153.764ZM294.956 161.308C296.678 160.679 298.059 159.764 299.097 158.561C300.163 157.386 300.696 156.142 300.696 154.83C300.696 154.639 300.628 154.475 300.491 154.338C300.382 154.174 300.218 154.092 299.999 154.092C299.781 154.092 299.453 154.201 299.015 154.42C298.523 154.666 298.059 154.789 297.621 154.789C296.856 154.789 296.173 154.529 295.571 154.01C294.997 153.491 294.71 152.766 294.71 151.837C294.71 150.744 295.066 149.896 295.776 149.295C296.487 148.666 297.307 148.352 298.236 148.352C299.576 148.352 300.628 148.803 301.393 149.705C302.186 150.58 302.582 151.714 302.582 153.108C302.582 155.349 301.926 157.276 300.614 158.889C299.33 160.502 297.635 161.691 295.53 162.456L294.956 161.308ZM316.041 155.076C314.511 155.076 313.007 154.775 311.531 154.174C310.083 153.573 308.894 152.712 307.964 151.591C307.062 150.443 306.611 149.104 306.611 147.573C306.611 145.851 307.117 144.389 308.128 143.186C309.14 141.983 310.288 141.109 311.572 140.562V140.48C308.648 138.758 307.185 136.284 307.185 133.059C307.185 131.255 307.65 129.711 308.579 128.426C309.536 127.141 310.739 126.185 312.187 125.556C313.663 124.9 315.167 124.572 316.697 124.572C318.501 124.572 320.005 124.914 321.207 125.597C322.437 126.28 323.326 127.128 323.872 128.139C324.446 129.15 324.733 130.134 324.733 131.091C324.733 132.458 324.296 133.701 323.421 134.822C322.574 135.943 321.563 136.804 320.387 137.405V137.569L321.166 137.979C322.779 138.772 324.05 139.851 324.979 141.218C325.909 142.585 326.373 143.965 326.373 145.359C326.373 147.136 325.977 148.762 325.184 150.238C324.392 151.714 323.216 152.889 321.658 153.764C320.1 154.639 318.228 155.076 316.041 155.076ZM319.239 136.954C320.333 136.517 321.194 135.779 321.822 134.74C322.451 133.674 322.765 132.526 322.765 131.296C322.765 130.175 322.478 129.205 321.904 128.385C321.33 127.565 320.592 126.95 319.69 126.54C318.816 126.103 317.914 125.884 316.984 125.884C315.508 125.884 314.128 126.239 312.843 126.95C311.586 127.661 310.957 128.781 310.957 130.312C310.957 131.405 311.203 132.239 311.695 132.813C312.187 133.387 312.912 133.906 313.868 134.371L319.239 136.954ZM317.148 153.764C318.351 153.764 319.417 153.545 320.346 153.108C321.276 152.643 321.986 152.042 322.478 151.304C322.998 150.566 323.257 149.773 323.257 148.926C323.257 147.833 322.916 146.931 322.232 146.22C321.549 145.509 320.661 144.881 319.567 144.334L312.761 140.972C311.668 141.573 310.834 142.298 310.26 143.145C309.686 143.965 309.399 145.222 309.399 146.917C309.399 148.666 309.837 150.06 310.711 151.099C311.613 152.11 312.652 152.807 313.827 153.19C315.03 153.573 316.137 153.764 317.148 153.764Z" fill="#A33631"/>
<path d="M139.767 258.596C137.799 258.596 136.063 257.831 134.56 256.3C133.084 254.77 131.936 252.829 131.116 250.478C130.323 248.1 129.927 245.722 129.927 243.344C129.927 240.966 130.323 238.602 131.116 236.251C131.936 233.873 133.084 231.919 134.56 230.388C136.063 228.858 137.799 228.092 139.767 228.092C141.735 228.092 143.457 228.858 144.933 230.388C146.436 231.919 147.584 233.873 148.377 236.251C149.197 238.602 149.607 240.966 149.607 243.344C149.607 245.722 149.197 248.1 148.377 250.478C147.584 252.829 146.436 254.77 144.933 256.3C143.457 257.831 141.735 258.596 139.767 258.596ZM139.767 257.284C140.778 257.284 141.503 256.738 141.94 255.644C142.405 254.524 142.637 253.321 142.637 252.036V234.652C142.637 233.368 142.405 232.179 141.94 231.085C141.503 229.965 140.778 229.404 139.767 229.404C138.756 229.404 138.018 229.965 137.553 231.085C137.116 232.179 136.897 233.368 136.897 234.652V252.036C136.897 253.321 137.116 254.524 137.553 255.644C138.018 256.738 138.756 257.284 139.767 257.284ZM153.792 264.828C155.514 264.2 156.894 263.284 157.933 262.081C158.999 260.906 159.532 259.662 159.532 258.35C159.532 258.159 159.464 257.995 159.327 257.858C159.218 257.694 159.054 257.612 158.835 257.612C158.616 257.612 158.288 257.722 157.851 257.94C157.359 258.186 156.894 258.309 156.457 258.309C155.692 258.309 155.008 258.05 154.407 257.53C153.833 257.011 153.546 256.287 153.546 255.357C153.546 254.264 153.901 253.417 154.612 252.815C155.323 252.187 156.143 251.872 157.072 251.872C158.411 251.872 159.464 252.323 160.229 253.225C161.022 254.1 161.418 255.234 161.418 256.628C161.418 258.87 160.762 260.797 159.45 262.409C158.165 264.022 156.471 265.211 154.366 265.976L153.792 264.828ZM169.301 256.628H173.237C173.62 256.628 173.88 256.56 174.016 256.423C174.153 256.259 174.221 256 174.221 255.644V249.576H165.201V248.059L175.984 228.707H180.289V248.1H184.717V249.576H180.289V255.644C180.289 256 180.358 256.259 180.494 256.423C180.658 256.56 180.918 256.628 181.273 256.628H184.225V257.94H169.301V256.628ZM167.251 248.1H174.221V235.636L167.251 248.1Z" fill="#A33631"/>
<path d="M165.908 419.629C163.94 419.629 162.204 418.863 160.701 417.333C159.225 415.802 158.077 413.861 157.257 411.511C156.464 409.133 156.068 406.755 156.068 404.377C156.068 401.999 156.464 399.634 157.257 397.284C158.077 394.906 159.225 392.951 160.701 391.421C162.204 389.89 163.94 389.125 165.908 389.125C167.876 389.125 169.598 389.89 171.074 391.421C172.577 392.951 173.725 394.906 174.518 397.284C175.338 399.634 175.748 401.999 175.748 404.377C175.748 406.755 175.338 409.133 174.518 411.511C173.725 413.861 172.577 415.802 171.074 417.333C169.598 418.863 167.876 419.629 165.908 419.629ZM165.908 418.317C166.919 418.317 167.643 417.77 168.081 416.677C168.545 415.556 168.778 414.353 168.778 413.069V395.685C168.778 394.4 168.545 393.211 168.081 392.118C167.643 390.997 166.919 390.437 165.908 390.437C164.896 390.437 164.158 390.997 163.694 392.118C163.256 393.211 163.038 394.4 163.038 395.685V413.069C163.038 414.353 163.256 415.556 163.694 416.677C164.158 417.77 164.896 418.317 165.908 418.317Z" fill="#A33631"/>
<path d="M269.482 206.765H269.209V222.95C269.209 224.12 269.599 225.004 270.379 225.602C271.185 226.174 272.147 226.46 273.265 226.46V227.708H263.593V226.46C264.711 226.46 265.66 226.174 266.44 225.602C267.246 225.004 267.649 224.12 267.649 222.95V202.124C267.649 201.76 267.584 201.513 267.454 201.383C267.324 201.253 267.077 201.188 266.713 201.188H263.593V199.94H272.914L280.051 219.128L285.277 199.94H295.183V201.188H292.453C292.115 201.188 291.868 201.253 291.712 201.383C291.582 201.513 291.517 201.76 291.517 202.124V225.524C291.517 225.862 291.582 226.109 291.712 226.265C291.868 226.395 292.115 226.46 292.453 226.46H295.183V227.708H282.079V226.46H284.809C285.173 226.46 285.42 226.395 285.55 226.265C285.68 226.109 285.745 225.862 285.745 225.524V203.333L278.959 228.176H277.438L269.482 206.765ZM298.835 226.46H301.565C301.929 226.46 302.176 226.395 302.306 226.265C302.436 226.109 302.501 225.862 302.501 225.524V202.124C302.501 201.76 302.436 201.513 302.306 201.383C302.176 201.253 301.929 201.188 301.565 201.188H298.835V199.94H312.719C314.539 199.94 316.151 200.252 317.555 200.876C318.985 201.474 320.09 202.332 320.87 203.45C321.676 204.542 322.079 205.79 322.079 207.194C322.079 208.624 321.676 209.898 320.87 211.016C320.09 212.134 318.985 213.018 317.555 213.668C316.151 214.292 314.539 214.604 312.719 214.604H308.273V225.524C308.273 225.862 308.338 226.109 308.468 226.265C308.624 226.395 308.871 226.46 309.209 226.46H312.641V227.708H298.835V226.46ZM312.134 213.356C313.486 213.356 314.435 212.81 314.981 211.718C315.553 210.626 315.839 209.118 315.839 207.194C315.839 205.296 315.566 203.827 315.02 202.787C314.474 201.721 313.512 201.188 312.134 201.188H309.209C308.871 201.188 308.624 201.253 308.468 201.383C308.338 201.513 308.273 201.76 308.273 202.124V213.356H312.134ZM329.029 228.176C327.599 228.176 326.377 227.825 325.363 227.123C324.375 226.421 323.881 225.238 323.881 223.574C323.881 221.884 324.492 220.558 325.714 219.596C326.962 218.608 328.535 217.789 330.433 217.139L333.319 216.125V213.473C333.319 212.147 333.046 211.185 332.5 210.587C331.954 209.989 331.252 209.69 330.394 209.69C329.666 209.69 329.029 209.859 328.483 210.197C327.963 210.509 327.703 210.951 327.703 211.523C327.703 211.679 327.742 211.874 327.82 212.108C327.924 212.316 328.093 212.498 328.327 212.654C328.717 212.888 328.99 213.135 329.146 213.395C329.328 213.655 329.419 213.993 329.419 214.409C329.419 215.033 329.185 215.527 328.717 215.891C328.275 216.229 327.781 216.398 327.235 216.398C326.559 216.398 325.974 216.177 325.48 215.735C325.012 215.267 324.778 214.604 324.778 213.746C324.778 212.758 325.077 211.887 325.675 211.133C326.273 210.353 327.04 209.768 327.976 209.378C328.912 208.962 329.861 208.754 330.823 208.754C332.695 208.754 334.333 209.261 335.737 210.275C337.141 211.263 337.843 212.849 337.843 215.033V224.9C337.843 225.836 338.103 226.304 338.623 226.304C339.091 226.304 339.442 225.914 339.676 225.134C339.91 224.354 340.027 223.457 340.027 222.443H341.119C341.119 224.341 340.833 225.732 340.261 226.616C339.975 227.084 339.572 227.461 339.052 227.747C338.532 228.033 337.934 228.176 337.258 228.176C336.192 228.176 335.386 228.02 334.84 227.708C334.294 227.37 333.839 226.824 333.475 226.07H333.397C332.357 227.474 330.901 228.176 329.029 228.176ZM330.94 226.616C331.954 226.616 332.747 226.044 333.319 224.9V217.178L331.135 217.958C330.277 218.27 329.64 218.868 329.224 219.752C328.834 220.61 328.639 221.767 328.639 223.223C328.639 224.497 328.873 225.381 329.341 225.875C329.809 226.369 330.342 226.616 330.94 226.616Z" fill="#A33631"/>
<path d="M283.818 445.236H286.41C286.746 445.236 286.974 445.176 287.094 445.056C287.214 444.912 287.274 444.684 287.274 444.372V424.68H283.818V423.384H285.15C286.206 423.384 287.178 423.156 288.066 422.7C288.978 422.244 289.59 421.596 289.902 420.756H292.602V444.372C292.602 444.684 292.662 444.912 292.782 445.056C292.926 445.176 293.154 445.236 293.466 445.236H296.058V446.388H283.818V445.236ZM302.253 452.436C303.765 451.884 304.977 451.08 305.889 450.024C306.825 448.992 307.293 447.9 307.293 446.748C307.293 446.58 307.233 446.436 307.113 446.316C307.017 446.172 306.873 446.1 306.681 446.1C306.489 446.1 306.201 446.196 305.817 446.388C305.385 446.604 304.977 446.712 304.593 446.712C303.921 446.712 303.321 446.484 302.793 446.028C302.289 445.572 302.037 444.936 302.037 444.12C302.037 443.16 302.349 442.416 302.973 441.888C303.597 441.336 304.317 441.06 305.133 441.06C306.309 441.06 307.233 441.456 307.905 442.248C308.601 443.016 308.949 444.012 308.949 445.236C308.949 447.204 308.373 448.896 307.221 450.312C306.093 451.728 304.605 452.772 302.757 453.444L302.253 452.436ZM320.083 446.964C318.739 446.964 317.539 446.724 316.483 446.244C315.451 445.74 314.647 445.068 314.071 444.228C313.495 443.364 313.207 442.428 313.207 441.42C313.207 440.676 313.375 440.016 313.711 439.44C314.071 438.84 314.515 438.384 315.043 438.072C315.595 437.736 316.147 437.568 316.699 437.568C317.467 437.568 318.055 437.808 318.463 438.288C318.871 438.744 319.075 439.284 319.075 439.908C319.075 440.868 318.559 441.612 317.527 442.14C316.807 442.404 316.447 442.908 316.447 443.652C316.447 444.204 316.747 444.708 317.347 445.164C317.971 445.596 318.847 445.812 319.975 445.812C321.343 445.812 322.231 445.152 322.639 443.832C323.071 442.512 323.287 440.712 323.287 438.432C323.287 436.704 323.191 435.336 322.999 434.328C322.807 433.296 322.459 432.528 321.955 432.024C321.451 431.52 320.731 431.268 319.795 431.268C319.339 431.268 318.799 431.436 318.175 431.772C317.551 432.084 316.975 432.528 316.447 433.104C315.943 433.656 315.607 434.268 315.439 434.94H314.503V421.08L315.223 420.612C316.711 421.524 318.367 421.98 320.191 421.98C321.127 421.98 322.159 421.824 323.287 421.512C324.439 421.176 325.447 420.732 326.311 420.18L326.959 420.828C325.687 422.724 324.079 424.128 322.135 425.04C320.215 425.928 318.151 426.372 315.943 426.372V431.988L316.159 432.06C316.807 431.388 317.503 430.896 318.247 430.584C318.991 430.272 319.831 430.116 320.767 430.116C322.423 430.116 323.875 430.452 325.123 431.124C326.371 431.796 327.331 432.756 328.003 434.004C328.699 435.252 329.047 436.692 329.047 438.324C329.047 440.076 328.639 441.612 327.823 442.932C327.007 444.228 325.915 445.224 324.547 445.92C323.179 446.616 321.691 446.964 320.083 446.964Z" fill="#A33631"/>
<path d="M262.713 473.572H262.531V484.362C262.531 485.142 262.791 485.732 263.311 486.13C263.848 486.512 264.49 486.702 265.235 486.702V487.534H258.787V486.702C259.532 486.702 260.165 486.512 260.685 486.13C261.222 485.732 261.491 485.142 261.491 484.362V470.478C261.491 470.236 261.448 470.071 261.361 469.984C261.274 469.898 261.11 469.854 260.867 469.854H258.787V469.022H265.001L269.759 481.814L273.243 469.022H279.847V469.854H278.027C277.802 469.854 277.637 469.898 277.533 469.984C277.446 470.071 277.403 470.236 277.403 470.478V486.078C277.403 486.304 277.446 486.468 277.533 486.572C277.637 486.659 277.802 486.702 278.027 486.702H279.847V487.534H271.111V486.702H272.931C273.174 486.702 273.338 486.659 273.425 486.572C273.512 486.468 273.555 486.304 273.555 486.078V471.284L269.031 487.846H268.017L262.713 473.572ZM285.61 486.702H287.69C287.933 486.702 288.097 486.659 288.184 486.572C288.271 486.468 288.314 486.304 288.314 486.078V470.738C288.314 470.461 288.227 470.244 288.054 470.088C287.881 469.932 287.647 469.854 287.352 469.854C286.537 469.854 285.792 470.305 285.116 471.206C284.44 472.09 283.937 473.13 283.608 474.326C283.417 474.968 283.279 475.514 283.192 475.964C283.123 476.398 283.079 476.666 283.062 476.77H282.23L282.438 469.022H298.038L298.246 476.77H297.414C297.397 476.666 297.345 476.398 297.258 475.964C297.189 475.514 297.059 474.968 296.868 474.326C296.539 473.13 296.036 472.09 295.36 471.206C294.684 470.305 293.939 469.854 293.124 469.854C292.829 469.854 292.595 469.932 292.422 470.088C292.249 470.244 292.162 470.461 292.162 470.738V486.078C292.162 486.304 292.205 486.468 292.292 486.572C292.396 486.659 292.561 486.702 292.786 486.702H294.866V487.534H285.61V486.702ZM300.737 482.126V479.474H307.445V482.126H300.737ZM312.024 486.702H313.896C314.139 486.702 314.304 486.659 314.39 486.572C314.477 486.468 314.52 486.304 314.52 486.078V471.856H312.024V470.92H312.986C313.749 470.92 314.451 470.756 315.092 470.426C315.751 470.097 316.193 469.629 316.418 469.022H318.368V486.078C318.368 486.304 318.412 486.468 318.498 486.572C318.602 486.659 318.767 486.702 318.992 486.702H320.864V487.534H312.024V486.702ZM331.526 487.95C330.278 487.95 329.178 487.465 328.224 486.494C327.288 485.524 326.56 484.293 326.04 482.802C325.538 481.294 325.286 479.786 325.286 478.278C325.286 476.77 325.538 475.271 326.04 473.78C326.56 472.272 327.288 471.033 328.224 470.062C329.178 469.092 330.278 468.606 331.526 468.606C332.774 468.606 333.866 469.092 334.802 470.062C335.756 471.033 336.484 472.272 336.986 473.78C337.506 475.271 337.766 476.77 337.766 478.278C337.766 479.786 337.506 481.294 336.986 482.802C336.484 484.293 335.756 485.524 334.802 486.494C333.866 487.465 332.774 487.95 331.526 487.95ZM331.526 487.118C332.168 487.118 332.627 486.772 332.904 486.078C333.199 485.368 333.346 484.605 333.346 483.79V472.766C333.346 471.952 333.199 471.198 332.904 470.504C332.627 469.794 332.168 469.438 331.526 469.438C330.885 469.438 330.417 469.794 330.122 470.504C329.845 471.198 329.706 471.952 329.706 472.766V483.79C329.706 484.605 329.845 485.368 330.122 486.078C330.417 486.772 330.885 487.118 331.526 487.118ZM346.608 487.95C345.36 487.95 344.26 487.465 343.306 486.494C342.37 485.524 341.642 484.293 341.122 482.802C340.62 481.294 340.368 479.786 340.368 478.278C340.368 476.77 340.62 475.271 341.122 473.78C341.642 472.272 342.37 471.033 343.306 470.062C344.26 469.092 345.36 468.606 346.608 468.606C347.856 468.606 348.948 469.092 349.884 470.062C350.838 471.033 351.566 472.272 352.068 473.78C352.588 475.271 352.848 476.77 352.848 478.278C352.848 479.786 352.588 481.294 352.068 482.802C351.566 484.293 350.838 485.524 349.884 486.494C348.948 487.465 347.856 487.95 346.608 487.95ZM346.608 487.118C347.25 487.118 347.709 486.772 347.986 486.078C348.281 485.368 348.428 484.605 348.428 483.79V472.766C348.428 471.952 348.281 471.198 347.986 470.504C347.709 469.794 347.25 469.438 346.608 469.438C345.967 469.438 345.499 469.794 345.204 470.504C344.927 471.198 344.788 471.952 344.788 472.766V483.79C344.788 484.605 344.927 485.368 345.204 486.078C345.499 486.772 345.967 487.118 346.608 487.118Z" fill="#A33631"/>
<circle cx="304.07" cy="300.888" r="23.5274" fill="#F9E9CC"/>
<path d="M310.56 294.613L345.309 220.47L382.81 256.082L310.56 294.613Z" fill="#F9E9CC"/>
<ellipse cx="308" cy="626.5" rx="56" ry="16.5" fill="#A33631"/>
<ellipse cx="308" cy="704.5" rx="56" ry="16.5" fill="#A33631"/>
<rect x="252" y="627" width="112" height="78" fill="#A33631"/>
</svg>
