<svg width="561" height="1027" viewBox="0 0 561 1027" fill="none" xmlns="http://www.w3.org/2000/svg">
<rect x="324.312" y="129.726" width="507.573" height="644.973" transform="rotate(15.3889 324.312 129.726)" fill="#A33631"/>
<path d="M364.31 319.55L369.246 320.909C369.966 321.107 370.49 321.113 370.818 320.927C371.16 320.689 371.423 320.236 371.607 319.567L373.305 313.397L369.14 312.25C365.695 311.302 362.654 309.691 360.016 307.416C357.379 305.141 355.495 302.438 354.366 299.306C353.288 296.188 353.216 292.932 354.15 289.538C355.084 286.144 356.812 283.384 359.333 281.257C361.906 279.144 364.908 277.785 368.338 277.18C371.768 276.575 375.206 276.747 378.651 277.695L382.816 278.842L384.345 273.288C384.543 272.568 384.549 272.045 384.362 271.717C384.176 271.389 383.723 271.126 383.003 270.928L378.067 269.569L378.746 267.101L403.737 273.979L403.057 276.447L398.121 275.089C397.452 274.905 396.929 274.899 396.549 275.071C396.221 275.257 395.958 275.71 395.76 276.43L394.232 281.984L398.397 283.13C401.842 284.078 404.883 285.69 407.521 287.965C410.159 290.24 412.016 292.936 413.094 296.054C414.224 299.186 414.321 302.449 413.387 305.842C412.453 309.236 410.7 311.99 408.127 314.103C405.605 316.23 402.629 317.596 399.199 318.2C395.769 318.805 392.331 318.633 388.886 317.685L384.721 316.539L383.023 322.709C382.839 323.378 382.833 323.902 383.005 324.281C383.243 324.623 383.696 324.886 384.364 325.07L389.301 326.429L388.621 328.897L363.631 322.019L364.31 319.55ZM373.985 310.929L382.137 281.31L379.9 280.694C376.558 279.774 373.834 280.325 371.729 282.345C369.624 284.366 367.878 287.896 366.491 292.935C365.104 297.974 364.798 301.9 365.572 304.713C366.347 307.527 368.406 309.393 371.748 310.313L373.985 310.929ZM387.637 314.686C390.979 315.606 393.703 315.056 395.808 313.035C397.913 311.015 399.659 307.485 401.046 302.446C402.433 297.406 402.739 293.48 401.965 290.667C401.19 287.854 399.132 285.988 395.789 285.068L393.552 284.452L385.4 314.071L387.637 314.686ZM413.64 333.128L419.04 334.614C419.76 334.812 420.284 334.818 420.611 334.632C420.953 334.394 421.216 333.941 421.4 333.272L434.138 286.993C434.336 286.273 434.342 285.75 434.156 285.422C433.969 285.094 433.516 284.831 432.796 284.633L427.397 283.147L428.077 280.678L453.993 287.811L453.313 290.28L447.914 288.794C447.246 288.61 446.722 288.604 446.343 288.776C446.015 288.962 445.752 289.415 445.554 290.135L435.003 328.47L463.12 297.459L463.757 295.145C463.955 294.426 463.961 293.902 463.774 293.574C463.588 293.246 463.135 292.983 462.415 292.785L456.862 291.256L457.541 288.788L483.611 295.964L482.932 298.432L477.533 296.946C476.864 296.762 476.34 296.756 475.961 296.928C475.633 297.114 475.37 297.568 475.172 298.287L462.434 344.566C462.251 345.235 462.245 345.759 462.417 346.138C462.655 346.48 463.108 346.743 463.776 346.927L469.175 348.413L468.496 350.881L442.58 343.748L443.259 341.28L448.658 342.766C449.378 342.964 449.902 342.97 450.23 342.784C450.572 342.546 450.835 342.093 451.019 341.425L461.591 303.013L433.453 334.1L432.816 336.414C432.632 337.083 432.626 337.607 432.798 337.986C433.036 338.328 433.489 338.591 434.158 338.775L439.557 340.261L438.877 342.729L412.961 335.596L413.64 333.128ZM494.51 359.535C491.476 358.7 488.792 357.297 486.458 355.327C484.189 353.32 482.555 351.017 481.555 348.419C480.556 345.82 480.417 343.21 481.139 340.587C481.676 338.633 482.536 337.017 483.718 335.738C484.965 334.422 486.345 333.529 487.857 333.06C489.369 332.591 490.845 332.555 492.285 332.951C494.187 333.475 495.644 334.512 496.656 336.063C497.667 337.613 497.932 339.263 497.451 341.011C496.941 342.862 496.122 344.13 494.993 344.815C493.93 345.463 492.692 345.842 491.279 345.95C490.203 346.042 489.374 346.339 488.793 346.843C488.277 347.309 487.899 347.98 487.659 348.854C487.206 350.499 487.731 352.11 489.233 353.685C490.736 355.26 492.721 356.387 495.189 357.067C498.84 358.072 501.627 357.594 503.549 355.634C505.537 353.636 507.175 350.298 508.463 345.619C509.185 342.996 509.639 340.743 509.826 338.858C510.027 336.922 509.713 335.148 508.884 333.537C508.055 331.926 506.458 330.795 504.093 330.144L494.991 327.639L495.756 324.862L505.011 327.41C507.737 328.16 509.878 327.615 511.435 325.776C513.058 323.899 514.372 321.136 515.377 317.485C516.367 313.885 516.571 311.037 515.986 308.94C515.453 306.857 514.03 305.497 511.716 304.861C509.504 304.252 507.13 304.539 504.592 305.721C502.068 306.852 499.61 308.747 497.218 311.408C494.878 314.083 492.861 317.289 491.169 321.028L488.7 320.348L494.793 298.212L497.262 298.891L497.492 302.273C497.546 303.284 497.933 303.888 498.653 304.086C499.013 304.185 499.459 304.17 499.993 304.04C500.526 303.911 501.041 303.748 501.538 303.553C505.793 301.958 509.695 301.649 513.243 302.626C517.151 303.701 520.277 305.309 522.62 307.447C524.978 309.534 526.535 311.816 527.291 314.292C528.113 316.731 528.22 319.056 527.612 321.267C525.984 327.181 521.194 330.315 513.241 330.671L513.029 331.442C516.262 333.162 518.74 335.614 520.463 338.799C522.238 341.998 522.594 345.525 521.533 349.382C520.599 352.776 518.841 355.445 516.259 357.39C513.677 359.334 510.512 360.482 506.765 360.834C503.017 361.185 498.932 360.752 494.51 359.535ZM526.25 364.122L531.649 365.608C532.369 365.806 532.893 365.812 533.221 365.626C533.563 365.388 533.826 364.935 534.01 364.267L546.747 317.988C546.946 317.268 546.951 316.744 546.765 316.416C546.579 316.088 546.126 315.825 545.406 315.627L540.007 314.141L540.686 311.673L566.602 318.806L565.923 321.274L560.524 319.788C559.855 319.604 559.331 319.598 558.952 319.77C558.624 319.956 558.361 320.41 558.163 321.13L547.612 359.464L575.729 328.454L576.366 326.14C576.564 325.42 576.57 324.896 576.384 324.568C576.197 324.24 575.744 323.977 575.024 323.779L569.471 322.25L570.15 319.782L596.221 326.958L595.541 329.426L590.142 327.94C589.474 327.756 588.95 327.75 588.571 327.922C588.243 328.109 587.98 328.562 587.782 329.282L575.044 375.561C574.86 376.229 574.854 376.753 575.026 377.132C575.264 377.474 575.717 377.737 576.386 377.921L581.785 379.407L581.105 381.876L555.189 374.743L555.868 372.274L561.268 373.76C561.988 373.959 562.511 373.964 562.839 373.778C563.181 373.54 563.444 373.087 563.628 372.419L574.201 334.007L546.062 365.095L545.425 367.409C545.241 368.077 545.235 368.601 545.408 368.98C545.645 369.322 546.098 369.585 546.767 369.769L552.166 371.255L551.487 373.724L525.571 366.59L526.25 364.122ZM630.208 397.382C626.918 396.476 624.564 394.777 623.148 392.286C621.783 389.808 621.624 386.667 622.672 382.861L625.155 373.837C625.835 371.369 625.784 369.142 625.003 367.157C624.287 365.134 622.669 363.776 620.15 363.083L615.368 361.767L608.999 384.906C608.815 385.575 608.809 386.099 608.981 386.478C609.219 386.82 609.672 387.083 610.34 387.267L615.74 388.753L615.06 391.221L589.144 384.088L589.823 381.62L595.223 383.106C595.942 383.304 596.466 383.31 596.794 383.124C597.136 382.886 597.399 382.433 597.583 381.764L610.321 335.485C610.519 334.765 610.525 334.241 610.339 333.914C610.152 333.586 609.699 333.323 608.979 333.125L603.58 331.639L604.259 329.17L630.176 336.303L629.496 338.772L624.097 337.286C623.429 337.102 622.905 337.096 622.525 337.268C622.198 337.454 621.935 337.907 621.736 338.627L616.132 358.99L621.454 360.455C624.282 361.233 626.482 360.677 628.053 358.786C629.69 356.858 631.181 353.452 632.526 348.567C633.488 345.07 634.918 342.587 636.816 341.118C639.347 339.159 642.103 338.591 645.085 339.411C646.679 339.85 647.922 340.662 648.813 341.848C649.769 342.996 650.378 344.298 650.642 345.753C650.919 347.157 650.888 348.476 650.548 349.71C650.039 351.562 649.221 353.024 648.096 354.097C647.037 355.133 645.856 355.804 644.555 356.109C643.306 356.429 642.167 356.448 641.138 356.165C639.596 355.74 638.43 354.949 637.642 353.792C636.92 352.597 636.743 351.332 637.111 349.995C637.606 348.195 638.868 346.827 640.895 345.892C641.968 345.413 642.61 344.787 642.822 344.016C643.035 343.245 642.678 342.732 641.752 342.477C640.467 342.123 639.182 342.571 637.897 343.822C636.613 345.073 635.517 347.343 634.612 350.634L633.932 353.103C632.531 358.193 630.281 361.446 627.181 362.861L627.075 363.247C630.817 365.327 633.437 367.764 634.937 370.555C636.451 373.295 636.585 376.927 635.34 381.453L632.983 390.014C632.389 392.174 632.811 393.452 634.251 393.848C635.588 394.216 636.869 393.379 638.095 391.338C639.321 389.297 640.372 386.682 641.25 383.494L643.718 384.173C642.345 389.161 640.608 392.86 638.507 395.268C636.42 397.626 633.654 398.33 630.208 397.382ZM645.229 396.87L647.852 397.591C649.394 398.016 650.92 397.8 652.428 396.943C653.95 396.034 655.261 394.79 656.359 393.212L685.732 350.101L688.972 350.993L691.743 405.44C691.895 408.303 693.051 410.032 695.211 410.626L698.296 411.476L697.617 413.944L670.543 406.492L671.223 404.024L676.776 405.553C677.393 405.722 677.945 405.625 678.433 405.262C678.986 404.861 679.354 404.326 679.538 403.658C679.694 403.092 679.745 402.304 679.691 401.293L679.261 393.209L663.063 388.751L660.148 393.01C659.186 394.294 658.543 395.528 658.217 396.711C657.962 397.636 658.096 398.558 658.618 399.476C659.205 400.357 660.09 400.96 661.273 401.285L664.898 402.283L664.218 404.751L644.55 399.338L645.229 396.87ZM664.851 386.173L679.121 390.101L677.94 366.958L664.851 386.173Z" fill="#F9E9CC"/>
<path d="M339.247 778.954L340.597 779.326C340.777 779.375 340.908 779.377 340.99 779.33C341.075 779.271 341.141 779.158 341.187 778.99L344.371 767.421C344.421 767.241 344.422 767.11 344.376 767.028C344.329 766.946 344.216 766.88 344.036 766.831L342.686 766.459L342.856 765.842L349.721 767.731C350.621 767.979 351.375 768.353 351.984 768.852C352.61 769.343 353.04 769.917 353.273 770.576C353.523 771.226 353.552 771.898 353.361 772.592C353.167 773.299 352.794 773.874 352.244 774.317C351.706 774.764 351.039 775.05 350.244 775.177C349.464 775.295 348.625 775.229 347.725 774.982L345.527 774.377L344.041 779.776C343.995 779.943 343.993 780.074 344.036 780.169C344.096 780.254 344.209 780.32 344.376 780.366L346.073 780.833L345.903 781.45L339.077 779.571L339.247 778.954ZM347.606 774.285C348.274 774.469 348.818 774.328 349.236 773.863C349.668 773.401 350.014 772.694 350.276 771.743C350.534 770.804 350.599 770.041 350.471 769.452C350.346 768.851 349.943 768.456 349.262 768.269L347.815 767.871C347.648 767.825 347.517 767.823 347.422 767.866C347.341 767.913 347.275 768.026 347.225 768.206L345.697 773.76L347.606 774.285ZM354.093 783.953C353.386 783.759 352.83 783.419 352.424 782.934C352.031 782.452 351.947 781.8 352.174 780.977C352.404 780.142 352.886 779.569 353.622 779.26C354.373 778.941 355.262 778.75 356.289 778.687L357.854 778.579L358.215 777.267C358.395 776.612 358.391 776.099 358.203 775.729C358.014 775.359 357.708 775.116 357.284 774.999C356.924 774.9 356.586 774.897 356.27 774.99C355.97 775.073 355.781 775.256 355.704 775.539C355.682 775.616 355.675 775.718 355.682 775.844C355.705 775.961 355.764 776.074 355.858 776.183C356.019 776.352 356.121 776.511 356.162 776.661C356.217 776.814 356.216 776.994 356.159 777.199C356.074 777.508 355.891 777.72 355.611 777.837C355.346 777.944 355.079 777.96 354.809 777.886C354.475 777.794 354.215 777.605 354.031 777.319C353.864 777.024 353.838 776.664 353.955 776.24C354.089 775.752 354.356 775.362 354.754 775.07C355.156 774.766 355.615 774.581 356.13 774.516C356.65 774.437 357.147 774.464 357.623 774.594C358.549 774.849 359.29 775.323 359.846 776.015C360.405 776.695 360.537 777.575 360.24 778.654L358.897 783.533C358.769 783.996 358.834 784.263 359.091 784.333C359.323 784.397 359.549 784.252 359.771 783.898C359.993 783.544 360.173 783.117 360.311 782.615L360.851 782.764C360.593 783.702 360.262 784.351 359.859 784.71C359.654 784.903 359.403 785.034 359.107 785.105C358.811 785.176 358.496 785.165 358.162 785.073C357.635 784.928 357.257 784.741 357.03 784.513C356.806 784.271 356.655 783.939 356.578 783.517L356.539 783.506C355.834 784.059 355.019 784.208 354.093 783.953ZM355.25 783.442C355.752 783.58 356.221 783.405 356.66 782.917L357.711 779.099L356.525 779.188C356.058 779.225 355.662 779.434 355.336 779.815C355.026 780.186 354.772 780.731 354.574 781.451C354.401 782.081 354.396 782.55 354.56 782.858C354.725 783.166 354.954 783.361 355.25 783.442ZM365.389 787.062C364.695 786.871 364.102 786.487 363.611 785.909C363.124 785.319 362.801 784.608 362.643 783.776C362.485 782.944 362.529 782.078 362.777 781.178C363.131 779.893 363.431 778.903 363.677 778.211C363.923 777.518 364.226 776.917 364.588 776.408C364.962 775.902 365.443 775.461 366.031 775.083C366.632 774.709 367.316 774.483 368.085 774.404C368.866 774.329 369.798 774.309 370.881 774.344C371.389 774.359 371.748 774.334 371.96 774.267C372.176 774.188 372.341 774.04 372.456 773.823L372.919 773.95C372.706 774.722 372.433 775.289 372.097 775.653C371.765 776.005 371.397 776.214 370.991 776.282C370.598 776.354 370.104 776.363 369.51 776.31C368.645 776.238 367.947 776.212 367.416 776.232C366.888 776.239 366.37 776.338 365.861 776.53C365.398 776.707 365.007 777.021 364.689 777.473C364.374 777.912 364.12 778.409 363.926 778.964L364.017 779.01C365.241 777.576 366.58 777.06 368.032 777.459C368.726 777.651 369.317 778.041 369.805 778.632C370.296 779.21 370.62 779.914 370.779 780.746C370.937 781.578 370.892 782.444 370.644 783.344C370.397 784.243 369.992 785.01 369.43 785.644C368.869 786.278 368.228 786.723 367.507 786.981C366.789 787.226 366.083 787.253 365.389 787.062ZM365.517 786.6C366.069 786.752 366.542 786.515 366.936 785.891C367.342 785.27 367.755 784.194 368.176 782.664C368.597 781.134 368.792 779.999 368.761 779.257C368.743 778.519 368.458 778.074 367.905 777.922C367.339 777.767 366.86 778.001 366.467 778.626C366.077 779.238 365.67 780.315 365.245 781.858C364.821 783.4 364.617 784.54 364.636 785.278C364.657 786.004 364.951 786.444 365.517 786.6ZM375.104 789.736C374.41 789.545 373.817 789.161 373.326 788.583C372.839 787.993 372.516 787.281 372.358 786.45C372.2 785.618 372.244 784.752 372.492 783.852C372.74 782.952 373.144 782.185 373.706 781.552C374.268 780.918 374.907 780.479 375.625 780.234C376.345 779.976 377.053 779.942 377.747 780.133C378.441 780.324 379.032 780.715 379.52 781.306C380.011 781.883 380.335 782.588 380.494 783.42C380.652 784.252 380.607 785.118 380.359 786.018C380.112 786.917 379.707 787.684 379.145 788.318C378.584 788.952 377.943 789.397 377.222 789.655C376.504 789.9 375.798 789.927 375.104 789.736ZM375.232 789.273C375.784 789.426 376.257 789.189 376.651 788.565C377.057 787.943 377.47 786.868 377.891 785.338C378.312 783.808 378.507 782.673 378.476 781.931C378.458 781.193 378.173 780.748 377.62 780.596C377.067 780.444 376.588 780.679 376.182 781.3C375.788 781.924 375.381 783.002 374.96 784.531C374.539 786.061 374.338 787.195 374.356 787.933C374.387 788.675 374.679 789.121 375.232 789.273ZM385.128 791.748L385.86 791.95C385.976 791.982 386.059 791.984 386.108 791.956C386.173 791.919 386.222 791.842 386.254 791.726L387.13 788.545C386.168 788.571 385.334 788.486 384.627 788.292C383.984 788.115 383.503 787.802 383.184 787.355C382.868 786.895 382.8 786.337 382.981 785.681L383.756 782.866C383.788 782.75 383.783 782.666 383.742 782.613C383.718 782.551 383.648 782.504 383.532 782.472L382.799 782.271L382.927 781.808L387.13 782.965L387.003 783.428L386.386 783.258C386.27 783.226 386.18 783.229 386.114 783.266C386.065 783.294 386.024 783.366 385.993 783.481L385.064 786.856C384.975 787.177 384.969 787.425 385.046 787.598C385.123 787.771 385.29 787.893 385.547 787.964C385.766 788.024 386.044 788.066 386.383 788.09C386.726 788.102 387.017 788.099 387.257 788.082L388.345 784.129C388.377 784.013 388.372 783.929 388.332 783.876C388.307 783.814 388.237 783.767 388.121 783.736L387.504 783.566L387.632 783.103L391.835 784.26L391.708 784.723L390.975 784.521C390.86 784.489 390.769 784.492 390.703 784.529C390.654 784.557 390.614 784.629 390.582 784.745L388.491 792.342C388.459 792.458 388.455 792.547 388.48 792.609C388.52 792.661 388.599 792.704 388.714 792.736L389.447 792.937L389.32 793.4L385 792.211L385.128 791.748ZM393.469 794.791C392.762 794.596 392.205 794.256 391.799 793.771C391.406 793.29 391.323 792.638 391.55 791.815C391.78 790.979 392.262 790.407 392.997 790.097C393.749 789.779 394.638 789.588 395.665 789.525L397.23 789.416L397.591 788.105C397.771 787.449 397.767 786.937 397.578 786.567C397.39 786.197 397.083 785.953 396.659 785.836C396.299 785.737 395.961 785.734 395.645 785.827C395.346 785.911 395.157 786.094 395.079 786.377C395.058 786.454 395.051 786.555 395.057 786.682C395.081 786.799 395.139 786.912 395.234 787.021C395.395 787.189 395.496 787.349 395.538 787.499C395.593 787.652 395.592 787.831 395.535 788.037C395.45 788.346 395.267 788.558 394.986 788.674C394.722 788.781 394.454 788.798 394.184 788.723C393.85 788.631 393.591 788.442 393.407 788.157C393.239 787.862 393.214 787.502 393.33 787.078C393.465 786.589 393.731 786.199 394.13 785.908C394.531 785.603 394.99 785.419 395.506 785.353C396.026 785.275 396.523 785.301 396.999 785.432C397.924 785.687 398.665 786.16 399.221 786.853C399.781 787.532 399.912 788.412 399.615 789.492L398.272 794.371C398.145 794.833 398.21 795.1 398.467 795.171C398.698 795.235 398.925 795.09 399.147 794.736C399.369 794.382 399.549 793.954 399.687 793.453L400.226 793.602C399.968 794.54 399.638 795.189 399.234 795.548C399.029 795.741 398.779 795.872 398.483 795.943C398.187 796.013 397.872 796.003 397.537 795.911C397.01 795.766 396.633 795.579 396.405 795.35C396.181 795.109 396.031 794.777 395.953 794.355L395.915 794.344C395.21 794.897 394.394 795.046 393.469 794.791ZM394.626 794.28C395.127 794.418 395.597 794.243 396.036 793.755L397.086 789.937L395.9 790.025C395.434 790.063 395.037 790.272 394.711 790.652C394.402 791.023 394.148 791.569 393.95 792.289C393.776 792.919 393.772 793.388 393.936 793.696C394.1 794.004 394.33 794.198 394.626 794.28ZM401.937 797.246C401.268 797.062 400.869 796.703 400.74 796.17C400.623 795.64 400.681 794.951 400.915 794.102L401.416 794.24C401.271 794.767 401.2 795.225 401.204 795.613C401.211 795.988 401.331 796.208 401.562 796.272C401.845 796.35 402.034 796.215 402.13 795.868L402.453 794.692C402.655 793.959 402.996 793.472 403.478 793.231C403.972 792.994 404.574 792.917 405.283 793.002L405.31 792.906C403.691 792.156 403.046 791.183 403.375 789.987C403.573 789.268 404.026 788.777 404.734 788.515C405.459 788.245 406.335 788.251 407.363 788.534L411.818 789.76L411.69 790.223L411.073 790.053C410.958 790.021 410.867 790.024 410.801 790.061C410.752 790.089 410.712 790.161 410.68 790.276L408.589 797.874C408.557 797.99 408.553 798.078 408.578 798.14C408.618 798.193 408.697 798.235 408.812 798.267L409.545 798.469L409.418 798.932L405.098 797.743L405.226 797.28L405.959 797.482C406.074 797.514 406.157 797.516 406.206 797.488C406.271 797.45 406.32 797.374 406.352 797.258L407.35 793.633L406.598 793.426C405.736 793.189 405.182 793.52 404.934 794.42L404.531 795.886C404.358 796.516 404.038 796.946 403.574 797.178C403.112 797.397 402.567 797.419 401.937 797.246ZM407.477 793.17L408.443 789.661C408.475 789.545 408.47 789.461 408.43 789.408C408.405 789.346 408.329 789.297 408.2 789.262L407.506 789.071C407.03 788.94 406.648 789.022 406.36 789.316C406.075 789.597 405.851 790.033 405.689 790.624C405.338 791.897 405.594 792.652 406.455 792.889L407.477 793.17ZM417.884 800.764L418.964 801.061C419.08 801.093 419.162 801.095 419.211 801.067C419.277 801.03 419.326 800.953 419.357 800.838L421.449 793.24C421.484 793.112 421.481 793.021 421.44 792.968C421.412 792.919 421.341 792.879 421.225 792.847C420.942 792.769 420.622 792.854 420.263 793.101C419.921 793.338 419.61 793.64 419.33 794.005C419.029 794.393 418.788 794.741 418.606 795.051C418.437 795.364 418.334 795.564 418.296 795.65L417.756 795.501L418.923 791.715L426.636 793.838L425.701 797.688L425.161 797.54C425.173 797.446 425.18 797.22 425.182 796.861C425.197 796.505 425.174 796.084 425.114 795.598C425.061 795.14 424.941 794.72 424.756 794.337C424.587 793.945 424.362 793.71 424.079 793.632C423.963 793.6 423.874 793.597 423.812 793.621C423.763 793.649 423.721 793.727 423.685 793.856L421.594 801.453C421.562 801.569 421.559 801.658 421.583 801.72C421.624 801.773 421.702 801.815 421.818 801.847L422.898 802.144L422.77 802.607L417.757 801.227L417.884 800.764ZM429.906 804.82C429.109 804.601 428.454 804.192 427.941 803.594C427.444 802.988 427.123 802.27 426.978 801.442C426.833 800.613 426.88 799.762 427.121 798.888C427.368 797.988 427.767 797.22 428.315 796.582C428.864 795.945 429.491 795.502 430.195 795.254C430.916 794.996 431.63 794.964 432.337 795.159C433.122 795.374 433.719 795.843 434.129 796.564C434.542 797.273 434.713 798.108 434.642 799.07C434.619 799.507 434.487 800.162 434.246 801.036L429.541 799.741C429.371 800.358 429.25 800.85 429.176 801.217C429.107 801.571 429.071 801.928 429.069 802.287C429.053 802.794 429.168 803.234 429.411 803.605C429.667 803.98 430.014 804.227 430.451 804.348C431.081 804.521 431.665 804.384 432.203 803.938C432.741 803.491 433.151 802.906 433.433 802.181L433.934 802.319C433.613 803.185 433.108 803.889 432.419 804.433C431.734 804.963 430.896 805.092 429.906 804.82ZM432.158 799.88C432.529 798.53 432.714 797.509 432.711 796.817C432.724 796.115 432.493 795.699 432.017 795.568C431.542 795.437 431.124 795.675 430.763 796.281C430.419 796.878 430.061 797.851 429.69 799.201L432.158 799.88ZM436.32 805.838L437.4 806.135C437.515 806.167 437.598 806.169 437.647 806.141C437.712 806.104 437.761 806.028 437.793 805.912L439.884 798.314C439.919 798.186 439.917 798.095 439.876 798.042C439.848 797.993 439.776 797.953 439.66 797.921C439.378 797.843 439.057 797.928 438.699 798.175C438.357 798.413 438.045 798.714 437.765 799.08C437.465 799.467 437.224 799.816 437.042 800.125C436.873 800.438 436.769 800.638 436.732 800.724L436.192 800.576L437.358 796.789L445.071 798.912L444.136 802.762L443.596 802.614C443.608 802.52 443.615 802.294 443.617 801.935C443.632 801.579 443.61 801.158 443.55 800.672C443.496 800.214 443.377 799.794 443.192 799.411C443.023 799.019 442.797 798.784 442.514 798.706C442.399 798.675 442.31 798.671 442.248 798.695C442.199 798.723 442.156 798.802 442.121 798.93L440.03 806.528C439.998 806.643 439.994 806.732 440.019 806.794C440.059 806.847 440.138 806.889 440.253 806.921L441.333 807.218L441.206 807.681L436.192 806.301L436.32 805.838ZM442.83 812.36L443.91 812.657C444.026 812.689 444.11 812.684 444.163 812.643C444.225 812.619 444.271 812.549 444.303 812.433L447.605 800.439C447.636 800.324 447.632 800.239 447.591 800.187C447.567 800.125 447.497 800.078 447.381 800.046L446.301 799.749L446.428 799.286L450.054 800.284L449.746 801.402L449.861 801.434C450.128 801.12 450.452 800.87 450.835 800.685C451.231 800.504 451.634 800.47 452.046 800.583C452.714 800.767 453.248 801.163 453.648 801.771C454.051 802.366 454.298 803.077 454.388 803.904C454.482 804.718 454.418 805.53 454.195 806.34C453.969 807.163 453.613 807.901 453.129 808.556C452.644 809.211 452.081 809.699 451.439 810.021C450.801 810.329 450.148 810.391 449.48 810.207C449.068 810.094 448.736 809.871 448.481 809.538C448.227 809.206 448.056 808.799 447.967 808.318L447.84 808.325L446.54 813.049C446.508 813.165 446.506 813.247 446.534 813.296C446.572 813.362 446.648 813.411 446.764 813.442L447.844 813.74L447.716 814.202L442.703 812.823L442.83 812.36ZM449.302 809.495C450.151 809.728 450.959 808.45 451.727 805.66C452.495 802.871 452.454 801.359 451.606 801.126C451.31 801.044 450.982 801.155 450.623 801.457C450.279 801.749 449.944 802.19 449.616 802.777C449.289 803.364 449.02 804.037 448.812 804.796C448.557 805.721 448.431 806.53 448.434 807.223C448.437 807.915 448.525 808.451 448.697 808.83C448.869 809.209 449.071 809.431 449.302 809.495ZM457.23 812.34C456.523 812.146 455.967 811.806 455.561 811.321C455.168 810.839 455.085 810.187 455.311 809.364C455.541 808.529 456.024 807.956 456.759 807.647C457.51 807.328 458.4 807.138 459.427 807.074L460.991 806.966L461.352 805.655C461.533 804.999 461.529 804.486 461.34 804.116C461.152 803.746 460.845 803.503 460.421 803.386C460.061 803.287 459.723 803.284 459.407 803.377C459.108 803.46 458.919 803.643 458.841 803.926C458.82 804.003 458.813 804.105 458.819 804.231C458.842 804.348 458.901 804.461 458.996 804.57C459.157 804.739 459.258 804.898 459.3 805.048C459.354 805.201 459.353 805.381 459.297 805.587C459.212 805.895 459.029 806.108 458.748 806.224C458.483 806.331 458.216 806.347 457.946 806.273C457.612 806.181 457.353 805.992 457.169 805.706C457.001 805.411 456.975 805.051 457.092 804.627C457.227 804.139 457.493 803.749 457.891 803.457C458.293 803.153 458.752 802.968 459.268 802.903C459.787 802.824 460.285 802.851 460.76 802.982C461.686 803.236 462.427 803.71 462.983 804.402C463.543 805.082 463.674 805.962 463.377 807.042L462.034 811.92C461.907 812.383 461.972 812.65 462.229 812.72C462.46 812.784 462.687 812.639 462.909 812.285C463.13 811.931 463.31 811.504 463.448 811.003L463.988 811.151C463.73 812.09 463.399 812.738 462.996 813.098C462.791 813.29 462.54 813.422 462.244 813.492C461.948 813.563 461.633 813.552 461.299 813.46C460.772 813.315 460.395 813.128 460.167 812.9C459.943 812.658 459.793 812.327 459.715 811.904L459.677 811.894C458.971 812.446 458.156 812.595 457.23 812.34ZM458.388 811.829C458.889 811.967 459.359 811.792 459.797 811.304L460.848 807.486L459.662 807.575C459.195 807.612 458.799 807.821 458.473 808.202C458.164 808.573 457.91 809.119 457.712 809.838C457.538 810.468 457.534 810.937 457.698 811.245C457.862 811.553 458.092 811.748 458.388 811.829ZM464.223 813.601L464.878 813.782C465.174 813.863 465.4 813.87 465.557 813.803C465.718 813.722 465.876 813.572 466.034 813.353C466.637 812.468 467.191 811.459 467.697 810.326C468.202 809.192 468.621 808.022 468.954 806.813C469.01 806.608 469.008 806.413 468.948 806.231C468.9 806.052 468.78 805.936 468.587 805.883L467.932 805.702L468.059 805.239L475.194 807.203L475.067 807.666L474.141 807.411C474.025 807.379 473.935 807.382 473.869 807.419C473.82 807.447 473.779 807.519 473.748 807.635L471.741 814.924C471.678 815.155 471.675 815.341 471.733 815.482C471.804 815.626 471.949 815.728 472.167 815.788L473.209 816.074L472.39 819.5L471.85 819.351C471.862 819.258 471.869 819.032 471.871 818.673C471.87 818.327 471.837 817.993 471.774 817.671C471.685 817.19 471.544 816.771 471.352 816.414C471.156 816.07 470.833 815.836 470.384 815.712L466.835 814.735C466.386 814.611 465.988 814.647 465.644 814.843C465.296 815.051 464.961 815.339 464.639 815.707C464.416 815.964 464.215 816.241 464.037 816.537C463.859 816.834 463.75 817.025 463.713 817.112L463.173 816.963L464.223 813.601ZM469.026 814.84C469.232 814.897 469.367 814.81 469.43 814.578L471.511 807.019C471.543 806.903 471.538 806.819 471.497 806.767C471.473 806.705 471.403 806.658 471.287 806.626L470.882 806.514C470.445 806.394 470.099 806.472 469.843 806.747C469.6 807.026 469.392 807.432 469.218 807.965C468.976 808.742 468.645 809.591 468.226 810.513C467.819 811.438 467.445 812.193 467.105 812.776C466.849 813.204 466.689 813.533 466.626 813.765C466.594 813.88 466.612 813.989 466.681 814.091C466.753 814.18 466.841 814.239 466.944 814.267L469.026 814.84ZM474.533 816.356L475.266 816.558C475.381 816.589 475.464 816.591 475.513 816.563C475.579 816.526 475.627 816.45 475.659 816.334L477.75 808.737C477.782 808.621 477.778 808.537 477.737 808.484C477.712 808.422 477.642 808.375 477.527 808.343L476.794 808.141L476.921 807.679L481.202 808.857L481.075 809.32L480.419 809.139C480.291 809.104 480.192 809.111 480.123 809.161C480.053 809.211 479.996 809.32 479.95 809.487L479.053 812.746L480.904 813.256C481.701 813.475 482.298 813.895 482.694 814.516C483.09 815.136 483.193 815.794 483.002 816.488C482.874 816.951 482.635 817.341 482.285 817.66C481.951 817.969 481.54 818.181 481.052 818.295C480.568 818.397 480.062 818.376 479.535 818.231L474.406 816.819L474.533 816.356ZM478.852 817.545C479.251 817.654 479.606 817.545 479.918 817.216C480.243 816.89 480.486 816.432 480.649 815.84C480.812 815.249 480.842 814.739 480.739 814.309C480.635 813.88 480.378 813.609 479.967 813.495L478.926 813.209L477.896 816.95C477.864 817.065 477.86 817.154 477.885 817.216C477.926 817.269 478.004 817.311 478.12 817.343L478.852 817.545Z" fill="#F9E9CC"/>
<path d="M388.266 410.883L614.68 471.4" stroke="#F9E9CC" stroke-width="3"/>
<path d="M381.193 437.345L607.608 497.862" stroke="#F9E9CC" stroke-width="3"/>
<path d="M374.184 463.576L600.598 524.093" stroke="#F9E9CC" stroke-width="3"/>
<path d="M367.172 489.804L593.586 550.321" stroke="#F9E9CC" stroke-width="3"/>
<path d="M360.162 516.032L586.577 576.549" stroke="#F9E9CC" stroke-width="3"/>
<path d="M555.554 730.777C532.989 732.056 512.416 729.388 497.411 724.098C489.906 721.452 483.866 718.175 479.665 714.472C475.47 710.773 473.195 706.733 472.958 702.513C472.722 698.293 474.532 694.022 478.288 689.873C482.05 685.718 487.685 681.78 494.848 678.303C509.167 671.352 529.312 666.378 551.878 665.099C574.443 663.821 595.016 666.489 610.02 671.778C617.526 674.425 623.565 677.701 627.766 681.405C631.962 685.104 634.237 689.143 634.473 693.363C634.71 697.584 632.9 701.855 629.143 706.004C625.382 710.159 619.747 714.097 612.584 717.574C598.265 724.525 578.12 729.499 555.554 730.777Z" stroke="#F9E9CC" stroke-width="3"/>
<path d="M582.875 684.212C590.945 704.791 594.657 724.758 594.185 740.371C593.948 748.18 592.668 754.825 590.423 759.896C588.182 764.959 585.029 768.355 581.074 769.909C577.119 771.463 572.5 771.12 567.417 768.935C562.326 766.747 556.871 762.749 551.392 757.185C540.436 746.063 529.588 728.9 521.518 708.321C513.449 687.742 509.737 667.775 510.209 652.162C510.445 644.353 511.726 637.708 513.971 632.637C516.212 627.575 519.364 624.178 523.32 622.624C527.275 621.07 531.893 621.413 536.977 623.598C542.068 625.786 547.522 629.785 553.002 635.348C563.958 646.471 574.806 663.633 582.875 684.212Z" stroke="#F9E9CC" stroke-width="3"/>
<path d="M580.685 712.762C569.404 731.119 556.164 745.794 543.932 754.702C537.812 759.158 532.008 762.124 526.879 763.424C521.756 764.722 517.432 764.331 514.081 762.272C510.73 760.213 508.429 756.532 507.273 751.375C506.115 746.212 506.139 739.694 507.351 732.221C509.772 717.284 516.884 698.843 528.165 680.486C539.445 662.13 552.685 647.454 564.918 638.547C571.037 634.091 576.841 631.124 581.971 629.825C587.094 628.527 591.417 628.917 594.768 630.977C598.119 633.036 600.421 636.717 601.577 641.874C602.735 647.037 602.71 653.555 601.499 661.027C599.078 675.964 591.965 694.406 580.685 712.762Z" stroke="#F9E9CC" stroke-width="3"/>
<ellipse cx="511.897" cy="650.111" rx="10.9141" ry="11.622" transform="rotate(31.5726 511.897 650.111)" fill="#7B9B9E"/>
<ellipse cx="533.256" cy="760.202" rx="10.9141" ry="11.622" transform="rotate(31.5726 533.256 760.202)" fill="#7B9B9E"/>
<ellipse cx="554.353" cy="696.745" rx="15.2517" ry="15.4026" transform="rotate(31.5726 554.353 696.745)" fill="#7B9B9E"/>
<path d="M340.891 661.538C341.977 667.409 336.432 679.966 305.561 683.225C298.542 684.997 282.077 691.418 272.376 702.926" stroke="#F9E9CC" stroke-width="3" stroke-linecap="round"/>
<path d="M230.246 721.768C229.264 722.376 227.745 724.461 230.715 726.964C233.684 729.467 235.264 728.318 235.609 727.584" stroke="#F9E9CC" stroke-width="3"/>
<path d="M255.326 727.614C253.024 727.416 247.441 726.257 243.526 723.203" stroke="#F9E9CC" stroke-width="3" stroke-linecap="round"/>
<path d="M239.186 690.837C240.055 693.758 243.791 700.687 251.782 705.044" stroke="#F9E9CC" stroke-width="3" stroke-linecap="round"/>
<path d="M225.322 710.627C228.139 715.189 237.828 726.419 250.477 731.833" stroke="#F9E9CC" stroke-width="3"/>
<path d="M229.307 706.847C229.167 706.03 228.392 705.481 227.576 705.621C226.759 705.76 226.21 706.535 226.349 707.352L229.307 706.847ZM226.349 707.352C226.565 708.615 227.31 710.089 228.562 711.625C229.831 713.183 231.684 714.884 234.244 716.601C239.365 720.035 247.387 723.577 259.465 726.171L260.095 723.238C248.281 720.701 240.64 717.277 235.915 714.109C233.553 712.525 231.936 711.017 230.888 709.731C229.823 708.424 229.404 707.42 229.307 706.847L226.349 707.352Z" fill="#F9E9CC"/>
<path d="M231.413 702.627C231.085 701.867 230.202 701.517 229.441 701.846C228.681 702.175 228.331 703.058 228.66 703.818L231.413 702.627ZM228.66 703.818C230.595 708.294 239.628 719.384 264.516 722.448L264.883 719.471C240.774 716.502 232.826 705.895 231.413 702.627L228.66 703.818Z" fill="#F9E9CC"/>
<path d="M232.774 698.164C232.247 697.525 231.302 697.433 230.662 697.96C230.023 698.487 229.932 699.432 230.459 700.072L232.774 698.164ZM230.459 700.072C233.05 703.217 238.039 707.993 244.57 711.897C251.103 715.802 259.285 718.896 268.221 718.499L268.088 715.502C259.924 715.865 252.326 713.038 246.109 709.322C239.891 705.606 235.161 701.061 232.774 698.164L230.459 700.072Z" fill="#F9E9CC"/>
<path d="M236.327 693.589C235.947 692.852 235.043 692.562 234.306 692.941C233.57 693.32 233.28 694.225 233.659 694.961L236.327 693.589ZM269.129 711.775C264.971 711.282 258.275 709.759 251.838 706.805C245.377 703.841 239.385 699.533 236.327 693.589L233.659 694.961C237.16 701.766 243.855 706.443 250.587 709.532C257.343 712.632 264.347 714.229 268.776 714.754L269.129 711.775Z" fill="#F9E9CC"/>
<path d="M241.336 684.657C240.314 684.102 237.442 685.065 236.436 690.47C236.155 691.976 233.532 692.575 231.686 696.104C229.378 700.516 225.057 704.665 225.193 709.804C225.329 714.942 230.949 725.012 236.652 727.871C242.354 730.73 249.237 732.328 251.242 731.762C253.247 731.197 257.152 729.773 257.911 727.337C258.671 724.902 261.727 723.787 262.966 723.293C264.205 722.8 265.214 719.651 267.008 718.498C268.444 717.576 268.815 712.369 269.621 712.191C271.259 711.829 275.172 711.743 272.148 709.194" stroke="#F9E9CC" stroke-width="3"/>
<path d="M273.246 625.423L278.88 631.614C281.698 633.989 285.28 623.659 288.835 630.265C293.279 638.522 281.625 645.513 280.727 644.346C279.83 643.18 289.66 630.961 294.54 635.074C299.419 639.188 292.912 653.183 287.875 650.372C282.838 647.561 301.089 639.16 305.124 643.997C309.159 648.834 308.768 657.526 300.796 661.264C292.825 665.002 300.47 650.634 310.396 649.876C320.322 649.119 318.177 656.128 317.225 658.094C316.273 660.06 309.149 665.024 307.386 662.513C305.623 660.002 317.03 655.674 322.929 662.903" stroke="#F9E9CC" stroke-width="3"/>
<path d="M323.233 662.543C324.677 661.053 326.363 662.55 327.025 663.484C328.069 665.594 325.108 667.712 324.044 667.02C322.981 666.329 321.429 664.405 323.233 662.543Z" stroke="#F9E9CC" stroke-width="3"/>
<path d="M274.516 622.705C274.846 625.772 271.957 625.88 270.471 625.55C269.509 624.739 269.525 622.907 270.232 622.068C270.94 621.229 274.103 618.871 274.516 622.705Z" stroke="#F9E9CC" stroke-width="3"/>
<path d="M277.781 680.278C291.835 676.438 320.73 668.449 323.781 666.838" stroke="#F9E9CC" stroke-width="3" stroke-linecap="round"/>
<path d="M269.696 674.725C269.117 660.396 268.267 630.732 270.273 625.452" stroke="#F9E9CC" stroke-width="3" stroke-linecap="round"/>
<path d="M265.925 701.792C268.025 703.392 272.209 707.028 272.145 708.779" stroke="#F9E9CC" stroke-width="3" stroke-linecap="round"/>
<path d="M250.842 689.773C251.63 690.239 253.4 691.381 254.18 692.224" stroke="#F9E9CC" stroke-width="3" stroke-linecap="round"/>
<path d="M241.861 684.829C242.971 685.074 245.576 685.917 247.116 687.33" stroke="#F9E9CC" stroke-width="3" stroke-linecap="round"/>
<path d="M244.683 694.636C252.017 705.267 268.629 714.117 271.392 710.093C275.003 704.832 279.138 701.263 293.202 694.541C309.346 686.825 327.042 691.079 340.936 674.596C350.991 662.669 355.163 641.681 318.835 612.39C289.773 588.958 268.508 600.212 259.375 611.378C250.242 622.544 255.289 629.874 253.896 651.769C252.291 676.991 244.776 684.204 241.22 684.658C241.052 687.937 242.43 691.371 244.683 694.636ZM244.683 694.636C252.393 683.165 269.88 662.291 278.141 670.567C288.467 680.912 274.814 687.345 268.91 695.184C266.351 698.583 264.277 701.095 262.763 702.818M244.683 694.636C247.576 697.943 250.804 700.468 253.647 702.273M260.169 705.553C260.603 705.167 261.482 704.275 262.763 702.818M260.169 705.553C265.282 707.573 272.957 709.854 262.763 702.818M260.169 705.553C259.41 705.301 258.337 704.86 257.062 704.218M253.647 702.273C270.186 682.931 271.445 681.019 270.249 684.112C270.34 684.701 274.506 681.015 272.671 684.308M253.647 702.273C254.877 703.055 256.035 703.701 257.062 704.218M252.281 697.058C258.044 690.501 269.765 677.49 270.546 677.903C271.522 678.418 274.235 680.5 273.889 678.26C273.543 676.021 271.485 674.696 269.696 674.726M257.062 704.218C260.549 699.245 268.387 688.776 271.842 686.685C276.161 684.072 279.1 677.937 278.784 677.056" stroke="#F9E9CC" stroke-width="3"/>
<path d="M278.779 676.641C278.855 676.876 278.802 677.869 277.977 679.963" stroke="#F9E9CC" stroke-width="3" stroke-linecap="round"/>
<path d="M273.139 683C273.098 683.512 272.724 684.592 272.044 684.881" stroke="#F9E9CC" stroke-width="3" stroke-linecap="round"/>
<path d="M251.918 698.187C251.951 698.009 251.827 697.597 252.434 696.878" stroke="#F9E9CC" stroke-width="3" stroke-linecap="round"/>
<path d="M353.961 655.637L395.042 663.277" stroke="#7B9B9E" stroke-width="3"/>
<path d="M251.962 554.221L273.342 592.008" stroke="#7B9B9E" stroke-width="3"/>
<path d="M266.561 536.196L275.028 562.527" stroke="#7B9B9E" stroke-width="3"/>
<path d="M381 642.216L408.512 628.779" stroke="#7B9B9E" stroke-width="3"/>
<path d="M302.716 576.224L311.416 546.868" stroke="#7B9B9E" stroke-width="3"/>
<path d="M379.283 617.935L432.038 601.007" stroke="#7B9B9E" stroke-width="3"/>
<path d="M351.216 645.03L379.963 627.073" stroke="#7B9B9E" stroke-width="3"/>
<path d="M286.214 586.507L288.088 552.664" stroke="#7B9B9E" stroke-width="3"/>
<path d="M339.888 622.231L381.383 581.49" stroke="#7B9B9E" stroke-width="3"/>
<path d="M307.505 597.846L334.443 546.309" stroke="#7B9B9E" stroke-width="3"/>
<path d="M324.017 608.254L348.674 581.45" stroke="#7B9B9E" stroke-width="3"/>
<path d="M452.785 397.124L455.486 397.862C455.846 397.96 456.108 397.963 456.272 397.869C456.443 397.75 456.574 397.523 456.665 397.189L462.987 374.036C463.086 373.676 463.088 373.414 462.995 373.25C462.901 373.087 462.674 372.956 462.314 372.857L459.613 372.12L459.95 370.885L481.713 376.828L479.135 387.485L477.9 387.148C477.956 386.942 478.018 386.212 478.083 384.959C478.149 383.705 478.092 382.598 477.913 381.636C477.688 380.331 477.226 379.141 476.524 378.064C475.849 376.995 474.945 376.306 473.813 375.997L469.877 374.923C469.543 374.831 469.281 374.829 469.091 374.915C468.928 375.009 468.797 375.236 468.698 375.596L465.79 386.246L467.758 386.783C468.453 386.973 469.173 386.865 469.919 386.461C470.665 386.057 471.318 385.489 471.877 384.757C472.469 384.006 472.867 383.258 473.071 382.512L474.306 382.849L471.008 394.927L469.773 394.59C469.984 393.818 470.021 392.971 469.886 392.05C469.783 391.109 469.513 390.276 469.076 389.548C468.639 388.821 468.073 388.362 467.379 388.172L465.411 387.635L462.376 398.748C462.285 399.082 462.282 399.344 462.369 399.534C462.488 399.705 462.715 399.836 463.049 399.927L466.561 400.886L466.224 402.121L452.448 398.359L452.785 397.124ZM481.383 391.996L482.057 389.527L514.625 398.42L513.951 400.89L481.383 391.996ZM479.191 400.023L479.866 397.553L512.433 406.446L511.759 408.916L479.191 400.023ZM513.991 414.169L515.457 414.57C515.689 414.633 515.854 414.636 515.952 414.58C516.083 414.506 516.18 414.352 516.243 414.121L520.395 398.917C520.458 398.686 520.449 398.518 520.367 398.412C520.318 398.288 520.178 398.195 519.946 398.131L518.48 397.731L518.733 396.805L525.292 398.596L524.249 402.416L524.432 402.508C526.376 399.943 528.377 398.941 530.435 399.503C532.03 399.939 533.027 400.639 533.427 401.605C533.852 402.578 534.012 403.714 533.907 405.012L534.1 405.065C534.921 403.879 535.832 403.022 536.833 402.494C537.867 401.947 538.86 401.804 539.812 402.063C540.455 402.239 540.987 402.467 541.408 402.748C541.836 403.003 542.217 403.328 542.551 403.724C543.068 404.362 543.394 405.142 543.529 406.064C543.69 406.993 543.652 407.894 543.413 408.769L540.167 420.654C540.104 420.885 540.097 421.063 540.146 421.187C540.228 421.292 540.385 421.376 540.616 421.44L542.082 421.84L541.83 422.766L533.418 420.469L533.67 419.543L534.905 419.88C535.137 419.943 535.302 419.947 535.4 419.891C535.531 419.816 535.628 419.663 535.691 419.431L539.242 406.428C539.783 404.447 539.462 403.295 538.278 402.972C537.738 402.824 537.1 403.037 536.363 403.61C535.633 404.157 534.923 404.985 534.233 406.096C533.575 407.188 533.064 408.403 532.698 409.741L530.443 417.998C530.38 418.23 530.373 418.408 530.422 418.532C530.504 418.637 530.661 418.721 530.892 418.784L532.127 419.122L531.874 420.048L523.694 417.814L523.946 416.888L525.181 417.225C525.413 417.288 525.578 417.292 525.676 417.236C525.807 417.161 525.904 417.008 525.967 416.776L529.708 403.078C529.919 402.306 529.983 401.715 529.901 401.306C529.827 400.871 529.481 400.569 528.863 400.401C528.323 400.253 527.659 400.459 526.87 401.017C526.082 401.576 525.32 402.391 524.586 403.462C523.877 404.54 523.34 405.748 522.974 407.085L520.719 415.343C520.656 415.575 520.649 415.752 520.698 415.876C520.78 415.982 520.937 416.066 521.168 416.129L522.403 416.466L522.15 417.392L513.738 415.095L513.991 414.169ZM550.736 435.067C548.344 434.414 546.427 433.434 544.987 432.129C543.572 430.83 543.069 429.435 543.476 427.943C543.708 427.094 544.244 426.397 545.084 425.852C545.916 425.333 546.934 425.1 548.136 425.152L548.168 425.036C547.41 424.774 546.803 424.263 546.347 423.502C545.892 422.742 545.783 421.925 546.022 421.05C546.689 418.606 548.541 417.495 551.577 417.715L551.619 417.561C550.735 416.85 550.03 415.939 549.504 414.827C549.004 413.723 548.94 412.49 549.312 411.126C549.628 409.969 550.234 409.015 551.13 408.264C552.052 407.521 553.107 407.048 554.295 406.848C555.516 406.628 556.744 406.687 557.979 407.024C560.088 407.6 561.694 408.757 562.795 410.495L562.91 410.527C564.073 409.407 565.208 408.998 566.314 409.3C567.137 409.525 567.736 409.965 568.11 410.62C568.491 411.249 568.586 411.911 568.397 412.606C568.186 413.377 567.785 413.987 567.193 414.433C566.627 414.887 566.048 415.033 565.456 414.871C565.044 414.759 564.716 414.545 564.47 414.229C564.232 413.887 564.169 413.511 564.281 413.099C564.394 412.687 564.726 412.281 565.278 411.878C565.475 411.766 565.665 411.625 565.85 411.454C566.035 411.284 566.148 411.121 566.19 410.967C566.303 410.555 566.089 410.275 565.549 410.128C564.854 409.938 564.051 410.299 563.138 411.211C563.716 412.336 563.786 413.696 563.351 415.291C563.098 416.217 562.553 417.05 561.715 417.789C560.885 418.502 559.839 418.99 558.578 419.254C557.343 419.525 556.019 419.467 554.604 419.081C553.034 418.653 551.735 418.45 550.706 418.473C549.684 418.47 549.061 418.88 548.836 419.704C548.59 420.604 549.097 421.226 550.358 421.571L556.455 423.235C558.281 423.734 559.68 424.586 560.65 425.791C561.62 426.995 561.866 428.473 561.389 430.222C561.037 431.508 560.367 432.597 559.377 433.487C558.381 434.404 557.135 435.017 555.64 435.328C554.146 435.639 552.511 435.552 550.736 435.067ZM555.021 418.158C555.845 418.383 556.545 418.146 557.123 417.447C557.708 416.722 558.243 415.472 558.728 413.697C559.212 411.922 559.383 410.587 559.241 409.691C559.106 408.769 558.626 408.196 557.803 407.971C556.954 407.74 556.224 407.983 555.614 408.7C555.036 409.4 554.505 410.637 554.02 412.412C553.535 414.187 553.361 415.535 553.496 416.457C553.664 417.359 554.173 417.927 555.021 418.158ZM550.494 433.674C552.269 434.159 553.924 434.224 555.459 433.869C556.993 433.513 557.943 432.667 558.308 431.329C558.575 430.352 558.228 429.497 557.267 428.765C556.299 428.058 554.979 427.476 553.307 427.02C551.326 426.479 549.513 426.233 547.869 426.281C546.218 426.356 545.213 427.049 544.855 428.361C544.546 429.493 544.966 430.534 546.117 431.483C547.286 432.466 548.745 433.196 550.494 433.674Z" fill="#7B9B9E"/>
<path d="M445.558 208.993C445.497 207.603 445.151 206.485 444.519 205.639C443.887 204.793 442.763 204.14 441.148 203.678L440.052 203.365L440.579 201.519L459.329 206.874L458.802 208.72L457.129 208.242C456.59 208.088 456.093 208.154 455.637 208.44C455.22 208.737 454.928 209.174 454.764 209.751C454.632 210.212 454.591 210.72 454.64 211.275L455.566 235.563L466.262 218.65L466.097 214.422C466.036 213.032 465.725 212.007 465.165 211.348C464.654 210.661 463.764 210.137 462.494 209.774L461.514 209.494L462.041 207.648L480.964 213.052L480.437 214.898L477.61 214.091C477.072 213.937 476.58 213.984 476.135 214.231C475.69 214.479 475.407 214.814 475.286 215.237C475.176 215.622 475.113 216.061 475.097 216.556L475.998 241.149L486.669 223.667C486.823 223.42 487.031 222.98 487.295 222.348C487.608 221.689 487.831 221.128 487.962 220.667C488.204 219.821 488.174 218.98 487.871 218.145C487.608 217.321 486.937 216.755 485.86 216.447L482.976 215.623L483.503 213.777L499.08 218.226L498.553 220.072L496.764 219.561C494.187 218.825 491.841 220.048 489.726 223.23L469.975 255.465L467.552 254.773L466.427 222.878L449.552 249.633L447.129 248.941L445.558 208.993ZM496.834 240.547L497.889 236.855L546.582 250.761L545.528 254.453L496.834 240.547ZM493.407 252.548L494.462 248.855L543.155 262.761L542.101 266.453L493.407 252.548ZM562.983 247.395L562.579 247.28L555.741 271.222C555.247 272.953 555.45 274.426 556.352 275.64C557.302 276.827 558.605 277.656 560.259 278.128L559.731 279.975L545.423 275.889L545.951 274.042C547.604 274.515 549.129 274.492 550.525 273.976C551.97 273.432 552.939 272.294 553.434 270.563L562.232 239.755C562.386 239.217 562.394 238.824 562.256 238.577C562.119 238.329 561.781 238.129 561.243 237.975L556.627 236.657L557.154 234.811L570.943 238.749L573.395 270.149L589.232 243.972L603.886 248.157L603.359 250.003L599.32 248.849C598.82 248.707 598.427 248.698 598.142 248.825C597.894 248.962 597.694 249.3 597.54 249.839L587.654 284.455C587.512 284.955 587.503 285.348 587.63 285.633C587.806 285.891 588.144 286.092 588.644 286.235L592.682 287.388L592.155 289.234L572.77 283.698L573.297 281.852L577.336 283.005C577.874 283.159 578.267 283.167 578.514 283.03C578.773 282.854 578.973 282.516 579.116 282.016L588.491 249.189L567.957 283.072L565.707 282.43L562.983 247.395ZM614.454 296.726C610.877 295.704 608.105 293.831 606.137 291.106C604.22 288.353 603.093 285.161 602.757 281.529C602.433 277.859 602.809 274.139 603.885 270.37C604.994 266.485 606.67 263.095 608.911 260.199C611.163 257.265 613.781 255.163 616.765 253.894C619.786 252.635 622.932 252.472 626.201 253.406C627.624 253.813 628.861 254.436 629.91 255.277C631.009 256.09 632.1 257.15 633.183 258.457C633.902 259.287 634.474 259.762 634.897 259.883C635.205 259.971 635.477 259.965 635.713 259.866C635.96 259.729 636.216 259.49 636.479 259.149L638.127 257.311L640.031 257.855L634.973 275.567L633.127 275.04C633.659 269.825 633.252 265.424 631.905 261.837C630.597 258.26 628.52 256.065 625.674 255.252C623.866 254.736 622.094 255.187 620.358 256.605C618.661 258.033 617.263 260.671 616.164 264.517L611.221 281.825C610.134 285.633 610.005 288.633 610.835 290.825C611.715 292.99 613.097 294.341 614.981 294.879C619.558 296.187 623.561 295.062 626.989 291.507C628.686 289.787 630.271 287.078 631.743 283.38L633.82 283.973C633.222 285.633 632.464 287.268 631.546 288.877C630.678 290.46 629.736 291.792 628.72 292.875C626.868 294.842 624.717 296.183 622.267 296.898C619.866 297.585 617.262 297.527 614.454 296.726Z" fill="#7B9B9E"/>
</svg>
