<svg width="433" height="513" viewBox="0 0 433 513" fill="none" xmlns="http://www.w3.org/2000/svg">
<path d="M296.233 192.564C296.828 193.14 297.778 193.124 298.354 192.528L307.734 182.819C308.309 182.223 308.293 181.273 307.697 180.698C307.101 180.122 306.152 180.138 305.576 180.734L297.238 189.365L288.608 181.027C288.012 180.451 287.063 180.468 286.487 181.063C285.911 181.659 285.928 182.609 286.524 183.184L296.233 192.564ZM294.66 126.851L295.775 191.511L298.775 191.46L297.66 126.799L294.66 126.851Z" fill="#7B9B9E"/>
<path d="M297.182 255.38C297.777 255.933 298.725 255.878 299.3 255.259L308.666 245.17C309.24 244.551 309.224 243.602 308.629 243.049C308.034 242.497 307.086 242.551 306.511 243.17L298.186 252.138L289.568 244.138C288.973 243.586 288.025 243.64 287.45 244.259C286.876 244.878 286.892 245.828 287.487 246.38L297.182 255.38ZM295.26 169.573L296.725 254.345L299.72 254.174L298.255 169.402L295.26 169.573Z" fill="#7B9B9E"/>
<path d="M286.336 123.989C273.416 117.658 268.092 101.8 274.602 88.5122C281.112 75.2249 296.907 69.7132 309.827 76.0435C322.747 82.3738 328.071 98.2327 321.561 111.52C315.051 124.807 299.256 130.319 286.336 123.989Z" stroke="#A33631" stroke-width="6"/>
<path d="M197.929 176.657C197.111 176.707 196.49 177.425 196.542 178.261L197.389 191.882C197.44 192.718 198.146 193.355 198.963 193.305C199.781 193.255 200.402 192.537 200.35 191.702L199.598 179.594L211.443 178.873C212.261 178.823 212.882 178.105 212.83 177.269C212.778 176.434 212.073 175.796 211.255 175.846L197.929 176.657ZM293.414 262.37L199.003 177.037L197.042 179.305L291.453 264.637L293.414 262.37Z" fill="#7B9B9E"/>
<path d="M135.111 117.513C134.283 117.538 133.632 118.229 133.657 119.057L134.067 132.551C134.092 133.379 134.784 134.03 135.612 134.005C136.44 133.98 137.091 133.288 137.065 132.46L136.701 120.466L148.696 120.101C149.524 120.076 150.175 119.385 150.149 118.557C150.124 117.729 149.433 117.078 148.605 117.103L135.111 117.513ZM199.049 177.079L136.184 117.92L134.128 120.104L196.994 179.264L199.049 177.079Z" fill="#7B9B9E"/>
<path d="M112.675 218.967C113.189 219.6 114.135 219.685 114.788 219.155L125.435 210.527C126.088 209.997 126.201 209.055 125.687 208.421C125.174 207.787 124.228 207.703 123.574 208.233L114.111 215.902L106.668 206.725C106.154 206.091 105.208 206.007 104.555 206.536C103.901 207.066 103.788 208.009 104.302 208.642L112.675 218.967ZM124.984 112.677L112.364 217.875L115.352 218.141L127.973 112.943L124.984 112.677Z" fill="#7B9B9E"/>
<path d="M103.648 300.881C104.17 301.507 105.117 301.579 105.763 301.04L116.304 292.269C116.95 291.73 117.052 290.786 116.531 290.16C116.009 289.533 115.062 289.461 114.415 290L105.046 297.797L97.4929 288.721C96.9715 288.094 96.0244 288.023 95.3776 288.561C94.7308 289.099 94.6292 290.044 95.1507 290.67L103.648 300.881ZM112.125 218.001L103.323 299.793L106.315 300.019L115.117 218.227L112.125 218.001Z" fill="#7B9B9E"/>
<path d="M163.812 398.49C164.622 398.569 165.345 397.954 165.427 397.114L166.773 383.439C166.856 382.6 166.267 381.855 165.457 381.776C164.648 381.696 163.925 382.312 163.842 383.151L162.646 395.306L150.92 394.152C150.111 394.073 149.388 394.688 149.305 395.528C149.223 396.367 149.812 397.112 150.621 397.191L163.812 398.49ZM103.678 323.18L162.82 397.943L165.104 395.998L105.962 321.236L103.678 323.18Z" fill="#7B9B9E"/>
<path d="M212.831 454.794C213.644 454.836 214.34 454.189 214.384 453.348L215.103 439.646C215.147 438.805 214.523 438.089 213.71 438.046C212.896 438.004 212.201 438.651 212.157 439.492L211.518 451.671L199.734 451.053C198.92 451.01 198.225 451.657 198.181 452.498C198.137 453.339 198.76 454.055 199.574 454.098L212.831 454.794ZM163.033 398.275L211.813 454.293L214.009 452.249L165.229 396.231L163.033 398.275Z" fill="#7B9B9E"/>
<ellipse cx="102.016" cy="318.022" rx="15.7475" ry="16.1173" transform="rotate(116.103 102.016 318.022)" fill="#A33631"/>
<ellipse cx="125.095" cy="107.181" rx="12.598" ry="12.9284" transform="rotate(116.103 125.095 107.181)" fill="#A33631"/>
<ellipse cx="298.37" cy="267.646" rx="10.7983" ry="10.7569" transform="rotate(116.103 298.37 267.646)" fill="#A33631"/>
<ellipse cx="234.158" cy="475.451" rx="28.2003" ry="27.562" transform="rotate(116.103 234.158 475.451)" fill="#A33631"/>
<path d="M290.4 112.56H294.72C295.17 112.56 295.485 112.47 295.665 112.29C295.875 112.11 295.98 111.81 295.98 111.39V89.295H290.4V87.675H292.875C294.495 87.675 295.8 87.24 296.79 86.37C297.81 85.5 298.44 84.45 298.68 83.22H300.12V111.39C300.12 111.81 300.21 112.11 300.39 112.29C300.6 112.47 300.93 112.56 301.38 112.56H305.7V114H290.4V112.56Z" fill="#F9E9CC"/>
<path d="M233.735 491.72C232.655 491.72 231.785 491.33 231.125 490.55C230.495 489.77 230.18 488.72 230.18 487.4C230.18 485.6 230.615 483.755 231.485 481.865C232.385 479.945 233.525 477.995 234.905 476.015L238.505 470.84C239.165 469.91 239.705 468.92 240.125 467.87C240.575 466.79 240.8 465.86 240.8 465.08C240.8 464.63 240.68 464.33 240.44 464.18C240.23 464 239.885 463.91 239.405 463.91H230.09C228.89 463.91 228.035 464.18 227.525 464.72C227.045 465.23 226.715 465.965 226.535 466.925L226.04 469.58H225.05L225.68 460.22H242.96C242.96 461.78 242.72 463.565 242.24 465.575C241.79 467.585 241.01 469.415 239.9 471.065L237.335 474.935C236.105 476.735 235.49 478.685 235.49 480.785C235.49 482.075 235.58 483.2 235.76 484.16L236.03 485.735C236.27 486.935 236.39 487.985 236.39 488.885C236.39 490.775 235.505 491.72 233.735 491.72Z" fill="#F9E9CC"/>
<path d="M298.215 273.24C297.625 273.24 297.075 273.125 296.565 272.895C296.065 272.665 295.66 272.335 295.35 271.905C295.05 271.475 294.9 270.97 294.9 270.39C294.9 269.66 295.105 269.09 295.515 268.68C295.925 268.27 296.36 268 296.82 267.87V267.81L296.655 267.735C296.125 267.515 295.72 267.19 295.44 266.76C295.16 266.33 295.02 265.83 295.02 265.26C295.02 264.74 295.18 264.27 295.5 263.85C295.82 263.42 296.235 263.09 296.745 262.86C297.255 262.62 297.785 262.5 298.335 262.5C299.015 262.5 299.59 262.625 300.06 262.875C300.54 263.115 300.9 263.435 301.14 263.835C301.38 264.225 301.5 264.64 301.5 265.08C301.5 265.62 301.325 266.09 300.975 266.49C300.635 266.88 300.235 267.18 299.775 267.39V267.45L300.12 267.585C301.3 268.065 301.89 268.82 301.89 269.85C301.89 270.47 301.745 271.04 301.455 271.56C301.175 272.07 300.755 272.48 300.195 272.79C299.645 273.09 298.985 273.24 298.215 273.24ZM299.34 267.285C299.78 267.045 300.09 266.75 300.27 266.4C300.45 266.05 300.54 265.64 300.54 265.17C300.54 264.76 300.44 264.39 300.24 264.06C300.04 263.72 299.77 263.455 299.43 263.265C299.1 263.075 298.735 262.98 298.335 262.98C297.715 262.98 297.19 263.155 296.76 263.505C296.34 263.855 296.13 264.32 296.13 264.9C296.13 265.32 296.23 265.655 296.43 265.905C296.64 266.155 296.965 266.37 297.405 266.55L299.34 267.285ZM298.38 272.76C298.93 272.76 299.38 272.645 299.73 272.415C300.08 272.185 300.33 271.91 300.48 271.59C300.64 271.26 300.72 270.95 300.72 270.66C300.72 270.1 300.595 269.685 300.345 269.415C300.105 269.145 299.75 268.915 299.28 268.725L297.255 267.99C296.845 268.16 296.525 268.43 296.295 268.8C296.065 269.17 295.95 269.71 295.95 270.42C295.95 271.22 296.19 271.81 296.67 272.19C297.16 272.57 297.73 272.76 298.38 272.76Z" fill="#F9E9CC"/>
<path d="M124.446 113.288C123.594 113.288 122.904 113 122.376 112.424C122.196 112.208 122.064 111.968 121.98 111.704C121.908 111.44 121.872 111.206 121.872 111.002C121.872 110.582 122.022 110.24 122.322 109.976C122.538 109.796 122.784 109.706 123.06 109.706C123.336 109.706 123.552 109.814 123.708 110.03C123.768 110.114 123.804 110.192 123.816 110.264C123.84 110.336 123.852 110.432 123.852 110.552C123.852 110.732 123.774 110.912 123.618 111.092C123.51 111.212 123.396 111.314 123.276 111.398C123.168 111.47 123.09 111.548 123.042 111.632C123.006 111.704 122.988 111.794 122.988 111.902C122.988 112.118 123.108 112.31 123.348 112.478C123.6 112.634 123.978 112.712 124.482 112.712C124.914 112.712 125.322 112.586 125.706 112.334C126.102 112.082 126.432 111.662 126.696 111.074C126.9 110.63 127.056 110.072 127.164 109.4C127.272 108.716 127.326 108.152 127.326 107.708V106.898L127.2 106.844C126.984 107.3 126.648 107.678 126.192 107.978C125.748 108.266 125.316 108.41 124.896 108.41C124.092 108.41 123.414 108.212 122.862 107.816C122.394 107.48 122.034 107.03 121.782 106.466C121.53 105.89 121.404 105.278 121.404 104.63C121.404 103.982 121.548 103.334 121.836 102.686C122.124 102.026 122.544 101.48 123.096 101.048C123.66 100.616 124.32 100.4 125.076 100.4C125.856 100.4 126.54 100.64 127.128 101.12C127.728 101.6 128.19 102.29 128.514 103.19C128.838 104.078 129 105.128 129 106.34C129 107.324 128.874 108.29 128.622 109.238C128.37 110.186 128.004 110.972 127.524 111.596C126.648 112.724 125.622 113.288 124.446 113.288ZM124.86 107.744C125.28 107.744 125.658 107.606 125.994 107.33C126.33 107.054 126.594 106.664 126.786 106.16C126.99 105.644 127.092 105.056 127.092 104.396C127.092 103.4 126.936 102.584 126.624 101.948C126.312 101.3 125.796 100.976 125.076 100.976C124.344 100.976 123.81 101.324 123.474 102.02C123.15 102.716 122.988 103.508 122.988 104.396C122.988 105.356 123.132 106.154 123.42 106.79C123.708 107.426 124.188 107.744 124.86 107.744Z" fill="#F9E9CC"/>
<path d="M101.175 327.4C99.9917 327.4 99.0333 327 98.3 326.2C98.05 325.9 97.8667 325.567 97.75 325.2C97.65 324.833 97.6 324.508 97.6 324.225C97.6 323.642 97.8083 323.167 98.225 322.8C98.525 322.55 98.8667 322.425 99.25 322.425C99.6333 322.425 99.9333 322.575 100.15 322.875C100.233 322.992 100.283 323.1 100.3 323.2C100.333 323.3 100.35 323.433 100.35 323.6C100.35 323.85 100.242 324.1 100.025 324.35C99.875 324.517 99.7167 324.658 99.55 324.775C99.4 324.875 99.2917 324.983 99.225 325.1C99.175 325.2 99.15 325.325 99.15 325.475C99.15 325.775 99.3167 326.042 99.65 326.275C100 326.492 100.525 326.6 101.225 326.6C101.825 326.6 102.392 326.425 102.925 326.075C103.475 325.725 103.933 325.142 104.3 324.325C104.583 323.708 104.8 322.933 104.95 322C105.1 321.05 105.175 320.267 105.175 319.65V318.525L105 318.45C104.7 319.083 104.233 319.608 103.6 320.025C102.983 320.425 102.383 320.625 101.8 320.625C100.683 320.625 99.7417 320.35 98.975 319.8C98.325 319.333 97.825 318.708 97.475 317.925C97.125 317.125 96.95 316.275 96.95 315.375C96.95 314.475 97.15 313.575 97.55 312.675C97.95 311.758 98.5333 311 99.3 310.4C100.083 309.8 101 309.5 102.05 309.5C103.133 309.5 104.083 309.833 104.9 310.5C105.733 311.167 106.375 312.125 106.825 313.375C107.275 314.608 107.5 316.067 107.5 317.75C107.5 319.117 107.325 320.458 106.975 321.775C106.625 323.092 106.117 324.183 105.45 325.05C104.233 326.617 102.808 327.4 101.175 327.4ZM101.75 319.7C102.333 319.7 102.858 319.508 103.325 319.125C103.792 318.742 104.158 318.2 104.425 317.5C104.708 316.783 104.85 315.967 104.85 315.05C104.85 313.667 104.633 312.533 104.2 311.65C103.767 310.75 103.05 310.3 102.05 310.3C101.033 310.3 100.292 310.783 99.825 311.75C99.375 312.717 99.15 313.817 99.15 315.05C99.15 316.383 99.35 317.492 99.75 318.375C100.15 319.258 100.817 319.7 101.75 319.7Z" fill="#F9E9CC"/>
</svg>
