<svg width="231" height="685" viewBox="0 0 231 685" fill="none" xmlns="http://www.w3.org/2000/svg">
<path d="M225.639 142.58C225.963 147.796 224.032 151.355 219.964 154.167C215.591 157.191 208.726 159.327 199.411 160.801C186.242 162.886 169.45 163.495 150.358 164.188C142.412 164.477 134.068 164.779 125.42 165.209C123.637 165.298 121.865 165.386 120.107 165.474C93.0519 166.829 69.0749 168.029 51.3516 166.499C41.8877 165.683 34.6827 164.117 29.8727 161.672C25.2799 159.337 23.2522 156.448 23.0156 152.647C22.6528 146.817 24.6782 143.039 28.6785 140.198C33.0067 137.123 39.827 135.045 49.1463 133.692C58.3745 132.353 69.5199 131.791 82.1319 131.387C85.8623 131.268 89.721 131.163 93.6858 131.054C103.043 130.799 112.991 130.527 123.235 130.018C125.073 129.927 126.898 129.836 128.709 129.745C155.699 128.393 179.616 127.195 197.305 128.719C206.769 129.535 213.973 131.1 218.782 133.546C223.374 135.881 225.403 138.772 225.639 142.58Z" stroke="#7B9B9E" stroke-width="8"/>
<path d="M225.009 178.37C225.332 183.586 223.401 187.145 219.333 189.957C214.96 192.981 208.095 195.117 198.78 196.591C185.612 198.676 168.819 199.285 149.727 199.978C141.781 200.267 133.437 200.57 124.789 200.999C123.006 201.088 121.235 201.176 119.476 201.264C92.421 202.619 68.444 203.819 50.7207 202.289C41.2568 201.473 34.0519 199.907 29.2419 197.462C24.649 195.127 22.6213 192.238 22.3848 188.437C22.022 182.607 24.0473 178.829 28.0476 175.988C32.3758 172.913 39.1962 170.835 48.5154 169.482C57.7436 168.143 68.889 167.581 81.501 167.177C85.2314 167.058 89.0902 166.953 93.055 166.845C102.412 166.589 112.36 166.318 122.604 165.809C124.442 165.717 126.267 165.626 128.079 165.535C155.069 164.183 178.985 162.986 196.674 164.509C206.138 165.325 213.342 166.89 218.152 169.336C222.743 171.671 224.772 174.562 225.009 178.37Z" stroke="#7B9B9E" stroke-width="8"/>
<path d="M225.009 214.37C225.332 219.586 223.401 223.145 219.333 225.957C214.96 228.981 208.095 231.117 198.78 232.591C185.612 234.676 168.819 235.285 149.727 235.978C141.781 236.267 133.437 236.57 124.789 236.999C123.006 237.088 121.235 237.176 119.476 237.264C92.421 238.619 68.444 239.819 50.7207 238.289C41.2568 237.473 34.0519 235.907 29.2419 233.462C24.649 231.127 22.6213 228.238 22.3848 224.437C22.022 218.607 24.0473 214.829 28.0476 211.988C32.3758 208.913 39.1962 206.835 48.5154 205.482C57.7436 204.143 68.889 203.581 81.501 203.177C85.2314 203.058 89.0902 202.953 93.055 202.845C102.412 202.589 112.36 202.318 122.604 201.809C124.442 201.717 126.267 201.626 128.079 201.535C155.069 200.183 178.985 198.986 196.674 200.509C206.138 201.325 213.342 202.89 218.152 205.336C222.743 207.671 224.772 210.562 225.009 214.37Z" stroke="#7B9B9E" stroke-width="8"/>
<path d="M223.009 286.37C223.332 291.586 221.401 295.145 217.333 297.957C212.96 300.981 206.095 303.117 196.78 304.591C183.612 306.676 166.819 307.285 147.727 307.978C139.781 308.267 131.437 308.57 122.789 308.999C121.006 309.088 119.235 309.176 117.476 309.264C90.421 310.619 66.444 311.819 48.7207 310.289C39.2568 309.473 32.0519 307.907 27.2419 305.462C22.649 303.127 20.6213 300.238 20.3848 296.437C20.022 290.607 22.0473 286.829 26.0476 283.988C30.3758 280.913 37.1962 278.835 46.5154 277.482C55.7436 276.143 66.889 275.581 79.501 275.177C83.2314 275.058 87.0902 274.953 91.055 274.845C100.412 274.589 110.36 274.318 120.604 273.809C122.442 273.717 124.267 273.626 126.079 273.535C153.069 272.183 176.985 270.986 194.674 272.509C204.138 273.325 211.342 274.89 216.152 277.336C220.743 279.671 222.772 282.562 223.009 286.37Z" stroke="#7B9B9E" stroke-width="8"/>
<path d="M224.009 250.37C224.332 255.586 222.401 259.145 218.333 261.957C213.96 264.981 207.095 267.117 197.78 268.591C184.612 270.676 167.819 271.285 148.727 271.978C140.781 272.267 132.437 272.57 123.789 272.999C122.006 273.088 120.235 273.176 118.476 273.264C91.421 274.619 67.444 275.819 49.7207 274.289C40.2568 273.473 33.0519 271.907 28.2419 269.462C23.649 267.127 21.6213 264.238 21.3848 260.437C21.022 254.607 23.0473 250.829 27.0476 247.988C31.3758 244.913 38.1962 242.835 47.5154 241.482C56.7436 240.143 67.889 239.581 80.501 239.177C84.2314 239.058 88.0902 238.953 92.055 238.845C101.412 238.589 111.36 238.318 121.604 237.809C123.442 237.717 125.267 237.626 127.079 237.535C154.069 236.183 177.985 234.986 195.674 236.509C205.138 237.325 212.342 238.89 217.152 241.336C221.743 243.671 223.772 246.562 224.009 250.37Z" stroke="#7B9B9E" stroke-width="8"/>
<path d="M222.009 322.37C222.332 327.586 220.401 331.145 216.333 333.957C211.96 336.981 205.095 339.117 195.78 340.591C182.612 342.676 165.819 343.285 146.727 343.978C138.781 344.267 130.437 344.57 121.789 344.999C120.006 345.088 118.235 345.176 116.476 345.264C89.421 346.619 65.444 347.819 47.7207 346.289C38.2568 345.473 31.0519 343.907 26.2419 341.462C21.649 339.127 19.6213 336.238 19.3848 332.437C19.022 326.607 21.0473 322.829 25.0476 319.988C29.3758 316.913 36.1962 314.835 45.5154 313.482C54.7436 312.143 65.889 311.581 78.501 311.177C82.2314 311.058 86.0902 310.953 90.055 310.845C99.4122 310.589 109.36 310.318 119.604 309.809C121.442 309.717 123.267 309.626 125.079 309.535C152.069 308.183 175.985 306.986 193.674 308.509C203.138 309.325 210.342 310.89 215.152 313.336C219.743 315.671 221.772 318.562 222.009 322.37Z" stroke="#7B9B9E" stroke-width="8"/>
<path d="M221.009 357.37C221.332 362.586 219.401 366.145 215.333 368.957C210.96 371.981 204.095 374.117 194.78 375.591C181.612 377.676 164.819 378.285 145.727 378.978C137.781 379.267 129.437 379.57 120.789 379.999C119.006 380.088 117.235 380.176 115.476 380.264C88.421 381.619 64.444 382.819 46.7207 381.289C37.2568 380.473 30.0519 378.907 25.2419 376.462C20.649 374.127 18.6213 371.238 18.3848 367.437C18.022 361.607 20.0473 357.829 24.0476 354.988C28.3758 351.913 35.1962 349.835 44.5154 348.482C53.7436 347.143 64.889 346.581 77.501 346.177C81.2314 346.058 85.0902 345.953 89.055 345.845C98.4122 345.589 108.36 345.318 118.604 344.809C120.442 344.717 122.267 344.626 124.079 344.535C151.069 343.183 174.985 341.986 192.674 343.509C202.138 344.325 209.342 345.89 214.152 348.336C218.743 350.671 220.772 353.562 221.009 357.37Z" stroke="#7B9B9E" stroke-width="8"/>
<path d="M220.009 393.37C220.332 398.586 218.401 402.145 214.333 404.957C209.96 407.981 203.095 410.117 193.78 411.591C180.612 413.676 163.819 414.285 144.727 414.978C136.781 415.267 128.437 415.57 119.789 415.999C118.006 416.088 116.235 416.176 114.476 416.264C87.421 417.619 63.444 418.819 45.7207 417.289C36.2568 416.473 29.0519 414.907 24.2419 412.462C19.649 410.127 17.6213 407.238 17.3848 403.437C17.022 397.607 19.0473 393.829 23.0476 390.988C27.3758 387.913 34.1962 385.835 43.5154 384.482C52.7436 383.143 63.889 382.581 76.501 382.177C80.2314 382.058 84.0902 381.953 88.055 381.845C97.4122 381.589 107.36 381.318 117.604 380.809C119.442 380.717 121.267 380.626 123.079 380.535C150.069 379.183 173.985 377.986 191.674 379.509C201.138 380.325 208.342 381.89 213.152 384.336C217.743 386.671 219.772 389.562 220.009 393.37Z" stroke="#7B9B9E" stroke-width="8"/>
<path d="M220.009 428.37C220.332 433.586 218.401 437.145 214.333 439.957C209.96 442.981 203.095 445.117 193.78 446.591C180.612 448.676 163.819 449.285 144.727 449.978C136.781 450.267 128.437 450.57 119.789 450.999C118.006 451.088 116.235 451.176 114.476 451.264C87.421 452.619 63.444 453.819 45.7207 452.289C36.2568 451.473 29.0519 449.907 24.2419 447.462C19.649 445.127 17.6213 442.238 17.3848 438.437C17.022 432.607 19.0473 428.829 23.0476 425.988C27.3758 422.913 34.1962 420.835 43.5154 419.482C52.7436 418.143 63.889 417.581 76.501 417.177C80.2314 417.058 84.0902 416.953 88.055 416.845C97.4122 416.589 107.36 416.318 117.604 415.809C119.442 415.717 121.267 415.626 123.079 415.535C150.069 414.183 173.985 412.986 191.674 414.509C201.138 415.325 208.342 416.89 213.152 419.336C217.743 421.671 219.772 424.562 220.009 428.37Z" stroke="#7B9B9E" stroke-width="8"/>
<path d="M219.009 464.37C219.332 469.586 217.401 473.145 213.333 475.957C208.96 478.981 202.095 481.117 192.78 482.591C179.612 484.676 162.819 485.285 143.727 485.978C135.781 486.267 127.437 486.57 118.789 486.999C117.006 487.088 115.235 487.176 113.476 487.264C86.421 488.619 62.444 489.819 44.7207 488.289C35.2568 487.473 28.0519 485.907 23.2419 483.462C18.649 481.127 16.6213 478.238 16.3848 474.437C16.022 468.607 18.0473 464.829 22.0476 461.988C26.3758 458.913 33.1962 456.835 42.5154 455.482C51.7436 454.143 62.889 453.581 75.501 453.177C79.2314 453.058 83.0902 452.953 87.055 452.845C96.4122 452.589 106.36 452.318 116.604 451.809C118.442 451.717 120.267 451.626 122.079 451.535C149.069 450.183 172.985 448.986 190.674 450.509C200.138 451.325 207.342 452.89 212.152 455.336C216.743 457.671 218.772 460.562 219.009 464.37Z" stroke="#7B9B9E" stroke-width="8"/>
<path d="M218.009 500.37C218.332 505.586 216.401 509.145 212.333 511.957C207.96 514.981 201.095 517.117 191.78 518.591C178.612 520.676 161.819 521.285 142.727 521.978C134.781 522.267 126.437 522.57 117.789 522.999C116.006 523.088 114.235 523.176 112.476 523.264C85.421 524.619 61.444 525.819 43.7207 524.289C34.2568 523.473 27.0519 521.907 22.2419 519.462C17.649 517.127 15.6213 514.238 15.3848 510.437C15.022 504.607 17.0473 500.829 21.0476 497.988C25.3758 494.913 32.1962 492.835 41.5154 491.482C50.7436 490.143 61.889 489.581 74.501 489.177C78.2314 489.058 82.0902 488.953 86.055 488.845C95.4122 488.589 105.36 488.318 115.604 487.809C117.442 487.717 119.267 487.626 121.079 487.535C148.069 486.183 171.985 484.986 189.674 486.509C199.138 487.325 206.342 488.89 211.152 491.336C215.743 493.671 217.772 496.562 218.009 500.37Z" stroke="#7B9B9E" stroke-width="8"/>
<path d="M218.009 535.37C218.332 540.586 216.401 544.145 212.333 546.957C207.96 549.981 201.095 552.117 191.78 553.591C178.612 555.676 161.819 556.285 142.727 556.978C134.781 557.267 126.437 557.57 117.789 557.999C116.006 558.088 114.235 558.176 112.476 558.264C85.421 559.619 61.444 560.819 43.7207 559.289C34.2568 558.473 27.0519 556.907 22.2419 554.462C17.649 552.127 15.6213 549.238 15.3848 545.437C15.022 539.607 17.0473 535.829 21.0476 532.988C25.3758 529.913 32.1962 527.835 41.5154 526.482C50.7436 525.143 61.889 524.581 74.501 524.177C78.2314 524.058 82.0902 523.953 86.055 523.845C95.4122 523.589 105.36 523.318 115.604 522.809C117.442 522.717 119.267 522.626 121.079 522.535C148.069 521.183 171.985 519.986 189.674 521.509C199.138 522.325 206.342 523.89 211.152 526.336C215.743 528.671 217.772 531.562 218.009 535.37Z" stroke="#7B9B9E" stroke-width="8"/>
<path d="M221.5 133C220.755 113.442 218.126 57.2066 193.27 32.377C159.433 -1.42474 105.485 -6.2069 65.9023 24.4056C36.5037 47.1417 26.9577 77.66 26 91.0532L54.0912 115.288C58.8795 95.3042 81.2248 50.8725 112.508 45.4514C148.398 39.232 181 67.5569 181 124" stroke="#7B9B9E" stroke-width="8" stroke-linecap="round"/>
<path d="M24.7342 555.596C24.7342 582.18 28.5169 627.233 53.5603 652.066C87.6532 685.874 137.725 690.445 177.312 659.532C206.713 636.572 216.162 605.88 217.067 592.424L188.779 568.201C184.059 588.292 161.826 633.013 130.461 638.59C94.4772 644.987 67.2503 618.047 67.0124 561.356" stroke="#7B9B9E" stroke-width="8" stroke-linecap="round"/>
<rect y="83" width="99" height="42" fill="#A33631"/>
</svg>
