<svg width="1439" height="1469" viewBox="0 0 1439 1469" fill="none" xmlns="http://www.w3.org/2000/svg">
<g clip-path="url(#clip0_384_19)">
<rect width="1439" height="1469" fill="#223854"/>
<path d="M-3 1468C358.404 1232.26 453.103 610.217 506.57 238H573C573 539.5 483 1204 417.5 1468H-3Z" fill="#7B9B9E"/>
<path d="M459 1467C483.222 1424.84 580.391 655.822 595.826 238H692V1467H459Z" fill="#7B9B9E"/>
<path d="M722 1467V248H821.783C820.5 372.5 924.5 1378 947 1467H722Z" fill="#7B9B9E"/>
<path d="M988.5 1468.5C929.5 1117 845 493.754 845 248H920.5C985.816 1079.17 1307.5 1369.7 1438.5 1468.5H988.5Z" fill="#7B9B9E"/>
<path fill-rule="evenodd" clip-rule="evenodd" d="M726 622C1032.52 622 1281 371.056 1281 61.5C1281 41.0593 1279.11 18.8742 1277 -1H174.5C172.388 18.8742 171 41.0593 171 61.5C171 371.056 419.482 622 726 622Z" fill="#A33631"/>
<path d="M766.085 461.511C723.904 490.823 680.852 510.154 645.416 517.779C627.692 521.593 612 522.451 599.326 520.258C586.665 518.066 577.214 512.874 571.565 504.743C565.915 496.613 564.344 485.946 566.705 473.315C569.069 460.672 575.345 446.263 585.1 430.982C604.604 400.43 637.734 366.821 679.915 337.509C722.096 308.197 765.148 288.866 800.584 281.241C818.308 277.427 834 276.569 846.674 278.762C859.335 280.954 868.786 286.146 874.435 294.276C880.085 302.406 881.656 313.074 879.295 325.705C876.931 338.348 870.655 352.756 860.9 368.038C841.396 398.59 808.266 432.199 766.085 461.511Z" stroke="#F9E9CC" stroke-width="5"/>
<path d="M763.611 337.652C803.735 367.884 834.726 402.139 852.437 432.991C861.295 448.422 866.769 462.892 868.474 475.506C870.178 488.106 868.107 498.672 862.123 506.614C856.139 514.557 846.554 519.461 833.973 521.298C821.377 523.137 805.959 521.866 788.684 517.607C754.143 509.09 712.671 488.748 672.546 458.516C632.421 428.284 601.431 394.029 583.719 363.177C574.861 347.746 569.388 333.276 567.682 320.661C565.978 308.062 568.049 297.496 574.033 289.553C580.018 281.611 589.603 276.707 602.183 274.87C614.779 273.031 630.198 274.302 647.473 278.561C682.013 287.077 723.486 307.42 763.611 337.652Z" stroke="#F9E9CC" stroke-width="5"/>
<path d="M793.659 396.126C793.659 445.07 785.486 489.264 772.365 521.129C765.802 537.067 758.051 549.801 749.571 558.511C741.1 567.213 732.058 571.753 722.813 571.753C713.568 571.753 704.526 567.213 696.055 558.511C687.575 549.801 679.824 537.067 673.261 521.129C660.14 489.264 651.967 445.07 651.967 396.126C651.967 347.182 660.14 302.989 673.261 271.124C679.824 255.186 687.575 242.452 696.055 233.742C704.526 225.04 713.568 220.5 722.813 220.5C732.058 220.5 741.1 225.04 749.571 233.742C758.051 242.452 765.802 255.186 772.365 271.124C785.486 302.989 793.659 347.182 793.659 396.126Z" stroke="#F9E9CC" stroke-width="5"/>
<ellipse cx="585.329" cy="356.754" rx="24.7662" ry="26.3538" fill="#7B9B9E"/>
<ellipse cx="757.421" cy="544.089" rx="24.7662" ry="26.3538" fill="#7B9B9E"/>
<ellipse cx="820.924" cy="276.105" rx="24.7662" ry="26.3538" fill="#7B9B9E"/>
<ellipse cx="722.812" cy="396.444" rx="34.6092" ry="34.9267" fill="#7B9B9E"/>
</g>
<defs>
<clipPath id="clip0_384_19">
<rect width="1439" height="1469" fill="white"/>
</clipPath>
</defs>
</svg>
