<svg width="468" height="818" viewBox="0 0 468 818" fill="none" xmlns="http://www.w3.org/2000/svg">
<rect x="-245.205" y="151.917" width="507.573" height="644.973" transform="rotate(-12.3149 -245.205 151.917)" fill="#7B9B9E"/>
<path d="M-121.544 301.387L-116.542 300.295C-115.813 300.136 -115.346 299.897 -115.142 299.58C-114.95 299.21 -114.928 298.687 -115.076 298.01L-116.441 291.757L-120.661 292.678C-124.152 293.44 -127.594 293.427 -130.987 292.64C-134.38 291.852 -137.304 290.334 -139.76 288.086C-142.164 285.827 -143.741 282.978 -144.492 279.539C-145.243 276.1 -144.997 272.852 -143.753 269.797C-142.457 266.73 -140.432 264.131 -137.676 262.001C-134.92 259.871 -131.797 258.425 -128.305 257.663L-124.085 256.741L-125.313 251.114C-125.473 250.384 -125.711 249.918 -126.028 249.714C-126.346 249.511 -126.869 249.488 -127.599 249.648L-132.601 250.74L-133.147 248.239L-107.823 242.71L-107.277 245.211L-112.279 246.303C-112.957 246.451 -113.423 246.69 -113.679 247.018C-113.883 247.336 -113.905 247.859 -113.746 248.589L-112.517 254.216L-108.297 253.295C-104.806 252.533 -101.364 252.545 -97.9709 253.333C-94.5781 254.121 -91.6798 255.645 -89.2759 257.904C-86.82 260.152 -85.2166 262.995 -84.4659 266.434C-83.7151 269.873 -83.9876 273.126 -85.2833 276.193C-86.5268 279.249 -88.5265 281.842 -91.2823 283.972C-94.038 286.102 -97.1615 287.548 -100.653 288.31L-104.873 289.231L-103.508 295.484C-103.36 296.162 -103.122 296.628 -102.793 296.884C-102.424 297.076 -101.9 297.098 -101.223 296.951L-96.2206 295.859L-95.6746 298.36L-120.998 303.888L-121.544 301.387ZM-116.987 289.256L-123.539 259.243L-125.805 259.737C-129.192 260.477 -131.348 262.23 -132.272 264.998C-133.197 267.765 -133.101 271.702 -131.987 276.809C-130.872 281.915 -129.318 285.533 -127.324 287.664C-125.331 289.794 -122.64 290.49 -119.253 289.75L-116.987 289.256ZM-103.153 286.236C-99.7657 285.496 -97.61 283.743 -96.6857 280.975C-95.7614 278.208 -95.8566 274.271 -96.9713 269.164C-98.0861 264.058 -99.6403 260.44 -101.634 258.309C-103.628 256.179 -106.318 255.483 -109.705 256.222L-111.971 256.717L-105.419 286.73L-103.153 286.236ZM-71.5565 290.474L-66.0854 289.28C-65.3559 289.121 -64.8893 288.882 -64.6857 288.565C-64.4934 288.195 -64.4712 287.672 -64.6191 286.994L-74.8567 240.099C-75.016 239.369 -75.2543 238.903 -75.5717 238.699C-75.8891 238.496 -76.4126 238.473 -77.142 238.633L-82.6132 239.827L-83.1592 237.326L-56.8977 231.593L-56.3517 234.094L-61.8228 235.288C-62.5002 235.436 -62.9668 235.674 -63.2225 236.003C-63.4262 236.321 -63.4484 236.844 -63.2891 237.574L-54.809 276.419L-44.3317 235.892L-44.8436 233.547C-45.0028 232.817 -45.2412 232.351 -45.5586 232.147C-45.876 231.943 -46.3994 231.921 -47.1289 232.08L-52.7564 233.309L-53.3024 230.808L-26.8846 225.041L-26.3385 227.542L-31.8097 228.736C-32.4871 228.884 -32.9536 229.122 -33.2094 229.451C-33.4131 229.769 -33.4353 230.292 -33.276 231.022L-23.0384 277.917C-22.8905 278.594 -22.6521 279.061 -22.3234 279.317C-21.9539 279.509 -21.4304 279.531 -20.753 279.383L-15.2819 278.189L-14.7359 280.69L-40.9974 286.423L-41.5434 283.922L-36.0722 282.728C-35.3427 282.568 -34.8762 282.33 -34.6725 282.013C-34.4802 281.643 -34.458 281.12 -34.6059 280.442L-43.1032 241.519L-53.5634 282.124L-53.0515 284.469C-52.9036 285.147 -52.6653 285.613 -52.3365 285.869C-51.967 286.061 -51.4435 286.083 -50.7662 285.935L-45.295 284.741L-44.749 287.242L-71.0105 292.975L-71.5565 290.474ZM12.3188 276.258C9.24454 276.929 6.21615 276.935 3.23362 276.276C0.291831 275.553 -2.22559 274.274 -4.31864 272.438C-6.41168 270.603 -7.74828 268.356 -8.32841 265.698C-8.76067 263.718 -8.75094 261.888 -8.29923 260.206C-7.80678 258.461 -7.00024 257.029 -5.87959 255.911C-4.75893 254.793 -3.46912 254.075 -2.01015 253.756C-0.0822234 253.335 1.68993 253.576 3.30632 254.479C4.92271 255.382 5.92428 256.719 6.31104 258.49C6.72055 260.366 6.58477 261.87 5.90372 263.001C5.2634 264.069 4.3431 264.979 3.14283 265.733C2.23244 266.314 1.63707 266.962 1.35672 267.678C1.1171 268.331 1.09399 269.1 1.28736 269.986C1.65137 271.654 2.86467 272.835 4.92726 273.531C6.98985 274.228 9.2717 274.303 11.7728 273.757C15.4723 272.949 17.7175 271.231 18.5083 268.601C19.3398 265.909 19.2379 262.192 18.2028 257.45C17.6227 254.793 16.9772 252.586 16.2664 250.831C15.5443 249.023 14.4418 247.599 12.959 246.558C11.4762 245.517 9.53633 245.258 7.13944 245.781L-2.08334 247.795L-2.6976 244.981L6.6815 242.933C9.44313 242.33 11.0858 240.853 11.6094 238.5C12.1738 236.084 12.0521 233.027 11.2445 229.327C10.4482 225.68 9.30391 223.063 7.81155 221.479C6.3713 219.882 4.47878 219.34 2.13401 219.852C-0.106557 220.341 -2.07558 221.699 -3.77307 223.926C-5.48194 226.1 -6.77671 228.921 -7.65738 232.389C-8.48595 235.845 -8.78062 239.622 -8.54138 243.718L-11.0425 244.264L-15.9395 221.832L-13.4384 221.286L-11.6616 224.174C-11.1443 225.044 -10.5208 225.399 -9.79133 225.24C-9.42659 225.16 -9.03818 224.939 -8.6261 224.576C-8.21402 224.213 -7.83368 223.83 -7.48508 223.426C-4.45852 220.036 -1.14757 217.948 2.44775 217.163C6.40782 216.299 9.92223 216.269 12.991 217.073C16.0484 217.824 18.4876 219.121 20.3088 220.961C22.1706 222.738 23.3461 224.747 23.8353 226.988C25.1434 232.98 22.3596 237.982 15.4838 241.994L15.6544 242.776C19.3161 242.795 22.6502 243.814 25.6566 245.833C28.715 247.84 30.6708 250.798 31.524 254.706C32.2747 258.145 31.9592 261.325 30.5773 264.247C29.1953 267.169 26.9271 269.657 23.7724 271.71C20.6178 273.764 16.7999 275.279 12.3188 276.258ZM42.5529 265.563L48.024 264.369C48.7535 264.21 49.2201 263.971 49.4237 263.654C49.616 263.284 49.6382 262.761 49.4903 262.083L39.2527 215.188C39.0934 214.458 38.8551 213.992 38.5377 213.788C38.2203 213.585 37.6968 213.562 36.9674 213.722L31.4962 214.916L30.9502 212.415L57.2117 206.682L57.7577 209.183L52.2866 210.377C51.6092 210.525 51.1426 210.764 50.8869 211.092C50.6832 211.41 50.661 211.933 50.8202 212.663L59.3004 251.508L69.7777 210.981L69.2658 208.636C69.1066 207.906 68.8682 207.44 68.5508 207.236C68.2334 207.032 67.71 207.01 66.9805 207.17L61.353 208.398L60.807 205.897L87.2248 200.13L87.7709 202.631L82.2997 203.825C81.6223 203.973 81.1558 204.211 80.9 204.54C80.6963 204.858 80.6741 205.381 80.8334 206.111L91.071 253.006C91.2189 253.683 91.4572 254.15 91.786 254.406C92.1555 254.598 92.679 254.62 93.3564 254.472L98.8275 253.278L99.3735 255.779L73.112 261.512L72.566 259.011L78.0372 257.817C78.7667 257.657 79.2332 257.419 79.4369 257.102C79.6292 256.732 79.6514 256.209 79.5035 255.531L71.0062 216.608L60.546 257.213L61.0579 259.558C61.2058 260.236 61.4441 260.702 61.7729 260.958C62.1424 261.15 62.6659 261.172 63.3432 261.024L68.8144 259.83L69.3604 262.331L43.0989 268.064L42.5529 265.563ZM150.057 246.68C146.722 247.408 143.848 246.998 141.436 245.45C139.076 243.891 137.475 241.184 136.633 237.328L134.637 228.183C134.091 225.682 133.01 223.734 131.396 222.34C129.822 220.882 127.758 220.432 125.205 220.989L120.359 222.047L125.478 245.495C125.626 246.172 125.864 246.639 126.193 246.894C126.563 247.087 127.086 247.109 127.764 246.961L133.235 245.767L133.781 248.268L107.519 254.001L106.973 251.5L112.444 250.305C113.174 250.146 113.64 249.908 113.844 249.59C114.036 249.221 114.059 248.697 113.911 248.02L103.673 201.124C103.514 200.395 103.275 199.928 102.958 199.725C102.641 199.521 102.117 199.499 101.388 199.658L95.9165 200.853L95.3705 198.351L121.632 192.618L122.178 195.119L116.707 196.314C116.029 196.462 115.563 196.7 115.307 197.029C115.103 197.346 115.081 197.87 115.241 198.599L119.745 219.233L125.138 218.056C128.004 217.43 129.693 215.915 130.205 213.511C130.758 211.043 130.494 207.333 129.414 202.383C128.64 198.84 128.752 195.977 129.75 193.794C131.079 190.883 133.255 189.098 136.277 188.439C137.893 188.086 139.37 188.227 140.71 188.863C142.09 189.435 143.235 190.304 144.145 191.47C145.043 192.584 145.629 193.767 145.902 195.017C146.312 196.893 146.268 198.568 145.771 200.041C145.314 201.451 144.581 202.593 143.571 203.469C142.613 204.333 141.613 204.879 140.571 205.106C139.008 205.448 137.609 205.289 136.373 204.631C135.178 203.909 134.433 202.871 134.137 201.516C133.739 199.692 134.22 197.895 135.581 196.124C136.307 195.201 136.585 194.349 136.415 193.567C136.244 192.786 135.69 192.497 134.752 192.702C133.449 192.986 132.52 193.981 131.964 195.685C131.408 197.39 131.494 199.909 132.222 203.244L132.768 205.745C133.894 210.904 133.414 214.83 131.327 217.524L131.412 217.914C135.693 218.017 139.146 218.956 141.771 220.73C144.385 222.452 146.193 225.606 147.194 230.191L149.088 238.867C149.566 241.055 150.534 241.99 151.993 241.672C153.348 241.376 154.093 240.039 154.229 237.662C154.365 235.285 154.081 232.481 153.376 229.251L155.877 228.705C156.98 233.759 157.161 237.841 156.421 240.951C155.669 244.008 153.548 245.918 150.057 246.68ZM163.117 239.243L165.775 238.663C167.338 238.322 168.588 237.421 169.525 235.961C170.45 234.449 171.032 232.739 171.27 230.831L177.234 179.006L180.517 178.289L208.283 225.207C209.749 227.671 211.576 228.664 213.764 228.186L216.891 227.504L217.437 230.005L190.003 235.994L189.457 233.493L195.084 232.264C195.71 232.128 196.153 231.785 196.416 231.237C196.719 230.625 196.796 229.98 196.649 229.303C196.523 228.729 196.202 228.008 195.685 227.138L191.546 220.181L175.132 223.764L174.532 228.89C174.277 230.474 174.281 231.866 174.542 233.064C174.747 234.002 175.294 234.756 176.182 235.326C177.112 235.833 178.176 235.956 179.374 235.694L183.048 234.892L183.594 237.393L163.663 241.744L163.117 239.243ZM175.517 220.651L189.976 217.494L178.172 197.553L175.517 220.651Z" fill="#F9E9CC"/>
<path d="M69.8438 719.778L71.2116 719.479C71.3939 719.439 71.5106 719.38 71.5615 719.3C71.6096 719.208 71.6151 719.077 71.5781 718.908L69.0187 707.184C68.9789 707.001 68.9193 706.885 68.84 706.834C68.7606 706.783 68.6298 706.777 68.4474 706.817L67.0796 707.116L66.9431 706.491L73.8993 704.972C74.8111 704.773 75.6529 704.753 76.4246 704.912C77.2065 705.055 77.8539 705.364 78.367 705.839C78.8903 706.298 79.2287 706.879 79.3822 707.583C79.5387 708.299 79.4761 708.981 79.1946 709.63C78.926 710.275 78.4691 710.839 77.8237 711.321C77.1886 711.787 76.415 712.12 75.5032 712.319L73.2756 712.805L74.47 718.276C74.507 718.446 74.5666 718.562 74.6488 718.626C74.7412 718.674 74.872 718.68 75.0414 718.643L76.7609 718.268L76.8974 718.893L69.9803 720.403L69.8438 719.778ZM75.0736 711.758C75.751 711.61 76.1667 711.232 76.3208 710.626C76.488 710.016 76.4663 709.229 76.2559 708.265C76.0483 707.314 75.7508 706.608 75.3635 706.147C74.9734 705.672 74.4331 705.511 73.7427 705.661L72.2772 705.981C72.1079 706.018 71.9912 706.078 71.9273 706.16C71.8764 706.239 71.8708 706.37 71.9106 706.552L73.1391 712.18L75.0736 711.758ZM85.3119 717.302C84.5954 717.458 83.9448 717.416 83.36 717.175C82.7882 716.931 82.4113 716.393 82.2293 715.559C82.0444 714.712 82.2055 713.981 82.7126 713.365C83.2298 712.734 83.9283 712.151 84.8081 711.618L86.1432 710.795L85.8531 709.466C85.7081 708.801 85.4661 708.349 85.1271 708.109C84.7881 707.87 84.4037 707.797 83.9739 707.89C83.6091 707.97 83.3084 708.124 83.0719 708.353C82.8455 708.567 82.7635 708.816 82.8261 709.103C82.8432 709.181 82.884 709.275 82.9487 709.383C83.0236 709.476 83.1281 709.549 83.2624 709.601C83.4834 709.676 83.6472 709.77 83.7538 709.883C83.8734 709.994 83.956 710.153 84.0015 710.361C84.0698 710.674 84.0065 710.947 83.8119 711.181C83.6274 711.398 83.3984 711.537 83.1248 711.597C82.7861 711.671 82.4689 711.624 82.173 711.457C81.8874 711.273 81.6976 710.967 81.6038 710.537C81.4957 710.042 81.5502 709.573 81.7674 709.129C81.9817 708.673 82.302 708.296 82.7283 707.999C83.1517 707.688 83.6044 707.48 84.0864 707.374C85.0243 707.17 85.9004 707.245 86.7148 707.599C87.5263 707.941 88.0515 708.658 88.2904 709.753L89.3696 714.696C89.472 715.165 89.6534 715.371 89.9139 715.314C90.1484 715.263 90.2816 715.029 90.3135 714.613C90.3455 714.197 90.306 713.734 90.1951 713.226L90.7422 713.107C90.9498 714.058 90.9586 714.786 90.7687 715.291C90.6766 715.557 90.516 715.79 90.2867 715.99C90.0575 716.19 89.7735 716.328 89.4348 716.401C88.9007 716.518 88.4798 716.528 88.1721 716.431C87.8616 716.322 87.5739 716.098 87.3091 715.76L87.27 715.769C86.9025 716.586 86.2498 717.097 85.3119 717.302ZM86.0987 716.311C86.6068 716.2 86.9415 715.827 87.103 715.191L86.2584 711.322L85.2494 711.952C84.8537 712.202 84.5999 712.571 84.4882 713.06C84.3867 713.532 84.4155 714.133 84.5748 714.863C84.7141 715.501 84.928 715.918 85.2165 716.115C85.505 716.311 85.7991 716.376 86.0987 716.311ZM96.7586 714.803C96.0551 714.956 95.3518 714.891 94.6485 714.608C93.9424 714.312 93.326 713.832 92.7991 713.17C92.2723 712.507 91.9093 711.719 91.7103 710.807C91.4259 709.505 91.2316 708.49 91.1273 707.762C91.023 707.034 91.0125 706.361 91.0958 705.742C91.1921 705.12 91.4127 704.506 91.7578 703.898C92.1158 703.288 92.6167 702.769 93.2604 702.342C93.9171 701.912 94.7331 701.461 95.7081 700.989C96.1645 700.766 96.4711 700.577 96.6279 700.42C96.7818 700.249 96.8592 700.042 96.8601 699.796L97.3291 699.693C97.4997 700.475 97.5212 701.105 97.3936 701.583C97.2632 702.048 97.0341 702.405 96.7063 702.654C96.3915 702.9 95.959 703.138 95.4085 703.367C94.609 703.706 93.9787 704.007 93.5179 704.272C93.0541 704.523 92.6415 704.852 92.2798 705.258C91.9516 705.63 91.7518 706.09 91.6803 706.638C91.606 707.173 91.6119 707.731 91.6979 708.313L91.7999 708.311C92.2175 706.473 93.1622 705.393 94.6342 705.072C95.3377 704.918 96.0424 704.99 96.7485 705.286C97.4518 705.569 98.0668 706.042 98.5937 706.705C99.1205 707.368 99.4835 708.155 99.6825 709.067C99.8816 709.979 99.8798 710.846 99.6771 711.668C99.4745 712.49 99.114 713.183 98.5956 713.747C98.0743 714.297 97.462 714.649 96.7586 714.803ZM96.6562 714.334C97.2163 714.211 97.5252 713.782 97.5829 713.046C97.6537 712.308 97.5198 711.163 97.1814 709.613C96.843 708.063 96.4877 706.967 96.1156 706.325C95.7564 705.68 95.2968 705.418 94.7366 705.541C94.1635 705.666 93.848 706.096 93.7903 706.832C93.7298 707.555 93.8701 708.698 94.2114 710.261C94.5526 711.825 94.9028 712.929 95.262 713.574C95.6183 714.205 96.083 714.459 96.6562 714.334ZM106.603 712.654C105.9 712.807 105.196 712.742 104.493 712.459C103.787 712.163 103.17 711.683 102.644 711.02C102.117 710.358 101.754 709.57 101.555 708.658C101.356 707.746 101.357 706.879 101.56 706.057C101.763 705.235 102.125 704.549 102.646 703.998C103.164 703.435 103.775 703.076 104.479 702.923C105.182 702.769 105.887 702.84 106.593 703.137C107.296 703.42 107.911 703.893 108.438 704.556C108.965 705.219 109.328 706.006 109.527 706.918C109.726 707.83 109.724 708.697 109.522 709.519C109.319 710.341 108.958 711.034 108.44 711.597C107.919 712.148 107.306 712.5 106.603 712.654ZM106.501 712.185C107.061 712.062 107.37 711.633 107.427 710.897C107.498 710.159 107.364 709.014 107.026 707.464C106.687 705.914 106.332 704.818 105.96 704.176C105.601 703.531 105.141 703.269 104.581 703.392C104.021 703.514 103.705 703.944 103.635 704.683C103.577 705.419 103.717 706.562 104.056 708.112C104.394 709.662 104.743 710.76 105.102 711.405C105.474 712.047 105.94 712.307 106.501 712.185ZM116.413 709.775L117.155 709.613C117.273 709.587 117.347 709.551 117.377 709.503C117.418 709.44 117.425 709.349 117.4 709.232L116.696 706.008C115.857 706.478 115.079 706.791 114.363 706.947C113.711 707.089 113.14 707.037 112.649 706.789C112.156 706.528 111.836 706.066 111.691 705.401L111.069 702.549C111.043 702.431 111 702.359 110.939 702.331C110.889 702.288 110.805 702.279 110.688 702.304L109.945 702.466L109.843 701.997L114.103 701.067L114.205 701.536L113.58 701.673C113.462 701.698 113.383 701.743 113.343 701.806C113.312 701.854 113.31 701.937 113.335 702.054L114.082 705.473C114.153 705.799 114.263 706.021 114.411 706.138C114.56 706.256 114.764 706.286 115.025 706.229C115.246 706.181 115.513 706.089 115.824 705.953C116.133 705.803 116.389 705.665 116.594 705.539L115.719 701.533C115.693 701.416 115.65 701.344 115.59 701.316C115.539 701.272 115.455 701.263 115.338 701.289L114.713 701.425L114.611 700.956L118.87 700.027L118.973 700.496L118.23 700.658C118.113 700.683 118.034 700.728 117.993 700.791C117.963 700.839 117.96 700.921 117.986 701.039L119.666 708.737C119.692 708.854 119.73 708.935 119.78 708.978C119.841 709.006 119.93 709.007 120.047 708.982L120.79 708.819L120.892 709.288L116.515 710.244L116.413 709.775ZM125.212 708.591C124.496 708.747 123.845 708.705 123.26 708.464C122.688 708.221 122.311 707.682 122.129 706.848C121.945 706.002 122.106 705.27 122.613 704.655C123.13 704.023 123.828 703.441 124.708 702.908L126.043 702.084L125.753 700.755C125.608 700.091 125.366 699.639 125.027 699.399C124.688 699.159 124.304 699.086 123.874 699.18C123.509 699.259 123.209 699.414 122.972 699.643C122.746 699.856 122.664 700.106 122.726 700.393C122.743 700.471 122.784 700.564 122.849 700.673C122.924 700.766 123.028 700.838 123.163 700.891C123.384 700.966 123.547 701.059 123.654 701.173C123.774 701.283 123.856 701.442 123.902 701.651C123.97 701.963 123.907 702.237 123.712 702.47C123.528 702.688 123.299 702.827 123.025 702.886C122.686 702.96 122.369 702.913 122.073 702.746C121.787 702.563 121.598 702.256 121.504 701.826C121.396 701.331 121.45 700.862 121.667 700.419C121.882 699.963 122.202 699.586 122.628 699.288C123.052 698.977 123.505 698.769 123.987 698.664C124.924 698.459 125.801 698.534 126.615 698.889C127.426 699.23 127.952 699.948 128.19 701.042L129.27 705.986C129.372 706.455 129.554 706.661 129.814 706.604C130.049 706.553 130.182 706.319 130.214 705.902C130.246 705.486 130.206 705.024 130.095 704.516L130.642 704.396C130.85 705.347 130.859 706.075 130.669 706.581C130.577 706.847 130.416 707.08 130.187 707.28C129.958 707.48 129.674 707.617 129.335 707.691C128.801 707.808 128.38 707.818 128.072 707.721C127.762 707.611 127.474 707.388 127.209 707.05L127.17 707.058C126.803 707.875 126.15 708.386 125.212 708.591ZM125.999 707.6C126.507 707.49 126.842 707.116 127.003 706.48L126.158 702.612L125.15 703.241C124.754 703.491 124.5 703.861 124.388 704.349C124.287 704.822 124.316 705.423 124.475 706.152C124.614 706.79 124.828 707.208 125.117 707.404C125.405 707.6 125.699 707.666 125.999 707.6ZM133.851 706.828C133.174 706.976 132.653 706.844 132.291 706.432C131.941 706.017 131.672 705.379 131.484 704.52L131.992 704.409C132.109 704.943 132.259 705.381 132.443 705.723C132.624 706.052 132.832 706.191 133.066 706.139C133.353 706.077 133.458 705.87 133.381 705.518L133.121 704.326C132.959 703.584 133.034 702.994 133.348 702.557C133.676 702.117 134.173 701.77 134.841 701.515L134.819 701.417C133.037 701.506 132.014 700.944 131.749 699.733C131.59 699.003 131.763 698.358 132.269 697.798C132.784 697.221 133.563 696.819 134.605 696.592L139.119 695.606L139.221 696.075L138.596 696.212C138.479 696.237 138.4 696.282 138.359 696.345C138.328 696.393 138.326 696.475 138.352 696.592L140.032 704.291C140.058 704.408 140.096 704.489 140.146 704.532C140.207 704.56 140.296 704.561 140.413 704.536L141.156 704.373L141.258 704.842L136.881 705.798L136.779 705.329L137.521 705.167C137.638 705.141 137.712 705.105 137.743 705.057C137.784 704.994 137.791 704.903 137.766 704.786L136.964 701.113L136.202 701.279C135.329 701.469 134.992 702.021 135.191 702.932L135.515 704.417C135.655 705.056 135.572 705.586 135.268 706.007C134.962 706.415 134.489 706.689 133.851 706.828ZM136.861 700.644L136.085 697.087C136.059 696.97 136.016 696.898 135.956 696.87C135.905 696.826 135.815 696.819 135.684 696.847L134.981 697.001C134.499 697.106 134.199 697.356 134.08 697.75C133.959 698.131 133.963 698.622 134.094 699.221C134.376 700.511 134.953 701.06 135.826 700.87L136.861 700.644ZM149.606 702.529L150.7 702.29C150.817 702.264 150.891 702.228 150.922 702.18C150.962 702.117 150.97 702.026 150.944 701.909L149.264 694.21C149.235 694.08 149.191 694.001 149.13 693.973C149.082 693.943 149 693.94 148.883 693.966C148.596 694.028 148.352 694.252 148.149 694.638C147.957 695.007 147.822 695.419 147.743 695.873C147.657 696.356 147.606 696.776 147.589 697.135C147.585 697.491 147.586 697.715 147.593 697.809L147.046 697.929L146.318 694.034L154.134 692.328L155.096 696.171L154.549 696.291C154.516 696.203 154.417 695.999 154.252 695.68C154.1 695.359 153.884 694.996 153.605 694.593C153.345 694.213 153.044 693.897 152.702 693.644C152.37 693.375 152.061 693.272 151.775 693.335C151.657 693.36 151.577 693.398 151.533 693.449C151.503 693.496 151.502 693.585 151.53 693.715L153.211 701.414C153.236 701.531 153.274 701.612 153.325 701.655C153.386 701.683 153.475 701.684 153.592 701.659L154.686 701.42L154.788 701.889L149.708 702.998L149.606 702.529ZM162.135 700.53C161.328 700.707 160.558 700.65 159.826 700.359C159.104 700.053 158.486 699.567 157.972 698.901C157.458 698.235 157.104 697.459 156.911 696.574C156.712 695.662 156.707 694.796 156.897 693.977C157.087 693.158 157.435 692.474 157.944 691.926C158.462 691.363 159.08 691.003 159.796 690.847C160.591 690.673 161.337 690.81 162.035 691.258C162.731 691.693 163.271 692.353 163.655 693.238C163.837 693.635 164.025 694.277 164.218 695.163L159.451 696.203C159.587 696.829 159.708 697.321 159.814 697.68C159.917 698.026 160.051 698.358 160.216 698.677C160.438 699.134 160.744 699.469 161.132 699.685C161.533 699.898 161.955 699.956 162.398 699.859C163.036 699.72 163.49 699.327 163.758 698.682C164.027 698.036 164.118 697.327 164.031 696.555L164.539 696.444C164.657 697.36 164.537 698.218 164.18 699.02C163.82 699.808 163.138 700.311 162.135 700.53ZM161.832 695.11C161.534 693.743 161.222 692.753 160.897 692.141C160.583 691.514 160.185 691.253 159.703 691.358C159.221 691.463 158.961 691.868 158.924 692.572C158.897 693.26 159.033 694.289 159.331 695.656L161.832 695.11ZM168.287 698.451L169.381 698.212C169.498 698.186 169.572 698.149 169.603 698.102C169.643 698.038 169.651 697.948 169.625 697.831L167.945 690.132C167.916 690.002 167.872 689.923 167.811 689.895C167.763 689.865 167.681 689.862 167.564 689.888C167.277 689.95 167.033 690.174 166.83 690.56C166.638 690.929 166.503 691.341 166.424 691.795C166.339 692.277 166.287 692.698 166.27 693.057C166.266 693.412 166.267 693.637 166.274 693.731L165.727 693.851L164.999 689.956L172.815 688.25L173.777 692.093L173.23 692.213C173.197 692.124 173.098 691.921 172.933 691.602C172.781 691.28 172.565 690.918 172.286 690.515C172.026 690.135 171.725 689.819 171.383 689.566C171.051 689.297 170.742 689.194 170.456 689.256C170.338 689.282 170.258 689.32 170.214 689.37C170.184 689.418 170.183 689.507 170.211 689.637L171.892 697.336C171.918 697.453 171.956 697.534 172.006 697.577C172.067 697.605 172.156 697.606 172.273 697.58L173.367 697.341L173.469 697.81L168.389 698.919L168.287 698.451ZM177.083 701.198L178.177 700.959C178.294 700.933 178.367 700.89 178.394 700.829C178.438 700.779 178.447 700.695 178.421 700.578L175.768 688.424C175.742 688.307 175.699 688.234 175.639 688.207C175.588 688.163 175.504 688.154 175.387 688.18L174.293 688.419L174.19 687.95L177.864 687.148L178.111 688.281L178.229 688.256C178.318 687.854 178.49 687.482 178.743 687.14C179.008 686.796 179.35 686.578 179.767 686.487C180.444 686.339 181.101 686.441 181.737 686.793C182.371 687.133 182.92 687.648 183.385 688.338C183.846 689.015 184.167 689.764 184.346 690.584C184.528 691.418 184.557 692.237 184.432 693.042C184.308 693.848 184.036 694.541 183.618 695.124C183.196 695.694 182.647 696.053 181.969 696.2C181.552 696.292 181.154 696.249 180.774 696.072C180.395 695.896 180.054 695.616 179.751 695.231L179.643 695.296L180.688 700.083C180.713 700.2 180.75 700.274 180.798 700.305C180.861 700.346 180.951 700.353 181.069 700.328L182.163 700.089L182.265 700.558L177.185 701.667L177.083 701.198ZM181.481 695.652C182.341 695.464 182.462 693.957 181.845 691.13C181.228 688.304 180.489 686.984 179.63 687.172C179.33 687.237 179.091 687.487 178.913 687.922C178.745 688.341 178.653 688.886 178.636 689.559C178.619 690.231 178.694 690.952 178.862 691.72C179.067 692.658 179.332 693.433 179.656 694.044C179.981 694.656 180.307 695.089 180.636 695.345C180.965 695.601 181.247 695.703 181.481 695.652ZM189.823 694.486C189.107 694.642 188.456 694.6 187.871 694.359C187.299 694.116 186.923 693.577 186.741 692.743C186.556 691.897 186.717 691.165 187.224 690.55C187.741 689.918 188.44 689.336 189.319 688.803L190.654 687.979L190.364 686.65C190.219 685.986 189.977 685.534 189.638 685.294C189.299 685.054 188.915 684.981 188.485 685.075C188.12 685.154 187.82 685.309 187.583 685.538C187.357 685.751 187.275 686.001 187.337 686.287C187.354 686.366 187.395 686.459 187.46 686.568C187.535 686.661 187.639 686.733 187.774 686.786C187.995 686.86 188.158 686.954 188.265 687.068C188.385 687.178 188.467 687.337 188.513 687.546C188.581 687.858 188.518 688.131 188.323 688.365C188.139 688.583 187.91 688.721 187.636 688.781C187.297 688.855 186.98 688.808 186.684 688.641C186.399 688.458 186.209 688.151 186.115 687.721C186.007 687.226 186.061 686.757 186.279 686.314C186.493 685.858 186.813 685.481 187.239 685.183C187.663 684.872 188.116 684.664 188.598 684.559C189.536 684.354 190.412 684.429 191.226 684.783C192.038 685.125 192.563 685.843 192.802 686.937L193.881 691.881C193.983 692.349 194.165 692.556 194.425 692.499C194.66 692.447 194.793 692.214 194.825 691.797C194.857 691.381 194.817 690.919 194.706 690.411L195.253 690.291C195.461 691.242 195.47 691.97 195.28 692.476C195.188 692.742 195.027 692.975 194.798 693.175C194.569 693.375 194.285 693.512 193.946 693.586C193.412 693.702 192.991 693.712 192.683 693.616C192.373 693.506 192.085 693.282 191.82 692.944L191.781 692.953C191.414 693.77 190.761 694.281 189.823 694.486ZM190.61 693.495C191.118 693.384 191.453 693.011 191.614 692.375L190.77 688.506L189.761 689.136C189.365 689.386 189.111 689.756 188.999 690.244C188.898 690.717 188.927 691.318 189.086 692.047C189.225 692.685 189.439 693.103 189.728 693.299C190.016 693.495 190.31 693.561 190.61 693.495ZM196.6 692.351L197.264 692.206C197.564 692.141 197.768 692.042 197.875 691.909C197.98 691.764 198.051 691.557 198.088 691.29C198.21 690.226 198.232 689.075 198.153 687.836C198.074 686.598 197.9 685.367 197.633 684.142C197.587 683.934 197.496 683.763 197.357 683.629C197.232 683.493 197.072 683.446 196.876 683.489L196.212 683.634L196.109 683.165L203.339 681.586L203.441 682.055L202.504 682.26C202.386 682.286 202.307 682.33 202.267 682.394C202.236 682.441 202.234 682.524 202.259 682.641L203.872 690.027C203.923 690.261 204.007 690.427 204.124 690.525C204.253 690.619 204.429 690.642 204.65 690.594L205.706 690.364L206.574 693.777L206.026 693.896C205.994 693.808 205.895 693.605 205.729 693.286C205.567 692.98 205.383 692.699 205.177 692.444C204.875 692.06 204.556 691.754 204.22 691.527C203.886 691.313 203.492 691.256 203.036 691.356L199.44 692.141C198.985 692.24 198.65 692.457 198.436 692.79C198.225 693.136 198.062 693.547 197.947 694.022C197.87 694.353 197.821 694.692 197.801 695.037C197.78 695.383 197.774 695.603 197.781 695.697L197.234 695.816L196.6 692.351ZM201.429 691.215C201.637 691.17 201.716 691.03 201.665 690.795L199.993 683.136C199.967 683.019 199.924 682.946 199.863 682.918C199.813 682.875 199.729 682.866 199.612 682.891L199.201 682.981C198.758 683.078 198.488 683.307 198.39 683.67C198.304 684.03 198.308 684.486 198.402 685.039C198.549 685.839 198.651 686.745 198.708 687.756C198.778 688.764 198.798 689.606 198.768 690.281C198.741 690.779 198.752 691.145 198.803 691.379C198.829 691.496 198.896 691.584 199.004 691.642C199.11 691.688 199.214 691.699 199.319 691.676L201.429 691.215ZM207.009 689.997L207.752 689.835C207.869 689.809 207.943 689.773 207.973 689.725C208.014 689.662 208.021 689.571 207.996 689.454L206.315 681.755C206.29 681.638 206.247 681.566 206.186 681.538C206.135 681.495 206.052 681.486 205.934 681.511L205.192 681.673L205.089 681.204L209.427 680.257L209.53 680.726L208.865 680.871C208.735 680.9 208.651 680.952 208.613 681.029C208.575 681.105 208.575 681.228 208.612 681.397L209.333 684.7L211.208 684.29C212.016 684.114 212.74 684.208 213.379 684.574C214.018 684.939 214.415 685.474 214.568 686.177C214.671 686.646 214.641 687.103 214.478 687.548C214.326 687.977 214.061 688.355 213.682 688.684C213.301 688.999 212.843 689.215 212.309 689.331L207.111 690.466L207.009 689.997ZM211.386 689.042C211.79 688.953 212.053 688.691 212.176 688.255C212.312 687.816 212.315 687.297 212.184 686.697C212.053 686.098 211.843 685.632 211.552 685.3C211.261 684.968 210.907 684.847 210.49 684.938L209.435 685.169L210.263 688.959C210.288 689.077 210.326 689.157 210.377 689.201C210.437 689.228 210.526 689.229 210.643 689.204L211.386 689.042Z" fill="#F9E9CC"/>
<path d="M-57.873 371.112L170.72 319.431" stroke="#F9E9CC" stroke-width="3"/>
<path d="M-51.832 397.829L176.761 346.148" stroke="#F9E9CC" stroke-width="3"/>
<path d="M-45.8438 424.312L182.75 372.631" stroke="#F9E9CC" stroke-width="3"/>
<path d="M-39.8574 450.792L188.736 399.112" stroke="#F9E9CC" stroke-width="3"/>
<path d="M-33.8711 477.273L194.722 425.592" stroke="#F9E9CC" stroke-width="3"/>
<path d="M238.957 576.562C219.572 588.184 200.118 595.387 184.374 597.679C176.499 598.826 169.628 598.732 164.187 597.406C158.753 596.082 154.861 593.563 152.689 589.937C150.518 586.31 150.135 581.687 151.532 576.267C152.93 570.84 156.089 564.734 160.814 558.325C170.26 545.514 185.783 531.745 205.168 520.122C224.552 508.5 244.007 501.297 259.75 499.005C267.626 497.859 274.496 497.952 279.938 499.278C285.372 500.602 289.264 503.121 291.435 506.747C293.606 510.374 293.989 514.997 292.593 520.417C291.194 525.844 288.035 531.95 283.31 538.359C273.864 551.17 258.341 564.939 238.957 576.562Z" stroke="#F9E9CC" stroke-width="3"/>
<path d="M241.498 522.633C258.21 537.102 270.779 553.054 277.619 567.096C281.041 574.12 282.996 580.599 283.366 586.132C283.736 591.656 282.523 596.129 279.744 599.343C276.965 602.558 272.716 604.402 267.2 604.831C261.675 605.26 254.987 604.256 247.549 601.878C232.678 597.124 215.095 586.971 198.383 572.503C181.671 558.035 169.103 542.083 162.262 528.04C158.841 521.016 156.885 514.538 156.515 509.005C156.146 503.48 157.358 499.008 160.138 495.793C162.917 492.578 167.165 490.735 172.682 490.306C178.207 489.876 184.894 490.881 192.333 493.259C207.203 498.013 224.787 508.165 241.498 522.633Z" stroke="#F9E9CC" stroke-width="3"/>
<path d="M252.832 548.928C251.378 570.425 246.478 589.573 239.789 603.147C236.443 609.937 232.683 615.262 228.746 618.797C224.814 622.328 220.805 623.992 216.88 623.726C212.956 623.461 209.207 621.272 205.786 617.244C202.361 613.211 199.352 607.428 196.951 600.25C192.15 585.899 189.873 566.265 191.327 544.769C192.781 523.273 197.68 504.124 204.369 490.551C207.716 483.761 211.475 478.436 215.413 474.901C219.345 471.37 223.354 469.706 227.278 469.971C231.203 470.236 234.951 472.425 238.372 476.453C241.798 480.486 244.806 486.269 247.208 493.448C252.009 507.798 254.285 527.432 252.832 548.928Z" stroke="#F9E9CC" stroke-width="3"/>
<ellipse cx="162.802" cy="525.439" rx="10.9141" ry="11.622" transform="rotate(3.86887 162.802 525.439)" fill="#A33631"/>
<ellipse cx="232.894" cy="612.98" rx="10.9141" ry="11.622" transform="rotate(3.86887 232.894 612.98)" fill="#A33631"/>
<ellipse cx="268.789" cy="496.956" rx="10.9141" ry="11.622" transform="rotate(3.86887 268.789 496.956)" fill="#A33631"/>
<ellipse cx="222.072" cy="546.989" rx="15.2517" ry="15.4026" transform="rotate(3.86887 222.072 546.989)" fill="#A33631"/>
<path d="M6.32176 609.919C9.57405 614.054 10.3917 626.122 -12.3559 641.31C-17.1062 645.568 -27.3203 657.322 -30.1742 670.273" stroke="#F9E9CC" stroke-width="2" stroke-linecap="round"/>
<path d="M-55.1754 675.151C-45.0986 680.439 -28.514 680.539 -28.0072 676.268C-27.3447 670.685 -25.5811 666.206 -17.3632 655.201C-7.92932 642.568 7.6178 638.638 11.7054 620.088C14.6633 606.665 9.32035 588.583 -31.0183 580.613C-63.2893 574.238 -75.2684 591.728 -77.8195 604.18C-80.3706 616.633 -73.4307 620.284 -65.5484 637.935C-56.4679 658.269 -59.3756 666.974 -61.9645 668.785C-60.7519 671.412 -58.2707 673.527 -55.1754 675.151ZM-55.1754 675.151C-53.8592 663.043 -48.7682 639.596 -38.9336 642.668C-26.6405 646.508 -34.6563 657.12 -36.0502 665.654C-36.6544 669.354 -37.2436 672.163 -37.7191 674.128M-55.1754 675.151C-51.5633 676.546 -48.0107 677.193 -45.054 677.437M-38.6217 677.324C-38.4418 676.845 -38.1211 675.789 -37.7191 674.128M-38.6217 677.324C-33.8062 676.805 -26.8839 675.44 -37.7191 674.128M-38.6217 677.324C-39.3177 677.439 -40.3356 677.533 -41.5925 677.555M-45.054 677.437C-40.074 655.573 -39.875 653.565 -39.5413 656.468C-39.2295 656.89 -37.4892 652.309 -37.572 655.629M-45.054 677.437C-43.774 677.542 -42.6056 677.573 -41.5925 677.555M-48.2551 673.928C-46.4456 666.452 -42.6319 651.501 -41.8536 651.502C-40.8808 651.505 -37.9117 652.017 -39.099 650.412C-40.2863 648.806 -42.4342 648.616 -43.8174 649.372M-41.5925 677.555C-40.9095 672.247 -39.0836 660.869 -37.2444 657.823C-34.9454 654.015 -35.1665 648.025 -35.7735 647.467" stroke="#F9E9CC" stroke-width="2"/>
<path d="M25.5406 603.756L65.4639 591.422" stroke="#A33631" stroke-width="3"/>
<path d="M43.1533 579.298L61.265 554.611" stroke="#A33631" stroke-width="3"/>
<path d="M30.4306 558.604L69.2684 519.091" stroke="#A33631" stroke-width="3"/>
<path d="M18.179 595.642L35.2824 566.379" stroke="#A33631" stroke-width="3"/>
<path d="M-2.45043 580.723L15.3471 525.361" stroke="#A33631" stroke-width="3"/>
<path d="M-7.1459 328.935L-4.41154 328.332C-4.04696 328.252 -3.81391 328.132 -3.71241 327.973C-3.61664 327.788 -3.60607 327.526 -3.68069 327.188L-8.84681 303.751C-8.92718 303.386 -9.04681 303.153 -9.20572 303.051C-9.36463 302.95 -9.62637 302.939 -9.99096 303.02L-12.7253 303.622L-13.0008 302.372L9.0303 297.516L11.702 308.15L10.452 308.426C10.4061 308.218 10.1209 307.543 9.59643 306.403C9.07197 305.262 8.50669 304.308 7.9006 303.541C7.09542 302.489 6.13224 301.65 5.01106 301.024C3.91593 300.391 2.79544 300.201 1.64962 300.454L-2.33474 301.332C-2.67328 301.407 -2.90632 301.526 -3.03387 301.691C-3.13538 301.85 -3.14595 302.112 -3.06559 302.476L-0.689174 313.257L1.303 312.818C2.00613 312.663 2.59402 312.233 3.0667 311.528C3.53937 310.823 3.85313 310.017 4.00799 309.109C4.18314 308.169 4.18749 307.322 4.02103 306.567L5.27102 306.291L7.96602 318.518L6.71602 318.793C6.54382 318.012 6.18358 317.245 5.63532 316.492C5.10735 315.707 4.48075 315.094 3.75551 314.653C3.03027 314.212 2.31609 314.07 1.61297 314.225L-0.379206 314.664L2.10053 325.914C2.17516 326.252 2.29479 326.485 2.45944 326.613C2.64439 326.708 2.90613 326.719 3.24467 326.644L6.79935 325.861L7.07487 327.111L-6.87038 330.185L-7.1459 328.935ZM15.7895 311.1L15.2385 308.6L48.2071 301.333L48.7581 303.833L15.7895 311.1ZM17.5805 319.225L17.0294 316.725L49.998 309.458L50.5491 311.958L17.5805 319.225ZM54.9677 315.571L56.452 315.244C56.6864 315.192 56.8341 315.119 56.895 315.024C56.9762 314.896 56.9909 314.716 56.9393 314.481L53.5469 299.091C53.4952 298.856 53.4087 298.712 53.2873 298.656C53.1862 298.569 53.0185 298.552 52.7841 298.603L51.2997 298.931L51.0931 297.993L57.7337 296.529L58.5861 300.397L58.79 300.393C59.319 297.218 60.6251 295.401 62.7084 294.941C64.323 294.585 65.5318 294.742 66.3347 295.412C67.1637 296.076 67.8332 297.007 68.3431 298.205L68.5384 298.162C68.7144 296.731 69.1228 295.548 69.7636 294.615C70.4247 293.65 71.2371 293.061 72.2006 292.849C72.8516 292.706 73.4287 292.66 73.9319 292.713C74.4294 292.74 74.918 292.851 75.3978 293.045C76.1522 293.371 76.8035 293.91 77.3518 294.663C77.9261 295.41 78.3108 296.226 78.506 297.112L81.1579 309.143C81.2096 309.377 81.2859 309.538 81.387 309.625C81.5084 309.68 81.6863 309.682 81.9207 309.63L83.405 309.303L83.6117 310.24L75.0961 312.118L74.8895 311.18L76.1394 310.904C76.3738 310.853 76.5215 310.779 76.5824 310.684C76.6636 310.557 76.6783 310.376 76.6267 310.142L73.725 296.978C73.2831 294.973 72.4631 294.102 71.2652 294.366C70.7183 294.487 70.2518 294.972 69.8657 295.821C69.4738 296.645 69.2304 297.709 69.1356 299.013C69.0611 300.286 69.1731 301.599 69.4716 302.953L71.3142 311.313C71.3659 311.547 71.4422 311.708 71.5433 311.795C71.6647 311.85 71.8426 311.852 72.077 311.8L73.327 311.524L73.5336 312.462L65.2524 314.287L65.0457 313.35L66.2957 313.074C66.5301 313.023 66.6778 312.949 66.7387 312.854C66.8199 312.727 66.8346 312.546 66.783 312.312L63.7264 298.444C63.5541 297.663 63.3367 297.11 63.0741 296.786C62.8057 296.435 62.359 296.329 61.734 296.467C61.1871 296.587 60.6946 297.078 60.2563 297.939C59.8181 298.801 59.5227 299.876 59.3701 301.166C59.2435 302.45 59.3294 303.769 59.6279 305.123L61.4705 313.482C61.5222 313.717 61.5985 313.878 61.6996 313.964C61.821 314.02 61.9989 314.021 62.2333 313.97L63.4833 313.694L63.6899 314.632L55.1743 316.509L54.9677 315.571ZM97.2157 316.99C94.7939 317.524 92.6419 317.548 90.7597 317.062C88.9037 316.57 87.8092 315.569 87.4762 314.058C87.2868 313.199 87.4372 312.333 87.9276 311.46C88.4236 310.613 89.2159 309.934 90.3043 309.421L90.2785 309.303C89.4857 309.424 88.7109 309.253 87.9538 308.792C87.1968 308.331 86.7207 307.657 86.5256 306.772C85.9802 304.298 87.1028 302.453 89.8931 301.237L89.8587 301.081C88.7455 300.862 87.6978 300.383 86.7157 299.644C85.7596 298.899 85.1294 297.836 84.8252 296.456C84.5669 295.284 84.6599 294.158 85.1043 293.077C85.5747 291.99 86.2893 291.082 87.2479 290.352C88.2269 289.59 89.3413 289.071 90.5913 288.795C92.7267 288.325 94.6859 288.603 96.4687 289.63L96.5859 289.604C97.0947 288.072 97.909 287.182 99.0288 286.936C99.8621 286.752 100.597 286.863 101.232 287.269C101.862 287.649 102.255 288.191 102.41 288.894C102.582 289.675 102.51 290.401 102.193 291.071C101.903 291.736 101.458 292.134 100.859 292.267C100.443 292.358 100.052 292.322 99.688 292.156C99.3181 291.965 99.0872 291.66 98.9954 291.244C98.9035 290.827 99.0085 290.312 99.3104 289.7C99.4322 289.509 99.5352 289.295 99.6195 289.058C99.7038 288.821 99.7287 288.624 99.6943 288.468C99.6024 288.052 99.2831 287.904 98.7362 288.024C98.0331 288.179 97.4896 288.872 97.1057 290.104C98.1399 290.832 98.835 292.003 99.1909 293.617C99.3975 294.555 99.3018 295.545 98.9037 296.589C98.5 297.606 97.8013 298.525 96.8078 299.345C95.8403 300.159 94.6405 300.723 93.2082 301.039C91.6197 301.389 90.3752 301.814 89.4748 302.313C88.5687 302.785 88.2074 303.438 88.3911 304.272C88.592 305.183 89.3305 305.498 90.6065 305.217L96.7784 303.857C98.6273 303.449 100.261 303.553 101.68 304.169C103.1 304.784 104.004 305.978 104.395 307.748C104.682 309.051 104.594 310.326 104.132 311.575C103.676 312.849 102.858 313.972 101.679 314.942C100.5 315.911 99.0126 316.594 97.2157 316.99ZM93.1492 300.028C93.9825 299.844 94.4925 299.309 94.6791 298.421C94.86 297.507 94.7524 296.152 94.3564 294.355C93.9603 292.558 93.491 291.296 92.9485 290.57C92.4002 289.817 91.7094 289.532 90.8761 289.716C90.0167 289.905 89.4836 290.459 89.2766 291.379C89.09 292.267 89.1947 293.609 89.5908 295.406C89.9868 297.203 90.459 298.477 91.0073 299.23C91.5758 299.952 92.2898 300.218 93.1492 300.028ZM96.3543 315.87C98.1511 315.473 99.6463 314.762 100.84 313.734C102.033 312.706 102.481 311.515 102.182 310.161C101.964 309.172 101.259 308.576 100.068 308.374C98.8824 308.199 97.4432 308.298 95.7505 308.671C93.7453 309.113 92.0262 309.737 90.593 310.545C89.1657 311.378 88.5983 312.459 88.8911 313.787C89.1436 314.933 90 315.659 91.4601 315.965C92.9521 316.292 94.5834 316.26 96.3543 315.87Z" fill="#A33631"/>
<path d="M-101.009 165.732C-101.708 164.529 -102.535 163.7 -103.488 163.245C-104.441 162.79 -105.739 162.733 -107.384 163.076L-108.5 163.308L-108.892 161.429L-89.8013 157.452L-89.4098 159.332L-91.1132 159.687C-91.6615 159.801 -92.071 160.091 -92.3419 160.556C-92.5736 161.012 -92.6283 161.535 -92.5059 162.122C-92.4081 162.592 -92.2082 163.061 -91.9064 163.529L-79.795 184.602L-78.1885 164.656L-80.3004 160.989C-81.0004 159.787 -81.7517 159.024 -82.5544 158.701C-83.3262 158.331 -84.3582 158.28 -85.6504 158.549L-86.649 158.757L-87.0405 156.877L-67.774 152.865L-67.3825 154.744L-70.2607 155.344C-70.8089 155.458 -71.2226 155.728 -71.5016 156.154C-71.7806 156.58 -71.8753 157.008 -71.7856 157.439C-71.704 157.83 -71.5556 158.249 -71.3402 158.694L-59.1089 180.049L-57.7887 159.61C-57.7675 159.32 -57.787 158.834 -57.8474 158.152C-57.8767 157.422 -57.9403 156.823 -58.0382 156.353C-58.2176 155.491 -58.6353 154.761 -59.2912 154.162C-59.9079 153.555 -60.7645 153.366 -61.861 153.594L-64.7979 154.206L-65.1894 152.326L-49.3298 149.023L-48.9383 150.903L-50.7592 151.282C-53.3829 151.828 -54.8915 154.002 -55.2849 157.802L-57.7856 195.524L-60.2527 196.038L-76.0765 168.322L-78.5794 199.855L-81.0465 200.369L-101.009 165.732ZM-40.9407 169.83L-41.7237 166.07L7.85243 155.745L8.63542 159.504L-40.9407 169.83ZM-38.3959 182.047L-39.1789 178.288L10.3972 167.962L11.1801 171.722L-38.3959 182.047ZM20.8081 145.14L20.3969 145.226L25.4741 169.603C25.8412 171.365 26.7059 172.574 28.0682 173.23C29.4616 173.838 31.0003 173.967 32.6841 173.617L33.0756 175.496L18.5082 178.53L18.1167 176.651C19.8006 176.3 21.1402 175.572 22.1356 174.465C23.1619 173.312 23.4916 171.854 23.1246 170.092L16.5915 138.725C16.4773 138.177 16.3019 137.825 16.0653 137.67C15.8287 137.515 15.4363 137.495 14.8881 137.609L10.1889 138.588L9.79743 136.708L23.8362 133.784L40.6047 160.445L42.4566 129.906L57.3764 126.798L57.7679 128.678L53.6561 129.534C53.1471 129.64 52.7954 129.816 52.6013 130.06C52.4462 130.297 52.4258 130.689 52.54 131.238L59.8806 166.481C59.9866 166.99 60.162 167.342 60.4067 167.536C60.6825 167.683 61.0749 167.703 61.5839 167.597L65.6957 166.741L66.0872 168.621L46.3507 172.731L45.9592 170.852L50.071 169.995C50.6192 169.881 50.9709 169.706 51.1259 169.469C51.2727 169.193 51.2932 168.801 51.1871 168.292L44.2258 134.869L41.7984 174.415L39.5076 174.892L20.8081 145.14ZM89.3126 164.886C85.6708 165.645 82.3455 165.275 79.3369 163.777C76.3592 162.232 73.8776 159.93 71.8921 156.87C69.8984 153.772 68.5019 150.304 67.7026 146.466C66.8788 142.511 66.786 138.73 67.4241 135.124C68.0541 131.479 69.3947 128.401 71.4458 125.89C73.536 123.371 76.2454 121.765 79.574 121.072C81.0229 120.77 82.4073 120.747 83.7273 121.003C85.0783 121.212 86.537 121.644 88.1033 122.298C89.1263 122.698 89.8532 122.853 90.284 122.763C90.5972 122.698 90.8355 122.567 90.9986 122.369C91.1536 122.133 91.2687 121.802 91.3438 121.378L91.9484 118.985L93.8868 118.581L97.6427 136.614L95.7631 137.005C93.8103 132.141 91.4038 128.434 88.5437 125.884C85.7227 123.325 82.8633 122.348 79.9655 122.951C78.125 123.335 76.7658 124.558 75.8879 126.62C75.0491 128.674 75.0375 131.659 75.8531 135.575L79.5234 153.197C80.3309 157.074 81.6116 159.79 83.3655 161.345C85.1504 162.852 87.0023 163.406 88.9211 163.007C93.5811 162.036 96.6022 159.18 97.9845 154.439C98.6878 152.127 98.8316 148.992 98.4157 145.033L100.53 144.593C100.772 146.34 100.861 148.14 100.797 149.992C100.764 151.796 100.549 153.414 100.153 154.845C99.4283 157.448 98.1474 159.635 96.3101 161.407C94.5038 163.131 92.1713 164.291 89.3126 164.886Z" fill="#A33631"/>
</svg>
