<svg width="1440" height="1004" viewBox="0 0 1440 1004" fill="none" xmlns="http://www.w3.org/2000/svg">
<rect x="-22" y="68" width="1466" height="171" fill="#7B9B9E"/>
<rect x="-6" y="940" width="1453" height="64" fill="#7B9B9E"/>
<path d="M468.13 189.76C465.49 189.76 463.363 188.807 461.75 186.9C460.21 184.993 459.44 182.427 459.44 179.2C459.44 174.8 460.503 170.29 462.63 165.67C464.83 160.977 467.617 156.21 470.99 151.37L479.79 138.72C481.403 136.447 482.723 134.027 483.75 131.46C484.85 128.82 485.4 126.547 485.4 124.64C485.4 123.54 485.107 122.807 484.52 122.44C484.007 122 483.163 121.78 481.99 121.78H459.22C456.287 121.78 454.197 122.44 452.95 123.76C451.777 125.007 450.97 126.803 450.53 129.15L449.32 135.64H446.9L448.44 112.76H490.68C490.68 116.573 490.093 120.937 488.92 125.85C487.82 130.763 485.913 135.237 483.2 139.27L476.93 148.73C473.923 153.13 472.42 157.897 472.42 163.03C472.42 166.183 472.64 168.933 473.08 171.28L473.74 175.13C474.327 178.063 474.62 180.63 474.62 182.83C474.62 187.45 472.457 189.76 468.13 189.76ZM531.719 189.76C527.392 189.76 523.359 188.917 519.619 187.23C515.952 185.543 512.982 183.123 510.709 179.97C508.509 176.817 507.409 173.113 507.409 168.86C507.409 163.507 508.912 159.327 511.919 156.32C514.925 153.313 518.115 151.333 521.489 150.38V149.94L520.279 149.39C516.392 147.777 513.422 145.393 511.369 142.24C509.315 139.087 508.289 135.42 508.289 131.24C508.289 127.427 509.462 123.98 511.809 120.9C514.155 117.747 517.199 115.327 520.939 113.64C524.679 111.88 528.565 111 532.599 111C537.585 111 541.802 111.917 545.249 113.75C548.769 115.51 551.409 117.857 553.169 120.79C554.929 123.65 555.809 126.693 555.809 129.92C555.809 133.88 554.525 137.327 551.959 140.26C549.465 143.12 546.532 145.32 543.159 146.86V147.3L545.689 148.29C554.342 151.81 558.669 157.347 558.669 164.9C558.669 169.447 557.605 173.627 555.479 177.44C553.425 181.18 550.345 184.187 546.239 186.46C542.205 188.66 537.365 189.76 531.719 189.76ZM539.969 146.09C543.195 144.33 545.469 142.167 546.789 139.6C548.109 137.033 548.769 134.027 548.769 130.58C548.769 127.573 548.035 124.86 546.569 122.44C545.102 119.947 543.122 118.003 540.629 116.61C538.209 115.217 535.532 114.52 532.599 114.52C528.052 114.52 524.202 115.803 521.049 118.37C517.969 120.937 516.429 124.347 516.429 128.6C516.429 131.68 517.162 134.137 518.629 135.97C520.169 137.803 522.552 139.38 525.779 140.7L539.969 146.09ZM532.929 186.24C536.962 186.24 540.262 185.397 542.829 183.71C545.395 182.023 547.229 180.007 548.329 177.66C549.502 175.24 550.089 172.967 550.089 170.84C550.089 166.733 549.172 163.69 547.339 161.71C545.579 159.73 542.975 158.043 539.529 156.65L524.679 151.26C521.672 152.507 519.325 154.487 517.639 157.2C515.952 159.913 515.109 163.873 515.109 169.08C515.109 174.947 516.869 179.273 520.389 182.06C523.982 184.847 528.162 186.24 532.929 186.24ZM577.817 184.48H588.377C589.477 184.48 590.247 184.26 590.687 183.82C591.201 183.38 591.457 182.647 591.457 181.62V127.61H577.817V123.65H583.867C587.827 123.65 591.017 122.587 593.437 120.46C595.931 118.333 597.471 115.767 598.057 112.76H601.577V181.62C601.577 182.647 601.797 183.38 602.237 183.82C602.751 184.26 603.557 184.48 604.657 184.48H615.217V188H577.817V184.48Z" fill="#A33631"/>
<path d="M700.2 184.8H707.4C709.2 184.8 710.1 183.9 710.1 182.1V122.7C710.1 121.767 709.867 121.1 709.4 120.7C709 120.233 708.333 120 707.4 120H700.2V116.8H752.6L753.8 144.4H751.3C751.233 143.867 751.033 142.7 750.7 140.9C750.433 139.1 749.933 137 749.2 134.6C748.467 132.2 747.567 130.033 746.5 128.1C745.1 125.7 743.233 123.767 740.9 122.3C738.567 120.767 735.767 120 732.5 120H722C721.067 120 720.367 120.233 719.9 120.7C719.5 121.1 719.3 121.767 719.3 122.7V182.1C719.3 183.9 720.2 184.8 722 184.8H730.9V188H700.2V184.8ZM767.113 189.2C764.046 189.2 761.479 188.2 759.413 186.2C757.413 184.2 756.413 181.467 756.413 178C756.413 175.2 757.246 172.967 758.913 171.3C760.646 169.633 762.713 168.8 765.113 168.8C766.979 168.8 768.413 169.4 769.413 170.6C770.479 171.733 771.013 173.067 771.013 174.6C771.013 176.133 770.646 177.367 769.913 178.3C769.246 179.233 768.313 180.1 767.113 180.9C765.846 181.833 765.213 182.833 765.213 183.9C765.213 184.567 765.446 185.1 765.913 185.5C766.446 185.833 767.113 186 767.913 186C770.846 186 773.013 185.2 774.413 183.6C775.813 181.933 776.913 179.867 777.713 177.4C779.113 173.133 780.213 165.933 781.013 155.8C781.879 145.6 782.313 135.633 782.313 125.9C782.313 123.9 781.813 122.433 780.813 121.5C779.813 120.5 778.146 120 775.813 120H771.213V116.8H825.413V120H818.213C817.279 120 816.579 120.233 816.113 120.7C815.713 121.1 815.513 121.767 815.513 122.7V182.1C815.513 183.9 816.413 184.8 818.213 184.8H825.413V188H796.413V184.8H803.613C805.413 184.8 806.313 183.9 806.313 182.1V122.7C806.313 121.7 806.113 121 805.713 120.6C805.379 120.2 804.746 120 803.813 120H795.213C792.479 120 790.446 120.733 789.113 122.2C787.779 123.6 786.913 125.367 786.513 127.5C786.113 129.633 785.846 132.4 785.713 135.8C784.979 154.067 783.613 167.367 781.613 175.7C780.879 178.9 779.479 181.967 777.413 184.9C775.346 187.767 771.913 189.2 767.113 189.2ZM835.845 184.8H843.045C844.845 184.8 845.745 183.9 845.745 182.1V122.7C845.745 121.767 845.511 121.1 845.045 120.7C844.645 120.233 843.978 120 843.045 120H835.845V116.8H864.845V120H857.645C856.711 120 856.011 120.233 855.545 120.7C855.145 121.1 854.945 121.767 854.945 122.7V173L883.345 126V122.7C883.345 121.767 883.111 121.1 882.645 120.7C882.245 120.233 881.578 120 880.645 120H873.445V116.8H902.445V120H895.245C893.445 120 892.545 120.9 892.545 122.7V182.1C892.545 183.9 893.445 184.8 895.245 184.8H902.445V188H873.445V184.8H880.645C882.445 184.8 883.345 183.9 883.345 182.1V131.8L854.945 178.8V182.1C854.945 183.9 855.845 184.8 857.645 184.8H864.845V188H835.845V184.8ZM932.698 184.8H942.298C944.098 184.8 944.998 183.9 944.998 182.1V174.4H936.798C932.331 174.4 928.231 173.5 924.498 171.7C920.831 169.833 917.898 167.2 915.698 163.8C913.498 160.4 912.398 156.467 912.398 152C912.398 147.533 913.498 143.6 915.698 140.2C917.898 136.8 920.831 134.2 924.498 132.4C928.231 130.533 932.331 129.6 936.798 129.6H944.998V122.7C944.998 121.767 944.764 121.1 944.298 120.7C943.898 120.233 943.231 120 942.298 120H932.698V116.8H966.498V120H956.898C955.964 120 955.264 120.233 954.798 120.7C954.398 121.1 954.198 121.767 954.198 122.7V129.6H962.398C966.864 129.6 970.931 130.533 974.598 132.4C978.331 134.2 981.298 136.8 983.498 140.2C985.698 143.6 986.798 147.533 986.798 152C986.798 156.467 985.698 160.4 983.498 163.8C981.298 167.2 978.331 169.833 974.598 171.7C970.931 173.5 966.864 174.4 962.398 174.4H954.198V182.1C954.198 183.9 955.098 184.8 956.898 184.8H966.498V188H932.698V184.8ZM944.998 171.2V132.8H935.798C931.531 132.8 928.331 134.733 926.198 138.6C924.064 142.4 922.998 146.867 922.998 152C922.998 157.2 924.064 161.7 926.198 165.5C928.331 169.3 931.531 171.2 935.798 171.2H944.998ZM963.398 171.2C967.664 171.2 970.864 169.3 972.998 165.5C975.131 161.7 976.198 157.2 976.198 152C976.198 146.867 975.131 142.4 972.998 138.6C970.864 134.733 967.664 132.8 963.398 132.8H954.198V171.2H963.398Z" fill="#A33631"/>
<path d="M-6 475H1462.5" stroke="#7B9B9E" stroke-width="14"/>
<path d="M-1 709H1442" stroke="#7B9B9E" stroke-width="14"/>
<path d="M1279.85 329.45H1278.8V391.7C1278.8 396.2 1280.3 399.6 1283.3 401.9C1286.4 404.1 1290.1 405.2 1294.4 405.2V410H1257.2V405.2C1261.5 405.2 1265.15 404.1 1268.15 401.9C1271.25 399.6 1272.8 396.2 1272.8 391.7V311.6C1272.8 310.2 1272.55 309.25 1272.05 308.75C1271.55 308.25 1270.6 308 1269.2 308H1257.2V303.2H1293.05L1320.5 377L1340.6 303.2H1378.7V308H1368.2C1366.9 308 1365.95 308.25 1365.35 308.75C1364.85 309.25 1364.6 310.2 1364.6 311.6V401.6C1364.6 402.9 1364.85 403.85 1365.35 404.45C1365.95 404.95 1366.9 405.2 1368.2 405.2H1378.7V410H1328.3V405.2H1338.8C1340.2 405.2 1341.15 404.95 1341.65 404.45C1342.15 403.85 1342.4 402.9 1342.4 401.6V316.25L1316.3 411.8H1310.45L1279.85 329.45ZM1312.7 440.6C1309.6 440.6 1306.95 439.55 1304.75 437.45C1302.65 435.35 1301.6 432.7 1301.6 429.5C1301.6 426.4 1302.65 423.75 1304.75 421.55C1306.95 419.45 1309.6 418.4 1312.7 418.4C1315.9 418.4 1318.55 419.45 1320.65 421.55C1322.75 423.75 1323.8 426.4 1323.8 429.5C1323.8 432.7 1322.75 435.35 1320.65 437.45C1318.55 439.55 1315.9 440.6 1312.7 440.6Z" fill="#F9E9CC"/>
<path d="M1313.45 663.7C1308.05 663.7 1303.4 662.7 1299.5 660.7C1295.6 658.8 1292.65 656.3 1290.65 653.2C1288.75 650.1 1287.8 646.9 1287.8 643.6C1287.8 639.3 1289.05 635.85 1291.55 633.25C1294.15 630.55 1297.3 629.2 1301 629.2C1303.8 629.2 1306.05 630 1307.75 631.6C1309.55 633.2 1310.45 635.3 1310.45 637.9C1310.45 640 1309.95 641.7 1308.95 643C1308.05 644.3 1306.7 645.45 1304.9 646.45C1303.5 647.25 1302.3 648.2 1301.3 649.3C1300.3 650.4 1299.8 651.5 1299.8 652.6C1299.8 654.8 1301.3 656.5 1304.3 657.7C1307.4 658.9 1310.55 659.5 1313.75 659.5C1318.65 659.5 1322.8 658.05 1326.2 655.15C1329.6 652.25 1331.3 648.2 1331.3 643C1331.3 638.8 1330.35 635.45 1328.45 632.95C1326.65 630.45 1323.85 628.3 1320.05 626.5L1297.4 615.85C1292.2 613.45 1288.25 610.4 1285.55 606.7C1282.85 602.9 1281.5 598.3 1281.5 592.9C1281.5 588.4 1282.6 584.25 1284.8 580.45C1287 576.65 1289.75 573.55 1293.05 571.15C1289.55 566.25 1287.8 560.05 1287.8 552.55C1287.8 547.35 1289.1 542.7 1291.7 538.6C1294.4 534.4 1298 531.15 1302.5 528.85C1307.1 526.55 1312.15 525.4 1317.65 525.4C1323.05 525.4 1327.7 526.4 1331.6 528.4C1335.5 530.3 1338.4 532.8 1340.3 535.9C1342.3 539 1343.3 542.2 1343.3 545.5C1343.3 549.8 1342 553.3 1339.4 556C1336.9 558.6 1333.8 559.9 1330.1 559.9C1327.3 559.9 1325 559.1 1323.2 557.5C1321.5 555.9 1320.65 553.8 1320.65 551.2C1320.65 549.1 1321.1 547.4 1322 546.1C1323 544.8 1324.4 543.65 1326.2 542.65C1327.6 541.85 1328.8 540.9 1329.8 539.8C1330.8 538.7 1331.3 537.6 1331.3 536.5C1331.3 534.3 1329.8 532.6 1326.8 531.4C1323.8 530.2 1320.65 529.6 1317.35 529.6C1312.45 529.6 1308.3 531.05 1304.9 533.95C1301.5 536.85 1299.8 540.9 1299.8 546.1C1299.8 550.3 1300.7 553.65 1302.5 556.15C1304.4 558.65 1307.25 560.8 1311.05 562.6L1333.7 573.25C1338.9 575.65 1342.85 578.75 1345.55 582.55C1348.25 586.25 1349.6 590.8 1349.6 596.2C1349.6 600.7 1348.5 604.85 1346.3 608.65C1344.1 612.45 1341.35 615.55 1338.05 617.95C1341.55 622.85 1343.3 629.05 1343.3 636.55C1343.3 641.75 1341.95 646.4 1339.25 650.5C1336.65 654.7 1333.05 657.95 1328.45 660.25C1323.95 662.55 1318.95 663.7 1313.45 663.7ZM1335.95 615.4C1337.95 613.9 1339.3 612.4 1340 610.9C1340.8 609.4 1341.2 607.65 1341.2 605.65C1341.2 603.35 1340.75 601.35 1339.85 599.65C1338.95 597.85 1337.6 596.5 1335.8 595.6L1305.8 581.2C1301.5 579.1 1297.95 576.6 1295.15 573.7C1293.15 575.2 1291.75 576.7 1290.95 578.2C1290.25 579.7 1289.9 581.45 1289.9 583.45C1289.9 585.75 1290.35 587.8 1291.25 589.6C1292.15 591.3 1293.5 592.6 1295.3 593.5L1325.3 607.9C1329.6 610 1333.15 612.5 1335.95 615.4Z" fill="#F9E9CC"/>
<path d="M1027.7 386.05L1037.9 375.85C1033.1 369.65 1030.7 362.6 1030.7 354.7C1030.7 346.8 1033.1 339.65 1037.9 333.25L1027.7 323.05L1034 316.75L1044.2 326.95C1047.2 324.65 1050.5 322.85 1054.1 321.55C1057.8 320.25 1061.6 319.6 1065.5 319.6C1069.4 319.6 1073.15 320.25 1076.75 321.55C1080.45 322.85 1083.8 324.65 1086.8 326.95L1097 316.75L1103.3 323.05L1093.1 333.25C1097.9 339.65 1100.3 346.8 1100.3 354.7C1100.3 362.6 1097.9 369.65 1093.1 375.85L1103.3 386.05L1097 392.35L1086.8 382.15C1080.6 387.05 1073.5 389.5 1065.5 389.5C1057.5 389.5 1050.4 387.05 1044.2 382.15L1034 392.35L1027.7 386.05ZM1065.5 379.9C1073 379.9 1079.05 377.6 1083.65 373C1088.35 368.3 1090.7 362.2 1090.7 354.7C1090.7 347.2 1088.35 341.1 1083.65 336.4C1079.05 331.6 1073 329.2 1065.5 329.2C1058 329.2 1051.9 331.6 1047.2 336.4C1042.6 341.1 1040.3 347.2 1040.3 354.7C1040.3 362.2 1042.6 368.3 1047.2 373C1051.9 377.6 1058 379.9 1065.5 379.9Z" fill="#F9E9CC"/>
<path d="M1029.2 650.7L1094.3 538.5H1101.8L1036.7 650.7H1029.2ZM1014.2 601.5H1020.8C1021.7 601.5 1022.3 601.35 1022.6 601.05C1023 600.65 1023.2 600 1023.2 599.1V552.6H1014.2V548.4H1018.25C1021.05 548.4 1023.65 547.8 1026.05 546.6C1028.55 545.3 1030.25 543.5 1031.15 541.2H1039.4V599.1C1039.4 600 1039.55 600.65 1039.85 601.05C1040.25 601.35 1040.9 601.5 1041.8 601.5H1048.4V605.1H1014.2V601.5ZM1106.45 649.8C1102.25 649.8 1097.95 647.5 1093.55 642.9C1092.35 641.6 1091.3 640.7 1090.4 640.2C1089.6 639.6 1088.6 639.3 1087.4 639.3C1086.5 639.3 1085.7 639.6 1085 640.2C1084.4 640.8 1084.1 641.55 1084.1 642.45V648H1079.9V643.8C1079.9 640.1 1080.65 636.45 1082.15 632.85C1083.65 629.15 1087 625 1092.2 620.4C1097.1 616 1100.75 612.2 1103.15 609C1105.65 605.7 1106.9 602.05 1106.9 598.05C1106.9 594.75 1106.2 592 1104.8 589.8C1103.4 587.5 1101.05 586.35 1097.75 586.35C1095.45 586.35 1093.55 587.05 1092.05 588.45C1090.55 589.85 1089.8 591.5 1089.8 593.4C1089.8 595.7 1090.65 597.4 1092.35 598.5C1093.75 599.5 1094.75 600.45 1095.35 601.35C1096.05 602.15 1096.4 603.2 1096.4 604.5C1096.4 606 1095.75 607.25 1094.45 608.25C1093.15 609.25 1091.55 609.75 1089.65 609.75C1086.75 609.75 1084.25 608.85 1082.15 607.05C1080.05 605.15 1079 602.65 1079 599.55C1079 596.45 1079.95 593.6 1081.85 591C1083.75 588.3 1086.35 586.2 1089.65 584.7C1092.95 583.1 1096.6 582.3 1100.6 582.3C1108 582.3 1113.6 583.75 1117.4 586.65C1121.2 589.45 1123.1 593.2 1123.1 597.9C1123.1 605.5 1114.95 613.2 1098.65 621C1096.05 622.2 1093.4 624.1 1090.7 626.7C1088 629.2 1086.3 631.9 1085.6 634.8L1086.2 635.1C1088.6 632.7 1091.1 631.5 1093.7 631.5C1095.8 631.5 1098.6 631.75 1102.1 632.25C1105.1 632.75 1108.05 633 1110.95 633C1113.35 633 1115.3 632.45 1116.8 631.35C1118.4 630.25 1119.2 628.95 1119.2 627.45C1119.2 625.65 1119 623.95 1118.6 622.35H1122.05C1122.45 624.75 1122.65 627.25 1122.65 629.85C1122.65 635.05 1121.3 639.7 1118.6 643.8C1116 647.8 1111.95 649.8 1106.45 649.8Z" fill="#F9E9CC"/>
<path d="M1063.4 764.8C1061.2 764.8 1059.35 764.05 1057.85 762.55C1056.35 761.05 1055.6 759.2 1055.6 757C1055.6 754.8 1056.35 752.95 1057.85 751.45C1059.35 749.95 1061.2 749.2 1063.4 749.2C1065.6 749.2 1067.45 749.95 1068.95 751.45C1070.45 752.95 1071.2 754.8 1071.2 757C1071.2 759.2 1070.45 761.05 1068.95 762.55C1067.45 764.05 1065.6 764.8 1063.4 764.8ZM1059.8 777.7L1038.8 760.3L1040.6 757.3L1063.4 769.3L1086.2 757.3L1088 760.3L1067 777.7H1059.8ZM1071.05 894.7C1066.65 894.7 1062.7 894.05 1059.2 892.75C1055.7 891.55 1052.8 890 1050.5 888.1C1048.2 886.4 1046.55 885.25 1045.55 884.65C1044.55 883.95 1043.6 883.6 1042.7 883.6C1040.6 883.6 1039.3 885.3 1038.8 888.7L1038.05 893.5H1033.4L1032.5 846.1H1037.3C1038.7 853.7 1041.05 860.85 1044.35 867.55C1047.75 874.25 1051.8 879.65 1056.5 883.75C1061.3 887.85 1066.45 889.9 1071.95 889.9C1079.85 889.9 1085.25 888.15 1088.15 884.65C1091.05 881.15 1092.5 877.2 1092.5 872.8C1092.5 870.2 1091.55 867.9 1089.65 865.9C1087.85 863.8 1085.2 861.6 1081.7 859.3L1049.6 838.6C1044.9 835.6 1040.9 831.85 1037.6 827.35C1034.4 822.85 1032.8 817.5 1032.8 811.3C1032.8 801.6 1035.6 794.4 1041.2 789.7C1046.9 784.9 1053.9 782.5 1062.2 782.5C1069.3 782.5 1076.4 785 1083.5 790C1085.8 791.8 1087.6 792.7 1088.9 792.7C1090.7 792.7 1091.8 791.55 1092.2 789.25L1093.1 785.2H1097.9L1099.4 824.2H1094.6C1092.7 817.3 1090.05 811.05 1086.65 805.45C1083.25 799.85 1079.3 795.45 1074.8 792.25C1070.4 788.95 1065.8 787.3 1061 787.3C1055.7 787.3 1051.75 788.35 1049.15 790.45C1046.65 792.55 1045.4 795.7 1045.4 799.9C1045.4 805.6 1049.85 811.35 1058.75 817.15L1091 838C1095.1 840.7 1098.35 844.4 1100.75 849.1C1103.25 853.8 1104.5 858.7 1104.5 863.8C1104.5 869 1103.25 873.95 1100.75 878.65C1098.25 883.35 1094.5 887.2 1089.5 890.2C1084.5 893.2 1078.35 894.7 1071.05 894.7Z" fill="#F9E9CC"/>
<path d="M546.2 647.7L611.3 535.5H618.8L553.7 647.7H546.2ZM531.2 598.5H537.8C538.7 598.5 539.3 598.35 539.6 598.05C540 597.65 540.2 597 540.2 596.1V549.6H531.2V545.4H535.25C538.05 545.4 540.65 544.8 543.05 543.6C545.55 542.3 547.25 540.5 548.15 538.2H556.4V596.1C556.4 597 556.55 597.65 556.85 598.05C557.25 598.35 557.9 598.5 558.8 598.5H565.4V602.1H531.2V598.5ZM603.5 641.4H613.1C614 641.4 614.6 641.25 614.9 640.95C615.3 640.55 615.5 639.9 615.5 639V627.3H593.3V622.95L620.6 581.1H631.7V623.1H642.2V627.3H631.7V639C631.7 639.9 631.85 640.55 632.15 640.95C632.55 641.25 633.2 641.4 634.1 641.4H640.7V645H603.5V641.4ZM599 623.1H615.5V597.9L599 623.1Z" fill="#F9E9CC"/>
<path d="M110.35 612.4C110.35 605.3 109.9 599.5 109 595C108.1 590.5 106.05 586.2 102.85 582.1C105.05 579.9 107 576.9 108.7 573.1C110.4 569.2 111.25 565.55 111.25 562.15C109.45 562.35 107.8 562.85 106.3 563.65C104.9 564.45 103.3 565.55 101.5 566.95C97.1 570.55 92.9 572.35 88.9 572.35C85.6 572.35 82.9 571.15 80.8 568.75C78.8 566.25 77.8 563.35 77.8 560.05C77.8 556.75 78.8 553.9 80.8 551.5C82.9 549 85.6 547.75 88.9 547.75C92.9 547.75 97.1 549.55 101.5 553.15C103.3 554.55 104.9 555.65 106.3 556.45C107.8 557.25 109.45 557.75 111.25 557.95C111.05 556.15 110.55 554.55 109.75 553.15C108.95 551.65 107.85 550 106.45 548.2C102.85 543.8 101.05 539.6 101.05 535.6C101.05 532.3 102.25 529.65 104.65 527.65C107.15 525.55 110.05 524.5 113.35 524.5C116.65 524.5 119.5 525.55 121.9 527.65C124.4 529.65 125.65 532.3 125.65 535.6C125.65 539.6 123.85 543.8 120.25 548.2C118.85 550 117.75 551.65 116.95 553.15C116.15 554.55 115.65 556.15 115.45 557.95C117.25 557.75 118.85 557.25 120.25 556.45C121.75 555.65 123.4 554.55 125.2 553.15C129.6 549.55 133.8 547.75 137.8 547.75C141.1 547.75 143.75 549 145.75 551.5C147.85 553.9 148.9 556.75 148.9 560.05C148.9 563.35 147.85 566.25 145.75 568.75C143.75 571.15 141.1 572.35 137.8 572.35C133.8 572.35 129.6 570.55 125.2 566.95C123.4 565.55 121.75 564.45 120.25 563.65C118.85 562.85 117.25 562.35 115.45 562.15C115.45 565.55 116.3 569.2 118 573.1C119.7 576.9 121.65 579.9 123.85 582.1C120.65 586.2 118.6 590.5 117.7 595C116.8 599.5 116.35 605.3 116.35 612.4V659.2H110.35V612.4Z" fill="#F9E9CC"/>
<path d="M317.1 630.8C311.9 630.8 307.4 629.4 303.6 626.6C299.8 623.8 297.9 619.25 297.9 612.95C297.9 606.35 300.3 601.25 305.1 597.65C309.9 593.95 315.9 590.85 323.1 588.35L334.2 584.45V574.25C334.2 569.15 333.1 565.45 330.9 563.15C328.7 560.85 325.95 559.7 322.65 559.7C319.95 559.7 317.6 560.35 315.6 561.65C313.6 562.85 312.6 564.55 312.6 566.75C312.6 567.35 312.75 568.1 313.05 569C313.45 569.8 314.1 570.5 315 571.1C316.5 572 317.55 572.95 318.15 573.95C318.85 574.95 319.2 576.25 319.2 577.85C319.2 580.25 318.3 582.15 316.5 583.55C314.8 584.85 312.9 585.5 310.8 585.5C308.2 585.5 305.95 584.65 304.05 582.95C302.25 581.15 301.35 578.6 301.35 575.3C301.35 571.4 302.45 568 304.65 565.1C306.85 562.2 309.65 560 313.05 558.5C316.45 556.9 320 556.1 323.7 556.1C331.7 556.1 338.3 558.3 343.5 562.7C346 560.4 348.95 558.75 352.35 557.75C355.75 556.65 359.2 556.1 362.7 556.1C368.8 556.1 374.05 558.3 378.45 562.7C382.85 567 385.75 572.7 387.15 579.8C387.85 583 388.2 588 388.2 594.8H351.6C351.6 599.6 351.7 603.4 351.9 606.2C352.1 608.9 352.55 611.55 353.25 614.15C354.15 617.85 355.85 620.8 358.35 623C360.95 625.2 363.95 626.3 367.35 626.3C372.25 626.3 376.2 624.15 379.2 619.85C382.2 615.55 384 610.5 384.6 604.7H388.5C387.9 611.6 385.65 617.7 381.75 623C377.85 628.2 372.05 630.8 364.35 630.8C359.45 630.8 354.8 629.8 350.4 627.8C346.1 625.7 342.7 622.8 340.2 619.1C337.5 622.8 334.3 625.7 330.6 627.8C327 629.8 322.5 630.8 317.1 630.8ZM370.8 590.6C370.8 580.1 370.1 572.35 368.7 567.35C367.4 562.25 364.9 559.7 361.2 559.7C357.5 559.7 354.95 562.25 353.55 567.35C352.25 572.35 351.6 580.1 351.6 590.6H370.8ZM324.6 624.8C328.5 624.8 331.7 622.9 334.2 619.1V588.65L325.8 591.5C319.4 593.7 316.2 600.45 316.2 611.75C316.2 616.65 317.1 620.05 318.9 621.95C320.7 623.85 322.6 624.8 324.6 624.8Z" fill="#F9E9CC"/>
<path d="M827.5 652.7C817.4 652.7 808.2 650.2 799.9 645.2C791.6 640.1 785.05 633.3 780.25 624.8C775.55 616.2 773.2 606.8 773.2 596.6C773.2 586.4 775.55 577.05 780.25 568.55C785.05 559.95 791.6 553.15 799.9 548.15C808.2 543.05 817.4 540.5 827.5 540.5C837.6 540.5 846.8 543.05 855.1 548.15C863.4 553.15 869.9 559.95 874.6 568.55C879.4 577.05 881.8 586.4 881.8 596.6C881.8 606.8 879.4 616.2 874.6 624.8C869.9 633.3 863.4 640.1 855.1 645.2C846.8 650.2 837.6 652.7 827.5 652.7ZM827.5 647.3C836.5 647.3 844.7 645 852.1 640.4C859.5 635.8 865.3 629.65 869.5 621.95C873.7 614.15 875.8 605.7 875.8 596.6C875.8 587.5 873.7 579.1 869.5 571.4C865.3 563.6 859.5 557.4 852.1 552.8C844.7 548.2 836.5 545.9 827.5 545.9C818.5 545.9 810.3 548.2 802.9 552.8C795.5 557.4 789.7 563.6 785.5 571.4C781.3 579.1 779.2 587.5 779.2 596.6C779.2 605.7 781.3 614.15 785.5 621.95C789.7 629.65 795.5 635.8 802.9 640.4C810.3 645 818.5 647.3 827.5 647.3ZM827.65 633.5C821.55 633.5 816.3 631.8 811.9 628.4C807.6 625 804.35 620.55 802.15 615.05C800.05 609.55 799 603.65 799 597.35C799 590.75 800.1 584.7 802.3 579.2C804.5 573.6 807.65 569.15 811.75 565.85C815.85 562.55 820.65 560.9 826.15 560.9C830.85 560.9 835.25 562.4 839.35 565.4C841.15 566.6 842.35 567.2 842.95 567.2C843.95 567.2 844.7 566.55 845.2 565.25L846.55 561.8H850.3V591.5H846.7C845.3 583.3 842.95 576.85 839.65 572.15C836.45 567.45 832.65 565.1 828.25 565.1C825.45 565.1 823.05 566.5 821.05 569.3C819.15 572.1 818.2 576.65 818.2 582.95V611.6C818.2 617.8 819.3 622.3 821.5 625.1C823.7 627.9 826.3 629.3 829.3 629.3C836.3 629.3 841.5 625.95 844.9 619.25C846.5 616.05 847.7 611.3 848.5 605H852.4C852.1 611.2 850.75 616.6 848.35 621.2C846.35 625.1 843.6 628.15 840.1 630.35C836.6 632.45 832.45 633.5 827.65 633.5Z" fill="#F9E9CC"/>
<path d="M94.7 382.5H104.3C105.2 382.5 105.8 382.35 106.1 382.05C106.5 381.65 106.7 381 106.7 380.1V368.4H84.5V364.05L111.8 322.2H122.9V364.2H133.4V368.4H122.9V380.1C122.9 381 123.05 381.65 123.35 382.05C123.75 382.35 124.4 382.5 125.3 382.5H131.9V386.1H94.7V382.5ZM90.2 364.2H106.7V339L90.2 364.2Z" fill="#F9E9CC"/>
<path d="M813.9 416.6H818.7C819.6 416.6 820.2 416.4 820.5 416C820.9 415.7 821.1 415.1 821.1 414.2V386H803.85L783.9 325.25C783.1 322.75 782.25 321 781.35 320C780.45 319 778.9 318.5 776.7 318.5H773.7V314.9H805.35V318.5H803.85C801.45 318.5 800.25 319.75 800.25 322.25C800.25 323.35 800.5 324.55 801 325.85L819.6 382.4H821.1V298.1C821.1 297.2 820.9 296.6 820.5 296.3C820.2 295.9 819.6 295.7 818.7 295.7H813.9V292.1H846.6V295.7H840.9C840 295.7 839.35 295.9 838.95 296.3C838.65 296.6 838.5 297.2 838.5 298.1V382.4H839.25L855.3 333.5C857.6 326.5 860.1 321.35 862.8 318.05C865.5 314.75 869.35 313.1 874.35 313.1C878.45 313.1 881.4 314.45 883.2 317.15C885 319.75 885.9 322.45 885.9 325.25C885.9 328.05 884.9 330.75 882.9 333.35C881 335.85 878.35 337.1 874.95 337.1C872.55 337.1 870.6 336.45 869.1 335.15C867.6 333.85 866.85 332.15 866.85 330.05C866.85 327.65 867.95 325.55 870.15 323.75C871.05 323.05 871.7 322.45 872.1 321.95C872.5 321.45 872.7 320.9 872.7 320.3C872.7 319.1 872 318.5 870.6 318.5C868.3 318.5 866.3 319.8 864.6 322.4C862.9 325 861.1 329.15 859.2 334.85L842.4 386H838.5V414.2C838.5 415.1 838.65 415.7 838.95 416C839.35 416.4 840 416.6 840.9 416.6H846.6V420.2H813.9V416.6Z" fill="#F9E9CC"/>
<path d="M355.15 881.7C350.15 881.7 345.85 880.75 342.25 878.85C338.65 876.85 335.9 874.35 334 871.35C332.2 868.35 331.3 865.25 331.3 862.05C331.3 857.55 332.65 853.7 335.35 850.5C338.05 847.2 341.4 845.55 345.4 845.55C348.4 845.55 350.85 846.45 352.75 848.25C354.75 849.95 355.75 852 355.75 854.4C355.75 856.9 355.2 858.85 354.1 860.25C353 861.65 351.35 863.05 349.15 864.45C346.45 866.15 345.1 868.15 345.1 870.45C345.1 872.65 346.1 874.3 348.1 875.4C350.1 876.4 352.5 876.9 355.3 876.9C359.1 876.9 362 875.9 364 873.9C366 871.9 367.35 868.85 368.05 864.75C368.75 860.65 369.1 854.9 369.1 847.5C369.1 841.4 368.85 836.4 368.35 832.5C367.95 828.5 366.9 825.25 365.2 822.75C363.5 820.25 360.95 819 357.55 819C354.75 819 352.6 819.4 351.1 820.2C349.7 821 347.7 822.7 345.1 825.3L341.5 822.15L369.55 787.5L368.95 786.75C367.45 787.25 366.15 787.6 365.05 787.8C363.95 788 362.5 788.1 360.7 788.1C359 788.1 357.4 787.95 355.9 787.65C354.4 787.35 352.4 786.85 349.9 786.15C347.3 785.45 345.25 784.95 343.75 784.65C342.25 784.35 340.65 784.2 338.95 784.2C332.05 784.2 328.6 789.7 328.6 800.7V879H292.3V874.2H302.8C304.2 874.2 305.15 873.95 305.65 873.45C306.15 872.85 306.4 871.9 306.4 870.6V816.9C306.4 806.8 308.65 798.2 313.15 791.1C317.75 783.9 323.45 778.5 330.25 774.9C337.15 771.3 344 769.5 350.8 769.5C354.4 769.5 358.1 769.85 361.9 770.55C366.2 771.25 370.45 771.6 374.65 771.6C377.15 771.6 379.3 771.45 381.1 771.15C382.9 770.85 384.9 770.3 387.1 769.5L388.6 771.6L354.1 814.35L354.4 814.8C356.4 814.4 358.45 814.2 360.55 814.2C367.75 814.2 373.9 815.7 379 818.7C384.2 821.6 388.1 825.6 390.7 830.7C393.3 835.7 394.6 841.3 394.6 847.5C394.6 854.2 393 860.15 389.8 865.35C386.7 870.45 382.15 874.45 376.15 877.35C370.25 880.25 363.25 881.7 355.15 881.7Z" fill="#F9E9CC"/>
<path d="M346.8 291.7C341.9 291.7 337.65 290.5 334.05 288.1C330.55 285.6 327.9 282.55 326.1 278.95C324.4 275.35 323.55 271.9 323.55 268.6H328.35C330.25 277.6 336.4 282.1 346.8 282.1C357.2 282.1 363.35 277.6 365.25 268.6H370.05C370.05 271.9 369.15 275.35 367.35 278.95C365.65 282.55 363 285.6 359.4 288.1C355.9 290.5 351.7 291.7 346.8 291.7ZM347.7 441.7C343.9 441.7 340.25 440.75 336.75 438.85C333.25 437.05 331.5 434.6 331.5 431.5C331.5 429.8 331.9 428.4 332.7 427.3C333.6 426.2 334.85 425.65 336.45 425.65C338.25 425.65 339.5 426.15 340.2 427.15C341 428.15 341.6 429.5 342 431.2C342.9 435.8 345.6 438.1 350.1 438.1C352.9 438.1 355.05 437.4 356.55 436C358.05 434.6 358.8 432.65 358.8 430.15C358.8 427.95 358.05 426.15 356.55 424.75C355.15 423.35 353 422.65 350.1 422.65H342L344.55 406H300.3V401.2H310.8C312.2 401.2 313.15 400.95 313.65 400.45C314.15 399.85 314.4 398.9 314.4 397.6V307.6C314.4 306.2 314.15 305.25 313.65 304.75C313.15 304.25 312.2 304 310.8 304H300.3V299.2H384.6L385.5 334H380.7C380.7 333.3 380.15 331.05 379.05 327.25C378.05 323.45 376.6 320 374.7 316.9C372.4 312.9 369.75 309.75 366.75 307.45C363.75 305.15 360.4 304 356.7 304H340.2C338.9 304 337.95 304.25 337.35 304.75C336.85 305.25 336.6 306.2 336.6 307.6V349H344.25C346.95 349 349.45 347.9 351.75 345.7C354.05 343.5 355.85 340.8 357.15 337.6C358.55 334.3 359.25 331.2 359.25 328.3H364.05V375.25H359.25C359.25 372.25 358.55 369.15 357.15 365.95C355.85 362.65 354.05 359.9 351.75 357.7C349.45 355.5 346.95 354.4 344.25 354.4H336.6V397.6C336.6 398.9 336.85 399.85 337.35 400.45C337.95 400.95 338.9 401.2 340.2 401.2H356.55C362.05 401.2 366.65 399 370.35 394.6C374.05 390.2 376.85 385.3 378.75 379.9C379.55 377.6 380.25 374.75 380.85 371.35C381.45 367.95 381.8 365.7 381.9 364.6H386.7L385.8 406H348.75L347.85 413.05H352.95C356.85 413.05 360.1 414.3 362.7 416.8C365.3 419.3 366.6 422.3 366.6 425.8C366.6 430.4 365.05 434.2 361.95 437.2C358.95 440.2 354.2 441.7 347.7 441.7Z" fill="#F9E9CC"/>
<path d="M823.1 864.65C817.4 864.05 812.35 862.05 807.95 858.65C803.65 855.15 800.3 850.7 797.9 845.3C795.5 839.8 794.3 833.85 794.3 827.45C794.3 820.95 795.5 815 797.9 809.6C800.3 804.1 803.7 799.65 808.1 796.25C812.5 792.75 817.5 790.75 823.1 790.25V773.9H829.1V790.25C835.1 790.85 839.7 793.15 842.9 797.15C846.1 801.15 847.7 805.55 847.7 810.35C847.7 813.05 846.9 815.5 845.3 817.7C843.7 819.9 841.5 821 838.7 821C836.5 821 834.75 820.35 833.45 819.05C832.15 817.65 831.5 815.85 831.5 813.65C831.5 811.65 832.65 809.35 834.95 806.75C836.65 804.85 837.5 803.3 837.5 802.1C837.5 800.3 836.8 798.55 835.4 796.85C834 795.15 831.9 794.15 829.1 793.85V860.3C834.1 860.3 838.1 858.15 841.1 853.85C844.1 849.55 845.9 844.5 846.5 838.7H850.4C849.8 845.1 847.8 850.85 844.4 855.95C841 861.05 835.9 863.95 829.1 864.65V881H823.1V864.65ZM823.1 794.6C816.7 797.8 813.5 808.75 813.5 827.45C813.5 832.75 813.6 836.9 813.8 839.9C814 842.8 814.45 845.55 815.15 848.15C816.35 853.25 819 856.8 823.1 858.8V794.6Z" fill="#F9E9CC"/>
<path d="M1296.65 893.7C1292.55 893.7 1289.25 892.4 1286.75 889.8C1284.25 887.3 1283 884.05 1283 880.05C1283 876.75 1284.05 873.85 1286.15 871.35C1288.25 868.85 1290.9 867.6 1294.1 867.6C1296.5 867.6 1298.45 868.3 1299.95 869.7C1301.55 871.2 1302.35 873 1302.35 875.1C1302.35 876.4 1302.05 877.6 1301.45 878.7C1300.95 879.8 1300.3 880.7 1299.5 881.4C1298.1 882.6 1297.4 883.9 1297.4 885.3C1297.4 886.2 1297.65 887 1298.15 887.7C1298.75 888.5 1299.65 888.9 1300.85 888.9C1302.55 888.9 1303.95 887.85 1305.05 885.75C1306.25 883.65 1307.35 881 1308.35 877.8L1313.3 861.3L1287.35 799.2C1285.95 795.9 1284.65 793.65 1283.45 792.45C1282.35 791.15 1280.55 790.5 1278.05 790.5H1275.8V786.9H1312.55V790.5H1308.2C1307.3 790.5 1306.45 790.85 1305.65 791.55C1304.95 792.25 1304.6 793.2 1304.6 794.4C1304.6 795.5 1304.95 796.9 1305.65 798.6L1321.1 835.65L1330.85 802.8C1331.55 800 1331.9 797.8 1331.9 796.2C1331.9 794.7 1331.5 793.4 1330.7 792.3C1329.9 791.1 1328.75 790.5 1327.25 790.5H1323.35V786.9H1348.1V790.5H1344.8C1343 790.5 1341.25 791.3 1339.55 792.9C1337.95 794.4 1336.7 796.7 1335.8 799.8L1313 875.55C1309.5 887.65 1304.05 893.7 1296.65 893.7ZM1315.85 768.45C1317.25 767.25 1318.25 765.95 1318.85 764.55C1319.55 763.15 1319.9 761.55 1319.9 759.75C1319.9 757.35 1319.2 755.35 1317.8 753.75C1316.5 752.15 1314.5 751.35 1311.8 751.35C1309.7 751.35 1307.8 751.9 1306.1 753C1304.5 754.1 1303.7 755.35 1303.7 756.75C1303.7 757.75 1303.85 758.3 1304.15 758.4C1304.55 758.5 1305 758.5 1305.5 758.4C1305.8 758.3 1306.2 758.25 1306.7 758.25C1308.8 758.25 1309.85 759.35 1309.85 761.55C1309.85 762.45 1309.4 763.25 1308.5 763.95C1307.7 764.55 1306.65 764.85 1305.35 764.85C1303.95 764.85 1302.55 764.3 1301.15 763.2C1299.75 762.1 1299.05 760.65 1299.05 758.85C1299.05 755.15 1300.35 752.35 1302.95 750.45C1305.65 748.55 1308.65 747.6 1311.95 747.6C1316.15 747.6 1319.8 748.55 1322.9 750.45C1326 752.35 1327.55 755.45 1327.55 759.75C1327.55 762.45 1326.7 764.75 1325 766.65C1323.3 768.55 1320.75 770.7 1317.35 773.1H1310.6L1315.85 768.45Z" fill="#F9E9CC"/>
<path d="M584.8 781.4C581.7 781.4 579.05 780.35 576.85 778.25C574.75 776.05 573.7 773.4 573.7 770.3C573.7 767.1 574.75 764.45 576.85 762.35C579.05 760.25 581.7 759.2 584.8 759.2C588 759.2 590.65 760.25 592.75 762.35C594.85 764.45 595.9 767.1 595.9 770.3C595.9 773.4 594.85 776.05 592.75 778.25C590.65 780.35 588 781.4 584.8 781.4ZM561.7 835.1H565L571.75 846.95C577.15 856.45 583.95 861.2 592.15 861.2C595.85 861.2 598.6 860.3 600.4 858.5C602.2 856.6 603.1 854.5 603.1 852.2C603.1 850.2 602.55 848.5 601.45 847.1C600.45 845.6 598.65 844.1 596.05 842.6C593.55 841 589.65 838.9 584.35 836.3C577.95 833.2 572.55 829.7 568.15 825.8C563.85 821.9 561.7 816.8 561.7 810.5C561.7 804.3 563.65 799.35 567.55 795.65C571.45 791.95 576.2 790.1 581.8 790.1C586.5 790.1 591.5 791.8 596.8 795.2C598.7 796.4 600.2 797 601.3 797C602.5 797 603.3 796.2 603.7 794.6L604.6 791.6H607.3V815.6H604L601.15 809.9C598.45 804.5 595.35 800.45 591.85 797.75C588.35 795.05 584.8 793.7 581.2 793.7C578.5 793.7 576.25 794.35 574.45 795.65C572.75 796.95 571.9 799.05 571.9 801.95C571.9 807.85 577.2 813.3 587.8 818.3C594.3 821.4 599.25 824.15 602.65 826.55C606.15 828.95 608.7 831.55 610.3 834.35C611.9 837.15 612.7 840.6 612.7 844.7C612.7 850.9 610.7 855.8 606.7 859.4C602.8 863 597.9 864.8 592 864.8C587 864.8 581.8 863.2 576.4 860C574 858.4 572.2 857.6 571 857.6C569.7 857.6 568.55 858 567.55 858.8C566.55 859.5 565.85 860.45 565.45 861.65L564.4 864.8H561.7V835.1ZM587.8 893.6C584.7 893.6 582.05 892.55 579.85 890.45C577.75 888.35 576.7 885.7 576.7 882.5C576.7 879.4 577.75 876.75 579.85 874.55C582.05 872.45 584.7 871.4 587.8 871.4C591 871.4 593.65 872.45 595.75 874.55C597.85 876.75 598.9 879.4 598.9 882.5C598.9 885.7 597.85 888.35 595.75 890.45C593.65 892.55 591 893.6 587.8 893.6Z" fill="#F9E9CC"/>
<path d="M583.25 389.5C581.25 389.5 579.6 388.85 578.3 387.55C577 386.25 576.35 384.65 576.35 382.75C576.35 380.25 577.1 377.8 578.6 375.4C580.5 371.9 581.45 368.45 581.45 365.05C581.45 364.15 581.35 363.55 581.15 363.25C581.05 362.95 580.75 362.8 580.25 362.8C579.75 362.8 579.05 363.1 578.15 363.7C575.65 365.6 573.3 368.2 571.1 371.5C568.3 375.6 565.4 377.65 562.4 377.65C560.5 377.65 558.85 377 557.45 375.7C556.15 374.3 555.5 372.65 555.5 370.75C555.5 368.35 556.4 366.45 558.2 365.05C560.1 363.65 562.65 362.95 565.85 362.95C570.55 362.95 574.25 362.1 576.95 360.4C577.15 360.3 577.45 360.1 577.85 359.8C578.25 359.5 578.45 359.15 578.45 358.75C578.45 358.35 578.25 358 577.85 357.7C577.45 357.4 577.15 357.2 576.95 357.1C574.25 355.4 570.55 354.55 565.85 354.55C562.65 354.55 560.1 353.85 558.2 352.45C556.4 351.05 555.5 349.15 555.5 346.75C555.5 344.85 556.15 343.25 557.45 341.95C558.85 340.55 560.5 339.85 562.4 339.85C565.4 339.85 568.3 341.9 571.1 346C573.3 349.3 575.65 351.9 578.15 353.8C579.05 354.4 579.75 354.7 580.25 354.7C580.75 354.7 581.05 354.55 581.15 354.25C581.35 353.95 581.45 353.35 581.45 352.45C581.45 349.05 580.5 345.6 578.6 342.1C577.1 339.7 576.35 337.25 576.35 334.75C576.35 332.85 577 331.25 578.3 329.95C579.6 328.65 581.25 328 583.25 328C585.25 328 586.9 328.65 588.2 329.95C589.5 331.25 590.15 332.85 590.15 334.75C590.15 337.25 589.4 339.7 587.9 342.1C586 345.6 585.05 349.05 585.05 352.45C585.05 353.35 585.1 353.95 585.2 354.25C585.4 354.55 585.75 354.7 586.25 354.7C586.75 354.7 587.45 354.4 588.35 353.8C590.85 351.9 593.2 349.3 595.4 346C598.2 341.9 601.1 339.85 604.1 339.85C606 339.85 607.6 340.55 608.9 341.95C610.3 343.25 611 344.85 611 346.75C611 349.15 610.05 351.05 608.15 352.45C606.35 353.85 603.85 354.55 600.65 354.55C595.95 354.55 592.25 355.4 589.55 357.1C589.35 357.2 589.05 357.4 588.65 357.7C588.25 358 588.05 358.35 588.05 358.75C588.05 359.15 588.25 359.5 588.65 359.8C589.05 360.1 589.35 360.3 589.55 360.4C592.25 362.1 595.95 362.95 600.65 362.95C603.85 362.95 606.35 363.65 608.15 365.05C610.05 366.45 611 368.35 611 370.75C611 372.65 610.3 374.3 608.9 375.7C607.6 377 606 377.65 604.1 377.65C601.1 377.65 598.2 375.6 595.4 371.5C593.2 368.2 590.85 365.6 588.35 363.7C587.45 363.1 586.75 362.8 586.25 362.8C585.75 362.8 585.4 362.95 585.2 363.25C585.1 363.55 585.05 364.15 585.05 365.05C585.05 368.45 586 371.9 587.9 375.4C589.4 377.8 590.15 380.25 590.15 382.75C590.15 384.65 589.5 386.25 588.2 387.55C586.9 388.85 585.25 389.5 583.25 389.5Z" fill="#F9E9CC"/>
<path d="M70.3 874.2H80.8C82.2 874.2 83.15 873.95 83.65 873.45C84.15 872.85 84.4 871.9 84.4 870.6V780.6C84.4 779.2 84.15 778.25 83.65 777.75C83.15 777.25 82.2 777 80.8 777H70.3V772.2H123.4V777H110.2C108.9 777 107.95 777.25 107.35 777.75C106.85 778.25 106.6 779.2 106.6 780.6V791.1H123.7C130.7 791.1 136.9 792.3 142.3 794.7C147.8 797 152.05 800.3 155.05 804.6C158.15 808.8 159.7 813.6 159.7 819C159.7 824.5 158.15 829.4 155.05 833.7C152.05 838 147.8 841.4 142.3 843.9C136.9 846.3 130.7 847.5 123.7 847.5H106.6V870.6C106.6 871.9 106.85 872.85 107.35 873.45C107.95 873.95 108.9 874.2 110.2 874.2H123.4V879H70.3V874.2ZM121.45 842.7C126.65 842.7 130.3 840.6 132.4 836.4C134.6 832.2 135.7 826.4 135.7 819C135.7 811.7 134.65 806.05 132.55 802.05C130.45 797.95 126.75 795.9 121.45 795.9H110.2C108.9 795.9 107.95 796.15 107.35 796.65C106.85 797.15 106.6 798.1 106.6 799.5V842.7H121.45Z" fill="#F9E9CC"/>
<path d="M225 223V981M464.75 223V981M703.989 223V981M944.25 223V981M1184 239V978.5" stroke="#7B9B9E" stroke-width="14"/>
</svg>
