<svg width="326" height="519" viewBox="0 0 326 519" fill="none" xmlns="http://www.w3.org/2000/svg">
<path d="M315.062 450.18C319.001 458.619 215.422 507.919 211.115 498.688C269.115 461.6 310.471 451.355 315.062 450.18Z" fill="#7B9B9E" stroke="#A33631" stroke-width="5"/>
<path d="M108.187 12.8874L311.358 448.259C270.125 462.283 246.821 472.931 212 494.568L8.82673 59.1935C9.55308 57.9152 10.8328 56.2897 12.8216 54.3525C15.4754 51.7675 19.0693 48.9343 23.3973 45.9798C32.0446 40.0767 43.2917 33.913 54.9757 28.5002C66.6584 23.088 78.6432 18.4889 88.7396 15.6665C93.7928 14.2539 98.2815 13.3123 101.971 12.9164C104.699 12.6238 106.749 12.6583 108.187 12.8874Z" fill="#7B9B9E" stroke="#A33631" stroke-width="8"/>
<rect x="287.254" y="486.285" width="33.7723" height="19.2153" rx="7" transform="rotate(154.983 287.254 486.285)" fill="#A33631"/>
<path d="M245.025 299.409C211.467 307.359 168.48 326.777 140.286 348.287" stroke="#A33631" stroke-width="8"/>
<path d="M187.828 274.31L186.348 271.139C186.151 270.716 185.941 270.464 185.72 270.384C185.468 270.317 185.146 270.376 184.753 270.559L157.568 283.245C157.145 283.443 156.893 283.652 156.812 283.874C156.732 284.095 156.79 284.417 156.988 284.84L158.468 288.012L157.018 288.688L145.135 263.225L155.52 258.047L156.196 259.497C155.985 259.596 155.383 260.079 154.39 260.947C153.383 261.785 152.545 262.709 151.877 263.72C150.993 264.979 150.415 266.223 150.143 267.454C149.871 268.684 149.996 269.858 150.518 270.976L152.843 275.96C153.027 276.352 153.236 276.604 153.472 276.715C153.693 276.795 154.015 276.737 154.438 276.54L166.944 270.704L165.865 268.393C165.485 267.577 164.8 266.977 163.811 266.593C162.822 266.208 161.753 266.045 160.603 266.103C159.409 266.146 158.374 266.371 157.498 266.78L156.822 265.33L171.003 258.712L171.68 260.162C170.774 260.585 169.936 261.233 169.167 262.107C168.353 262.965 167.776 263.896 167.436 264.901C167.096 265.906 167.116 266.816 167.496 267.632L168.575 269.943L181.624 263.853C182.016 263.67 182.268 263.46 182.379 263.225C182.445 262.973 182.387 262.651 182.204 262.258L179.899 257.319C179.124 255.658 177.811 254.579 175.96 254.081C174.11 253.584 172.235 253.429 170.336 253.616C169.528 253.699 168.569 253.889 167.457 254.187C166.346 254.485 165.617 254.697 165.27 254.821L164.594 253.371L177.226 247.808L189.278 273.634L187.828 274.31ZM147.956 246.214L148.041 246.395L165.303 238.34C166.693 237.691 167.579 236.634 167.962 235.168C168.33 233.672 168.127 232.093 167.351 230.432L168.801 229.755L174.975 242.985L173.526 243.662C172.75 242.001 171.678 240.846 170.309 240.197C168.925 239.519 167.539 239.504 166.149 240.152L146.802 249.18C146.47 249.336 146.242 249.479 146.12 249.609C145.997 249.74 145.834 249.982 145.63 250.334L143.757 253.415C143.445 253.929 143.298 254.402 143.316 254.835C143.304 255.282 143.46 255.853 143.785 256.548L144.165 257.363L142.715 258.04L138.021 247.981L151.962 223.819L137.417 230.607C136.028 231.255 135.149 232.327 134.78 233.824C134.398 235.29 134.594 236.853 135.369 238.515L133.919 239.191L127.745 225.961L129.195 225.284C129.97 226.946 131.05 228.116 132.433 228.794C133.803 229.443 135.182 229.443 136.571 228.794L163.485 216.235L164.289 217.956L147.956 246.214ZM157.082 208.426L155.602 205.255C155.405 204.832 155.196 204.58 154.974 204.499C154.722 204.433 154.4 204.491 154.007 204.675L126.822 217.361C126.399 217.558 126.147 217.768 126.067 217.989C125.986 218.211 126.045 218.533 126.242 218.956L127.722 222.128L126.272 222.804L114.389 197.34L124.774 192.163L125.451 193.613C125.239 193.712 124.637 194.195 123.644 195.063C122.637 195.901 121.8 196.825 121.131 197.836C120.247 199.094 119.669 200.339 119.397 201.569C119.125 202.8 119.25 203.974 119.772 205.091L122.098 210.075C122.281 210.468 122.49 210.72 122.726 210.83C122.947 210.911 123.27 210.853 123.693 210.655L136.198 204.82L135.12 202.509C134.739 201.693 134.054 201.093 133.066 200.708C132.077 200.324 131.008 200.161 129.858 200.219C128.664 200.261 127.628 200.487 126.752 200.896L126.076 199.446L140.258 192.828L140.934 194.278C140.028 194.7 139.19 195.349 138.421 196.223C137.608 197.081 137.031 198.012 136.69 199.017C136.35 200.022 136.37 200.932 136.751 201.748L137.829 204.058L150.878 197.969C151.271 197.786 151.522 197.576 151.633 197.341C151.7 197.089 151.641 196.767 151.458 196.374L149.153 191.435C148.378 189.774 147.065 188.695 145.214 188.197C143.364 187.7 141.489 187.545 139.59 187.732C138.783 187.814 137.823 188.005 136.711 188.303C135.6 188.601 134.871 188.812 134.525 188.937L133.848 187.487L146.48 181.923L158.532 207.75L157.082 208.426ZM133.751 151.809C134.654 153.743 134.799 155.551 134.186 157.234C133.56 158.888 132.129 160.236 129.894 161.279L124.276 163.901C122.826 164.578 121.772 165.511 121.113 166.701C120.44 167.861 120.45 169.181 121.14 170.661L122.324 173.198L136.28 166.686C136.672 166.503 136.924 166.293 137.035 166.058C137.101 165.806 137.043 165.484 136.86 165.091L134.999 161.104L136.449 160.427L143.934 176.467L142.484 177.143L141.004 173.972C140.806 173.549 140.597 173.297 140.375 173.217C140.124 173.15 139.802 173.209 139.409 173.392L112.223 186.078C111.8 186.276 111.549 186.485 111.468 186.707C111.388 186.928 111.446 187.25 111.643 187.673L113.123 190.845L111.674 191.521L104.823 176.841C103.301 173.579 102.799 170.613 103.319 167.942C103.808 165.286 105.276 163.387 107.723 162.246C109.807 161.273 111.813 161.275 113.74 162.252C115.653 163.198 117.345 164.854 118.817 167.221L119.135 167.073C118.458 164.519 118.458 162.312 119.135 160.451C119.781 158.605 121.433 157.061 124.091 155.821L129.121 153.474C130.389 152.882 130.826 152.163 130.432 151.317C130.065 150.532 129.148 150.261 127.68 150.505C126.212 150.748 124.542 151.307 122.669 152.181L121.992 150.731C124.922 149.364 127.386 148.692 129.384 148.716C131.351 148.755 132.807 149.786 133.751 151.809ZM119.458 170.839C118.711 169.238 117.6 168.396 116.126 168.311C114.652 168.226 112.858 168.677 110.743 169.664C108.689 170.623 107.297 171.659 106.566 172.772C105.835 173.886 105.843 175.243 106.59 176.844L107.499 178.792C107.682 179.185 107.892 179.437 108.127 179.548C108.349 179.628 108.671 179.57 109.094 179.372L120.874 173.875L119.458 170.839ZM123.215 129.94C124.413 132.508 124.693 135.117 124.054 137.77C123.402 140.391 122.032 142.815 119.943 145.04C117.825 147.279 115.24 149.111 112.189 150.535C109.169 151.944 106.092 152.681 102.958 152.746C99.825 152.81 97.0088 152.175 94.5098 150.84C92.0107 149.505 90.1551 147.538 88.9428 144.94C88.3367 143.641 88.0115 142.432 87.9672 141.313C87.8786 140.177 87.943 138.896 88.1605 137.47C88.2894 136.564 88.2763 135.945 88.1212 135.613C87.938 135.22 87.496 135.022 86.7952 135.018L84.7593 135.03L84.0615 133.535L97.1106 127.445L97.7661 128.85C94.4232 131.697 92.1125 134.431 90.8337 137.051C89.5107 139.654 89.3637 142.059 90.3927 144.264C91.2526 146.106 92.6018 147.224 94.4403 147.617C96.2346 147.993 98.6873 147.456 101.799 146.004L115.391 139.66C121.191 136.954 123.315 133.939 121.765 130.617C121.032 129.046 119.768 128.072 117.974 127.696C116.18 127.319 114.392 127.547 112.609 128.378L106.402 131.275C105.979 131.473 105.727 131.682 105.647 131.903C105.566 132.125 105.625 132.447 105.822 132.87L107.683 136.857L106.233 137.534L99.213 122.491L100.663 121.815L101.678 123.989C101.861 124.382 102.07 124.634 102.306 124.745C102.528 124.825 102.85 124.767 103.273 124.569L117.364 117.994L118.04 119.443L114.425 122.455C114.165 122.687 113.972 122.942 113.845 123.222C113.688 123.516 113.673 123.799 113.799 124.071C114.053 124.615 114.589 124.935 115.406 125.032C116.907 125.251 118.407 125.746 119.907 126.518C121.407 127.289 122.51 128.43 123.215 129.94ZM75.1445 121.048L67.01 119.933C66.3112 119.854 65.7715 119.683 65.3909 119.419C65.0103 119.156 64.7214 118.812 64.524 118.389C64.2703 117.846 64.225 117.315 64.3881 116.798C64.5512 116.28 64.9046 115.894 65.4483 115.641C66.2639 115.26 67.1862 115.345 68.2152 115.894L75.5372 119.761L75.1445 121.048ZM111.821 111.436L110.341 108.264C110.143 107.842 109.934 107.59 109.712 107.509C109.461 107.443 109.138 107.501 108.746 107.685L81.5603 120.371C81.1374 120.568 80.8857 120.778 80.8051 120.999C80.7246 121.221 80.783 121.543 80.9803 121.966L82.4604 125.138L81.0105 125.814L73.9061 110.59L75.356 109.914L76.8361 113.085C77.0193 113.478 77.2287 113.73 77.4643 113.84C77.6858 113.921 78.008 113.863 78.4309 113.665L105.616 100.979C106.009 100.796 106.261 100.586 106.372 100.35C106.438 100.099 106.38 99.7765 106.196 99.3839L104.716 96.2122L106.166 95.5356L113.271 110.76L111.821 111.436ZM102.889 92.2962L102.17 90.7556C101.747 89.8495 101.026 89.2111 100.007 88.8406C98.9581 88.4841 97.8354 88.3643 96.6392 88.4811L64.222 91.9668L63.334 90.0638L88.1242 66.6874C89.4251 65.455 89.7795 64.2044 89.1875 62.9358L88.3417 61.1234L89.7916 60.4468L97.2132 76.3503L95.7633 77.027L94.2409 73.7647C94.0718 73.4022 93.8019 73.1787 93.4314 73.0941C93.0166 72.9934 92.6128 73.0347 92.2201 73.2179C91.8879 73.373 91.4922 73.668 91.033 74.103L87.36 77.5827L91.8002 87.0977L95.0081 86.7594C96.0089 86.6969 96.8567 86.5036 97.5515 86.1794C98.0952 85.9257 98.4798 85.4887 98.7053 84.8685C98.8866 84.2321 98.8151 83.5666 98.4909 82.8718L97.4971 80.7423L98.947 80.0657L104.339 91.6195L102.889 92.2962ZM89.8489 87.291L85.9372 78.9088L75.4013 88.8465L89.8489 87.291Z" fill="#A33631"/>
<path d="M232.694 408.614L225.676 393.576M218.658 378.537L225.676 393.576M225.676 393.576L241.506 386.188M225.676 393.576L210.902 400.47" stroke="#A33631" stroke-width="8"/>
<path d="M300.252 463.191C281.503 467.764 249.632 480.709 234.805 494.375" stroke="#A33631" stroke-width="5"/>
</svg>
