<svg width="570" height="834" viewBox="0 0 570 834" fill="none" xmlns="http://www.w3.org/2000/svg">
<path d="M138.84 643.176H144.312C144.882 643.176 145.281 643.062 145.509 642.834C145.775 642.606 145.908 642.226 145.908 641.694V613.707H138.84V611.655H141.975C144.027 611.655 145.68 611.104 146.934 610.002C148.226 608.9 149.024 607.57 149.328 606.012H151.152V641.694C151.152 642.226 151.266 642.606 151.494 642.834C151.76 643.062 152.178 643.176 152.748 643.176H158.22V645H138.84V643.176Z" fill="#F9E9CC"/>
<path d="M187.129 474.581C186.684 473.881 185.757 473.675 185.058 474.119L173.664 481.359C172.964 481.803 172.758 482.73 173.202 483.429C173.646 484.128 174.573 484.335 175.272 483.891L185.401 477.456L191.836 487.584C192.28 488.283 193.207 488.49 193.907 488.046C194.606 487.601 194.813 486.674 194.368 485.975L187.129 474.581ZM163.585 582.193L187.327 475.711L184.398 475.059L160.657 581.54L163.585 582.193Z" fill="#A33631"/>
<path d="M208.188 375.711C207.736 375.037 206.8 374.873 206.099 375.344L194.672 383.02C193.971 383.491 193.77 384.42 194.222 385.093C194.675 385.767 195.61 385.932 196.312 385.461L206.469 378.637L213.026 388.398C213.479 389.072 214.414 389.237 215.115 388.765C215.817 388.294 216.018 387.366 215.565 386.692L208.188 375.711ZM178.743 513.431L208.396 376.824L205.441 376.305L175.788 512.912L178.743 513.431Z" fill="#A33631"/>
<path d="M177.769 589.647C196.744 605.201 199.44 633.391 183.676 652.623C167.912 671.855 139.742 674.745 120.766 659.192C101.791 643.639 99.0951 615.449 114.859 596.216C130.623 576.984 158.794 574.094 177.769 589.647Z" stroke="#7B9B9E" stroke-width="8"/>
<path d="M331.189 539.273C332 539.444 332.796 538.925 332.967 538.115L335.755 524.906C335.927 524.095 335.408 523.3 334.598 523.128C333.787 522.957 332.991 523.476 332.82 524.286L330.341 536.027L318.6 533.549C317.79 533.377 316.994 533.896 316.823 534.706C316.652 535.517 317.17 536.313 317.98 536.484L331.189 539.273ZM217.165 365.022L330.242 538.624L332.756 536.986L219.679 363.384L217.165 365.022Z" fill="#A33631"/>
<path d="M417.345 656.671C418.164 656.797 418.93 656.236 419.056 655.417L421.109 642.074C421.235 641.255 420.673 640.489 419.855 640.363C419.036 640.237 418.27 640.799 418.144 641.618L416.319 653.478L404.458 651.653C403.639 651.527 402.874 652.088 402.748 652.907C402.622 653.726 403.183 654.492 404.002 654.618L417.345 656.671ZM330.29 538.692L416.363 656.076L418.783 654.302L332.71 536.918L330.29 538.692Z" fill="#A33631"/>
<path d="M487.717 495.192C487.32 494.465 486.409 494.197 485.682 494.595L473.835 501.068C473.108 501.466 472.841 502.377 473.238 503.104C473.635 503.831 474.547 504.098 475.274 503.701L485.804 497.947L491.559 508.477C491.956 509.204 492.867 509.471 493.594 509.074C494.321 508.676 494.588 507.765 494.191 507.038L487.717 495.192ZM438.541 664.438L487.84 496.333L484.962 495.489L435.662 663.594L438.541 664.438Z" fill="#A33631"/>
<path d="M523.878 365.052C523.47 364.331 522.555 364.077 521.834 364.484L510.08 371.125C509.359 371.533 509.104 372.448 509.512 373.169C509.919 373.89 510.834 374.144 511.556 373.737L522.003 367.834L527.906 378.282C528.314 379.003 529.229 379.257 529.95 378.85C530.672 378.442 530.926 377.527 530.518 376.806L523.878 365.052ZM487.85 496.31L524.017 366.192L521.126 365.388L484.959 495.507L487.85 496.31Z" fill="#A33631"/>
<path d="M433.3 196.417C432.5 196.268 431.726 196.818 431.571 197.647L429.042 211.153C428.887 211.982 429.409 212.775 430.208 212.925C431.008 213.075 431.782 212.524 431.937 211.695L434.185 199.69L445.766 201.858C446.565 202.008 447.339 201.457 447.494 200.629C447.649 199.8 447.127 199.007 446.328 198.857L433.3 196.417ZM520.672 328.319L434.241 197.048L431.796 198.787L518.227 330.057L520.672 328.319Z" fill="#A33631"/>
<path d="M374.375 107.531C373.564 107.363 372.77 107.885 372.603 108.697L369.873 121.918C369.705 122.729 370.227 123.523 371.039 123.69C371.85 123.858 372.643 123.336 372.811 122.524L375.237 110.772L386.989 113.199C387.801 113.366 388.594 112.844 388.762 112.033C388.929 111.222 388.407 110.428 387.596 110.261L374.375 107.531ZM438.394 204.064L375.325 108.176L372.818 109.824L435.887 205.712L438.394 204.064Z" fill="#A33631"/>
<ellipse cx="527.069" cy="336.612" rx="25.9637" ry="25.5959" transform="rotate(-50.66 527.069 336.612)" fill="#7B9B9E"/>
<ellipse cx="432.107" cy="673.851" rx="20.771" ry="19.7368" transform="rotate(-50.66 432.107 673.851)" fill="#7B9B9E"/>
<ellipse cx="212.257" cy="357.22" rx="17.8037" ry="18.0642" transform="rotate(-50.66 212.257 357.22)" fill="#7B9B9E"/>
<ellipse cx="346.543" cy="66.3899" rx="46.6814" ry="47.7767" transform="rotate(-50.66 346.543 66.3899)" fill="#7B9B9E"/>
<path d="M346.017 85.912C343.775 85.912 341.685 85.475 339.747 84.601C337.847 83.727 336.308 82.473 335.13 80.839C333.99 79.205 333.42 77.286 333.42 75.082C333.42 72.308 334.199 70.142 335.757 68.584C337.315 67.026 338.968 66 340.716 65.506V65.278L340.089 64.993C338.075 64.157 336.536 62.922 335.472 61.288C334.408 59.654 333.876 57.754 333.876 55.588C333.876 53.612 334.484 51.826 335.7 50.23C336.916 48.596 338.493 47.342 340.431 46.468C342.369 45.556 344.383 45.1 346.473 45.1C349.057 45.1 351.242 45.575 353.028 46.525C354.852 47.437 356.22 48.653 357.132 50.173C358.044 51.655 358.5 53.232 358.5 54.904C358.5 56.956 357.835 58.742 356.505 60.262C355.213 61.744 353.693 62.884 351.945 63.682V63.91L353.256 64.423C357.74 66.247 359.982 69.116 359.982 73.03C359.982 75.386 359.431 77.552 358.329 79.528C357.265 81.466 355.669 83.024 353.541 84.202C351.451 85.342 348.943 85.912 346.017 85.912ZM350.292 63.283C351.964 62.371 353.142 61.25 353.826 59.92C354.51 58.59 354.852 57.032 354.852 55.246C354.852 53.688 354.472 52.282 353.712 51.028C352.952 49.736 351.926 48.729 350.634 48.007C349.38 47.285 347.993 46.924 346.473 46.924C344.117 46.924 342.122 47.589 340.488 48.919C338.892 50.249 338.094 52.016 338.094 54.22C338.094 55.816 338.474 57.089 339.234 58.039C340.032 58.989 341.267 59.806 342.939 60.49L350.292 63.283ZM346.644 84.088C348.734 84.088 350.444 83.651 351.774 82.777C353.104 81.903 354.054 80.858 354.624 79.642C355.232 78.388 355.536 77.21 355.536 76.108C355.536 73.98 355.061 72.403 354.111 71.377C353.199 70.351 351.85 69.477 350.064 68.755L342.369 65.962C340.811 66.608 339.595 67.634 338.721 69.04C337.847 70.446 337.41 72.498 337.41 75.196C337.41 78.236 338.322 80.478 340.146 81.922C342.008 83.366 344.174 84.088 346.644 84.088Z" fill="#F9E9CC"/>
<path d="M525.115 352.72C522.985 352.72 521.26 352 519.94 350.56C519.49 350.02 519.16 349.42 518.95 348.76C518.77 348.1 518.68 347.515 518.68 347.005C518.68 345.955 519.055 345.1 519.805 344.44C520.345 343.99 520.96 343.765 521.65 343.765C522.34 343.765 522.88 344.035 523.27 344.575C523.42 344.785 523.51 344.98 523.54 345.16C523.6 345.34 523.63 345.58 523.63 345.88C523.63 346.33 523.435 346.78 523.045 347.23C522.775 347.53 522.49 347.785 522.19 347.995C521.92 348.175 521.725 348.37 521.605 348.58C521.515 348.76 521.47 348.985 521.47 349.255C521.47 349.795 521.77 350.275 522.37 350.695C523 351.085 523.945 351.28 525.205 351.28C526.285 351.28 527.305 350.965 528.265 350.335C529.255 349.705 530.08 348.655 530.74 347.185C531.25 346.075 531.64 344.68 531.91 343C532.18 341.29 532.315 339.88 532.315 338.77V336.745L532 336.61C531.46 337.75 530.62 338.695 529.48 339.445C528.37 340.165 527.29 340.525 526.24 340.525C524.23 340.525 522.535 340.03 521.155 339.04C519.985 338.2 519.085 337.075 518.455 335.665C517.825 334.225 517.51 332.695 517.51 331.075C517.51 329.455 517.87 327.835 518.59 326.215C519.31 324.565 520.36 323.2 521.74 322.12C523.15 321.04 524.8 320.5 526.69 320.5C528.64 320.5 530.35 321.1 531.82 322.3C533.32 323.5 534.475 325.225 535.285 327.475C536.095 329.695 536.5 332.32 536.5 335.35C536.5 337.81 536.185 340.225 535.555 342.595C534.925 344.965 534.01 346.93 532.81 348.49C530.62 351.31 528.055 352.72 525.115 352.72ZM526.15 338.86C527.2 338.86 528.145 338.515 528.985 337.825C529.825 337.135 530.485 336.16 530.965 334.9C531.475 333.61 531.73 332.14 531.73 330.49C531.73 328 531.34 325.96 530.56 324.37C529.78 322.75 528.49 321.94 526.69 321.94C524.86 321.94 523.525 322.81 522.685 324.55C521.875 326.29 521.47 328.27 521.47 330.49C521.47 332.89 521.83 334.885 522.55 336.475C523.27 338.065 524.47 338.86 526.15 338.86Z" fill="#F9E9CC"/>
<path d="M430.645 687.56C428.988 687.56 427.647 687 426.62 685.88C426.27 685.46 426.013 684.993 425.85 684.48C425.71 683.967 425.64 683.512 425.64 683.115C425.64 682.298 425.932 681.633 426.515 681.12C426.935 680.77 427.413 680.595 427.95 680.595C428.487 680.595 428.907 680.805 429.21 681.225C429.327 681.388 429.397 681.54 429.42 681.68C429.467 681.82 429.49 682.007 429.49 682.24C429.49 682.59 429.338 682.94 429.035 683.29C428.825 683.523 428.603 683.722 428.37 683.885C428.16 684.025 428.008 684.177 427.915 684.34C427.845 684.48 427.81 684.655 427.81 684.865C427.81 685.285 428.043 685.658 428.51 685.985C429 686.288 429.735 686.44 430.715 686.44C431.555 686.44 432.348 686.195 433.095 685.705C433.865 685.215 434.507 684.398 435.02 683.255C435.417 682.392 435.72 681.307 435.93 680C436.14 678.67 436.245 677.573 436.245 676.71V675.135L436 675.03C435.58 675.917 434.927 676.652 434.04 677.235C433.177 677.795 432.337 678.075 431.52 678.075C429.957 678.075 428.638 677.69 427.565 676.92C426.655 676.267 425.955 675.392 425.465 674.295C424.975 673.175 424.73 671.985 424.73 670.725C424.73 669.465 425.01 668.205 425.57 666.945C426.13 665.662 426.947 664.6 428.02 663.76C429.117 662.92 430.4 662.5 431.87 662.5C433.387 662.5 434.717 662.967 435.86 663.9C437.027 664.833 437.925 666.175 438.555 667.925C439.185 669.652 439.5 671.693 439.5 674.05C439.5 675.963 439.255 677.842 438.765 679.685C438.275 681.528 437.563 683.057 436.63 684.27C434.927 686.463 432.932 687.56 430.645 687.56ZM431.45 676.78C432.267 676.78 433.002 676.512 433.655 675.975C434.308 675.438 434.822 674.68 435.195 673.7C435.592 672.697 435.79 671.553 435.79 670.27C435.79 668.333 435.487 666.747 434.88 665.51C434.273 664.25 433.27 663.62 431.87 663.62C430.447 663.62 429.408 664.297 428.755 665.65C428.125 667.003 427.81 668.543 427.81 670.27C427.81 672.137 428.09 673.688 428.65 674.925C429.21 676.162 430.143 676.78 431.45 676.78Z" fill="#F9E9CC"/>
<path d="M211.41 367.48C209.99 367.48 208.84 367 207.96 366.04C207.66 365.68 207.44 365.28 207.3 364.84C207.18 364.4 207.12 364.01 207.12 363.67C207.12 362.97 207.37 362.4 207.87 361.96C208.23 361.66 208.64 361.51 209.1 361.51C209.56 361.51 209.92 361.69 210.18 362.05C210.28 362.19 210.34 362.32 210.36 362.44C210.4 362.56 210.42 362.72 210.42 362.92C210.42 363.22 210.29 363.52 210.03 363.82C209.85 364.02 209.66 364.19 209.46 364.33C209.28 364.45 209.15 364.58 209.07 364.72C209.01 364.84 208.98 364.99 208.98 365.17C208.98 365.53 209.18 365.85 209.58 366.13C210 366.39 210.63 366.52 211.47 366.52C212.19 366.52 212.87 366.31 213.51 365.89C214.17 365.47 214.72 364.77 215.16 363.79C215.5 363.05 215.76 362.12 215.94 361C216.12 359.86 216.21 358.92 216.21 358.18V356.83L216 356.74C215.64 357.5 215.08 358.13 214.32 358.63C213.58 359.11 212.86 359.35 212.16 359.35C210.82 359.35 209.69 359.02 208.77 358.36C207.99 357.8 207.39 357.05 206.97 356.11C206.55 355.15 206.34 354.13 206.34 353.05C206.34 351.97 206.58 350.89 207.06 349.81C207.54 348.71 208.24 347.8 209.16 347.08C210.1 346.36 211.2 346 212.46 346C213.76 346 214.9 346.4 215.88 347.2C216.88 348 217.65 349.15 218.19 350.65C218.73 352.13 219 353.88 219 355.9C219 357.54 218.79 359.15 218.37 360.73C217.95 362.31 217.34 363.62 216.54 364.66C215.08 366.54 213.37 367.48 211.41 367.48ZM212.1 358.24C212.8 358.24 213.43 358.01 213.99 357.55C214.55 357.09 214.99 356.44 215.31 355.6C215.65 354.74 215.82 353.76 215.82 352.66C215.82 351 215.56 349.64 215.04 348.58C214.52 347.5 213.66 346.96 212.46 346.96C211.24 346.96 210.35 347.54 209.79 348.7C209.25 349.86 208.98 351.18 208.98 352.66C208.98 354.26 209.22 355.59 209.7 356.65C210.18 357.71 210.98 358.24 212.1 358.24Z" fill="#F9E9CC"/>
</svg>
