<svg width="1440" height="1945" viewBox="0 0 1440 1945" fill="none" xmlns="http://www.w3.org/2000/svg">
<path d="M1031.94 1572.53L146.439 1276.53L505.939 190.534L1383.44 476.027M1031.94 1572.53L1383.44 476.027M1031.94 1572.53L1594.5 1750.5L1927.44 653.027L1383.44 476.027" stroke="#A33631" stroke-width="14"/>
<path d="M729.656 999.639C724.034 997.786 719.373 994.564 715.674 989.975C712.025 985.234 709.693 979.832 708.678 973.769C707.865 967.605 708.495 961.41 710.569 955.187C712.642 948.963 715.83 943.697 720.133 939.387C724.638 934.976 729.752 932.029 735.474 930.547C741.247 928.912 746.944 929.022 752.566 930.876C758.189 932.729 762.824 936.027 766.472 940.768C770.171 945.357 772.427 950.734 773.241 956.898C774.256 962.961 773.727 969.105 771.654 975.328C769.58 981.552 766.291 986.869 761.785 991.28C757.483 995.59 752.445 998.562 746.672 1000.2C740.95 1001.68 735.278 1001.49 729.656 999.639ZM731.021 995.541C734.82 996.794 738.162 995.116 741.046 990.507C744.083 985.949 747.296 978.584 750.684 968.414C754.073 958.244 755.918 950.428 756.219 944.968C756.672 939.558 755 936.227 751.201 934.974C747.25 933.671 743.832 935.324 740.948 939.933C738.114 944.389 734.977 951.779 731.538 962.101C728.099 972.423 726.153 980.289 725.699 985.699C725.297 990.958 727.071 994.238 731.021 995.541ZM694.865 1002.32L697.293 995.033L758.378 1015.17L755.95 1022.46L694.865 1002.32Z" fill="#7B9B9E"/>
<path d="M317.588 1185.89C309.764 1183.06 305.336 1178.39 304.304 1171.89C303.327 1165.24 304.624 1157.04 308.194 1147.27L314.062 1149.39C311.865 1155.4 310.599 1160.73 310.265 1165.37C309.931 1170.02 311.193 1172.85 314.052 1173.89C317.362 1175.09 319.759 1173.66 321.242 1169.6L326.597 1154.95C330.277 1144.88 335.581 1138.29 342.509 1135.18C349.492 1131.92 356.971 1131.73 364.945 1134.62L378.261 1139.43L363.152 1090.58C362.417 1087.93 361.584 1086.02 360.655 1084.83C359.877 1083.7 358.585 1082.81 356.779 1082.15L352.717 1080.68L354.694 1075.27L469.57 1116.82L467.593 1122.23L463.531 1120.76C461.725 1120.11 460.083 1119.94 458.605 1120.26C457.127 1120.58 455.251 1121.51 452.977 1123.07L409.857 1150.86L424.527 1156.17C432.502 1159.05 438.113 1163.98 441.361 1170.94C444.664 1177.74 444.476 1186.18 440.796 1196.25L435.441 1210.9C433.958 1214.96 434.871 1217.59 438.182 1218.79C441.04 1219.82 443.84 1218.45 446.582 1214.68C449.324 1210.91 451.793 1206.01 453.99 1200L459.858 1202.13C456.288 1211.89 451.982 1219.01 446.941 1223.49C441.954 1227.81 435.549 1228.55 427.725 1225.72C420.352 1223.06 415.171 1219.06 412.181 1213.72C409.245 1208.23 409.123 1201.81 411.815 1194.45L418.323 1176.64C419.861 1172.43 420.091 1168.77 419.014 1165.66C417.992 1162.4 415.976 1160.22 412.967 1159.13L405.519 1156.44L390.031 1198.82C389.536 1200.17 389.405 1201.23 389.637 1201.99C390.074 1202.66 390.969 1203.24 392.324 1203.73L399.546 1206.34L397.568 1211.75L348.368 1193.96L350.345 1188.55L358.921 1191.65C360.276 1192.14 361.261 1192.24 361.877 1191.95C362.698 1191.57 363.356 1190.7 363.851 1189.35L379.339 1146.97L371.892 1144.28C368.882 1143.19 365.933 1143.57 363.043 1145.41C360.208 1147.11 358.022 1150.06 356.484 1154.27L349.976 1172.08C347.284 1179.44 343.043 1184.29 337.252 1186.62C331.515 1188.8 324.961 1188.55 317.588 1185.89ZM407.547 1143.9L451.118 1116.27L393.341 1095.38L407.547 1143.9Z" fill="#7B9B9E"/>
<path d="M819.733 1347.24L828.337 1350.26C829.695 1350.74 830.681 1350.83 831.295 1350.54C832.113 1350.15 832.763 1349.27 833.245 1347.92L864.257 1260.62C865.543 1257 863.997 1254.42 859.62 1252.88C855.393 1251.4 851.386 1251.69 847.598 1253.75C843.863 1255.65 840.211 1258.53 836.642 1262.36C832.869 1266.29 829.596 1270.48 826.826 1274.94C824.055 1279.39 822.509 1282.07 822.188 1282.97L816.301 1280.9L833.246 1237.51L868.114 1249.77L871.488 1240.27C873.738 1233.93 875.279 1228.88 876.112 1225.1C877.095 1221.38 877.297 1217.46 876.718 1213.36C876.29 1209.31 874.649 1205.08 871.795 1200.69L875.571 1197.95C880.387 1203.03 883.837 1209.33 885.921 1216.85C888.005 1224.36 888.428 1231.3 887.191 1237.65C890.239 1231.93 894.948 1226.81 901.317 1222.26C907.686 1217.72 914.349 1214.97 921.307 1214.03L922.512 1218.52C917.667 1220.21 913.723 1222.47 910.68 1225.3C907.637 1228.13 905.246 1231.27 903.508 1234.73C901.92 1238.25 900.002 1243.17 897.752 1249.5L894.378 1259L931.963 1272.21L917.735 1316.56L911.848 1314.49C912.169 1313.59 912.659 1310.54 913.316 1305.34C913.973 1300.15 914.076 1294.84 913.623 1289.42C913.267 1284.21 912.24 1279.7 910.541 1275.88C908.895 1271.9 905.959 1269.18 901.733 1267.69L899.016 1266.74C894.638 1265.2 891.807 1266.24 890.521 1269.85L877.024 1307.85L898.76 1315.49C908.118 1318.78 914.901 1324.3 919.107 1332.06C923.314 1339.81 923.972 1347.76 921.079 1355.9C919.151 1361.33 915.95 1365.8 911.475 1369.31C907.204 1372.73 902.097 1374.92 896.152 1375.88C890.26 1376.7 884.22 1376.01 878.031 1373.84L817.805 1352.66L819.733 1347.24ZM870.45 1365.07C875.129 1366.71 879.48 1365.7 883.502 1362.02C887.675 1358.4 890.993 1353.12 893.457 1346.19C895.921 1339.25 896.722 1333.18 895.86 1327.95C894.998 1322.73 892.152 1319.27 887.322 1317.57L875.096 1313.28L859.509 1357.15C859.027 1358.51 858.905 1359.57 859.144 1360.33C859.587 1360.99 860.488 1361.56 861.846 1362.04L870.45 1365.07Z" fill="#7B9B9E"/>
<path d="M559.814 1306.52L717.589 1171.23L728.927 1175.16L571.152 1310.45L559.814 1306.52ZM579.587 1239.21C570.668 1236.11 563.922 1231.66 559.349 1225.84C554.829 1219.87 553.707 1213.64 555.982 1207.14C557.305 1203.37 559.878 1200.62 563.703 1198.9C567.58 1197.02 571.711 1196.85 576.095 1198.37C579.723 1199.63 582.304 1201.45 583.839 1203.85C585.373 1206.24 585.691 1208.72 584.791 1211.29C583.31 1215.52 579.908 1217.73 574.587 1217.91C573.37 1218 572.176 1218.26 571.005 1218.7C569.984 1219.19 569.315 1219.89 568.998 1220.8C568.151 1223.22 568.775 1225.55 570.868 1227.8C572.962 1230.05 576.277 1231.96 580.812 1233.53C586.103 1235.37 590.694 1234.84 594.587 1231.96C598.684 1228.98 602.108 1223.56 604.859 1215.71C607.398 1208.46 607.841 1202.6 606.185 1198.13C604.53 1193.66 601.586 1190.7 597.353 1189.23L582.161 1183.96L584.383 1177.62L599.122 1182.73C603.808 1184.35 607.738 1184.02 610.913 1181.74C614.292 1179.35 617.145 1174.84 619.473 1168.19C622.277 1160.19 623.048 1154.36 621.786 1150.71C620.728 1146.95 618.082 1144.34 613.849 1142.87C610.07 1141.56 606.476 1141.42 603.067 1142.44C599.711 1143.31 597.504 1145.25 596.446 1148.27C596.076 1149.33 596.159 1150.54 596.696 1151.91C597.285 1153.13 598.079 1154.26 599.076 1155.28C601.865 1158.45 602.678 1161.69 601.514 1165.02C600.773 1167.13 599.129 1168.68 596.582 1169.66C594.239 1170.54 591.556 1170.45 588.532 1169.4C584.753 1168.09 581.904 1165.58 579.984 1161.87C578.215 1158.21 578.019 1154.41 579.394 1150.49C581.775 1143.69 586.654 1139.2 594.031 1137.02C601.408 1134.83 609.329 1135.21 617.795 1138.15C628.226 1141.76 635.924 1146.89 640.89 1153.52C646.007 1160.21 647.243 1167.32 644.597 1174.87C642.322 1181.37 637.878 1185.58 631.264 1187.52C624.802 1189.52 617.629 1189.91 609.745 1188.7L609.19 1190.28C616.839 1193.61 622.942 1198.69 627.5 1205.52C632.111 1212.2 633.252 1218.87 630.924 1225.51C627.75 1234.57 621.537 1240.2 612.285 1242.42C603.033 1244.63 592.134 1243.56 579.587 1239.21ZM649.768 1327.05L664.28 1332.08C665.64 1332.55 666.627 1332.64 667.239 1332.34C668.055 1331.95 668.701 1331.07 669.178 1329.71L675.368 1312.05L641.808 1300.41L644.11 1293.84L707.521 1244.96L724.301 1250.78L702.08 1314.2L717.952 1319.7L715.73 1326.04L699.857 1320.54L693.667 1338.21C693.191 1339.56 693.074 1340.62 693.316 1341.39C693.762 1342.05 694.665 1342.62 696.025 1343.09L706.002 1346.55L704.098 1351.98L647.863 1332.48L649.768 1327.05ZM652.647 1297.05L677.59 1305.7L690.923 1267.65L652.647 1297.05Z" fill="#7B9B9E"/>
<path d="M944.746 1134.3C935.633 1131.28 925.613 1122.91 914.687 1109.18C902.224 1114.15 890.904 1114.95 880.728 1111.58C874.349 1109.47 869.49 1106.34 866.152 1102.2C862.864 1097.91 862.236 1092.73 864.267 1086.66C865.486 1083.02 867.641 1080.11 870.732 1077.93C873.874 1075.6 877.319 1074.13 881.068 1073.52C884.968 1072.95 888.512 1073.2 891.702 1074.26C896.562 1075.87 900.992 1078.01 904.99 1080.68C908.988 1083.35 913.897 1087.09 919.717 1091.88C921.796 1088.69 923.471 1085.2 924.74 1081.41C927.737 1072.46 929.241 1061.66 929.252 1049.02C929.056 1042.05 929.366 1035.33 930.183 1028.85C926.943 1027.44 924.488 1026.46 922.817 1025.91C918.868 1024.6 915.627 1023.95 913.095 1023.95C910.715 1024.01 907.625 1024.42 903.826 1025.18L902.466 1017.14C905.405 1015.93 908.419 1015.24 911.508 1015.08C914.8 1014.83 918.724 1015.45 923.281 1016.96C925.104 1017.56 927.787 1018.62 931.33 1020.13C932.348 1014.57 933.695 1009.29 935.371 1004.28C939.231 992.748 945.063 983.64 952.869 976.956C960.877 970.17 969.844 966.061 979.772 964.63C989.75 963.048 999.827 963.942 1010 967.313C1018.05 969.979 1024.51 973.887 1029.36 979.035C1034.37 984.234 1037.56 989.84 1038.92 995.853C1040.33 1001.71 1040.23 1007.07 1038.6 1011.93C1036.93 1016.93 1033.68 1020.83 1028.87 1023.62C1024.05 1026.41 1019.29 1027.02 1014.58 1025.46C1011.24 1024.36 1008.51 1022.19 1006.39 1018.95C1004.26 1015.72 1003.78 1012.36 1004.95 1008.87C1005.97 1005.84 1007.36 1003.69 1009.14 1002.42C1010.96 1001 1013.32 999.76 1016.2 998.694C1018.58 997.629 1020.31 996.514 1021.37 995.35C1022.44 994.185 1023.27 992.693 1023.88 990.872C1024.75 988.293 1023.91 985.236 1021.39 981.701C1018.86 978.167 1014.4 975.343 1008.02 973.23C1000.28 970.664 993.337 972.495 987.203 978.722C981.272 984.847 976.555 993.145 973.051 1003.61C970.562 1011.05 967.589 1022.45 964.131 1037.82C968.737 1040.19 972.787 1041.96 976.28 1043.11C980.229 1044.42 983.47 1045.07 986.002 1045.07C988.737 1044.96 991.827 1044.55 995.271 1043.84L996.631 1051.88C990.956 1054.72 984.018 1054.78 975.816 1052.06C971.564 1050.65 967.058 1048.74 962.3 1046.32C960.47 1053.8 958.767 1059.9 957.193 1064.6C954.959 1071.28 951.458 1077.7 946.692 1083.88C942.128 1089.95 936.806 1095.27 930.724 1099.82C936.089 1103.46 941.227 1106.51 946.137 1108.97C951.25 1111.34 956.844 1113.53 962.919 1115.55C970.209 1117.96 977.755 1118.1 985.556 1115.96C993.509 1113.88 1000.6 1110.08 1006.84 1104.56L1011.69 1108.95C1003.53 1118.72 993.523 1126.44 981.667 1132.12C969.963 1137.85 957.656 1138.58 944.746 1134.3ZM882.556 1106.12C886.657 1107.48 891.012 1107.82 895.622 1107.16C900.433 1106.39 904.968 1104.69 909.224 1102.06C905.076 1096.81 901.257 1092.59 897.765 1089.41C894.426 1086.28 890.933 1084.12 887.288 1082.91C883.339 1081.6 879.794 1081.61 876.653 1082.92C873.512 1084.24 871.357 1086.65 870.189 1090.14C868.919 1093.93 869.6 1097.19 872.231 1099.92C875.014 1102.69 878.456 1104.76 882.556 1106.12Z" fill="#7B9B9E"/>
<path d="M494.604 851.347C489.456 849.59 485.79 846.478 483.607 842.014C481.423 837.549 481.219 832.745 482.993 827.602C484.767 822.46 487.893 818.793 492.372 816.603C496.852 814.413 501.665 814.197 506.813 815.954C511.962 817.712 515.627 820.823 517.811 825.288C519.994 829.753 520.199 834.557 518.425 839.699C516.651 844.842 513.524 848.508 509.045 850.698C504.566 852.889 499.752 853.105 494.604 851.347ZM380.957 865.804L385.966 851.283L580.388 917.66L575.378 932.18L380.957 865.804ZM454.218 968.417C449.07 966.659 445.404 963.548 443.221 959.083C441.037 954.619 440.833 949.815 442.607 944.672C444.381 939.53 447.507 935.863 451.987 933.673C456.466 931.483 461.279 931.266 466.428 933.024C471.576 934.782 475.242 937.893 477.425 942.358C479.608 946.823 479.813 951.626 478.039 956.769C476.265 961.911 473.138 965.578 468.659 967.768C464.18 969.958 459.366 970.175 454.218 968.417Z" fill="#7B9B9E"/>
<path d="M154.3 647.787C168.727 652.463 182.581 654.4 195.859 653.6C209.138 652.799 223.169 649.653 237.952 644.162L273.354 631.012L273.065 630.234C264.58 630.434 256.637 628.515 249.234 624.477C241.831 620.438 236.492 614.01 233.216 605.192C228.496 592.484 228.94 579.776 234.549 567.067C240.514 554.522 249.762 543.265 262.292 533.298C274.822 523.331 288.738 515.506 304.04 509.822C319.342 504.138 334.992 500.981 350.99 500.351C366.989 499.721 381.213 502.258 393.662 507.964C406.467 513.832 415.229 523.121 419.95 535.829C423.225 544.647 423.07 552.968 419.484 560.794C415.897 568.619 410.403 575.677 403 581.968L403.289 582.746L439.469 569.307C454.252 563.816 466.934 557.039 477.516 548.977C488.097 540.914 497.326 530.403 505.203 517.442L511.605 520.377C508.893 528.172 503.358 537.902 495 549.565C486.642 561.229 478.165 569.395 469.569 574.064C479.128 571.989 490.88 572.641 504.826 576.019C518.772 579.398 529.317 583.155 536.46 587.289L533.526 593.692C519.099 589.016 505.245 587.079 491.966 587.88C478.687 588.68 464.656 591.826 449.873 597.317L413.694 610.756L413.983 611.535C423.697 611.468 432.467 613.227 440.293 616.814C448.214 620.659 453.764 626.861 456.944 635.42C461.664 648.128 461.042 660.755 455.077 673.301C449.468 686.009 440.398 697.347 427.868 707.314C415.338 717.281 401.422 725.106 386.12 730.79C370.818 736.474 355.168 739.631 339.17 740.261C323.171 740.892 308.77 738.272 295.965 732.404C283.516 726.698 274.931 717.492 270.21 704.783C266.935 695.965 266.783 687.61 269.754 679.719C272.725 671.827 277.49 665.187 284.047 659.8L283.758 659.022L248.357 672.172C233.574 677.663 220.892 684.44 210.31 692.502C199.729 700.565 190.5 711.076 182.623 724.037L176.221 721.103C178.932 713.307 184.468 703.578 192.826 691.914C201.184 680.25 209.661 672.084 218.257 667.415C208.698 669.49 196.945 668.839 182.999 665.46C169.054 662.081 158.509 658.325 151.365 654.19L154.3 647.787ZM243.709 604.836C247.466 614.951 256.888 620.453 271.975 621.342C287.159 622.49 303.309 619.885 320.426 613.526L356.995 599.943C374.372 593.488 388.695 584.773 399.966 573.799C411.496 562.728 415.43 552.265 411.769 542.409C407.434 530.738 396.456 525.815 378.835 527.638C361.31 529.721 340.617 535.194 316.757 544.057C292.896 552.92 273.649 562.283 259.014 572.146C244.476 582.269 239.374 593.165 243.709 604.836ZM278.391 698.203C282.726 709.874 293.656 714.668 311.181 712.585C328.802 710.762 349.543 705.419 373.403 696.556C397.264 687.692 416.463 678.2 431.002 668.077C445.636 658.214 450.786 647.447 446.451 635.776C442.79 625.921 432.979 620.563 417.017 619.704C401.315 618.749 384.776 621.498 367.399 627.953L330.831 641.536C313.714 647.895 299.731 656.335 288.883 666.858C278.131 677.64 274.634 688.088 278.391 698.203Z" fill="#7B9B9E"/>
<path d="M175.851 700.888C150.07 712.031 126.068 723.662 103.844 735.782C77.1943 749.926 53.3576 761.445 32.3337 770.34C5.99785 781.375 -13.4403 777.612 -25.9808 759.052C-31.8032 750.434 -33.0213 741.844 -29.6352 733.28C-26.5804 724.941 -19.5843 717.076 -8.64684 709.686C-0.692301 704.312 11.759 699.519 28.7071 695.31C45.6552 691.1 67.8704 686.469 95.3527 681.417C127.045 675.452 149.87 670.651 163.826 667.014L280.805 638.665L288.867 650.597L175.851 700.888ZM377.415 599.459C383.461 608.408 385.682 617.769 384.079 627.541C381.92 637.207 376.366 645.063 367.417 651.109C358.468 657.155 349.273 659.265 339.832 657.437C329.835 655.502 321.813 650.06 315.767 641.111C309.721 632.162 307.777 622.855 309.936 613.19C311.54 603.417 316.816 595.507 325.765 589.461C334.714 583.415 344.186 581.359 354.183 583.294C363.625 585.122 371.368 590.51 377.415 599.459Z" fill="#7B9B9E"/>
</svg>
